<?xml version="1.0" encoding="UTF-8" standalone="no"?>
<!-- Created with Inkscape (http://www.inkscape.org/) -->

<svg
   width="5.5359902mm"
   height="4.4427953mm"
   viewBox="0 0 5.5359903 4.4427952"
   version="1.1"
   id="svg5637"
   sodipodi:docname="1.svg"
   inkscape:version="1.2.2 (b0a84865, 2022-12-01)"
   xmlns:inkscape="http://www.inkscape.org/namespaces/inkscape"
   xmlns:sodipodi="http://sodipodi.sourceforge.net/DTD/sodipodi-0.dtd"
   xmlns="http://www.w3.org/2000/svg"
   xmlns:svg="http://www.w3.org/2000/svg">
  <sodipodi:namedview
     id="namedview3748"
     pagecolor="#ffffff"
     bordercolor="#000000"
     borderopacity="0.25"
     inkscape:showpageshadow="2"
     inkscape:pageopacity="0.0"
     inkscape:pagecheckerboard="0"
     inkscape:deskcolor="#d1d1d1"
     inkscape:document-units="mm"
     showgrid="false"
     inkscape:zoom="14.05459"
     inkscape:cx="11.597635"
     inkscape:cy="4.6959747"
     inkscape:window-width="1309"
     inkscape:window-height="456"
     inkscape:window-x="0"
     inkscape:window-y="25"
     inkscape:window-maximized="0"
     inkscape:current-layer="svg5637" />
  <defs
     id="defs5634" />
  <g
     id="layer1"
     transform="rotate(-90,-118.9481,-131.78389)">
    <path
       fill-rule="nonzero"
       fill="#8b3f2c"
       fill-opacity="1"
       d="m -252.95738,-10.17026 c 0,0.3665584 -0.22049,0.573264 -0.41203,0.755165 -0.15021,0.1474502 -0.28388,0.2756077 -0.28388,0.458887 0,0.1185111 0.073,0.1639863 0.15158,0.1639863 0.0634,0 0.1323,-0.035829 0.15986,-0.09095 0.01,-0.01378 0.0275,-0.033073 0.0455,-0.033073 0.0138,0 0.0275,0.015159 0.0275,0.046853 0,0.1598525 -0.0965,0.2976563 -0.31144,0.2976563 0.0455,0.06339 0.0868,0.1226456 0.0868,0.1515844 0,0.017914 -0.0138,0.026183 -0.0358,0.026183 -0.15158,0 -0.27561,-0.1460722 -0.30317,-0.2659616 -0.022,0.092329 -0.0772,0.1474502 -0.10886,0.1474502 -0.0179,0 -0.0276,-0.01378 -0.0276,-0.037207 0,-0.3569119 0.1006,-0.5760197 0.47129,-0.9108831 0.0138,-0.01378 0.0413,-0.049609 -0.0179,-0.00964 -0.36243,0.2301324 -0.45751,0.3720704 -0.55398,0.6228732 -0.0413,0.1143773 -0.13366,0.068902 -0.15571,0.1198894 0,0.045475 0.0813,0.1047309 0.0813,0.1915474 0,0.1791448 -0.20946,0.1474498 -0.22324,0.1887912 -0.0193,0.1129989 0.16812,0.150206 0.16812,0.2962783 0,0.1929253 -0.20946,0.2163519 -0.20946,0.293522 0,0.078548 0.0909,0.2742297 0.31557,0.2742297 0.0868,0 0.13367,-0.049609 0.1695,-0.049609 0.0234,0 0.051,0.017914 0.051,0.059255 0,0.086817 -0.0827,0.173633 -0.22462,0.173633 -0.20671,0 -0.38861,-0.2328884 -0.38861,-0.4478624 0,-0.033073 0,-0.046853 -0.01,-0.046853 -0.01,0 -0.0193,0.023428 -0.0275,0.050988 -0.0413,0.151584 0,0.3748263 -0.1199,0.3748263 -0.0537,0 -0.0951,-0.031693 -0.0951,-0.090951 0,-0.041341 0.0868,-0.183279 0.12816,-0.2976562 0.004,-0.017914 0.008,-0.031694 0.008,-0.041341 0,-0.01378 -0.004,-0.017914 -0.008,-0.017914 -0.01,0 -0.0193,0.00827 -0.0331,0.022049 -0.0455,0.068902 -0.14607,0.1515844 -0.27836,0.1515844 -0.12816,0 -0.22876,-0.1005967 -0.22876,-0.1874132 0,-0.041341 0.0221,-0.064768 0.0675,-0.064768 0.0923,0 0.0648,0.141938 0.20257,0.141938 0.1006,0 0.17364,-0.073036 0.17364,-0.1226453 0,-0.050988 -0.091,-0.078548 -0.091,-0.2246203 0,-0.2067059 0.30179,-0.1515844 0.33349,-0.2659616 0,-0.059255 -0.0965,-0.1185112 -0.0965,-0.2149736 0,-0.022049 0.004,-0.045476 0.0179,-0.073036 0.0565,-0.1005967 0.18466,-0.045475 0.2067,-0.1185111 0.0179,-0.064768 -0.0276,-0.1061089 0,-0.1653646 0.12403,-0.2880103 0.48921,-0.5264108 0.7786,-0.6187394 0.0413,-0.01378 0.0592,-0.022049 0.0592,-0.031694 0,-0.00413 -0.004,-0.00413 -0.0179,-0.00413 -0.0138,0 -0.0331,0.00413 -0.0593,0.00827 -0.0923,0.023428 -0.17914,0.027559 -0.25218,0.027559 -0.073,0 -0.14194,-0.00413 -0.19292,-0.00413 -0.13781,0 -0.10474,0.2880099 -0.35278,0.2880099 -0.13643,0 -0.22876,-0.049609 -0.29766,-0.1681205 -0.008,-0.019293 -0.0138,-0.037207 -0.0138,-0.046853 0,-0.01378 0.01,-0.022049 0.0234,-0.022049 0.01,0 0.0276,0.00413 0.051,0.012404 0.0221,0.00965 0.0413,0.01378 0.0593,0.01378 0.0455,0 0.0827,-0.031693 0.11438,-0.095085 0.0138,-0.027559 0.0234,-0.078548 0.16949,-0.1281574 -0.20119,-0.1005967 -0.12815,-0.3389967 -0.22875,-0.3389967 -0.0648,0 -0.0868,0.03169 -0.0965,0.063389 -0.005,0.019293 -0.0179,0.027563 -0.0275,0.027563 -0.0179,0 -0.0358,-0.022049 -0.0358,-0.055122 0,-0.0124 0,-0.02756 0.008,-0.04547 0.0689,-0.159852 0.16537,-0.201193 0.28388,-0.201193 0.15158,0 0.25218,0.132292 0.28387,0.2742288 0.0689,-0.2053268 0.18328,-0.2370218 0.2384,-0.2370218 0.0551,0 0.0179,0.06752 0.0593,0.06752 0.16399,0 0.24253,0.04134 0.28388,0.147451 0.004,0.017914 0.01,0.027562 0.01,0.041341 0,0.017914 -0.01,0.027563 -0.0275,0.027563 -0.01,0 -0.0276,-0.00964 -0.0455,-0.023428 -0.0234,-0.017914 -0.0565,-0.037207 -0.0868,-0.037207 -0.0331,0 -0.0606,0.019293 -0.0785,0.082682 -0.0276,0.096462 -0.12402,0.050987 -0.19705,0.1378038 0.12402,0.068902 0.24253,0.096462 0.35277,0.096462 0.28388,0 0.49885,-0.2025713 0.49885,-0.4809348 0,-0.141938 -0.0551,-0.214974 -0.0965,-0.214974 -0.0827,0 -0.073,0.07304 -0.19292,0.07304 -0.0772,0 -0.12679,-0.0689 -0.12679,-0.137804 0,-0.07717 0.0551,-0.155718 0.17777,-0.155718 0.19706,0 0.35278,0.206706 0.35278,0.425813"
       id="path3430"
       style="fill:#000000;fill-opacity:1;stroke-width:0.352778" />
    <g
       fill="#8b3f2c"
       fill-opacity="1"
       id="g3434"
       transform="matrix(0.35277777,0,0,0.35277777,-336.5037,-27.220726)"
       style="fill:#000000;fill-opacity:1">
      <g
         id="use3432"
         transform="translate(230.6324,39.651199)"
         style="fill:#000000;fill-opacity:1">
        <path
           d="m 0.59375,2.5 c 0.195312,0.050781 0.566406,0.101562 1.109375,0.15625 0.539063,0.0625 1.1875,0.113281 1.9375,0.15625 0.75,0.039062 1.566406,0.070312 2.453125,0.09375 0.894531,0.03125 1.796875,0.046875 2.703125,0.046875 0.519531,0 0.972656,-0.015625 1.359375,-0.046875 C 10.539062,2.882812 10.828125,2.835938 11.015625,2.765625 10.941406,2.609375 10.84375,2.382812 10.71875,2.09375 10.601562,1.8125 10.492188,1.570312 10.390625,1.375 c 0,-0.054688 0.03906,-0.109375 0.125,-0.171875 C 10.597656,1.148438 10.6875,1.125 10.78125,1.125 c 0.03906,0 0.07813,0.00391 0.109375,0.015625 0.08203,0.238281 0.179687,0.554687 0.296875,0.953125 0.125,0.394531 0.257812,0.800781 0.40625,1.21875 0.144531,0.425781 0.289062,0.832031 0.4375,1.21875 0.15625,0.382812 0.3125,0.691406 0.46875,0.921875 -0.03125,0 -0.05469,0.00781 -0.0625,0.03125 0,0.019531 -0.02734,0.03125 -0.07813,0.03125 -0.105469,-0.0625 -0.324219,-0.125 -0.65625,-0.1875 C 11.378906,5.265625 10.988281,5.207031 10.53125,5.15625 10.070312,5.113281 9.566406,5.078125 9.015625,5.046875 8.472656,5.015625 7.929688,4.988281 7.390625,4.96875 6.847656,4.945312 6.332031,4.929688 5.84375,4.921875 5.363281,4.910156 4.953125,4.90625 4.609375,4.90625 c -0.386719,0 -0.765625,0 -1.140625,0 C 3.101562,4.914062 2.757812,4.929688 2.4375,4.953125 2.125,4.972656 1.835938,5 1.578125,5.03125 1.316406,5.070312 1.101562,5.125 0.9375,5.1875 0.84375,5.21875 0.757812,5.28125 0.6875,5.375 0.625,5.476562 0.5625,5.597656 0.5,5.734375 0.445312,5.867188 0.40625,6.007812 0.375,6.15625 0.34375,6.3125 0.328125,6.445312 0.328125,6.5625 0.328125,6.613281 0.300781,6.648438 0.25,6.671875 0.207031,6.703125 0.175781,6.71875 0.15625,6.71875 0.0390625,6.71875 -0.015625,6.671875 -0.015625,6.578125 -0.0234375,6.285156 -0.03125,5.984375 -0.03125,5.671875 -0.03125,5.359375 -0.0234375,5.050781 -0.015625,4.75 -0.015625,4.457031 -0.0078125,4.1875 0,3.9375 0,3.6875 0,3.476562 0,3.3125 0,2.957031 -0.0078125,2.597656 -0.03125,2.234375 -0.0507812,1.878906 -0.0703125,1.625 -0.09375,1.46875 c 0,-0.117188 0.0546875,-0.171875 0.15625,-0.171875 0.070312,0 0.117188,0.015625 0.140625,0.046875 0.03125,0.039062 0.050781,0.09375 0.0625,0.15625 0.03125,0.207031 0.070313,0.421875 0.125,0.640625 C 0.453125,2.367188 0.519531,2.488281 0.59375,2.5 Z m 0,0"
           id="path5685"
           style="fill:#000000;fill-opacity:1" />
      </g>
    </g>
    <g
       fill="#8b3f2c"
       fill-opacity="1"
       id="g3440"
       transform="matrix(0.35277777,0,0,0.35277777,-336.5037,-27.220726)"
       style="fill:#000000;fill-opacity:1">
      <g
         id="use3436"
         transform="translate(238.1774,46.804501)"
         style="fill:#000000;fill-opacity:1" />
      <g
         id="use3438"
         transform="translate(238.1774,51.015743)"
         style="fill:#000000;fill-opacity:1" />
    </g>
  </g>
</svg>
