<?xml version="1.0" encoding="UTF-8" standalone="no"?>
<!-- Created with Inkscape (http://www.inkscape.org/) -->

<svg
   width="7.6882768mm"
   height="5.2213483mm"
   viewBox="0 0 7.6882768 5.2213483"
   version="1.1"
   id="svg7523"
   sodipodi:docname="2.svg"
   inkscape:version="1.2.2 (b0a84865, 2022-12-01)"
   xmlns:inkscape="http://www.inkscape.org/namespaces/inkscape"
   xmlns:sodipodi="http://sodipodi.sourceforge.net/DTD/sodipodi-0.dtd"
   xmlns="http://www.w3.org/2000/svg"
   xmlns:svg="http://www.w3.org/2000/svg">
  <sodipodi:namedview
     id="namedview3906"
     pagecolor="#ffffff"
     bordercolor="#000000"
     borderopacity="0.25"
     inkscape:showpageshadow="2"
     inkscape:pageopacity="0.0"
     inkscape:pagecheckerboard="0"
     inkscape:deskcolor="#d1d1d1"
     inkscape:document-units="mm"
     showgrid="false"
     inkscape:zoom="11.958916"
     inkscape:cx="14.048096"
     inkscape:cy="6.0206125"
     inkscape:window-width="1309"
     inkscape:window-height="456"
     inkscape:window-x="0"
     inkscape:window-y="25"
     inkscape:window-maximized="0"
     inkscape:current-layer="svg7523" />
  <defs
     id="defs7520" />
  <g
     id="layer1"
     transform="rotate(-90,-93.360517,51.295343)">
    <path
       fill-rule="nonzero"
       fill="#8b3f2c"
       fill-opacity="1"
       d="m -44.968701,148.8293 c 0,0.36656 -0.220487,0.57327 -0.412034,0.75517 -0.151585,0.14745 -0.285253,0.2756 -0.285253,0.45888 0,0.11851 0.07304,0.16399 0.151585,0.16399 0.06477,0 0.133668,-0.0358 0.159851,-0.0909 0.0096,-0.0138 0.02755,-0.0331 0.04685,-0.0331 0.01242,0 0.02618,0.0152 0.02618,0.0469 0,0.15985 -0.09508,0.29766 -0.311435,0.29766 0.04685,0.0634 0.08819,0.12264 0.08819,0.15158 0,0.0179 -0.01517,0.0262 -0.03721,0.0262 -0.151585,0 -0.274229,-0.14607 -0.301791,-0.26596 -0.02342,0.0923 -0.07855,0.14745 -0.110243,0.14745 -0.01792,0 -0.02755,-0.0138 -0.02755,-0.0372 0,-0.35692 0.100594,-0.57602 0.471286,-0.91089 0.01517,-0.0138 0.04134,-0.0496 -0.01792,-0.01 -0.361043,0.23013 -0.457507,0.37207 -0.55397,0.62287 -0.04134,0.11576 -0.132292,0.0689 -0.15572,0.11989 0,0.0455 0.08268,0.10473 0.08268,0.19155 0,0.17914 -0.210841,0.14745 -0.224621,0.18879 -0.01792,0.113 0.1695,0.1502 0.1695,0.29628 0,0.19292 -0.210842,0.21635 -0.210842,0.29352 0,0.0785 0.09233,0.27423 0.315571,0.27423 0.08819,0 0.133671,-0.0496 0.170878,-0.0496 0.02205,0 0.04961,0.0179 0.04961,0.0592 0,0.0868 -0.08268,0.17364 -0.224617,0.17364 -0.205331,0 -0.38861,-0.23289 -0.38861,-0.44786 0,-0.0331 0,-0.0469 -0.0096,-0.0469 -0.0096,0 -0.01792,0.0234 -0.02755,0.051 -0.04134,0.15158 0,0.37483 -0.118508,0.37483 -0.05512,0 -0.09646,-0.0317 -0.09646,-0.091 0,-0.0413 0.08682,-0.18328 0.128157,-0.29766 0.0041,-0.0179 0.0096,-0.0317 0.0096,-0.0413 0,-0.0138 -0.0055,-0.0179 -0.0096,-0.0179 -0.0096,0 -0.01792,0.008 -0.03168,0.0221 -0.04548,0.0689 -0.147451,0.15159 -0.279742,0.15159 -0.128157,0 -0.228755,-0.1006 -0.228755,-0.18742 0,-0.0413 0.02342,-0.0634 0.0689,-0.0634 0.09095,0 0.06339,0.14056 0.201196,0.14056 0.100594,0 0.17363,-0.073 0.17363,-0.12264 0,-0.051 -0.09095,-0.0786 -0.09095,-0.22462 0,-0.20671 0.301791,-0.15159 0.333485,-0.26596 0,-0.0593 -0.09508,-0.11851 -0.09508,-0.21498 0,-0.0234 0.0041,-0.0455 0.01792,-0.073 0.05512,-0.1006 0.183278,-0.0455 0.205327,-0.11851 0.0193,-0.0648 -0.02618,-0.10611 0,-0.16537 0.124026,-0.28801 0.490583,-0.52641 0.778594,-0.61874 0.04134,-0.0124 0.05925,-0.0221 0.05925,-0.0317 0,-0.004 -0.0041,-0.004 -0.01792,-0.004 -0.01379,0 -0.03168,0.004 -0.05926,0.01 -0.09233,0.0221 -0.179144,0.0262 -0.25218,0.0262 -0.07303,0 -0.141936,-0.004 -0.191548,-0.004 -0.137802,0 -0.106108,0.28801 -0.352777,0.28801 -0.137802,0 -0.228756,-0.0496 -0.297657,-0.1695 -0.0096,-0.0179 -0.01379,-0.0358 -0.01379,-0.0455 0,-0.0138 0.0096,-0.022 0.02205,-0.022 0.0096,0 0.02893,0.004 0.05099,0.0124 0.02342,0.01 0.04134,0.0138 0.05926,0.0138 0.04548,0 0.08268,-0.0317 0.114378,-0.0951 0.01379,-0.0276 0.02342,-0.0786 0.169499,-0.12815 -0.201196,-0.1006 -0.128157,-0.339 -0.228755,-0.339 -0.06339,0 -0.08681,0.0317 -0.09646,0.0634 -0.0041,0.0193 -0.01792,0.0276 -0.02755,0.0276 -0.01792,0 -0.03583,-0.022 -0.03583,-0.0537 0,-0.0138 0,-0.0289 0.0083,-0.0469 0.0689,-0.15985 0.165364,-0.20119 0.285256,-0.20119 0.150206,0 0.2508,0.13229 0.282497,0.27423 0.0689,-0.20533 0.183279,-0.23702 0.238401,-0.23702 0.05512,0 0.01792,0.0675 0.05926,0.0675 0.165364,0 0.24391,0.0413 0.283873,0.14745 0.0055,0.0179 0.0096,0.0276 0.0096,0.0413 0,0.0179 -0.0096,0.0276 -0.02755,0.0276 -0.0083,0 -0.02755,-0.01 -0.04547,-0.0234 -0.02342,-0.0179 -0.05512,-0.0358 -0.08682,-0.0358 -0.03305,0 -0.05926,0.0179 -0.07855,0.0813 -0.02755,0.0965 -0.122647,0.051 -0.195682,0.1378 0.122647,0.0689 0.241155,0.0965 0.351398,0.0965 0.283877,0 0.498853,-0.20258 0.498853,-0.48094 0,-0.14194 -0.05375,-0.21497 -0.09509,-0.21497 -0.08268,0 -0.07441,0.073 -0.192924,0.073 -0.07717,0 -0.128157,-0.0689 -0.128157,-0.1378 0,-0.0772 0.05512,-0.15572 0.179144,-0.15572 0.195683,0 0.352778,0.20671 0.352778,0.42581"
       id="path3418"
       style="fill:#000000;fill-opacity:1;stroke-width:0.352778" />
    <g
       fill="#8b3f2c"
       fill-opacity="1"
       id="g3422"
       transform="matrix(0.35277777,0,0,0.35277777,-87.235888,131.71958)"
       style="fill:#000000;fill-opacity:1">
      <g
         id="use3420"
         transform="translate(113.6173,36.185398)"
         style="fill:#000000;fill-opacity:1">
        <path
           d="m -0.375,9.515625 c 0.03125,-0.125 0.0625,-0.335937 0.09375,-0.625 C -0.25,8.597656 -0.21875,8.253906 -0.1875,7.859375 -0.15625,7.460938 -0.117188,7.035156 -0.078125,6.578125 -0.046875,6.117188 -0.0195312,5.65625 0,5.1875 0.0078125,4.726562 0.0195312,4.28125 0.03125,3.84375 0.0507812,3.414062 0.0625,3.035156 0.0625,2.703125 0.0625,2.390625 0.0507812,2.128906 0.03125,1.921875 0.0195312,1.722656 0.0078125,1.550781 0,1.40625 -0.0078125,1.257812 -0.0234375,1.132812 -0.046875,1.03125 -0.0664062,0.925781 -0.0820312,0.8125 -0.09375,0.6875 c 0,-0.011719 0.0117188,-0.039062 0.03125,-0.078125 0.0234375,-0.042969 0.0429688,-0.0625 0.0625,-0.0625 0.0390625,0 0.0820312,-0.011719 0.125,-0.03125 0.050781,-0.011719 0.097656,-0.023437 0.140625,-0.03125 0.050781,0 0.101563,0.015625 0.15625,0.046875 0.050781,0.039062 0.109375,0.117188 0.171875,0.234375 0.238281,0.3125 0.53125,0.691406 0.875,1.140625 0.34375,0.445312 0.71875,0.90625 1.125,1.375 0.414062,0.46875 0.847656,0.9375 1.296875,1.40625 0.457031,0.476562 0.914063,0.898438 1.375,1.265625 0.46875,0.363281 0.925781,0.660156 1.375,0.890625 0.457031,0.226562 0.890625,0.351562 1.296875,0.375 0.425781,0 0.84375,-0.058594 1.25,-0.171875 C 9.601562,6.941406 9.960938,6.78125 10.265625,6.5625 c 0.3125,-0.21875 0.5625,-0.492188 0.75,-0.8125 0.1875,-0.3125 0.28125,-0.679688 0.28125,-1.09375 0,-0.367188 -0.08594,-0.703125 -0.25,-1.015625 C 10.878906,3.335938 10.675781,3.070312 10.4375,2.84375 10.195312,2.625 9.929688,2.453125 9.640625,2.328125 c -0.292969,-0.125 -0.5625,-0.1875 -0.8125,-0.1875 -0.0625,0 -0.109375,-0.011719 -0.140625,-0.03125 C 8.65625,2.097656 8.640625,2.0625 8.640625,2 8.640625,1.9375 8.675781,1.859375 8.75,1.765625 8.820312,1.671875 8.910156,1.582031 9.015625,1.5 9.117188,1.414062 9.234375,1.34375 9.359375,1.28125 9.492188,1.21875 9.625,1.1875 9.75,1.1875 c 0.363281,0 0.675781,0.164062 0.9375,0.5 0.257812,0.332031 0.550781,0.828125 0.875,1.484375 0.25,0.539063 0.457031,1.109375 0.625,1.703125 0.164062,0.601562 0.25,1.132812 0.25,1.59375 0,0.40625 -0.07813,0.78125 -0.234375,1.125 -0.15625,0.351562 -0.386719,0.660156 -0.6875,0.921875 -0.292969,0.257813 -0.648437,0.460937 -1.0625,0.609375 -0.40625,0.144531 -0.867187,0.21875 -1.375,0.21875 C 8.617188,9.34375 8.15625,9.234375 7.6875,9.015625 7.21875,8.796875 6.742188,8.503906 6.265625,8.140625 5.785156,7.773438 5.316406,7.363281 4.859375,6.90625 4.398438,6.445312 3.960938,5.976562 3.546875,5.5 3.140625,5.019531 2.753906,4.554688 2.390625,4.109375 2.023438,3.671875 1.707031,3.28125 1.4375,2.9375 1.382812,3.0625 1.316406,3.378906 1.234375,3.890625 1.160156,4.398438 1.125,5.054688 1.125,5.859375 c 0,0.488281 0.00391,0.960937 0.015625,1.421875 0.00781,0.457031 0.054687,0.878906 0.140625,1.265625 0.082031,0.382813 0.222656,0.710937 0.421875,0.984375 0.207031,0.28125 0.503906,0.5 0.890625,0.65625 0.00781,0.0078 0.019531,0.03516 0.03125,0.07813 0.019531,0.03906 0.019531,0.07813 0,0.109375 -0.023438,0.03906 -0.058594,0.07031 -0.109375,0.09375 C 2.460938,10.5 2.394531,10.5 2.3125,10.46875 2.1875,10.414062 2.023438,10.363281 1.828125,10.3125 1.628906,10.26953 1.421875,10.22266 1.203125,10.171875 0.984375,10.128905 0.765625,10.082035 0.546875,10.03125 0.335938,9.976562 0.15625,9.925781 0,9.875 -0.25,9.8125 -0.375,9.691406 -0.375,9.515625 Z m 0,0"
           id="path7571"
           style="fill:#000000;fill-opacity:1" />
      </g>
    </g>
    <g
       fill="#8b3f2c"
       fill-opacity="1"
       id="g3428"
       transform="matrix(0.35277777,0,0,0.35277777,-87.235888,131.71958)"
       style="fill:#000000;fill-opacity:1">
      <g
         id="use3424"
         transform="translate(121.1642,46.698002)"
         style="fill:#000000;fill-opacity:1" />
      <g
         id="use3426"
         transform="translate(121.1642,52.346127)"
         style="fill:#000000;fill-opacity:1" />
    </g>
  </g>
</svg>
