<?xml version="1.0" encoding="UTF-8" standalone="no"?>
<!-- Created with Inkscape (http://www.inkscape.org/) -->

<svg
   width="6.89394mm"
   height="5.2104654mm"
   viewBox="0 0 6.8939399 5.2104655"
   version="1.1"
   id="svg9201"
   sodipodi:docname="3.svg"
   inkscape:version="1.2.2 (b0a84865, 2022-12-01)"
   xmlns:inkscape="http://www.inkscape.org/namespaces/inkscape"
   xmlns:sodipodi="http://sodipodi.sourceforge.net/DTD/sodipodi-0.dtd"
   xmlns="http://www.w3.org/2000/svg"
   xmlns:svg="http://www.w3.org/2000/svg">
  <sodipodi:namedview
     id="namedview4064"
     pagecolor="#ffffff"
     bordercolor="#000000"
     borderopacity="0.25"
     inkscape:showpageshadow="2"
     inkscape:pageopacity="0.0"
     inkscape:pagecheckerboard="0"
     inkscape:deskcolor="#d1d1d1"
     inkscape:document-units="mm"
     showgrid="false"
     inkscape:zoom="11.983894"
     inkscape:cx="10.514111"
     inkscape:cy="9.3458769"
     inkscape:window-width="1309"
     inkscape:window-height="456"
     inkscape:window-x="0"
     inkscape:window-y="25"
     inkscape:window-maximized="0"
     inkscape:current-layer="svg9201" />
  <defs
     id="defs9198" />
  <g
     id="layer1"
     transform="rotate(-90,-5.1539832,83.267691)">
    <path
       fill-rule="nonzero"
       fill="#8b3f2c"
       fill-opacity="1"
       d="m 75.210371,92.374629 c 0,0.366558 -0.220486,0.573264 -0.412034,0.755165 -0.151584,0.14745 -0.285253,0.275607 -0.285253,0.458886 0,0.118512 0.07303,0.163987 0.151584,0.163987 0.06477,0 0.133669,-0.03583 0.159852,-0.09095 0.0096,-0.01378 0.02756,-0.03307 0.04685,-0.03307 0.0124,0 0.02618,0.01516 0.02618,0.04685 0,0.159852 -0.09509,0.297656 -0.311437,0.297656 0.04685,0.06339 0.08819,0.122645 0.08819,0.151584 0,0.01792 -0.01516,0.02618 -0.03721,0.02618 -0.151584,0 -0.274229,-0.146072 -0.303168,-0.265962 -0.02205,0.09233 -0.07717,0.147451 -0.108865,0.147451 -0.01791,0 -0.02756,-0.01378 -0.02756,-0.03721 0,-0.356912 0.100597,-0.576019 0.47129,-0.910883 0.01516,-0.01378 0.04134,-0.04961 -0.01791,-0.0096 -0.361046,0.230133 -0.457509,0.37207 -0.553972,0.622874 -0.04134,0.115755 -0.132291,0.0689 -0.155718,0.119889 0,0.04547 0.08268,0.104731 0.08268,0.191547 0,0.179145 -0.21084,0.14745 -0.22462,0.188792 -0.01791,0.112998 0.169499,0.150206 0.169499,0.296277 0,0.192926 -0.21084,0.216353 -0.21084,0.293523 0,0.07855 0.09095,0.27423 0.315571,0.27423 0.08819,0 0.13367,-0.04961 0.170876,-0.04961 0.02205,0 0.04961,0.01791 0.04961,0.05926 0,0.08682 -0.08268,0.173633 -0.22462,0.173633 -0.205328,0 -0.388607,-0.232889 -0.388607,-0.447863 0,-0.03307 0,-0.04685 -0.0096,-0.04685 -0.0096,0 -0.01791,0.02343 -0.02756,0.05099 -0.04134,0.151584 0,0.374826 -0.118512,0.374826 -0.05512,0 -0.09646,-0.03169 -0.09646,-0.09095 0,-0.04134 0.08682,-0.183279 0.128158,-0.297656 0.0041,-0.01791 0.0096,-0.03169 0.0096,-0.04134 0,-0.01378 -0.0055,-0.01792 -0.0096,-0.01792 -0.0096,0 -0.01791,0.0083 -0.03169,0.02205 -0.04548,0.0689 -0.14745,0.151584 -0.279742,0.151584 -0.128158,0 -0.228754,-0.100597 -0.228754,-0.187413 0,-0.04134 0.02343,-0.06339 0.0689,-0.06339 0.09095,0 0.06339,0.14056 0.201194,0.14056 0.100597,0 0.173633,-0.07304 0.173633,-0.122645 0,-0.05099 -0.09095,-0.07855 -0.09095,-0.22462 0,-0.206706 0.30179,-0.151585 0.333485,-0.265962 0,-0.05926 -0.09508,-0.118511 -0.09508,-0.214974 0,-0.02205 0.0041,-0.04547 0.01791,-0.07304 0.05512,-0.100596 0.183279,-0.04547 0.205328,-0.118511 0.01791,-0.06477 -0.02618,-0.106109 0,-0.165364 0.124023,-0.288011 0.490581,-0.526411 0.778592,-0.61874 0.04134,-0.0124 0.05926,-0.02205 0.05926,-0.03169 0,-0.0041 -0.0041,-0.0041 -0.01791,-0.0041 -0.01378,0 -0.03169,0.0041 -0.05926,0.0096 -0.09233,0.02205 -0.179145,0.02618 -0.252181,0.02618 -0.07304,0 -0.141938,-0.0041 -0.191548,-0.0041 -0.137803,0 -0.106108,0.28801 -0.352777,0.28801 -0.137804,0 -0.228755,-0.04961 -0.299035,-0.168121 -0.0083,-0.01929 -0.0124,-0.03721 -0.0124,-0.04685 0,-0.01378 0.0096,-0.02205 0.02205,-0.02205 0.0096,0 0.02894,0.0041 0.05099,0.0124 0.02343,0.0096 0.04134,0.01378 0.05925,0.01378 0.04548,0 0.08268,-0.03169 0.114378,-0.09508 0.01378,-0.02756 0.02343,-0.07855 0.169498,-0.128158 -0.201193,-0.100596 -0.128157,-0.338997 -0.228754,-0.338997 -0.06339,0 -0.08682,0.03169 -0.09646,0.06339 -0.0041,0.01929 -0.01791,0.02756 -0.02756,0.02756 -0.01791,0 -0.03583,-0.02205 -0.03583,-0.05374 0,-0.01378 0,-0.02894 0.0083,-0.04685 0.0689,-0.159853 0.165365,-0.201194 0.285254,-0.201194 0.150206,0 0.250803,0.132292 0.282498,0.27423 0.0689,-0.205328 0.183279,-0.237023 0.2384,-0.237023 0.05512,0 0.01791,0.06752 0.05926,0.06752 0.165365,0 0.243913,0.04134 0.283876,0.14745 0.0055,0.01791 0.0096,0.02756 0.0096,0.04134 0,0.01791 -0.0096,0.02756 -0.02756,0.02756 -0.0083,0 -0.02756,-0.0096 -0.04548,-0.02343 -0.02343,-0.01791 -0.05512,-0.03583 -0.08682,-0.03583 -0.03307,0 -0.05926,0.01791 -0.07855,0.0813 -0.02756,0.09646 -0.122645,0.05099 -0.195682,0.137804 0.122646,0.0689 0.241157,0.09646 0.3514,0.09646 0.283876,0 0.49885,-0.202572 0.49885,-0.480935 0,-0.141938 -0.05512,-0.214974 -0.09508,-0.214974 -0.08268,0 -0.07442,0.07304 -0.192926,0.07304 -0.07717,0 -0.128158,-0.0689 -0.128158,-0.137804 0,-0.07717 0.05512,-0.155718 0.179146,-0.155718 0.195681,0 0.352777,0.206705 0.352777,0.425814"
       id="path3406"
       style="fill:#000000;fill-opacity:1;stroke-width:0.352778" />
    <g
       fill="#8b3f2c"
       fill-opacity="1"
       id="g3410"
       transform="matrix(0.35277777,0,0,0.35277777,41.091524,75.264907)"
       style="fill:#000000;fill-opacity:1">
      <g
         id="use3408"
         transform="translate(90.5187,36.185398)"
         style="fill:#000000;fill-opacity:1">
        <path
           d="M 7.25,5.546875 C 7.25,5.941406 7.203125,6.351562 7.109375,6.78125 7.015625,7.21875 6.851562,7.613281 6.625,7.96875 6.394531,8.332031 6.082031,8.628906 5.6875,8.859375 5.289062,9.085938 4.785156,9.203125 4.171875,9.203125 3.796875,9.203125 3.4375,9.125 3.09375,8.96875 2.757812,8.8125 2.445312,8.613281 2.15625,8.375 1.875,8.132812 1.609375,7.859375 1.359375,7.546875 1.109375,7.234375 0.890625,6.914062 0.703125,6.59375 0.367188,6.03125 0.113281,5.476562 -0.0625,4.9375 -0.25,4.40625 -0.34375,3.910156 -0.34375,3.453125 c 0,-0.6875 0.058594,-1.234375 0.171875,-1.640625 0.1171875,-0.398438 0.2578125,-0.59375 0.4375,-0.59375 0.164063,0 0.351563,0.00781 0.5625,0.03125 0.207031,0.019531 0.410156,0.039062 0.609375,0.0625 0.207031,0.03125 0.398438,0.054688 0.578125,0.078125 0.1875,0.03125 0.335937,0.050781 0.453125,0.0625 0.101562,0.00781 0.171875,0.035156 0.203125,0.078125 0.039063,0.050781 0.050781,0.097656 0.03125,0.140625 C 2.691406,1.710938 2.660156,1.75 2.609375,1.78125 2.554688,1.820312 2.507812,1.84375 2.46875,1.84375 c -0.199219,0 -0.390625,0.066406 -0.578125,0.203125 -0.1875,0.144531 -0.367187,0.347656 -0.53125,0.609375 -0.167969,0.257812 -0.304687,0.570312 -0.40625,0.9375 -0.105469,0.375 -0.15625,0.789062 -0.15625,1.25 0,0.320312 0.066406,0.601562 0.203125,0.84375 0.132812,0.25 0.316406,0.457031 0.546875,0.625 0.226563,0.164062 0.5,0.289062 0.8125,0.375 0.3125,0.09375 0.644531,0.144531 1,0.15625 0.46875,0 0.894531,-0.078125 1.28125,-0.234375 C 5.035156,6.460938 5.367188,6.257812 5.640625,6 5.921875,5.738281 6.132812,5.429688 6.28125,5.078125 6.425781,4.722656 6.5,4.332031 6.5,3.90625 6.5,3.832031 6.488281,3.722656 6.46875,3.578125 6.457031,3.441406 6.4375,3.296875 6.40625,3.140625 6.375,2.992188 6.347656,2.859375 6.328125,2.734375 6.304688,2.617188 6.296875,2.546875 6.296875,2.515625 c 0,-0.167969 0.144531,-0.25 0.4375,-0.25 0.050781,0 0.085937,0.019531 0.109375,0.0625 0.019531,0.039063 0.039062,0.070313 0.0625,0.09375 0,0.363281 0.015625,0.742187 0.046875,1.140625 0.03125,0.40625 0.125,0.773438 0.28125,1.109375 0.070313,0.164063 0.191406,0.320313 0.359375,0.46875 0.175781,0.144531 0.375,0.269531 0.59375,0.375 0.21875,0.113281 0.453125,0.203125 0.703125,0.265625 0.25,0.070312 0.503906,0.109375 0.765625,0.109375 0.632812,0 1.140625,-0.152344 1.515625,-0.453125 0.375,-0.292969 0.5625,-0.703125 0.5625,-1.234375 0,-0.273437 -0.05859,-0.539063 -0.171875,-0.796875 -0.117188,-0.25 -0.273438,-0.480469 -0.46875,-0.6875 C 10.90625,2.519531 10.695312,2.359375 10.46875,2.234375 10.238281,2.117188 10.007812,2.0625 9.78125,2.0625 9.71875,2.050781 9.660156,2.007812 9.609375,1.9375 9.554688,1.863281 9.566406,1.796875 9.640625,1.734375 c 0.0625,-0.085937 0.195313,-0.210937 0.40625,-0.375 0.21875,-0.167969 0.503906,-0.25 0.859375,-0.25 0.1875,0 0.367188,0.097656 0.546875,0.296875 0.175781,0.195312 0.335937,0.472656 0.484375,0.828125 0.144531,0.363281 0.257812,0.804687 0.34375,1.328125 0.09375,0.519531 0.140625,1.097656 0.140625,1.734375 0,0.320313 -0.03906,0.644531 -0.109375,0.96875 -0.07422,0.320313 -0.195312,0.613281 -0.359375,0.875 -0.15625,0.257813 -0.375,0.46875 -0.65625,0.625 -0.273437,0.164063 -0.605469,0.25 -1,0.25 C 9.941406,8.015625 9.613281,7.9375 9.3125,7.78125 9.019531,7.632812 8.75,7.4375 8.5,7.1875 8.25,6.945312 8.023438,6.679688 7.828125,6.390625 c -0.199219,-0.28125 -0.367187,-0.5625 -0.5,-0.84375 z m 0,0"
           id="path9249"
           style="fill:#000000;fill-opacity:1" />
      </g>
    </g>
    <g
       fill="#8b3f2c"
       fill-opacity="1"
       id="g3416"
       transform="matrix(0.35277777,0,0,0.35277777,41.091524,75.264907)"
       style="fill:#000000;fill-opacity:1">
      <g
         id="use3412"
         transform="translate(98.066002,46.698002)"
         style="fill:#000000;fill-opacity:1" />
      <g
         id="use3414"
         transform="translate(98.066002,50.719463)"
         style="fill:#000000;fill-opacity:1" />
    </g>
  </g>
</svg>
