<?xml version="1.0" encoding="UTF-8" standalone="no"?>
<!-- Created with Inkscape (http://www.inkscape.org/) -->

<svg
   width="7.2702174mm"
   height="5.1607165mm"
   viewBox="0 0 7.2702174 5.1607165"
   version="1.1"
   id="svg10879"
   sodipodi:docname="4.svg"
   inkscape:version="1.2.2 (b0a84865, 2022-12-01)"
   xmlns:inkscape="http://www.inkscape.org/namespaces/inkscape"
   xmlns:sodipodi="http://sodipodi.sourceforge.net/DTD/sodipodi-0.dtd"
   xmlns="http://www.w3.org/2000/svg"
   xmlns:svg="http://www.w3.org/2000/svg">
  <sodipodi:namedview
     id="namedview4222"
     pagecolor="#ffffff"
     bordercolor="#000000"
     borderopacity="0.25"
     inkscape:showpageshadow="2"
     inkscape:pageopacity="0.0"
     inkscape:pagecheckerboard="0"
     inkscape:deskcolor="#d1d1d1"
     inkscape:document-units="mm"
     showgrid="false"
     inkscape:zoom="12.099418"
     inkscape:cx="11.24021"
     inkscape:cy="9.5045894"
     inkscape:window-width="1309"
     inkscape:window-height="456"
     inkscape:window-x="0"
     inkscape:window-y="25"
     inkscape:window-maximized="0"
     inkscape:current-layer="svg10879" />
  <defs
     id="defs10876" />
  <g
     id="layer1"
     transform="rotate(-90,-93.480271,51.384782)">
    <path
       fill-rule="nonzero"
       fill="#8b3f2c"
       fill-opacity="1"
       d="m -45.01072,149.26449 c 0,0.36656 -0.220486,0.57327 -0.412033,0.75654 -0.151584,0.14608 -0.283876,0.27423 -0.283876,0.45751 0,0.11851 0.07304,0.16399 0.151584,0.16399 0.06339,0 0.132292,-0.0358 0.159853,-0.0909 0.0096,-0.0138 0.02756,-0.0331 0.04548,-0.0331 0.01378,0 0.02756,0.0152 0.02756,0.0469 0,0.15985 -0.09646,0.29766 -0.311437,0.29766 0.04548,0.0634 0.08682,0.12264 0.08682,0.15158 0,0.0179 -0.01378,0.0262 -0.03721,0.0262 -0.150206,0 -0.274229,-0.14607 -0.30179,-0.26458 -0.02205,0.091 -0.07717,0.14607 -0.108865,0.14607 -0.01929,0 -0.02756,-0.0138 -0.02756,-0.0372 0,-0.35692 0.100596,-0.57602 0.471289,-0.91089 0.01378,-0.0138 0.04134,-0.0496 -0.01791,-0.008 -0.362424,0.22876 -0.458886,0.3707 -0.553971,0.6215 -0.04134,0.11575 -0.13367,0.0689 -0.157096,0.11989 0,0.0455 0.08268,0.10473 0.08268,0.19154 0,0.17915 -0.209462,0.14746 -0.223242,0.1888 -0.01929,0.11437 0.168121,0.1502 0.168121,0.29627 0,0.19293 -0.209462,0.21636 -0.209462,0.29353 0,0.0785 0.09095,0.27423 0.31557,0.27423 0.08682,0 0.132292,-0.0496 0.169499,-0.0496 0.02343,0 0.04961,0.0179 0.04961,0.0592 0,0.0882 -0.08131,0.17364 -0.223243,0.17364 -0.206705,0 -0.388606,-0.23289 -0.388606,-0.44787 0,-0.0317 0,-0.0455 -0.0096,-0.0455 -0.0096,0 -0.01929,0.0221 -0.02756,0.0496 -0.04134,0.15158 0,0.3762 -0.119889,0.3762 -0.05512,0 -0.09508,-0.0317 -0.09508,-0.0909 0,-0.0427 0.08682,-0.18466 0.128158,-0.29903 0.0041,-0.0179 0.0083,-0.0317 0.0083,-0.0413 0,-0.0124 -0.0041,-0.0179 -0.0083,-0.0179 -0.0096,0 -0.01929,0.01 -0.03307,0.0234 -0.04547,0.0675 -0.146072,0.15021 -0.278364,0.15021 -0.128157,0 -0.230132,-0.1006 -0.230132,-0.18742 0,-0.0413 0.02343,-0.0634 0.0689,-0.0634 0.09233,0 0.06477,0.14194 0.202571,0.14194 0.100597,0 0.173633,-0.073 0.173633,-0.12402 0,-0.051 -0.09233,-0.0786 -0.09233,-0.22462 0,-0.20533 0.303169,-0.15159 0.334864,-0.26596 0,-0.0593 -0.09646,-0.11852 -0.09646,-0.21498 0,-0.0221 0.0041,-0.0455 0.01791,-0.073 0.0565,-0.1006 0.183279,-0.0455 0.206706,-0.11852 0.01791,-0.0648 -0.02756,-0.1061 0,-0.16536 0.124023,-0.28801 0.489203,-0.52641 0.778591,-0.61874 0.04134,-0.0124 0.05926,-0.0221 0.05926,-0.0317 0,-0.004 -0.0041,-0.004 -0.01791,-0.004 -0.01516,0 -0.03307,0.004 -0.06063,0.01 -0.09095,0.0234 -0.177767,0.0262 -0.252181,0.0262 -0.07166,0 -0.14056,-0.003 -0.191547,-0.003 -0.137804,0 -0.104731,0.28663 -0.352778,0.28663 -0.136426,0 -0.228754,-0.0496 -0.297656,-0.16812 -0.0096,-0.0193 -0.01378,-0.0372 -0.01378,-0.0455 0,-0.0138 0.0096,-0.0234 0.02343,-0.0234 0.0096,0 0.02756,0.004 0.05099,0.0138 0.02205,0.01 0.04134,0.0138 0.05926,0.0138 0.04547,0 0.08268,-0.0331 0.114377,-0.0965 0.01378,-0.0276 0.02205,-0.0786 0.169499,-0.12815 -0.201194,-0.1006 -0.128158,-0.339 -0.228754,-0.339 -0.06477,0 -0.08819,0.0317 -0.09646,0.0648 -0.0055,0.0179 -0.01791,0.0262 -0.02756,0.0262 -0.01929,0 -0.03721,-0.022 -0.03721,-0.0537 0,-0.0138 0,-0.0289 0.0096,-0.0469 0.0689,-0.15985 0.165365,-0.20119 0.283876,-0.20119 0.151585,0 0.252181,0.13229 0.283876,0.27561 0.0689,-0.20671 0.183279,-0.2384 0.237023,-0.2384 0.05512,0 0.01929,0.0675 0.06063,0.0675 0.163987,0 0.242535,0.0413 0.283876,0.14745 0.0041,0.0193 0.0083,0.0276 0.0083,0.0413 0,0.0179 -0.0083,0.0276 -0.02618,0.0276 -0.0096,0 -0.02756,-0.01 -0.04547,-0.0234 -0.02343,-0.0179 -0.0565,-0.0358 -0.08819,-0.0358 -0.03169,0 -0.05926,0.0179 -0.07717,0.0827 -0.02756,0.0951 -0.124023,0.0496 -0.197059,0.13642 0.122645,0.0689 0.242534,0.0965 0.352778,0.0965 0.283876,0 0.498849,-0.20119 0.498849,-0.48093 0,-0.14194 -0.05512,-0.21498 -0.09646,-0.21498 -0.08268,0 -0.07304,0.073 -0.192926,0.073 -0.07717,0 -0.128157,-0.0689 -0.128157,-0.1378 0,-0.0772 0.05512,-0.15572 0.179145,-0.15572 0.197059,0 0.352777,0.2067 0.352777,0.42581"
       id="path3442"
       style="fill:#000000;fill-opacity:1;stroke-width:0.352778" />
    <g
       fill="#8b3f2c"
       fill-opacity="1"
       id="g3446"
       transform="matrix(0.35277777,0,0,0.35277777,-67.562314,132.15477)"
       style="fill:#000000;fill-opacity:1">
      <g
         id="use3444"
         transform="translate(57.732498,36.185398)"
         style="fill:#000000;fill-opacity:1">
        <path
           d="m 2.953125,8.296875 c -0.179687,0 -0.390625,0 -0.640625,0 C 2.070312,8.304688 1.832031,8.320312 1.59375,8.34375 1.351562,8.363281 1.128906,8.390625 0.921875,8.421875 0.710938,8.460938 0.554688,8.515625 0.453125,8.578125 0.421875,8.597656 0.394531,8.640625 0.375,8.703125 0.351562,8.773438 0.34375,8.851562 0.34375,8.9375 c 0,0.082031 0,0.171875 0,0.265625 0,0.09375 0,0.171875 0,0.234375 -0.011719,0.164062 -0.09375,0.25 -0.25,0.25 -0.0546875,0 -0.08984375,-0.00781 -0.109375,-0.015625 -0.03125,-0.011719 -0.0546875,-0.023437 -0.078125,-0.03125 0.0117188,-0.09375 0.0273438,-0.25 0.046875,-0.46875 0.0117188,-0.210937 0.0234375,-0.4375 0.03125,-0.6875 0,-0.25 0.0078125,-0.507813 0.015625,-0.765625 0,-0.25 0,-0.460938 0,-0.625 0,-0.449219 -0.0234375,-0.839844 -0.078125,-1.171875 -0.050781,-0.335937 -0.082031,-0.574219 -0.09375,-0.71875 0.023437,-0.0625 0.0742188,-0.09375 0.15625,-0.09375 0.132813,0 0.222656,0.078125 0.265625,0.234375 0.019531,0.113281 0.039062,0.238281 0.0625,0.375 0.019531,0.144531 0.082031,0.25 0.1875,0.3125 0.1875,0.070312 0.441406,0.125 0.765625,0.15625 0.320313,0.039062 0.644531,0.070312 0.96875,0.09375 0.332031,0.019531 0.625,0.03125 0.875,0.03125 0.25,0.00781 0.394531,0.015625 0.4375,0.015625 l 0.046875,-2.875 C 3.59375,3.128906 3.58594,2.804688 3.578125,2.484375 3.566406,2.171875 3.554688,1.867188 3.546875,1.578125 3.535156,1.296875 3.523438,1.035156 3.515625,0.796875 c 0,-0.230469 0,-0.417969 0,-0.5625 v -0.09375 c 0,-0.1640625 0.015625,-0.265625 0.046875,-0.296875 l 0.375,0.34375 c 0.289062,0.269531 0.65625,0.597656 1.09375,0.984375 0.4375,0.382813 0.914062,0.789063 1.4375,1.21875 0.519531,0.425781 1.0625,0.859375 1.625,1.296875 0.570312,0.4375 1.117188,0.847656 1.640625,1.234375 0.53125,0.394531 1.019531,0.742187 1.46875,1.046875 0.457031,0.300781 0.835937,0.535156 1.140625,0.703125 0.01953,0.34375 0.03516,0.703125 0.04687,1.078125 0.0078,0.375 0.02344,0.664062 0.04687,0.875 C 12.257812,8.59375 11.988281,8.5625 11.625,8.53125 11.257812,8.5 10.84375,8.472656 10.375,8.453125 9.914062,8.441406 9.421875,8.425781 8.890625,8.40625 8.367188,8.382812 7.851562,8.363281 7.34375,8.34375 6.84375,8.320312 6.375,8.304688 5.9375,8.296875 c -0.4375,0 -0.804688,0 -1.09375,0 0,0.644531 0.085938,1.195313 0.265625,1.65625 0.175781,0.457031 0.394531,0.757813 0.65625,0.90625 -0.054687,0.07031 -0.105469,0.125 -0.15625,0.15625 -0.042969,0.03125 -0.125,0.03125 -0.25,0 -0.105469,-0.04297 -0.25,-0.09375 -0.4375,-0.15625 -0.179687,-0.0625 -0.367187,-0.136719 -0.5625,-0.21875 C 4.171875,10.554688 3.988281,10.46875 3.8125,10.375 3.644531,10.289062 3.519531,10.21875 3.4375,10.15625 c 0,-0.07422 0,-0.1875 0,-0.34375 C 3.445312,9.65625 3.453125,9.476562 3.453125,9.28125 3.460938,9.09375 3.46875,8.90625 3.46875,8.71875 3.476562,8.539062 3.484375,8.398438 3.484375,8.296875 Z M 10.671875,6.46875 C 10.484375,6.3125 10.238281,6.101562 9.9375,5.84375 9.632812,5.59375 9.300781,5.316406 8.9375,5.015625 8.570312,4.722656 8.1875,4.414062 7.78125,4.09375 7.382812,3.78125 7.003906,3.476562 6.640625,3.1875 6.285156,2.894531 5.953125,2.625 5.640625,2.375 5.328125,2.132812 5.078125,1.953125 4.890625,1.828125 4.847656,1.929688 4.816406,2.085938 4.796875,2.296875 4.785156,2.503906 4.773438,2.738281 4.765625,3 4.753906,3.257812 4.75,3.53125 4.75,3.8125 c 0,0.289062 0,0.570312 0,0.84375 0,0.351562 0.00391,0.679688 0.015625,0.984375 0.00781,0.3125 0.015625,0.554687 0.015625,0.734375 0.070312,0 0.253906,0.00391 0.546875,0.015625 0.289063,0.00781 0.644531,0.019531 1.0625,0.03125 0.414063,0.019531 0.863281,0.03125 1.34375,0.03125 0.476563,0.00781 0.929687,0.015625 1.359375,0.015625 z m 0,0"
           id="path10927"
           style="fill:#000000;fill-opacity:1" />
      </g>
    </g>
    <g
       fill="#8b3f2c"
       fill-opacity="1"
       id="g3452"
       transform="matrix(0.35277777,0,0,0.35277777,-67.562314,132.15477)"
       style="fill:#000000;fill-opacity:1">
      <g
         id="use3448"
         transform="translate(65.279404,46.698002)"
         style="fill:#000000;fill-opacity:1" />
      <g
         id="use3450"
         transform="translate(65.279404,50.936352)"
         style="fill:#000000;fill-opacity:1" />
    </g>
  </g>
</svg>
