<?xml version="1.0" encoding="UTF-8" standalone="no"?>
<!-- Created with Inkscape (http://www.inkscape.org/) -->

<svg
   width="6.8678303mm"
   height="5.2158365mm"
   viewBox="0 0 6.8678302 5.2158365"
   version="1.1"
   id="svg13595"
   sodipodi:docname="5.svg"
   inkscape:version="1.2.2 (b0a84865, 2022-12-01)"
   xmlns:inkscape="http://www.inkscape.org/namespaces/inkscape"
   xmlns:sodipodi="http://sodipodi.sourceforge.net/DTD/sodipodi-0.dtd"
   xmlns="http://www.w3.org/2000/svg"
   xmlns:svg="http://www.w3.org/2000/svg">
  <sodipodi:namedview
     id="namedview4380"
     pagecolor="#ffffff"
     bordercolor="#000000"
     borderopacity="0.25"
     inkscape:showpageshadow="2"
     inkscape:pageopacity="0.0"
     inkscape:pagecheckerboard="0"
     inkscape:deskcolor="#d1d1d1"
     inkscape:document-units="mm"
     showgrid="false"
     inkscape:zoom="11.971554"
     inkscape:cx="10.441418"
     inkscape:cy="9.8566989"
     inkscape:window-width="1309"
     inkscape:window-height="456"
     inkscape:window-x="0"
     inkscape:window-y="25"
     inkscape:window-maximized="0"
     inkscape:current-layer="svg13595" />
  <defs
     id="defs13592" />
  <g
     id="layer1"
     transform="rotate(-90,-19.317089,125.74916)">
    <path
       fill-rule="nonzero"
       fill="#8b3f2c"
       fill-opacity="1"
       d="m 103.51771,149.0633 c 0,0.36656 -0.22049,0.57327 -0.41204,0.75654 -0.15158,0.14608 -0.28525,0.27423 -0.28525,0.45751 0,0.11851 0.073,0.16399 0.15158,0.16399 0.0648,0 0.13367,-0.0358 0.15986,-0.0909 0.01,-0.0138 0.0276,-0.0331 0.0468,-0.0331 0.0124,0 0.0262,0.0152 0.0262,0.0469 0,0.15985 -0.0951,0.29766 -0.31143,0.29766 0.0468,0.0634 0.0882,0.12264 0.0882,0.15158 0,0.0179 -0.0152,0.0262 -0.0372,0.0262 -0.15158,0 -0.27423,-0.14607 -0.30179,-0.26458 -0.0234,0.091 -0.0786,0.14607 -0.11024,0.14607 -0.0179,0 -0.0276,-0.0138 -0.0276,-0.0372 0,-0.35692 0.1006,-0.57602 0.47129,-0.91089 0.0152,-0.0138 0.0413,-0.0496 -0.0179,-0.008 -0.36104,0.22876 -0.4575,0.3707 -0.55397,0.6215 -0.0413,0.11575 -0.13229,0.0689 -0.15571,0.11989 0,0.0455 0.0827,0.10473 0.0827,0.19154 0,0.17915 -0.21084,0.14746 -0.22462,0.1888 -0.0179,0.11437 0.1695,0.1502 0.1695,0.29627 0,0.19293 -0.21084,0.21636 -0.21084,0.29353 0,0.0785 0.0923,0.27423 0.31557,0.27423 0.0882,0 0.13367,-0.0496 0.17087,-0.0496 0.0221,0 0.0496,0.0179 0.0496,0.0592 0,0.0882 -0.0827,0.17364 -0.22462,0.17364 -0.20532,0 -0.3886,-0.23289 -0.3886,-0.44787 0,-0.0317 0,-0.0455 -0.01,-0.0455 -0.01,0 -0.0179,0.0221 -0.0276,0.0496 -0.0413,0.15158 0,0.3762 -0.11851,0.3762 -0.0551,0 -0.0965,-0.0317 -0.0965,-0.0909 0,-0.0427 0.0868,-0.18466 0.12816,-0.29903 0.004,-0.0179 0.01,-0.0317 0.01,-0.0413 0,-0.0124 -0.006,-0.0179 -0.01,-0.0179 -0.01,0 -0.0179,0.01 -0.0317,0.0234 -0.0455,0.0675 -0.14745,0.15021 -0.27974,0.15021 -0.12816,0 -0.22876,-0.1006 -0.22876,-0.18742 0,-0.0413 0.0234,-0.0634 0.0689,-0.0634 0.091,0 0.0634,0.14194 0.2012,0.14194 0.10059,0 0.17363,-0.073 0.17363,-0.12402 0,-0.051 -0.091,-0.0786 -0.091,-0.22462 0,-0.20533 0.30179,-0.15159 0.33349,-0.26596 0,-0.0593 -0.0951,-0.11852 -0.0951,-0.21498 0,-0.022 0.004,-0.0455 0.0179,-0.073 0.0551,-0.1006 0.18328,-0.0455 0.20533,-0.11852 0.0193,-0.0648 -0.0262,-0.1061 0,-0.16536 0.12403,-0.28801 0.49058,-0.52641 0.77859,-0.61874 0.0413,-0.0124 0.0593,-0.0221 0.0593,-0.0317 0,-0.004 -0.004,-0.004 -0.0179,-0.004 -0.0138,0 -0.0317,0.004 -0.0593,0.01 -0.0923,0.0234 -0.17915,0.0262 -0.25218,0.0262 -0.073,0 -0.14194,-0.003 -0.19155,-0.003 -0.1378,0 -0.10611,0.28663 -0.35278,0.28663 -0.1378,0 -0.22875,-0.0496 -0.29765,-0.16812 -0.01,-0.0193 -0.0138,-0.0372 -0.0138,-0.0455 0,-0.0138 0.01,-0.0234 0.022,-0.0234 0.01,0 0.0289,0.004 0.051,0.0138 0.0234,0.01 0.0413,0.0138 0.0593,0.0138 0.0455,0 0.0827,-0.0331 0.11438,-0.0965 0.0138,-0.0276 0.0234,-0.0786 0.1695,-0.12815 -0.2012,-0.1006 -0.12816,-0.339 -0.22876,-0.339 -0.0634,0 -0.0868,0.0317 -0.0965,0.0648 -0.004,0.0179 -0.0179,0.0262 -0.0276,0.0262 -0.0179,0 -0.0358,-0.0221 -0.0358,-0.0537 0,-0.0138 0,-0.0289 0.008,-0.0469 0.0689,-0.15985 0.16536,-0.20119 0.28525,-0.20119 0.15021,0 0.25081,0.13229 0.2825,0.27561 0.0689,-0.20671 0.18328,-0.2384 0.2384,-0.2384 0.0551,0 0.0179,0.0675 0.0593,0.0675 0.16536,0 0.24391,0.0413 0.28387,0.14745 0.006,0.0193 0.01,0.0276 0.01,0.0413 0,0.0179 -0.01,0.0276 -0.0276,0.0276 -0.008,0 -0.0276,-0.01 -0.0455,-0.0234 -0.0234,-0.0179 -0.0551,-0.0358 -0.0868,-0.0358 -0.0331,0 -0.0593,0.0179 -0.0785,0.0827 -0.0276,0.0951 -0.12265,0.0496 -0.19569,0.13642 0.12265,0.0689 0.24116,0.0965 0.3514,0.0965 0.28388,0 0.49885,-0.20119 0.49885,-0.48093 0,-0.14194 -0.0537,-0.21498 -0.0951,-0.21498 -0.0827,0 -0.0744,0.073 -0.19293,0.073 -0.0772,0 -0.12816,-0.0689 -0.12816,-0.1378 0,-0.0772 0.0551,-0.15572 0.17915,-0.15572 0.19568,0 0.35278,0.2067 0.35278,0.42581"
       id="path3454"
       style="fill:#000000;fill-opacity:1;stroke-width:0.352778" />
    <g
       fill="#8b3f2c"
       fill-opacity="1"
       id="g3458"
       transform="matrix(0.35277777,0,0,0.35277777,93.699184,131.95358)"
       style="fill:#000000;fill-opacity:1">
      <g
         id="use3456"
         transform="translate(21.636299,36.185398)"
         style="fill:#000000;fill-opacity:1">
        <path
           d="m 2.265625,1.015625 c 0.101563,0 0.148437,0.0625 0.140625,0.1875 C 2.394531,1.335938 2.34375,1.40625 2.25,1.40625 2.132812,1.40625 2,1.484375 1.84375,1.640625 1.6875,1.804688 1.535156,2.023438 1.390625,2.296875 1.253906,2.566406 1.128906,2.882812 1.015625,3.25 0.910156,3.613281 0.851562,4.003906 0.84375,4.421875 c 0,0.375 0.054688,0.71875 0.171875,1.03125 0.125,0.3125 0.3125,0.578125 0.5625,0.796875 0.25,0.226562 0.566406,0.410156 0.953125,0.546875 C 2.914062,6.929688 3.367188,7 3.890625,7 c 1.039063,0 1.832031,-0.257812 2.375,-0.765625 0.539063,-0.511719 0.8125,-1.1875 0.8125,-2.03125 0,-0.5 -0.054687,-0.960937 -0.15625,-1.375 C 6.816406,2.421875 6.695312,2.101562 6.5625,1.875 6.507812,1.789062 6.46875,1.726562 6.4375,1.6875 6.40625,1.65625 6.378906,1.628906 6.359375,1.609375 6.316406,1.578125 6.289062,1.5625 6.28125,1.5625 6.28125,1.5 6.296875,1.429688 6.328125,1.359375 6.367188,1.296875 6.414062,1.269531 6.46875,1.28125 6.757812,1.414062 7.195312,1.492188 7.78125,1.515625 8.363281,1.546875 9.171875,1.5625 10.203125,1.5625 c 0.425781,0 0.757813,-0.015625 1,-0.046875 0.25,-0.023437 0.4375,-0.058594 0.5625,-0.109375 0.101563,0 0.191406,0.175781 0.265625,0.53125 0.08203,0.351562 0.160156,0.851562 0.234375,1.5 -0.01172,0.101562 -0.02344,0.28125 -0.03125,0.53125 0,0.25 -0.0078,0.546875 -0.01563,0.890625 -0.01172,0.34375 -0.02344,0.710937 -0.03125,1.109375 0,0.40625 0,0.800781 0,1.1875 0,0.507812 0.01563,0.9375 0.04687,1.28125 0.03125,0.34375 0.06641,0.617188 0.109375,0.828125 0.05078,0.21875 0.101562,0.382813 0.15625,0.5 0.0625,0.125 0.113281,0.21875 0.15625,0.28125 0.01953,0.03125 0.01563,0.0625 -0.01563,0.09375 -0.02344,0.03906 -0.04297,0.0625 -0.0625,0.0625 H 12.53125 L 12.140625,9.90625 C 12.023438,9.800781 11.835938,9.628906 11.578125,9.390625 11.328125,9.148438 11.070312,8.875 10.8125,8.5625 c 0,-0.179688 -0.0078,-0.371094 -0.01563,-0.578125 0,-0.199219 0,-0.453125 0,-0.765625 0,-0.3125 -0.0078,-0.695312 -0.01563,-1.140625 0,-0.449219 0,-1.011719 0,-1.6875 0,-0.324219 0,-0.5625 0,-0.71875 0.0078,-0.15625 -0.0078,-0.292969 -0.04687,-0.40625 C 10.617188,3.234375 10.429688,3.207031 10.171875,3.1875 9.910156,3.175781 9.628906,3.160156 9.328125,3.140625 9.035156,3.128906 8.75,3.117188 8.46875,3.109375 c -0.28125,0 -0.507812,0 -0.671875,0 0.050781,0.113281 0.101563,0.269531 0.15625,0.46875 0.0625,0.207031 0.117187,0.425781 0.171875,0.65625 0.0625,0.238281 0.113281,0.472656 0.15625,0.703125 0.039062,0.238281 0.0625,0.457031 0.0625,0.65625 0,0.351562 -0.046875,0.738281 -0.140625,1.15625 -0.09375,0.425781 -0.261719,0.8125 -0.5,1.15625 C 7.472656,8.257812 7.144531,8.550781 6.71875,8.78125 6.289062,9.019531 5.742188,9.140625 5.078125,9.140625 4.703125,9.128906 4.3125,9.039062 3.90625,8.875 3.5,8.707031 3.09375,8.484375 2.6875,8.203125 2.289062,7.929688 1.90625,7.609375 1.53125,7.234375 1.164062,6.859375 0.847656,6.460938 0.578125,6.046875 0.304688,5.640625 0.0859375,5.21875 -0.078125,4.78125 c -0.164063,-0.4375 -0.25,-0.859375 -0.25,-1.265625 0,-0.210937 0,-0.433594 0,-0.671875 0,-0.230469 0.011719,-0.460938 0.03125,-0.6875 C -0.285156,1.925781 -0.257812,1.707031 -0.21875,1.5 -0.175781,1.289062 -0.109375,1.117188 -0.015625,0.984375 Z m 0,0"
           id="path13643"
           style="fill:#000000;fill-opacity:1" />
      </g>
    </g>
    <g
       fill="#8b3f2c"
       fill-opacity="1"
       id="g3464"
       transform="matrix(0.35277777,0,0,0.35277777,93.699184,131.95358)"
       style="fill:#000000;fill-opacity:1">
      <g
         id="use3460"
         transform="translate(29.183201,46.698002)"
         style="fill:#000000;fill-opacity:1" />
      <g
         id="use3462"
         transform="translate(29.183201,50.936352)"
         style="fill:#000000;fill-opacity:1" />
    </g>
  </g>
</svg>
