<?xml version="1.0" encoding="UTF-8" standalone="no"?>
<!-- Created with Inkscape (http://www.inkscape.org/) -->

<svg
   width="7.2931461mm"
   height="5.5226135mm"
   viewBox="0 0 7.2931461 5.5226135"
   version="1.1"
   id="svg16108"
   sodipodi:docname="7.svg"
   inkscape:version="1.2.2 (b0a84865, 2022-12-01)"
   xmlns:inkscape="http://www.inkscape.org/namespaces/inkscape"
   xmlns:sodipodi="http://sodipodi.sourceforge.net/DTD/sodipodi-0.dtd"
   xmlns="http://www.w3.org/2000/svg"
   xmlns:svg="http://www.w3.org/2000/svg">
  <sodipodi:namedview
     id="namedview4693"
     pagecolor="#ffffff"
     bordercolor="#000000"
     borderopacity="0.25"
     inkscape:showpageshadow="2"
     inkscape:pageopacity="0.0"
     inkscape:pagecheckerboard="0"
     inkscape:deskcolor="#d1d1d1"
     inkscape:document-units="mm"
     showgrid="false"
     inkscape:zoom="11.306543"
     inkscape:cx="11.14399"
     inkscape:cy="10.436435"
     inkscape:window-width="1309"
     inkscape:window-height="456"
     inkscape:window-x="0"
     inkscape:window-y="25"
     inkscape:window-maximized="0"
     inkscape:current-layer="svg16108" />
  <defs
     id="defs16105" />
  <g
     id="layer1"
     transform="rotate(-90,-19.133983,125.71944)">
    <path
       fill-rule="nonzero"
       fill="#8b3f2c"
       fill-opacity="1"
       d="m 103.6711,149.27569 c 0,0.36656 -0.22049,0.57327 -0.41204,0.75654 -0.15158,0.14608 -0.28525,0.27423 -0.28525,0.45751 0,0.11851 0.073,0.16399 0.15158,0.16399 0.0648,0 0.13367,-0.0358 0.15986,-0.0909 0.01,-0.0138 0.0276,-0.0331 0.0469,-0.0331 0.0124,0 0.0262,0.0152 0.0262,0.0469 0,0.15985 -0.0951,0.29766 -0.31143,0.29766 0.0469,0.0634 0.0882,0.12264 0.0882,0.15158 0,0.0179 -0.0152,0.0262 -0.0372,0.0262 -0.15158,0 -0.27422,-0.14607 -0.30179,-0.26458 -0.0234,0.0909 -0.0785,0.14607 -0.11024,0.14607 -0.0179,0 -0.0276,-0.0138 -0.0276,-0.0372 0,-0.35692 0.1006,-0.57602 0.47129,-0.91089 0.0152,-0.0138 0.0413,-0.0496 -0.0179,-0.008 -0.36105,0.22876 -0.45751,0.3707 -0.55397,0.6215 -0.0414,0.11575 -0.1323,0.0689 -0.15572,0.11989 0,0.0455 0.0827,0.10473 0.0827,0.19154 0,0.17915 -0.21084,0.14746 -0.22462,0.1888 -0.0179,0.11437 0.1695,0.1502 0.1695,0.29627 0,0.19293 -0.21084,0.21636 -0.21084,0.29353 0,0.0785 0.0923,0.27423 0.31557,0.27423 0.0882,0 0.13367,-0.0496 0.17088,-0.0496 0.022,0 0.0496,0.0179 0.0496,0.0593 0,0.0882 -0.0827,0.17364 -0.22463,0.17364 -0.20532,0 -0.3886,-0.23289 -0.3886,-0.44787 0,-0.0317 0,-0.0455 -0.01,-0.0455 -0.01,0 -0.0179,0.0221 -0.0276,0.0496 -0.0413,0.15158 0,0.3762 -0.11851,0.3762 -0.0551,0 -0.0965,-0.0317 -0.0965,-0.091 0,-0.0427 0.0868,-0.18466 0.12815,-0.29903 0.004,-0.0179 0.01,-0.0317 0.01,-0.0413 0,-0.0124 -0.006,-0.0179 -0.01,-0.0179 -0.01,0 -0.0179,0.01 -0.0317,0.0234 -0.0455,0.0675 -0.14745,0.15021 -0.27974,0.15021 -0.12816,0 -0.22876,-0.1006 -0.22876,-0.18742 0,-0.0413 0.0234,-0.0634 0.0689,-0.0634 0.091,0 0.0634,0.14194 0.20119,0.14194 0.1006,0 0.17363,-0.073 0.17363,-0.12402 0,-0.051 -0.0909,-0.0785 -0.0909,-0.22462 0,-0.20533 0.30179,-0.15159 0.33349,-0.26596 0,-0.0593 -0.0951,-0.11852 -0.0951,-0.21498 0,-0.0221 0.004,-0.0455 0.0179,-0.073 0.0551,-0.1006 0.18328,-0.0455 0.20532,-0.11852 0.0193,-0.0648 -0.0262,-0.1061 0,-0.16536 0.12403,-0.28801 0.49059,-0.52641 0.7786,-0.61874 0.0413,-0.0124 0.0592,-0.0221 0.0592,-0.0317 0,-0.004 -0.004,-0.004 -0.0179,-0.004 -0.0138,0 -0.0317,0.004 -0.0593,0.01 -0.0923,0.0234 -0.17914,0.0262 -0.25218,0.0262 -0.073,0 -0.14194,-0.003 -0.19155,-0.003 -0.1378,0 -0.10611,0.28663 -0.35277,0.28663 -0.13781,0 -0.22876,-0.0496 -0.29766,-0.16812 -0.01,-0.0193 -0.0138,-0.0372 -0.0138,-0.0455 0,-0.0138 0.01,-0.0234 0.022,-0.0234 0.01,0 0.0289,0.004 0.051,0.0138 0.0234,0.01 0.0413,0.0138 0.0592,0.0138 0.0455,0 0.0827,-0.0331 0.11438,-0.0965 0.0138,-0.0276 0.0234,-0.0785 0.1695,-0.12815 -0.2012,-0.1006 -0.12816,-0.339 -0.22876,-0.339 -0.0634,0 -0.0868,0.0317 -0.0965,0.0648 -0.004,0.0179 -0.0179,0.0262 -0.0276,0.0262 -0.0179,0 -0.0358,-0.0221 -0.0358,-0.0537 0,-0.0138 0,-0.0289 0.008,-0.0469 0.0689,-0.15985 0.16537,-0.20119 0.28525,-0.20119 0.15021,0 0.25081,0.13229 0.2825,0.27561 0.0689,-0.20671 0.18328,-0.2384 0.2384,-0.2384 0.0551,0 0.0179,0.0675 0.0593,0.0675 0.16536,0 0.24391,0.0413 0.28387,0.14745 0.006,0.0193 0.01,0.0276 0.01,0.0413 0,0.0179 -0.01,0.0276 -0.0276,0.0276 -0.008,0 -0.0276,-0.01 -0.0455,-0.0234 -0.0234,-0.0179 -0.0551,-0.0358 -0.0868,-0.0358 -0.0331,0 -0.0593,0.0179 -0.0785,0.0827 -0.0276,0.0951 -0.12265,0.0496 -0.19568,0.13642 0.12264,0.0689 0.24115,0.0965 0.3514,0.0965 0.28387,0 0.49885,-0.20119 0.49885,-0.48093 0,-0.14194 -0.0537,-0.21498 -0.0951,-0.21498 -0.0827,0 -0.0744,0.073 -0.19293,0.073 -0.0772,0 -0.12815,-0.0689 -0.12815,-0.1378 0,-0.0772 0.0551,-0.15572 0.17914,-0.15572 0.19568,0 0.35278,0.2067 0.35278,0.42581"
       id="path3454"
       style="fill:#000000;fill-opacity:1;stroke-width:0.352778" />
    <g
       fill="#8b3f2c"
       fill-opacity="1"
       id="g3464"
       transform="matrix(0.35277777,0,0,0.35277777,93.852572,132.16597)"
       style="fill:#000000;fill-opacity:1">
      <g
         id="use3460"
         transform="translate(29.183201,46.698002)"
         style="fill:#000000;fill-opacity:1" />
      <g
         id="use3462"
         transform="translate(29.183201,50.936352)"
         style="fill:#000000;fill-opacity:1" />
    </g>
    <g
       aria-label="7"
       transform="rotate(90)"
       id="text15365-3"
       style="font-size:7.05556px;stroke:#000000;stroke-width:0.254;stroke-linejoin:round;stroke-opacity:0">
      <path
         d="m 146.72668,-105.18188 q -0.62089,-0.0141 -0.93134,0.0212 -0.31044,0.0282 -0.4445,0.0705 -0.0847,0.0282 -0.127,0.10583 -0.0423,0.0706 -0.0705,0.16228 -0.007,0.0212 -0.0423,0.0353 -0.0282,0.007 -0.0635,0.007 -0.0353,-0.007 -0.0564,-0.0212 -0.0212,-0.0212 0,-0.0494 0.0776,-0.16933 0.14111,-0.35278 0.0635,-0.1905 0.11289,-0.34572 0.0564,-0.15522 0.10583,-0.254 0.0494,-0.0988 0.0988,-0.0917 0.53622,0.0776 1.12183,0.11994 0.58561,0.0353 1.12889,0.0353 0.26811,0 0.4445,-0.0141 0.17639,-0.0141 0.33867,-0.0423 0.0141,0 0.0212,0.0141 0.0141,0.0141 0.0141,0.0212 0,0.0282 -0.0141,0.0564 -0.007,0.0212 -0.0494,0.0564 -0.16228,0.0917 -0.33867,0.28222 -0.17639,0.18345 -0.33867,0.40923 -0.16227,0.21872 -0.28927,0.45155 -0.127,0.22578 -0.19756,0.40217 -0.11289,0.29633 -0.254,0.66322 -0.14111,0.35984 -0.26106,0.73378 -0.11289,0.36689 -0.19755,0.71261 -0.0776,0.33867 -0.0776,0.58561 0,0.0988 0.0212,0.13406 0.0141,0.0141 -0.0141,0.0282 -0.0212,0.0141 -0.0564,0 -0.0212,-0.007 -0.13406,-0.0141 -0.10583,-0.007 -0.24694,-0.007 0.0141,0 -0.0635,0 -0.0706,0.007 -0.16934,0.0141 -0.0988,0.007 -0.19755,0.0212 -0.0917,0.0141 -0.127,0.0353 -0.0141,0.0141 -0.0353,-0.007 -0.0212,-0.0141 -0.0141,-0.0353 0.0494,-0.17639 0.17639,-0.47978 0.13405,-0.31045 0.31044,-0.67733 0.17639,-0.37395 0.381,-0.77612 0.21167,-0.40922 0.41628,-0.78316 0.21167,-0.381 0.40217,-0.6985 0.1905,-0.3175 0.33161,-0.51506 z"
         id="path2717" />
    </g>
  </g>
</svg>
