<?xml version="1.0" encoding="UTF-8" standalone="no"?>
<!-- Created with Inkscape (http://www.inkscape.org/) -->

<svg
   width="7.268446mm"
   height="5.474627mm"
   viewBox="0 0 7.2684459 5.474627"
   version="1.1"
   id="svg16200"
   xmlns="http://www.w3.org/2000/svg"
   xmlns:svg="http://www.w3.org/2000/svg">
  <defs
     id="defs16197" />
  <g
     id="layer1"
     transform="rotate(-90,-19.152152,125.71362)"
     style="fill:#000000">
    <path
       fill-rule="nonzero"
       fill="#8b3f2c"
       fill-opacity="1"
       d="m 103.64711,149.26334 c 0,0.36656 -0.22049,0.57327 -0.41204,0.75654 -0.15158,0.14608 -0.28525,0.27423 -0.28525,0.45751 0,0.11851 0.073,0.16399 0.15158,0.16399 0.0648,0 0.13367,-0.0358 0.15986,-0.0909 0.01,-0.0138 0.0276,-0.0331 0.0469,-0.0331 0.0124,0 0.0262,0.0152 0.0262,0.0469 0,0.15985 -0.0951,0.29766 -0.31143,0.29766 0.0469,0.0634 0.0882,0.12264 0.0882,0.15158 0,0.0179 -0.0152,0.0262 -0.0372,0.0262 -0.15158,0 -0.27422,-0.14607 -0.30179,-0.26458 -0.0234,0.0909 -0.0785,0.14607 -0.11024,0.14607 -0.0179,0 -0.0276,-0.0138 -0.0276,-0.0372 0,-0.35692 0.1006,-0.57602 0.47129,-0.91089 0.0152,-0.0138 0.0413,-0.0496 -0.0179,-0.008 -0.36105,0.22876 -0.45751,0.3707 -0.55397,0.6215 -0.0414,0.11575 -0.1323,0.0689 -0.15572,0.11989 0,0.0455 0.0827,0.10473 0.0827,0.19154 0,0.17915 -0.21084,0.14746 -0.22462,0.1888 -0.0179,0.11437 0.1695,0.1502 0.1695,0.29627 0,0.19293 -0.21084,0.21636 -0.21084,0.29353 0,0.0785 0.0923,0.27423 0.31557,0.27423 0.0882,0 0.13367,-0.0496 0.17088,-0.0496 0.022,0 0.0496,0.0179 0.0496,0.0593 0,0.0882 -0.0827,0.17364 -0.22463,0.17364 -0.20532,0 -0.3886,-0.23289 -0.3886,-0.44787 0,-0.0317 0,-0.0455 -0.01,-0.0455 -0.01,0 -0.0179,0.0221 -0.0276,0.0496 -0.0413,0.15158 0,0.3762 -0.11851,0.3762 -0.0551,0 -0.0965,-0.0317 -0.0965,-0.091 0,-0.0427 0.0868,-0.18466 0.12815,-0.29903 0.004,-0.0179 0.01,-0.0317 0.01,-0.0413 0,-0.0124 -0.006,-0.0179 -0.01,-0.0179 -0.01,0 -0.0179,0.01 -0.0317,0.0234 -0.0455,0.0675 -0.14745,0.15021 -0.27974,0.15021 -0.12816,0 -0.22876,-0.1006 -0.22876,-0.18742 0,-0.0413 0.0234,-0.0634 0.0689,-0.0634 0.091,0 0.0634,0.14194 0.20119,0.14194 0.1006,0 0.17363,-0.073 0.17363,-0.12402 0,-0.051 -0.0909,-0.0785 -0.0909,-0.22462 0,-0.20533 0.30179,-0.15159 0.33349,-0.26596 0,-0.0593 -0.0951,-0.11852 -0.0951,-0.21498 0,-0.0221 0.004,-0.0455 0.0179,-0.073 0.0551,-0.1006 0.18328,-0.0455 0.20532,-0.11852 0.0193,-0.0648 -0.0262,-0.1061 0,-0.16536 0.12403,-0.28801 0.49059,-0.52641 0.7786,-0.61874 0.0413,-0.0124 0.0592,-0.0221 0.0592,-0.0317 0,-0.004 -0.004,-0.004 -0.0179,-0.004 -0.0138,0 -0.0317,0.004 -0.0593,0.01 -0.0923,0.0234 -0.17914,0.0262 -0.25218,0.0262 -0.073,0 -0.14194,-0.003 -0.19155,-0.003 -0.1378,0 -0.10611,0.28663 -0.35277,0.28663 -0.13781,0 -0.22876,-0.0496 -0.29766,-0.16812 -0.01,-0.0193 -0.0138,-0.0372 -0.0138,-0.0455 0,-0.0138 0.01,-0.0234 0.022,-0.0234 0.01,0 0.0289,0.004 0.051,0.0138 0.0234,0.01 0.0413,0.0138 0.0592,0.0138 0.0455,0 0.0827,-0.0331 0.11438,-0.0965 0.0138,-0.0276 0.0234,-0.0785 0.1695,-0.12815 -0.2012,-0.1006 -0.12816,-0.339 -0.22876,-0.339 -0.0634,0 -0.0868,0.0317 -0.0965,0.0648 -0.004,0.0179 -0.0179,0.0262 -0.0276,0.0262 -0.0179,0 -0.0358,-0.0221 -0.0358,-0.0537 0,-0.0138 0,-0.0289 0.008,-0.0469 0.0689,-0.15985 0.16537,-0.20119 0.28525,-0.20119 0.15021,0 0.25081,0.13229 0.2825,0.27561 0.0689,-0.20671 0.18328,-0.2384 0.2384,-0.2384 0.0551,0 0.0179,0.0675 0.0593,0.0675 0.16536,0 0.24391,0.0413 0.28387,0.14745 0.006,0.0193 0.01,0.0276 0.01,0.0413 0,0.0179 -0.01,0.0276 -0.0276,0.0276 -0.008,0 -0.0276,-0.01 -0.0455,-0.0234 -0.0234,-0.0179 -0.0551,-0.0358 -0.0868,-0.0358 -0.0331,0 -0.0593,0.0179 -0.0785,0.0827 -0.0276,0.0951 -0.12265,0.0496 -0.19568,0.13642 0.12264,0.0689 0.24115,0.0965 0.3514,0.0965 0.28387,0 0.49885,-0.20119 0.49885,-0.48093 0,-0.14194 -0.0537,-0.21498 -0.0951,-0.21498 -0.0827,0 -0.0744,0.073 -0.19293,0.073 -0.0772,0 -0.12815,-0.0689 -0.12815,-0.1378 0,-0.0772 0.0551,-0.15572 0.17914,-0.15572 0.19568,0 0.35278,0.2067 0.35278,0.42581"
       id="path3454"
       style="fill:#000000;fill-opacity:1;stroke-width:0.352778" />
    <g
       fill="#8b3f2c"
       fill-opacity="1"
       id="g3464"
       transform="matrix(0.35277777,0,0,0.35277777,93.828584,132.15362)"
       style="fill:#000000;fill-opacity:1">
      <g
         id="use3460"
         transform="translate(29.183201,46.698002)"
         style="fill:#000000;fill-opacity:1" />
      <g
         id="use3462"
         transform="translate(29.183201,50.936352)"
         style="fill:#000000;fill-opacity:1" />
    </g>
    <g
       aria-label="8"
       transform="rotate(90)"
       id="text15365-3"
       style="font-size:7.05556px;stroke:#000000;stroke-width:0.254;stroke-linejoin:round;stroke-opacity:0;fill:#000000">
      <path
         d="m 148.60522,-102.70257 q -0.007,0.28223 -0.127,0.50095 -0.11289,0.21872 -0.30339,0.38805 -0.18344,0.16228 -0.41628,0.27517 -0.23283,0.11289 -0.47272,0.1905 -0.23989,0.0706 -0.46567,0.0988 -0.21872,0.0353 -0.381,0.0353 -0.26105,0 -0.52211,-0.0564 -0.254,-0.0564 -0.45861,-0.17639 -0.20461,-0.127 -0.33867,-0.3175 -0.127,-0.1905 -0.127,-0.46566 0,-0.27517 0.0776,-0.48684 0.0847,-0.21166 0.23283,-0.37394 0.15522,-0.16934 0.36689,-0.30339 0.21872,-0.14111 0.47978,-0.26811 -0.16934,-0.0776 -0.31045,-0.15523 -0.14111,-0.0847 -0.24694,-0.1905 -0.0988,-0.10583 -0.16228,-0.24694 -0.0564,-0.14111 -0.0564,-0.33161 0,-0.28222 0.10584,-0.48684 0.10583,-0.20461 0.27516,-0.34572 0.16934,-0.14111 0.381,-0.22578 0.21167,-0.0917 0.41628,-0.14111 0.20461,-0.0494 0.38806,-0.0635 0.18344,-0.0212 0.28928,-0.0212 0.18344,0 0.35983,0.0423 0.18344,0.0423 0.3175,0.14111 0.14111,0.0917 0.22578,0.23989 0.0847,0.14817 0.0847,0.35278 0,0.21167 -0.10583,0.38805 -0.10583,0.17639 -0.26811,0.32456 -0.16228,0.14111 -0.35983,0.254 -0.1905,0.11289 -0.37395,0.1905 0.22578,0.0847 0.48684,0.17639 0.26105,0.0847 0.48683,0.21872 0.22578,0.13406 0.37394,0.33161 0.14817,0.19756 0.14817,0.508 z m -1.143,-2.04611 q 0,-0.40217 -0.1905,-0.64206 -0.1905,-0.24694 -0.54328,-0.24694 -0.26811,0 -0.41628,0.20461 -0.14111,0.19756 -0.14111,0.49389 0,0.23283 0.0776,0.38806 0.0776,0.15522 0.1905,0.26105 0.11289,0.0988 0.23284,0.15522 0.11994,0.0564 0.21166,0.0917 0.0847,-0.0282 0.18345,-0.0776 0.10583,-0.0494 0.1905,-0.127 0.0847,-0.0847 0.14111,-0.20462 0.0635,-0.127 0.0635,-0.29633 z m 0.34572,2.3495 q 0,-0.26811 -0.15522,-0.45861 -0.14817,-0.1905 -0.37394,-0.32455 -0.21873,-0.14112 -0.47273,-0.22578 -0.254,-0.0917 -0.45861,-0.16228 -0.127,0.0635 -0.23989,0.16933 -0.10583,0.0988 -0.1905,0.23284 -0.0776,0.13405 -0.127,0.28927 -0.0494,0.15523 -0.0494,0.3175 0,0.28223 0.11289,0.48684 0.11995,0.19755 0.29634,0.33161 0.18344,0.127 0.39511,0.1905 0.21872,0.0564 0.42333,0.0564 0.36689,0 0.59972,-0.21872 0.23284,-0.22578 0.23989,-0.68439 z"
         id="path3030"
         style="fill:#000000" />
    </g>
  </g>
</svg>
