<?xml version="1.0" encoding="UTF-8" standalone="no"?>
<!-- Created with Inkscape (http://www.inkscape.org/) -->

<svg
   width="7.2190533mm"
   height="5.7850804mm"
   viewBox="0 0 7.2190532 5.7850805"
   version="1.1"
   id="svg16292"
   sodipodi:docname="9.svg"
   inkscape:version="1.2.2 (b0a84865, 2022-12-01)"
   xmlns:inkscape="http://www.inkscape.org/namespaces/inkscape"
   xmlns:sodipodi="http://sodipodi.sourceforge.net/DTD/sodipodi-0.dtd"
   xmlns="http://www.w3.org/2000/svg"
   xmlns:svg="http://www.w3.org/2000/svg">
  <sodipodi:namedview
     id="namedview5005"
     pagecolor="#ffffff"
     bordercolor="#000000"
     borderopacity="0.25"
     inkscape:showpageshadow="2"
     inkscape:pageopacity="0.0"
     inkscape:pagecheckerboard="0"
     inkscape:deskcolor="#d1d1d1"
     inkscape:document-units="mm"
     showgrid="false"
     inkscape:zoom="10.793569"
     inkscape:cx="10.839788"
     inkscape:cy="10.932435"
     inkscape:window-width="1309"
     inkscape:window-height="456"
     inkscape:window-x="0"
     inkscape:window-y="25"
     inkscape:window-maximized="0"
     inkscape:current-layer="svg16292" />
  <defs
     id="defs16289" />
  <g
     id="layer1"
     transform="rotate(-90,-131.40574,-145.08307)">
    <path
       fill-rule="nonzero"
       fill="#8b3f2c"
       fill-opacity="1"
       d="m -279.40318,-9.32915 c 0,0.36656 -0.22049,0.57327 -0.41204,0.75654 -0.15158,0.14608 -0.28525,0.27423 -0.28525,0.45751 0,0.11851 0.073,0.16399 0.15158,0.16399 0.0648,0 0.13367,-0.0358 0.15986,-0.0909 0.01,-0.0138 0.0276,-0.0331 0.0469,-0.0331 0.0124,0 0.0262,0.0152 0.0262,0.0469 0,0.15985 -0.0951,0.29766 -0.31143,0.29766 0.0469,0.0634 0.0882,0.12264 0.0882,0.15158 0,0.0179 -0.0152,0.0262 -0.0372,0.0262 -0.15158,0 -0.27422,-0.14607 -0.30179,-0.26458 -0.0234,0.0909 -0.0785,0.14607 -0.11024,0.14607 -0.0179,0 -0.0276,-0.0138 -0.0276,-0.0372 0,-0.35692 0.1006,-0.57602 0.47129,-0.91089 0.0152,-0.0138 0.0413,-0.0496 -0.0179,-0.008 -0.36105,0.22876 -0.45751,0.3707 -0.55397,0.6215 -0.0414,0.11575 -0.1323,0.0689 -0.15572,0.11989 0,0.0455 0.0827,0.10473 0.0827,0.19154 0,0.17915 -0.21084,0.14746 -0.22462,0.1888 -0.0179,0.11437 0.1695,0.1502 0.1695,0.29627 0,0.19293 -0.21084,0.21636 -0.21084,0.29353 0,0.0785 0.0923,0.27423 0.31557,0.27423 0.0882,0 0.13367,-0.0496 0.17088,-0.0496 0.022,0 0.0496,0.0179 0.0496,0.0593 0,0.0882 -0.0827,0.17364 -0.22463,0.17364 -0.20532,0 -0.3886,-0.23289 -0.3886,-0.44787 0,-0.0317 0,-0.0455 -0.01,-0.0455 -0.01,0 -0.0179,0.0221 -0.0276,0.0496 -0.0413,0.15158 0,0.3762 -0.11851,0.3762 -0.0551,0 -0.0965,-0.0317 -0.0965,-0.091 0,-0.0427 0.0868,-0.18466 0.12815,-0.29903 0.004,-0.0179 0.01,-0.0317 0.01,-0.0413 0,-0.0124 -0.006,-0.0179 -0.01,-0.0179 -0.01,0 -0.0179,0.01 -0.0317,0.0234 -0.0455,0.0675 -0.14745,0.15021 -0.27974,0.15021 -0.12816,0 -0.22876,-0.1006 -0.22876,-0.18742 0,-0.0413 0.0234,-0.0634 0.0689,-0.0634 0.091,0 0.0634,0.14194 0.20119,0.14194 0.1006,0 0.17363,-0.073 0.17363,-0.12402 0,-0.051 -0.0909,-0.0785 -0.0909,-0.22462 0,-0.20533 0.30179,-0.15159 0.33349,-0.26596 0,-0.0593 -0.0951,-0.11852 -0.0951,-0.21498 0,-0.0221 0.004,-0.0455 0.0179,-0.073 0.0551,-0.1006 0.18328,-0.0455 0.20532,-0.11852 0.0193,-0.0648 -0.0262,-0.1061 0,-0.16536 0.12403,-0.28801 0.49059,-0.52641 0.7786,-0.61874 0.0413,-0.0124 0.0592,-0.0221 0.0592,-0.0317 0,-0.004 -0.004,-0.004 -0.0179,-0.004 -0.0138,0 -0.0317,0.004 -0.0593,0.01 -0.0923,0.0234 -0.17914,0.0262 -0.25218,0.0262 -0.073,0 -0.14194,-0.003 -0.19155,-0.003 -0.1378,0 -0.10611,0.28663 -0.35277,0.28663 -0.13781,0 -0.22876,-0.0496 -0.29766,-0.16812 -0.01,-0.0193 -0.0138,-0.0372 -0.0138,-0.0455 0,-0.0138 0.01,-0.0234 0.022,-0.0234 0.01,0 0.0289,0.004 0.051,0.0138 0.0234,0.01 0.0413,0.0138 0.0592,0.0138 0.0455,0 0.0827,-0.0331 0.11438,-0.0965 0.0138,-0.0276 0.0234,-0.0785 0.1695,-0.12815 -0.2012,-0.1006 -0.12816,-0.339 -0.22876,-0.339 -0.0634,0 -0.0868,0.0317 -0.0965,0.0648 -0.004,0.0179 -0.0179,0.0262 -0.0276,0.0262 -0.0179,0 -0.0358,-0.0221 -0.0358,-0.0537 0,-0.0138 0,-0.0289 0.008,-0.0469 0.0689,-0.15985 0.16537,-0.20119 0.28525,-0.20119 0.15021,0 0.25081,0.13229 0.2825,0.27561 0.0689,-0.20671 0.18328,-0.2384 0.2384,-0.2384 0.0551,0 0.0179,0.0675 0.0593,0.0675 0.16536,0 0.24391,0.0413 0.28387,0.14745 0.006,0.0193 0.01,0.0276 0.01,0.0413 0,0.0179 -0.01,0.0276 -0.0276,0.0276 -0.008,0 -0.0276,-0.01 -0.0455,-0.0234 -0.0234,-0.0179 -0.0551,-0.0358 -0.0868,-0.0358 -0.0331,0 -0.0593,0.0179 -0.0785,0.0827 -0.0276,0.0951 -0.12265,0.0496 -0.19568,0.13642 0.12264,0.0689 0.24115,0.0965 0.3514,0.0965 0.28387,0 0.49885,-0.20119 0.49885,-0.48093 0,-0.14194 -0.0537,-0.21498 -0.0951,-0.21498 -0.0827,0 -0.0744,0.073 -0.19293,0.073 -0.0772,0 -0.12815,-0.0689 -0.12815,-0.1378 0,-0.0772 0.0551,-0.15572 0.17914,-0.15572 0.19568,0 0.35278,0.2067 0.35278,0.42581"
       id="path3454"
       style="fill:#000000;fill-opacity:1;stroke-width:0.352778" />
    <g
       fill="#8b3f2c"
       fill-opacity="1"
       id="g3464"
       transform="matrix(0.35277777,0,0,0.35277777,-289.2217,-26.43887)"
       style="fill:#000000;fill-opacity:1">
      <g
         id="use3460"
         transform="translate(29.183201,46.698002)"
         style="fill:#000000;fill-opacity:1" />
      <g
         id="use3462"
         transform="translate(29.183201,50.936352)"
         style="fill:#000000;fill-opacity:1" />
    </g>
    <g
       aria-label="9"
       transform="rotate(90)"
       id="text15365-3"
       style="font-size:7.05556px;stroke:#000000;stroke-width:0.254;stroke-linejoin:round;stroke-opacity:0">
      <path
         d="m -12.710712,282.14689 q -0.0635,0 -0.141111,-0.0635 -0.07056,-0.0635 -0.141111,-0.15522 -0.0635,-0.0847 -0.119945,-0.17639 -0.04939,-0.0988 -0.07056,-0.16933 -0.01411,-0.0353 0,-0.0564 0.02117,-0.0282 0.05644,-0.0141 0.0635,0.0353 0.1905,0.0564 0.134056,0.0212 0.254,0.0212 0.352778,0 0.663223,-0.14816 0.310445,-0.15522 0.550334,-0.41628 0.112889,-0.127 0.204611,-0.26811 0.09878,-0.14111 0.169333,-0.3175 0.07056,-0.18345 0.112889,-0.41628 0.04939,-0.23283 0.0635,-0.53622 -0.112889,0.14816 -0.268111,0.27516 -0.155222,0.127 -0.331611,0.22578 -0.169334,0.0917 -0.359834,0.14817 -0.183444,0.0494 -0.366889,0.0494 -0.211667,0 -0.4445,-0.0776 -0.225778,-0.0776 -0.416278,-0.22578 -0.1905,-0.15522 -0.3175,-0.381 -0.127,-0.22578 -0.127,-0.52211 0,-0.34573 0.105833,-0.60678 0.112889,-0.26811 0.282222,-0.46567 0.169334,-0.19755 0.381001,-0.33161 0.218722,-0.13405 0.430389,-0.21872 0.218722,-0.0847 0.409222,-0.11995 0.1905,-0.0423 0.3175,-0.0494 h 0.09172 q 0.3175,0 0.578556,0.0705 0.268111,0.0706 0.458611,0.23989 0.1905,0.16933 0.296334,0.46567 0.112889,0.28927 0.112889,0.73378 -0.0071,0.5715 -0.176389,1.05127 -0.169334,0.47273 -0.486834,0.84667 -0.112889,0.13406 -0.275167,0.30339 -0.162278,0.16228 -0.345722,0.33867 -0.176389,0.16933 -0.36689,0.33866 -0.1905,0.16228 -0.373944,0.28928 -0.176389,0.127 -0.331612,0.20461 -0.148166,0.0776 -0.254,0.0776 z m 1.834446,-3.25966 q 0,-0.70556 -0.282223,-1.07951 -0.275166,-0.381 -0.726722,-0.381 -0.162278,0 -0.324556,0.0847 -0.155222,0.0847 -0.282222,0.24695 -0.119945,0.15522 -0.197556,0.381 -0.07056,0.22577 -0.07056,0.508 0,0.23989 0.07761,0.43744 0.08467,0.1905 0.225778,0.33161 0.141112,0.14111 0.324556,0.21872 0.183445,0.0776 0.388056,0.0776 0.225778,0 0.388056,-0.0776 0.162278,-0.0847 0.268111,-0.20461 0.105833,-0.11994 0.155222,-0.26811 0.05645,-0.14816 0.05645,-0.27516 z"
         id="path3215" />
    </g>
  </g>
</svg>
