<?xml version="1.0" encoding="UTF-8" standalone="no"?>
<!-- Created with Inkscape (http://www.inkscape.org/) -->

<svg
   width="6.8678303mm"
   height="5.2158365mm"
   viewBox="0 0 6.8678302 5.2158365"
   version="1.1"
   id="svg13595"
   xmlns="http://www.w3.org/2000/svg"
   xmlns:svg="http://www.w3.org/2000/svg">
  <defs
     id="defs13592" />
  <g
     id="layer1"
     transform="rotate(-90,-19.317089,125.74916)">
    <g
       fill="#8b3f2c"
       fill-opacity="1"
       id="g3458"
       transform="matrix(0.35277777,0,0,0.35277777,93.699184,131.95358)"
       style="fill:#000000;fill-opacity:1">
      <g
         id="use3456"
         transform="translate(21.636299,36.185398)"
         style="fill:#000000;fill-opacity:1">
        <path
           d="m 2.265625,1.015625 c 0.101563,0 0.148437,0.0625 0.140625,0.1875 C 2.394531,1.335938 2.34375,1.40625 2.25,1.40625 2.132812,1.40625 2,1.484375 1.84375,1.640625 1.6875,1.804688 1.535156,2.023438 1.390625,2.296875 1.253906,2.566406 1.128906,2.882812 1.015625,3.25 0.910156,3.613281 0.851562,4.003906 0.84375,4.421875 c 0,0.375 0.054688,0.71875 0.171875,1.03125 0.125,0.3125 0.3125,0.578125 0.5625,0.796875 0.25,0.226562 0.566406,0.410156 0.953125,0.546875 C 2.914062,6.929688 3.367188,7 3.890625,7 c 1.039063,0 1.832031,-0.257812 2.375,-0.765625 0.539063,-0.511719 0.8125,-1.1875 0.8125,-2.03125 0,-0.5 -0.054687,-0.960937 -0.15625,-1.375 C 6.816406,2.421875 6.695312,2.101562 6.5625,1.875 6.507812,1.789062 6.46875,1.726562 6.4375,1.6875 6.40625,1.65625 6.378906,1.628906 6.359375,1.609375 6.316406,1.578125 6.289062,1.5625 6.28125,1.5625 6.28125,1.5 6.296875,1.429688 6.328125,1.359375 6.367188,1.296875 6.414062,1.269531 6.46875,1.28125 6.757812,1.414062 7.195312,1.492188 7.78125,1.515625 8.363281,1.546875 9.171875,1.5625 10.203125,1.5625 c 0.425781,0 0.757813,-0.015625 1,-0.046875 0.25,-0.023437 0.4375,-0.058594 0.5625,-0.109375 0.101563,0 0.191406,0.175781 0.265625,0.53125 0.08203,0.351562 0.160156,0.851562 0.234375,1.5 -0.01172,0.101562 -0.02344,0.28125 -0.03125,0.53125 0,0.25 -0.0078,0.546875 -0.01563,0.890625 -0.01172,0.34375 -0.02344,0.710937 -0.03125,1.109375 0,0.40625 0,0.800781 0,1.1875 0,0.507812 0.01563,0.9375 0.04687,1.28125 0.03125,0.34375 0.06641,0.617188 0.109375,0.828125 0.05078,0.21875 0.101562,0.382813 0.15625,0.5 0.0625,0.125 0.113281,0.21875 0.15625,0.28125 0.01953,0.03125 0.01563,0.0625 -0.01563,0.09375 -0.02344,0.03906 -0.04297,0.0625 -0.0625,0.0625 H 12.53125 L 12.140625,9.90625 C 12.023438,9.800781 11.835938,9.628906 11.578125,9.390625 11.328125,9.148438 11.070312,8.875 10.8125,8.5625 c 0,-0.179688 -0.0078,-0.371094 -0.01563,-0.578125 0,-0.199219 0,-0.453125 0,-0.765625 0,-0.3125 -0.0078,-0.695312 -0.01563,-1.140625 0,-0.449219 0,-1.011719 0,-1.6875 0,-0.324219 0,-0.5625 0,-0.71875 0.0078,-0.15625 -0.0078,-0.292969 -0.04687,-0.40625 C 10.617188,3.234375 10.429688,3.207031 10.171875,3.1875 9.910156,3.175781 9.628906,3.160156 9.328125,3.140625 9.035156,3.128906 8.75,3.117188 8.46875,3.109375 c -0.28125,0 -0.507812,0 -0.671875,0 0.050781,0.113281 0.101563,0.269531 0.15625,0.46875 0.0625,0.207031 0.117187,0.425781 0.171875,0.65625 0.0625,0.238281 0.113281,0.472656 0.15625,0.703125 0.039062,0.238281 0.0625,0.457031 0.0625,0.65625 0,0.351562 -0.046875,0.738281 -0.140625,1.15625 -0.09375,0.425781 -0.261719,0.8125 -0.5,1.15625 C 7.472656,8.257812 7.144531,8.550781 6.71875,8.78125 6.289062,9.019531 5.742188,9.140625 5.078125,9.140625 4.703125,9.128906 4.3125,9.039062 3.90625,8.875 3.5,8.707031 3.09375,8.484375 2.6875,8.203125 2.289062,7.929688 1.90625,7.609375 1.53125,7.234375 1.164062,6.859375 0.847656,6.460938 0.578125,6.046875 0.304688,5.640625 0.0859375,5.21875 -0.078125,4.78125 c -0.164063,-0.4375 -0.25,-0.859375 -0.25,-1.265625 0,-0.210937 0,-0.433594 0,-0.671875 0,-0.230469 0.011719,-0.460938 0.03125,-0.6875 C -0.285156,1.925781 -0.257812,1.707031 -0.21875,1.5 -0.175781,1.289062 -0.109375,1.117188 -0.015625,0.984375 Z m 0,0"
           id="path13643"
           style="fill:#000000;fill-opacity:1" />
      </g>
    </g>
    <g
       fill="#8b3f2c"
       fill-opacity="1"
       id="g3464"
       transform="matrix(0.35277777,0,0,0.35277777,93.699184,131.95358)"
       style="fill:#000000;fill-opacity:1">
      <g
         id="use3460"
         transform="translate(29.183201,46.698002)"
         style="fill:#000000;fill-opacity:1">
        <path
           d="m 1.25,4.53125 c 0.00781,0.00781 0.00781,0.019531 0,0.03125 -0.011719,0.00781 -0.03125,0.015625 -0.0625,0.015625 -0.03125,0.00781 -0.0625,0.00781 -0.09375,0 C 1.070312,4.566406 1.050781,4.554688 1.03125,4.546875 0.914062,4.421875 0.796875,4.265625 0.671875,4.078125 0.546875,3.898438 0.425781,3.71875 0.3125,3.53125 0.28125,3.476562 0.238281,3.398438 0.1875,3.296875 0.144531,3.203125 0.0976562,3.097656 0.046875,2.984375 0.00390625,2.867188 -0.03125,2.75 -0.0625,2.625 -0.09375,2.5 -0.109375,2.382812 -0.109375,2.28125 c 0,-0.21875 0.0429688,-0.429688 0.125,-0.625 0.0820312,-0.1875 0.195313,-0.355469 0.34375,-0.5 C 0.515625,1.007812 0.691406,0.894531 0.890625,0.8125 1.097656,0.738281 1.320312,0.703125 1.5625,0.703125 c 0.257812,0 0.503906,0.03125 0.734375,0.09375 0.226563,0.070313 0.429687,0.15625 0.609375,0.25 0.175781,0.09375 0.328125,0.179687 0.453125,0.265625 0.125,0.082031 0.21875,0.140625 0.28125,0.171875 0.00781,-0.117187 0.015625,-0.21875 0.015625,-0.3125 0,-0.09375 0,-0.183594 0,-0.265625 0,-0.1875 0,-0.351562 0,-0.484375 0,-0.136719 -0.015625,-0.25 -0.046875,-0.34375 C 3.597656,0.0234375 3.570312,-0.0195312 3.53125,-0.0625 3.5,-0.101562 3.472656,-0.140625 3.453125,-0.171875 3.472656,-0.179688 3.492188,-0.195312 3.515625,-0.21875 3.535156,-0.238281 3.554688,-0.25 3.578125,-0.25 c 0.00781,0 0.019531,0 0.03125,0 0,0 0.03125,0.042969 0.09375,0.125 0.0625,0.0742188 0.132813,0.1640625 0.21875,0.28125 0.09375,0.125 0.191406,0.253906 0.296875,0.390625 0.101562,0.144531 0.203125,0.28125 0.296875,0.40625 0.09375,0.132813 0.171875,0.25 0.234375,0.34375 0.0625,0.09375 0.097656,0.15625 0.109375,0.1875 0.00781,0.03125 0,0.0625 -0.03125,0.09375 C 4.804688,1.617188 4.789062,1.632812 4.78125,1.625 4.769531,1.601562 4.75,1.570312 4.71875,1.53125 4.6875,1.5 4.660156,1.492188 4.640625,1.515625 4.578125,1.578125 4.523438,1.6875 4.484375,1.84375 4.441406,2.007812 4.40625,2.191406 4.375,2.390625 4.351562,2.597656 4.332031,2.8125 4.3125,3.03125 4.300781,3.25 4.296875,3.445312 4.296875,3.625 c 0,0.257812 0.00391,0.46875 0.015625,0.625 0.019531,0.15625 0.039062,0.285156 0.0625,0.390625 0.03125,0.09375 0.050781,0.15625 0.0625,0.1875 0,0 -0.011719,0.00781 -0.03125,0.03125 C 4.382812,4.878906 4.363281,4.890625 4.34375,4.890625 4.332031,4.890625 4.300781,4.84375 4.25,4.75 4.207031,4.664062 4.15625,4.578125 4.09375,4.484375 4.070312,4.429688 4.035156,4.367188 3.984375,4.296875 3.929688,4.222656 3.882812,4.140625 3.84375,4.046875 3.800781,3.960938 3.757812,3.867188 3.71875,3.765625 3.6875,3.671875 3.664062,3.582031 3.65625,3.5 3.644531,3.40625 3.632812,3.296875 3.625,3.171875 c 0,-0.117187 -0.00781,-0.242187 -0.015625,-0.375 0,-0.136719 0,-0.273437 0,-0.40625 0,-0.136719 0,-0.261719 0,-0.375 C 3.578125,2.003906 3.523438,1.976562 3.453125,1.9375 3.378906,1.894531 3.289062,1.851562 3.1875,1.8125 3.082031,1.78125 2.957031,1.75 2.8125,1.71875 2.675781,1.695312 2.523438,1.6875 2.359375,1.6875 2.117188,1.6875 1.894531,1.722656 1.6875,1.796875 1.476562,1.867188 1.296875,1.972656 1.140625,2.109375 0.992188,2.242188 0.878906,2.40625 0.796875,2.59375 c -0.085937,0.1875 -0.125,0.390625 -0.125,0.609375 0,0.125 0.015625,0.242187 0.046875,0.359375 C 0.75,3.675781 0.785156,3.785156 0.828125,3.890625 0.878906,4.003906 0.929688,4.101562 0.984375,4.1875 1.046875,4.28125 1.101562,4.359375 1.15625,4.421875 Z m 0,0"
           id="path13639"
           style="fill:#000000;fill-opacity:1" />
      </g>
      <g
         id="use3462"
         transform="translate(29.183201,50.936352)"
         style="fill:#000000;fill-opacity:1">
        <path
           d="M 3.515625,1.703125 C 3.617188,1.816406 3.726562,1.945312 3.84375,2.09375 3.96875,2.25 4.078125,2.410156 4.171875,2.578125 c 0.101563,0.164063 0.1875,0.335937 0.25,0.515625 0.0625,0.1875 0.09375,0.375 0.09375,0.5625 C 4.515625,3.863281 4.476562,4.0625 4.40625,4.25 4.34375,4.445312 4.242188,4.613281 4.109375,4.75 3.972656,4.894531 3.8125,5.007812 3.625,5.09375 3.445312,5.1875 3.242188,5.234375 3.015625,5.234375 c -0.460937,0 -0.886719,-0.085937 -1.28125,-0.25 C 1.347656,4.828125 1.007812,4.640625 0.71875,4.421875 0.425781,4.210938 0.1875,4.003906 0,3.796875 -0.195312,3.585938 -0.328125,3.429688 -0.390625,3.328125 -0.410156,3.296875 -0.40625,3.265625 -0.375,3.234375 c 0.03125,-0.03125 0.070312,-0.03125 0.109375,0 C -0.234375,3.285156 -0.144531,3.359375 0,3.453125 0.132812,3.554688 0.3125,3.65625 0.53125,3.75 0.75,3.851562 0.992188,3.941406 1.265625,4.015625 c 0.28125,0.082031 0.582031,0.125 0.90625,0.125 0.257813,0 0.488281,-0.03125 0.6875,-0.09375 C 3.066406,3.984375 3.238281,3.894531 3.375,3.78125 3.519531,3.675781 3.628906,3.550781 3.703125,3.40625 3.773438,3.269531 3.8125,3.125 3.8125,2.96875 3.8125,2.851562 3.796875,2.734375 3.765625,2.609375 3.734375,2.492188 3.6875,2.382812 3.625,2.28125 3.550781,2.175781 3.46875,2.070312 3.375,1.96875 3.28125,1.863281 3.179688,1.789062 3.078125,1.75 3.054688,1.726562 3.035156,1.710938 3.015625,1.703125 2.992188,1.703125 2.960938,1.695312 2.921875,1.6875 2.878906,1.675781 2.828125,1.664062 2.765625,1.65625 2.710938,1.644531 2.632812,1.640625 2.53125,1.640625 2.351562,1.617188 2.179688,1.601562 2.015625,1.59375 1.847656,1.582031 1.648438,1.578125 1.421875,1.578125 1.128906,1.578125 0.898438,1.59375 0.734375,1.625 0.578125,1.664062 0.488281,1.773438 0.46875,1.953125 c 0,0.019531 0,0.039063 0,0.0625 0.007812,0.019531 0.015625,0.046875 0.015625,0.078125 0.007813,0.019531 0.019531,0.050781 0.03125,0.09375 0,0.019531 -0.011719,0.03125 -0.03125,0.03125 C 0.460938,2.226562 0.445312,2.234375 0.4375,2.234375 0.414062,2.234375 0.382812,2.203125 0.34375,2.140625 0.3125,2.078125 0.273438,1.992188 0.234375,1.890625 0.203125,1.785156 0.164062,1.671875 0.125,1.546875 0.0820312,1.421875 0.046875,1.304688 0.015625,1.203125 -0.015625,1.085938 -0.0390625,0.988281 -0.0625,0.90625 -0.09375,0.820312 -0.109375,0.765625 -0.109375,0.734375 c 0,-0.179687 0.0703125,-0.265625 0.203125,-0.265625 0.03125,0 0.085938,0.015625 0.171875,0.046875 0.082031,0.03125 0.210937,0.054687 0.390625,0.078125 0.25,0.019531 0.523438,0.039062 0.828125,0.0625 0.3125,0.03125 0.617187,0.050781 0.921875,0.0625 0.3125,0.007812 0.613281,0.019531 0.90625,0.03125 0.289062,0.007812 0.554688,0.015625 0.796875,0.015625 0.4375,0 0.800781,-0.011719 1.09375,-0.03125 C 5.503906,0.722656 5.722656,0.710938 5.859375,0.703125 6.015625,0.679688 6.113281,0.660156 6.15625,0.640625 6.207031,0.628906 6.253906,0.613281 6.296875,0.59375 c 0.0625,-0.03125 0.101563,-0.074219 0.125,-0.125 0.019531,-0.042969 0.03125,-0.085938 0.03125,-0.125 0.00781,-0.042969 0.00781,-0.078125 0,-0.109375 0,-0.023437 0.00391,-0.03125 0.015625,-0.03125 0.09375,0 0.164062,0.023437 0.21875,0.078125 0.050781,0.0625 0.078125,0.132812 0.078125,0.21875 0,0.175781 0,0.359375 0,0.546875 0.00781,0.1875 0.019531,0.359375 0.03125,0.515625 C 6.804685,1.695312 6.820312,1.816406 6.84375,1.921875 6.875,2.035156 6.894531,2.113281 6.90625,2.15625 6.91406,2.195312 6.91016,2.21875 6.890625,2.21875 6.867188,2.226562 6.832031,2.234375 6.78125,2.234375 6.738281,2.234375 6.707031,2.21875 6.6875,2.1875 6.675781,2.15625 6.660156,2.117188 6.640625,2.078125 6.628906,2.046875 6.617188,2.015625 6.609375,1.984375 c 0,-0.03125 -0.011719,-0.054687 -0.03125,-0.0625 C 6.535156,1.890625 6.421875,1.863281 6.234375,1.84375 6.046875,1.820312 5.8125,1.800781 5.53125,1.78125 5.25,1.757812 4.929688,1.738281 4.578125,1.71875 4.234375,1.707031 3.878906,1.695312 3.515625,1.6875 Z m 0,0"
           id="path13635"
           style="fill:#000000;fill-opacity:1" />
      </g>
    </g>
  </g>
</svg>
