<?xml version="1.0" encoding="UTF-8" standalone="no"?>
<!-- Created with Inkscape (http://www.inkscape.org/) -->

<svg
   width="10.400393mm"
   height="10.404898mm"
   viewBox="0 0 10.400393 10.404898"
   version="1.1"
   id="svg30986"
   xmlns="http://www.w3.org/2000/svg"
   xmlns:svg="http://www.w3.org/2000/svg">
  <defs
     id="defs30983" />
  <g
     id="layer1"
     transform="rotate(-45,-138.69749,164.2372)">
    <path
       fill-rule="nonzero"
       fill="#6ac0bb"
       fill-opacity="1"
       d="m 71.156629,156.24589 -0.0069,-5.41294 c 0,-0.22738 0.183278,-0.41203 0.410654,-0.41203 l 7.887892,-0.01 c 0.225997,-0.001 0.410655,0.18328 0.410655,0.41066 l 0.0083,5.41293 c 0,0.22738 -0.184658,0.41066 -0.410658,0.41204 l -7.887889,0.01 c -0.227376,0 -0.412034,-0.18328 -0.412034,-0.41065"
       id="path4852"
       style="stroke-width:0.352778" />
    <path
       fill="none"
       stroke-width="0.176389"
       stroke-linecap="butt"
       stroke-linejoin="miter"
       stroke="#231f20"
       stroke-opacity="1"
       stroke-miterlimit="10"
       d="m 71.156629,156.24588 -0.0069,-5.41293 c 0,-0.22738 0.183279,-0.41203 0.410656,-0.41203 l 7.88789,-0.01 c 0.225998,-0.001 0.410655,0.18328 0.410655,0.41066 l 0.0083,5.41293 c 0,0.22738 -0.184657,0.41066 -0.410655,0.41204 l -7.887891,0.01 c -0.227377,0 -0.412034,-0.18328 -0.412034,-0.41066 z m 0,0"
       id="path4854" />
    <path
       fill-rule="nonzero"
       fill="#ffffff"
       fill-opacity="1"
       d="m 74.738149,155.47694 c 0.04686,-0.12678 0.14194,-0.39688 0.234269,-0.71382 l 0.537432,0.23288 c -0.137802,0.26183 -0.396875,0.42306 -0.771701,0.48094 m -1.167197,-2.62379 c 0.0083,-0.19705 0.07855,-0.64216 0.516763,-0.80201 l 0.01792,0.54157 c -0.152965,0.051 -0.32384,0.13367 -0.534681,0.26044 m 3.661449,1.77078 c -0.0303,-0.16812 -0.107488,-0.46026 -0.279742,-0.72484 l 0.372071,-0.22876 c 0.16123,0.23978 0.132292,0.5526 -0.09233,0.9536 m -0.825447,0.95361 c -0.0041,-0.14332 -0.02067,-0.44235 -0.09784,-0.76481 l 0.439592,-0.14194 c 0.07442,0.36931 -0.03721,0.67386 -0.341753,0.90675 m -0.203948,-0.78686 c 0.09784,0.38723 0.106109,0.74552 0.106109,0.84611 l -0.0028,0.12816 0.07855,-0.051 c 0.412034,-0.27285 0.564999,-0.65319 0.450621,-1.11896 -0.124026,-0.48921 -0.509877,-0.9412 -0.694531,-1.13551 0.288008,0.0469 0.523653,0.19982 0.702797,0.45338 0.267342,0.37896 0.311439,0.85576 0.311439,0.86127 l 0.01242,0.14607 0.07855,-0.1254 c 0.32246,-0.51263 0.365182,-0.92328 0.132292,-1.22232 -0.237025,-0.30317 -0.713825,-0.43132 -1.062468,-0.52503 -0.16123,-0.0427 -0.403765,-0.10749 -0.403765,-0.15572 0,-0.003 0,-0.01 0.0096,-0.0221 0.264583,-0.35829 1.572341,-0.78548 1.586124,-0.79099 l 0.03447,-0.011 -0.0014,-0.58428 -0.526411,-0.18466 -1.511709,0.83509 c -0.573264,-0.22876 -1.037661,-0.2949 -1.380794,-0.19844 -0.604957,0.17088 -0.651813,0.78273 -0.650434,0.96601 0,0.0276 0,0.0427 0,0.0427 l 0.0069,0.0813 0.0689,-0.0427 c 0.254938,-0.15847 0.451996,-0.25631 0.622875,-0.30868 0.361047,-0.11162 0.609092,-0.0152 0.851626,0.33349 0.159855,0.23013 0.115757,0.81993 -0.128157,1.67431 -0.132291,0.46027 -0.275607,0.83234 -0.276987,0.83647 l -0.02893,0.0744 0.08131,-0.008 c 0.4768,-0.051 0.799264,-0.25081 0.95498,-0.59256 0.07028,-0.15296 0.106109,-0.33486 0.106109,-0.54019 0,-0.26183 -0.05925,-0.50436 -0.101974,-0.64768 0.267338,0.19568 0.460265,0.52641 0.574643,0.98668"
       id="path4856"
       style="stroke-width:0.352778" />
  </g>
</svg>
