<?xml version="1.0" encoding="UTF-8" standalone="no"?>
<!-- Created with Inkscape (http://www.inkscape.org/) -->

<svg
   width="6.1281362mm"
   height="6.1281371mm"
   viewBox="0 0 6.1281361 6.1281372"
   version="1.1"
   id="svg19488"
   xmlns="http://www.w3.org/2000/svg"
   xmlns:svg="http://www.w3.org/2000/svg">
  <defs
     id="defs19485">
    <clipPath
       id="clip-72">
      <path
         clip-rule="nonzero"
         d="m 108,301 h 19 v 18 h -19 z m 0,0"
         id="path2384" />
    </clipPath>
    <clipPath
       id="clip-73">
      <path
         clip-rule="nonzero"
         d="m 126.03906,310.77734 -0.69922,-0.70312 -8.60937,-8.60938 c -0.28516,-0.28125 -0.74219,-0.28125 -1.02344,0 l -6.61328,6.61328 c -0.28125,0.28516 -0.28125,0.74219 0,1.02344 l 9.3125,9.3125 c 0.28125,0.28125 0.73828,0.28125 1.01953,0 l 6.61328,-6.61328 c 0.14453,-0.14453 0.21485,-0.32812 0.21485,-0.51172 0,-0.1875 -0.0703,-0.37109 -0.21485,-0.51172"
         id="path2387" />
    </clipPath>
    <clipPath
       id="clip-68">
      <path
         clip-rule="nonzero"
         d="m 111,301 h 13 v 9 h -13 z m 0,0"
         id="path2372" />
    </clipPath>
    <clipPath
       id="clip-69">
      <path
         clip-rule="nonzero"
         d="m 126.03906,310.77734 -0.69922,-0.70312 -8.60937,-8.60938 c -0.28516,-0.28125 -0.74219,-0.28125 -1.02344,0 l -6.61328,6.61328 c -0.28125,0.28516 -0.28125,0.74219 0,1.02344 l 9.3125,9.3125 c 0.28125,0.28125 0.73828,0.28125 1.01953,0 l 6.61328,-6.61328 c 0.14453,-0.14453 0.21485,-0.32812 0.21485,-0.51172 0,-0.1875 -0.0703,-0.37109 -0.21485,-0.51172"
         id="path2375" />
    </clipPath>
    <clipPath
       id="clip-70">
      <path
         clip-rule="nonzero"
         d="m 108,303 h 10 v 14 h -10 z m 0,0"
         id="path2378" />
    </clipPath>
    <clipPath
       id="clip-71">
      <path
         clip-rule="nonzero"
         d="m 126.03906,310.77734 -0.69922,-0.70312 -8.60937,-8.60938 c -0.28516,-0.28125 -0.74219,-0.28125 -1.02344,0 l -6.61328,6.61328 c -0.28125,0.28516 -0.28125,0.74219 0,1.02344 l 9.3125,9.3125 c 0.28125,0.28125 0.73828,0.28125 1.01953,0 l 6.61328,-6.61328 c 0.14453,-0.14453 0.21485,-0.32812 0.21485,-0.51172 0,-0.1875 -0.0703,-0.37109 -0.21485,-0.51172"
         id="path2381" />
    </clipPath>
    <clipPath
       id="clip-66">
      <path
         clip-rule="nonzero"
         d="m 111,309 h 14 v 10 h -14 z m 0,0"
         id="path2366" />
    </clipPath>
    <clipPath
       id="clip-67">
      <path
         clip-rule="nonzero"
         d="m 126.03906,310.77734 -0.69922,-0.70312 -8.60937,-8.60938 c -0.28516,-0.28125 -0.74219,-0.28125 -1.02344,0 l -6.61328,6.61328 c -0.28125,0.28516 -0.28125,0.74219 0,1.02344 l 9.3125,9.3125 c 0.28125,0.28125 0.73828,0.28125 1.01953,0 l 6.61328,-6.61328 c 0.14453,-0.14453 0.21485,-0.32812 0.21485,-0.51172 0,-0.1875 -0.0703,-0.37109 -0.21485,-0.51172"
         id="path2369" />
    </clipPath>
    <clipPath
       id="clip-64">
      <path
         clip-rule="nonzero"
         d="m 117,303 h 10 v 14 h -10 z m 0,0"
         id="path2360" />
    </clipPath>
    <clipPath
       id="clip-65">
      <path
         clip-rule="nonzero"
         d="m 126.03906,310.77734 -0.69922,-0.70312 -8.60937,-8.60938 c -0.28516,-0.28125 -0.74219,-0.28125 -1.02344,0 l -6.61328,6.61328 c -0.28125,0.28516 -0.28125,0.74219 0,1.02344 l 9.3125,9.3125 c 0.28125,0.28125 0.73828,0.28125 1.01953,0 l 6.61328,-6.61328 c 0.14453,-0.14453 0.21485,-0.32812 0.21485,-0.51172 0,-0.1875 -0.0703,-0.37109 -0.21485,-0.51172"
         id="path2363" />
    </clipPath>
  </defs>
  <g
     id="layer1"
     transform="rotate(-90,-18.959237,126.4767)">
    <g
       clip-path="url(#clip-64)"
       id="g6518"
       transform="matrix(0.35277777,0,0,0.35277777,62.977886,39.160252)">
      <g
         clip-path="url(#clip-65)"
         id="g6516">
        <path
           fill-rule="nonzero"
           fill="#f78b57"
           fill-opacity="1"
           d="m 117.56641,309.94141 6.20703,-6.20704 6.55078,6.55079 -6.20703,6.20312 z m 0,0"
           id="path6514" />
      </g>
    </g>
    <g
       clip-path="url(#clip-66)"
       id="g6524"
       transform="matrix(0.35277777,0,0,0.35277777,62.977886,39.160252)">
      <g
         clip-path="url(#clip-67)"
         id="g6522">
        <path
           fill-rule="nonzero"
           fill="#6ac0bb"
           fill-opacity="1"
           d="m 111.36328,316.14453 6.20313,-6.20312 6.55078,6.54687 -6.20703,6.20703 z m 0,0"
           id="path6520" />
      </g>
    </g>
    <g
       clip-path="url(#clip-68)"
       id="g6530"
       transform="matrix(0.35277777,0,0,0.35277777,62.977886,39.160252)">
      <g
         clip-path="url(#clip-69)"
         id="g6528">
        <path
           fill-rule="nonzero"
           fill="#d93a30"
           fill-opacity="1"
           d="m 111.01563,303.39062 6.20703,-6.20703 6.55078,6.55078 -6.20703,6.20313 z m 0,0"
           id="path6526" />
      </g>
    </g>
    <g
       clip-path="url(#clip-70)"
       id="g6536"
       transform="matrix(0.35277777,0,0,0.35277777,62.977886,39.160252)">
      <g
         clip-path="url(#clip-71)"
         id="g6534">
        <path
           fill-rule="nonzero"
           fill="#fce545"
           fill-opacity="1"
           d="m 104.8125,309.59375 6.20313,-6.20313 6.55078,6.55079 -6.20313,6.20312 z m 0,0"
           id="path6532" />
      </g>
    </g>
    <g
       clip-path="url(#clip-72)"
       id="g6544"
       transform="matrix(0.35277777,0,0,0.35277777,62.977886,39.160252)">
      <g
         clip-path="url(#clip-73)"
         id="g6542">
        <path
           fill="none"
           stroke-width="1.941"
           stroke-linecap="butt"
           stroke-linejoin="miter"
           stroke="#ffffff"
           stroke-opacity="1"
           stroke-miterlimit="10"
           d="M -2.125e-4,-1.25e-4 -0.703338,-0.70325 c -0.28125,-0.28125 -0.738281,-0.28125 -1.023437,0 l -6.613281,6.613281 c -0.28125,0.28125 -0.28125,0.738281 0,1.023438 l 8.609375,8.609375 0.703125,0.699218 c 0.28125,0.285157 0.738281,0.285157 1.023437,0 L 8.609162,9.628781 c 0.28125,-0.28125 0.28125,-0.738281 0,-1.019531 z m 0,0"
           transform="matrix(0,1,1,0,109.797,309.8049)"
           id="path6538" />
        <path
           fill-rule="nonzero"
           fill="#231f20"
           fill-opacity="1"
           d="m 126.25391,311.28906 c 0,-0.1875 -0.0703,-0.37109 -0.21485,-0.51172 l -0.70312,-0.70312 -7.90235,-7.90625 -0.70312,-0.70313 c -0.28125,-0.28125 -0.74219,-0.28125 -1.02344,0 l -6.61328,6.61328 c -0.14062,0.14454 -0.21094,0.32813 -0.21094,0.51172 0,0.1836 0.0703,0.3711 0.21094,0.51172 l 9.3125,9.3125 c 0.28125,0.28125 0.73828,0.28125 1.01953,0 l 6.61328,-6.61328 c 0.14453,-0.14453 0.21485,-0.32812 0.21485,-0.51172 m -0.2461,0 c 0,0.12891 -0.0469,0.25 -0.13672,0.33985 l -6.61718,6.61328 c -0.1836,0.1875 -0.48828,0.1875 -0.67578,0 l -9.3125,-9.3125 c -0.0898,-0.0899 -0.14063,-0.21094 -0.14063,-0.33985 0,-0.1289 0.0508,-0.24609 0.14063,-0.33984 l 6.61328,-6.61328 c 0.1875,-0.1875 0.49218,-0.1875 0.67968,0 l 0.70313,0.70312 7.90234,7.90625 0.70703,0.70313 c 0.0898,0.0898 0.13672,0.21094 0.13672,0.33984"
           id="path6540" />
      </g>
    </g>
  </g>
</svg>
