<?xml version="1.0" encoding="UTF-8" standalone="no"?>
<!-- Created with Inkscape (http://www.inkscape.org/) -->

<svg
   width="6.4354243mm"
   height="8.9035082mm"
   viewBox="0 0 6.4354246 8.9035079"
   version="1.1"
   id="svg34570"
   sodipodi:docname="fox_card.svg"
   inkscape:version="1.2.2 (b0a84865, 2022-12-01)"
   xmlns:inkscape="http://www.inkscape.org/namespaces/inkscape"
   xmlns:sodipodi="http://sodipodi.sourceforge.net/DTD/sodipodi-0.dtd"
   xmlns="http://www.w3.org/2000/svg"
   xmlns:svg="http://www.w3.org/2000/svg">
  <sodipodi:namedview
     id="namedview39559"
     pagecolor="#ffffff"
     bordercolor="#000000"
     borderopacity="0.25"
     inkscape:showpageshadow="2"
     inkscape:pageopacity="0.0"
     inkscape:pagecheckerboard="0"
     inkscape:deskcolor="#d1d1d1"
     inkscape:document-units="mm"
     showgrid="false"
     inkscape:zoom="9.7028049"
     inkscape:cx="11.594585"
     inkscape:cy="16.799266"
     inkscape:window-width="1309"
     inkscape:window-height="456"
     inkscape:window-x="0"
     inkscape:window-y="25"
     inkscape:window-maximized="0"
     inkscape:current-layer="svg34570" />
  <defs
     id="defs34567" />
  <g
     id="layer1"
     transform="rotate(-90,-80.65566,103.45813)">
    <path
       fill-rule="nonzero"
       fill="#d93a30"
       fill-opacity="1"
       d="m 13.987154,190.02421 0.01654,-5.41294 c 0.0014,-0.22737 0.186034,-0.41065 0.41341,-0.40928 l 7.886512,0.0234 c 0.227376,0.001 0.410655,0.18604 0.410655,0.41341 l -0.01655,5.41294 c 0,0.226 -0.186038,0.41065 -0.412034,0.40927 l -7.887892,-0.0234 c -0.227376,-0.001 -0.410655,-0.18604 -0.410655,-0.41341"
       id="path4838"
       style="stroke-width:0.352778" />
    <path
       fill="none"
       stroke-width="0.176389"
       stroke-linecap="butt"
       stroke-linejoin="miter"
       stroke="#231f20"
       stroke-opacity="1"
       stroke-miterlimit="10"
       d="m 13.987154,190.0242 0.01654,-5.41293 c 0.0014,-0.22738 0.186035,-0.41066 0.413411,-0.40928 l 7.886513,0.0234 c 0.227376,0.001 0.410655,0.18604 0.410655,0.41341 l -0.01653,5.41294 c 0,0.22599 -0.186035,0.41065 -0.412034,0.40927 l -7.887892,-0.0234 c -0.227376,-0.001 -0.410655,-0.18603 -0.410655,-0.41341 z m 0,0"
       id="path4840" />
    <path
       fill-rule="nonzero"
       fill="#ffffff"
       fill-opacity="1"
       d="m 18.347268,188.04948 c -0.0069,0.0841 -0.03583,0.18741 -0.100598,0.31419 l -0.592557,-0.59669 c 0.169499,-0.022 0.661458,-0.0551 0.693155,0.2825 m -0.09371,-1.75149 c 0.06339,0.12816 0.09233,0.23013 0.09784,0.31557 -0.03306,0.33624 -0.526408,0.30041 -0.694531,0.27836 z m 0.362422,3.43683 c 0,0 -0.03583,-0.46578 -0.259069,-0.80202 0.0014,0.001 0.409279,0.35553 0.986674,0.39412 0,0 -0.129533,-0.37207 -0.445104,-0.52228 0.0028,0 0.763433,0.20533 1.565452,-0.64768 0,0 -0.445107,-0.50436 -1.077627,-0.69177 v -0.26045 c 0.633896,-0.18466 1.083137,-0.68626 1.083137,-0.68626 -0.796505,-0.85714 -1.558561,-0.65733 -1.562696,-0.65595 0.31695,-0.14883 0.447862,-0.5209 0.447862,-0.5209 -0.576019,0.0358 -0.986674,0.38723 -0.988053,0.38861 0.224621,-0.33487 0.263207,-0.80064 0.263207,-0.80064 -1.003211,0.69315 -2.178677,2.12769 -2.378494,2.37574 -0.0055,0.007 -0.01242,0.0138 -0.01655,0.0193 0.0041,0.006 0.0096,0.0124 0.01655,0.0193 0.198437,0.25081 1.365634,1.69223 2.364711,2.3909"
       id="path4842"
       style="stroke-width:0.352778" />
  </g>
</svg>
