<?xml version="1.0" encoding="UTF-8" standalone="no"?>
<!-- Created with Inkscape (http://www.inkscape.org/) -->

<svg
   width="10.407102mm"
   height="10.397779mm"
   viewBox="0 0 10.407102 10.397779"
   version="1.1"
   id="svg34570"
   xmlns="http://www.w3.org/2000/svg"
   xmlns:svg="http://www.w3.org/2000/svg">
  <defs
     id="defs34567" />
  <g
     id="layer1"
     transform="rotate(-63,-139.34004,109.07762)">
    <path
       fill-rule="nonzero"
       fill="#f78b57"
       fill-opacity="1"
       d="m 13.856241,191.92176 1.686719,-5.14283 c 0.07028,-0.21636 0.303167,-0.33349 0.518142,-0.26321 l 7.495149,2.45704 c 0.216351,0.0703 0.333484,0.30317 0.263204,0.51952 l -1.686719,5.14284 c -0.07028,0.21635 -0.303167,0.33349 -0.518142,0.26321 l -7.495149,-2.45705 c -0.216351,-0.0717 -0.333484,-0.30316 -0.263204,-0.51952"
       id="path4832"
       style="stroke-width:0.352778" />
    <path
       fill="none"
       stroke-width="0.176389"
       stroke-linecap="butt"
       stroke-linejoin="miter"
       stroke="#231f20"
       stroke-opacity="1"
       stroke-miterlimit="10"
       d="m 13.85624,191.92177 1.686718,-5.14284 c 0.07028,-0.21635 0.303169,-0.33349 0.518143,-0.26321 l 7.49515,2.45704 c 0.216351,0.0703 0.333485,0.30317 0.263205,0.51952 l -1.686719,5.14284 c -0.07028,0.21636 -0.303168,0.33349 -0.518142,0.26321 l -7.49515,-2.45704 c -0.216352,-0.0717 -0.333485,-0.30317 -0.263205,-0.51952 z m 0,0"
       id="path4834" />
    <path
       fill-rule="nonzero"
       fill="#ffffff"
       fill-opacity="1"
       d="m 18.901239,189.41236 c 0.194303,0.0634 0.30179,0.27423 0.2384,0.46853 -0.0014,0.001 -0.0014,0.001 -0.0014,0.001 -0.06477,0.1943 -0.274229,0.30041 -0.468532,0.23702 -0.194303,-0.0634 -0.30179,-0.27285 -0.2384,-0.46716 0,-0.001 0,-0.001 0,-0.001 0.06477,-0.19568 0.274229,-0.30179 0.469911,-0.2384 m -0.241159,1.93201 c 0,0 0,0.001 0,0.001 -0.06339,0.19431 -0.274228,0.30041 -0.468531,0.23702 -0.194303,-0.0648 -0.300412,-0.27285 -0.2384,-0.46853 0,0 0,0 0,-0.001 0.06477,-0.19431 0.274228,-0.30179 0.46991,-0.23703 0.194303,0.0634 0.301791,0.27285 0.237021,0.46854 m 0.790995,1.95543 c 0.527791,0.17226 1.095541,-0.11575 1.267795,-0.64354 0.173634,-0.52917 -0.114378,-1.09692 -0.643544,-1.26918 -0.01379,-0.004 -0.02618,-0.008 -0.03996,-0.0124 0.06201,-0.10335 0.114378,-0.21497 0.15434,-0.33486 0,-10e-4 0,-0.003 0.0014,-0.004 0,-0.001 0,-0.001 0,-0.003 0.03996,-0.12127 0.06339,-0.24116 0.07441,-0.36242 0.01379,0.006 0.02618,0.01 0.03996,0.0138 0.527787,0.17363 1.095541,-0.11438 1.267795,-0.64355 0.17363,-0.52779 -0.114378,-1.09554 -0.643544,-1.26779 -0.489204,-0.15985 -1.011481,0.0758 -1.223698,0.53054 -0.15572,-0.13367 -0.340378,-0.23978 -0.547081,-0.3073 -0.279742,-0.091 -0.566374,-0.10197 -0.833712,-0.0455 l -0.09922,-0.44097 -0.272853,0.062 0.104729,0.46027 c -0.06339,0.0248 -0.124022,0.0537 -0.183278,0.0868 l -0.219107,-0.41893 -0.246669,0.12816 0.23289,0.44786 c -0.23427,0.18879 -0.418924,0.44511 -0.519522,0.75241 0,0.001 -0.0014,0.003 -0.0014,0.004 0,10e-4 -0.0014,0.003 -0.0014,0.004 -0.104733,0.32108 -0.103354,0.65181 -0.01517,0.95222 l -0.479559,0.23703 0.122647,0.24942 0.457507,-0.226 c 0.02893,0.0579 0.06064,0.11438 0.09509,0.16812 l -0.387152,0.33762 0.183279,0.20946 0.376205,-0.32659 c 0.180524,0.1943 0.410655,0.34726 0.680749,0.43546 0.208086,0.0675 0.418923,0.0909 0.624254,0.0744 -0.09784,0.49334 0.184654,0.99219 0.673858,1.15204"
       id="path4836"
       style="stroke-width:0.352778" />
  </g>
</svg>
