<?xml version="1.0" encoding="UTF-8" standalone="no"?>
<!-- Created with Inkscape (http://www.inkscape.org/) -->

<svg
   width="14.988051mm"
   height="10.25845mm"
   viewBox="0 0 14.988052 10.258449"
   version="1.1"
   id="svg34570"
   xmlns="http://www.w3.org/2000/svg"
   xmlns:svg="http://www.w3.org/2000/svg">
  <defs
     id="defs34567" />
  <g
     id="layer1"
     transform="rotate(-90,-78.006173,102.01252)">
    <path
       fill-rule="nonzero"
       fill="#fce545"
       fill-opacity="1"
       d="m 13.934787,183.10232 1.686719,5.14422 c 0.07028,0.21635 0.30317,0.33348 0.518142,0.2632 l 7.495152,-2.45842 c 0.216352,-0.0703 0.333484,-0.30179 0.263204,-0.51814 l -1.686719,-5.14422 c -0.07028,-0.21497 -0.303166,-0.3321 -0.518142,-0.26183 l -7.495148,2.45705 c -0.216352,0.0703 -0.333488,0.30317 -0.263208,0.51814"
       id="path4826"
       style="stroke-width:0.352778" />
    <path
       fill="none"
       stroke-width="0.176389"
       stroke-linecap="butt"
       stroke-linejoin="miter"
       stroke="#231f20"
       stroke-opacity="1"
       stroke-miterlimit="10"
       d="m 13.934788,183.10232 1.686719,5.14422 c 0.07028,0.21635 0.303168,0.33348 0.518142,0.2632 l 7.49515,-2.45842 c 0.216352,-0.0703 0.333485,-0.30179 0.263205,-0.51814 l -1.686719,-5.14422 c -0.07028,-0.21497 -0.303168,-0.3321 -0.518142,-0.26182 l -7.49515,2.45704 c -0.216352,0.0703 -0.333485,0.30317 -0.263205,0.51814 z m 0,0"
       id="path4828" />
    <path
       fill-rule="nonzero"
       fill="#ffffff"
       fill-opacity="1"
       d="m 17.988976,183.55569 c 0.170879,-0.0551 0.356913,0.0496 0.417545,0.23289 0.06063,0.18466 -0.02755,0.38034 -0.198438,0.43546 -0.169495,0.0565 -0.356909,-0.0482 -0.417544,-0.23289 -0.05926,-0.18465 0.02893,-0.37896 0.198437,-0.43546 m 0.412034,1.25677 c 0.170875,-0.0551 0.356913,0.0482 0.417545,0.23289 0.06064,0.18466 -0.02755,0.38034 -0.198438,0.43546 -0.169499,0.0551 -0.356912,-0.0482 -0.417544,-0.23288 -0.06064,-0.18466 0.02893,-0.37897 0.198437,-0.43547 m -0.655948,-1.7501 c -0.753783,0.24667 -1.147903,1.11069 -0.879185,1.92787 0.268718,0.81856 1.09554,1.2802 1.849324,1.03353 0.440972,-0.14469 0.757922,-0.50161 0.891593,-0.93569 0.325215,0.0138 1.389063,0.0358 1.557182,-0.3073 0.198438,-0.40514 -0.06615,-0.53743 -0.206706,-0.63114 -0.117133,-0.0786 -0.804775,0.1006 -1.293979,0.24805 -0.01379,-0.1006 -0.03583,-0.2012 -0.0689,-0.3018 -0.03306,-0.10059 -0.07441,-0.19568 -0.122643,-0.28387 0.480935,-0.17088 1.141014,-0.43408 1.189246,-0.56637 0.05788,-0.15848 0.192923,-0.42306 -0.206707,-0.63115 -0.338998,-0.17638 -1.183735,0.46992 -1.437294,0.67386 -0.365178,-0.27009 -0.830957,-0.37069 -1.27193,-0.22599"
       id="path4830"
       style="stroke-width:0.352778" />
    <path
       fill-rule="nonzero"
       fill="#f78b57"
       fill-opacity="1"
       d="m 13.856241,191.92176 1.686719,-5.14283 c 0.07028,-0.21636 0.303167,-0.33349 0.518142,-0.26321 l 7.495149,2.45704 c 0.216351,0.0703 0.333484,0.30317 0.263204,0.51952 l -1.686719,5.14284 c -0.07028,0.21635 -0.303167,0.33349 -0.518142,0.26321 l -7.495149,-2.45705 c -0.216351,-0.0717 -0.333484,-0.30316 -0.263204,-0.51952"
       id="path4832"
       style="stroke-width:0.352778" />
    <path
       fill="none"
       stroke-width="0.176389"
       stroke-linecap="butt"
       stroke-linejoin="miter"
       stroke="#231f20"
       stroke-opacity="1"
       stroke-miterlimit="10"
       d="m 13.85624,191.92177 1.686718,-5.14284 c 0.07028,-0.21635 0.303169,-0.33349 0.518143,-0.26321 l 7.49515,2.45704 c 0.216351,0.0703 0.333485,0.30317 0.263205,0.51952 l -1.686719,5.14284 c -0.07028,0.21636 -0.303168,0.33349 -0.518142,0.26321 l -7.49515,-2.45704 c -0.216352,-0.0717 -0.333485,-0.30317 -0.263205,-0.51952 z m 0,0"
       id="path4834" />
    <path
       fill-rule="nonzero"
       fill="#ffffff"
       fill-opacity="1"
       d="m 18.901239,189.41236 c 0.194303,0.0634 0.30179,0.27423 0.2384,0.46853 -0.0014,0.001 -0.0014,0.001 -0.0014,0.001 -0.06477,0.1943 -0.274229,0.30041 -0.468532,0.23702 -0.194303,-0.0634 -0.30179,-0.27285 -0.2384,-0.46716 0,-0.001 0,-0.001 0,-0.001 0.06477,-0.19568 0.274229,-0.30179 0.469911,-0.2384 m -0.241159,1.93201 c 0,0 0,0.001 0,0.001 -0.06339,0.19431 -0.274228,0.30041 -0.468531,0.23702 -0.194303,-0.0648 -0.300412,-0.27285 -0.2384,-0.46853 0,0 0,0 0,-0.001 0.06477,-0.19431 0.274228,-0.30179 0.46991,-0.23703 0.194303,0.0634 0.301791,0.27285 0.237021,0.46854 m 0.790995,1.95543 c 0.527791,0.17226 1.095541,-0.11575 1.267795,-0.64354 0.173634,-0.52917 -0.114378,-1.09692 -0.643544,-1.26918 -0.01379,-0.004 -0.02618,-0.008 -0.03996,-0.0124 0.06201,-0.10335 0.114378,-0.21497 0.15434,-0.33486 0,-10e-4 0,-0.003 0.0014,-0.004 0,-0.001 0,-0.001 0,-0.003 0.03996,-0.12127 0.06339,-0.24116 0.07441,-0.36242 0.01379,0.006 0.02618,0.01 0.03996,0.0138 0.527787,0.17363 1.095541,-0.11438 1.267795,-0.64355 0.17363,-0.52779 -0.114378,-1.09554 -0.643544,-1.26779 -0.489204,-0.15985 -1.011481,0.0758 -1.223698,0.53054 -0.15572,-0.13367 -0.340378,-0.23978 -0.547081,-0.3073 -0.279742,-0.091 -0.566374,-0.10197 -0.833712,-0.0455 l -0.09922,-0.44097 -0.272853,0.062 0.104729,0.46027 c -0.06339,0.0248 -0.124022,0.0537 -0.183278,0.0868 l -0.219107,-0.41893 -0.246669,0.12816 0.23289,0.44786 c -0.23427,0.18879 -0.418924,0.44511 -0.519522,0.75241 0,0.001 -0.0014,0.003 -0.0014,0.004 0,10e-4 -0.0014,0.003 -0.0014,0.004 -0.104733,0.32108 -0.103354,0.65181 -0.01517,0.95222 l -0.479559,0.23703 0.122647,0.24942 0.457507,-0.226 c 0.02893,0.0579 0.06064,0.11438 0.09509,0.16812 l -0.387152,0.33762 0.183279,0.20946 0.376205,-0.32659 c 0.180524,0.1943 0.410655,0.34726 0.680749,0.43546 0.208086,0.0675 0.418923,0.0909 0.624254,0.0744 -0.09784,0.49334 0.184654,0.99219 0.673858,1.15204"
       id="path4836"
       style="stroke-width:0.352778" />
    <path
       fill-rule="nonzero"
       fill="#d93a30"
       fill-opacity="1"
       d="m 13.987154,190.02421 0.01654,-5.41294 c 0.0014,-0.22737 0.186034,-0.41065 0.41341,-0.40928 l 7.886512,0.0234 c 0.227376,0.001 0.410655,0.18604 0.410655,0.41341 l -0.01655,5.41294 c 0,0.226 -0.186038,0.41065 -0.412034,0.40927 l -7.887892,-0.0234 c -0.227376,-0.001 -0.410655,-0.18604 -0.410655,-0.41341"
       id="path4838"
       style="stroke-width:0.352778" />
    <path
       fill="none"
       stroke-width="0.176389"
       stroke-linecap="butt"
       stroke-linejoin="miter"
       stroke="#231f20"
       stroke-opacity="1"
       stroke-miterlimit="10"
       d="m 13.987154,190.0242 0.01654,-5.41293 c 0.0014,-0.22738 0.186035,-0.41066 0.413411,-0.40928 l 7.886513,0.0234 c 0.227376,0.001 0.410655,0.18604 0.410655,0.41341 l -0.01653,5.41294 c 0,0.22599 -0.186035,0.41065 -0.412034,0.40927 l -7.887892,-0.0234 c -0.227376,-0.001 -0.410655,-0.18603 -0.410655,-0.41341 z m 0,0"
       id="path4840" />
    <path
       fill-rule="nonzero"
       fill="#ffffff"
       fill-opacity="1"
       d="m 18.347268,188.04948 c -0.0069,0.0841 -0.03583,0.18741 -0.100598,0.31419 l -0.592557,-0.59669 c 0.169499,-0.022 0.661458,-0.0551 0.693155,0.2825 m -0.09371,-1.75149 c 0.06339,0.12816 0.09233,0.23013 0.09784,0.31557 -0.03306,0.33624 -0.526408,0.30041 -0.694531,0.27836 z m 0.362422,3.43683 c 0,0 -0.03583,-0.46578 -0.259069,-0.80202 0.0014,0.001 0.409279,0.35553 0.986674,0.39412 0,0 -0.129533,-0.37207 -0.445104,-0.52228 0.0028,0 0.763433,0.20533 1.565452,-0.64768 0,0 -0.445107,-0.50436 -1.077627,-0.69177 v -0.26045 c 0.633896,-0.18466 1.083137,-0.68626 1.083137,-0.68626 -0.796505,-0.85714 -1.558561,-0.65733 -1.562696,-0.65595 0.31695,-0.14883 0.447862,-0.5209 0.447862,-0.5209 -0.576019,0.0358 -0.986674,0.38723 -0.988053,0.38861 0.224621,-0.33487 0.263207,-0.80064 0.263207,-0.80064 -1.003211,0.69315 -2.178677,2.12769 -2.378494,2.37574 -0.0055,0.007 -0.01242,0.0138 -0.01655,0.0193 0.0041,0.006 0.0096,0.0124 0.01655,0.0193 0.198437,0.25081 1.365634,1.69223 2.364711,2.3909"
       id="path4842"
       style="stroke-width:0.352778" />
  </g>
</svg>
