<?xml version="1.0" encoding="UTF-8" standalone="no"?>
<!-- Created with Inkscape (http://www.inkscape.org/) -->

<svg
   width="10.397829mm"
   height="10.407338mm"
   viewBox="0 0 10.397829 10.407338"
   version="1.1"
   id="svg34570"
   xmlns="http://www.w3.org/2000/svg"
   xmlns:svg="http://www.w3.org/2000/svg">
  <defs
     id="defs34567" />
  <g
     id="layer1"
     transform="rotate(-27,-360.97531,123.32923)">
    <path
       fill-rule="nonzero"
       fill="#fce545"
       fill-opacity="1"
       d="m 13.934787,183.10232 1.686719,5.14422 c 0.07028,0.21635 0.30317,0.33348 0.518142,0.2632 l 7.495152,-2.45842 c 0.216352,-0.0703 0.333484,-0.30179 0.263204,-0.51814 l -1.686719,-5.14422 c -0.07028,-0.21497 -0.303166,-0.3321 -0.518142,-0.26183 l -7.495148,2.45705 c -0.216352,0.0703 -0.333488,0.30317 -0.263208,0.51814"
       id="path4826"
       style="stroke-width:0.352778" />
    <path
       fill="none"
       stroke-width="0.176389"
       stroke-linecap="butt"
       stroke-linejoin="miter"
       stroke="#231f20"
       stroke-opacity="1"
       stroke-miterlimit="10"
       d="m 13.934788,183.10232 1.686719,5.14422 c 0.07028,0.21635 0.303168,0.33348 0.518142,0.2632 l 7.49515,-2.45842 c 0.216352,-0.0703 0.333485,-0.30179 0.263205,-0.51814 l -1.686719,-5.14422 c -0.07028,-0.21497 -0.303168,-0.3321 -0.518142,-0.26182 l -7.49515,2.45704 c -0.216352,0.0703 -0.333485,0.30317 -0.263205,0.51814 z m 0,0"
       id="path4828" />
    <path
       fill-rule="nonzero"
       fill="#ffffff"
       fill-opacity="1"
       d="m 17.988976,183.55569 c 0.170879,-0.0551 0.356913,0.0496 0.417545,0.23289 0.06063,0.18466 -0.02755,0.38034 -0.198438,0.43546 -0.169495,0.0565 -0.356909,-0.0482 -0.417544,-0.23289 -0.05926,-0.18465 0.02893,-0.37896 0.198437,-0.43546 m 0.412034,1.25677 c 0.170875,-0.0551 0.356913,0.0482 0.417545,0.23289 0.06064,0.18466 -0.02755,0.38034 -0.198438,0.43546 -0.169499,0.0551 -0.356912,-0.0482 -0.417544,-0.23288 -0.06064,-0.18466 0.02893,-0.37897 0.198437,-0.43547 m -0.655948,-1.7501 c -0.753783,0.24667 -1.147903,1.11069 -0.879185,1.92787 0.268718,0.81856 1.09554,1.2802 1.849324,1.03353 0.440972,-0.14469 0.757922,-0.50161 0.891593,-0.93569 0.325215,0.0138 1.389063,0.0358 1.557182,-0.3073 0.198438,-0.40514 -0.06615,-0.53743 -0.206706,-0.63114 -0.117133,-0.0786 -0.804775,0.1006 -1.293979,0.24805 -0.01379,-0.1006 -0.03583,-0.2012 -0.0689,-0.3018 -0.03306,-0.10059 -0.07441,-0.19568 -0.122643,-0.28387 0.480935,-0.17088 1.141014,-0.43408 1.189246,-0.56637 0.05788,-0.15848 0.192923,-0.42306 -0.206707,-0.63115 -0.338998,-0.17638 -1.183735,0.46992 -1.437294,0.67386 -0.365178,-0.27009 -0.830957,-0.37069 -1.27193,-0.22599"
       id="path4830"
       style="stroke-width:0.352778" />
  </g>
</svg>
