<?xml version="1.0" encoding="UTF-8" standalone="no"?>
<!-- Created with Inkscape (http://www.inkscape.org/) -->

<svg
   version="1.1"
   id="svg228"
   width="968.66217"
   height="879.20581"
   viewBox="0 0 968.66219 879.20583"
   xmlns="http://www.w3.org/2000/svg"
   xmlns:svg="http://www.w3.org/2000/svg">
  <defs
     id="defs232" />
  <g
     id="g234"
     transform="translate(1645.8227,-684.73164)">
    <path
       style="fill:#000000;stroke-width:0.727273"
       d="m -797.13633,1562.6226 c -3.6622,-1.6992 -6.5527,-4.7856 -10.966,-11.7092 -1.9123,-3 -5.3856,-7.9766 -7.7184,-11.059 -2.3328,-3.0825 -6.1594,-9.1371 -8.5035,-13.4546 -2.344,-4.3175 -6.9525,-12.2682 -10.241,-17.6682 -6.6977,-10.9979 -18.02595,-33.5549 -22.59075,-44.9827 -3.55098,-8.8897 -7.67891,-17.3496 -19.03811,-39.0173 -4.61331,-8.8 -11.55731,-22.0546 -15.43098,-29.4545 -3.87367,-7.4 -8.70749,-17.2182 -10.74174,-21.8182 -7.89389,-17.85 -42.05804,-87.4404 -51.96131,-105.8422 -1.94451,-3.6131 -7.12247,-13.6659 -11.50655,-22.3394 -7.36647,-14.5738 -8.13876,-15.8041 -10.18181,-16.2192 -1.21593,-0.2471 -5.5,-1.2251 -9.52022,-2.1735 -15.5802,-3.6754 -24.1956,-3.9387 -35.9633,-1.0992 -13.0574,3.1508 -12.6088,2.9507 -30.7474,13.7128 -14.6337,8.6824 -19.856,13.2475 -19.119,16.7128 0.2311,1.0863 1.8914,12.2843 3.6896,24.8843 5.9312,41.5605 10.1871,60.6188 18.1892,81.4545 1.4594,3.8 4.4438,12.1454 6.632,18.5454 2.1882,6.4 5.1358,13.5332 6.5503,15.8515 4.1567,6.8125 1.8895,8.9133 -4.6746,4.3315 -5.2583,-3.6703 -9.5659,-5.8538 -14.271,-7.2339 -2.037,-0.5976 -10.74,-4.188 -19.34,-7.9788 -27.1696,-11.9761 -50.6389,-20.7115 -66.2489,-24.6583 -8.7894,-2.2223 -23.0883,-4.4007 -34.7928,-5.3005 -8.9531,-0.6883 -9.1003,-0.6744 -15.0139,1.4128 -9.7967,3.4578 -13.1483,5.803 -18.4625,12.9188 -20.6364,27.6325 -51.6816,72.711 -56.6748,82.2933 -1.3548,2.6 -3.0448,5.3818 -3.7556,6.1818 -0.7108,0.8 -2.7254,4.3983 -4.4769,7.9963 -3.2806,6.7389 -5.0585,8.2668 -6.8186,5.8599 -0.6076,-0.831 -0.7607,-3.0318 -0.4879,-7.012 0.3197,-4.664 0.097,-6.7584 -1.134,-10.6862 -0.8424,-2.6869 -2.0275,-7.3398 -2.6336,-10.3398 -0.6061,-3 -2.2585,-10.5273 -3.6722,-16.7273 -4.8727,-21.3714 -11.1447,-56.8829 -17.0838,-96.7272 -3.4388,-23.0701 -9.1358,-56.3226 -9.8465,-57.4726 -0.1803,-0.2916 -2.2151,-1.28 -4.5219,-2.1964 -5.733,-2.2775 -14.8233,-6.8331 -20.4223,-10.2346 -2.5564,-1.553 -5.4025,-2.8237 -6.3249,-2.8237 -3.052,0 -22.2945,5.8974 -30.1175,9.2303 -12.4086,5.2867 -32.7176,15.1082 -41.209,19.929 -27.9084,15.8441 -69.7742,45.0363 -83.8594,58.4735 -9.26,8.834 -27.1368,28.9577 -32.145,36.1854 -2.1893,3.1595 -3.3321,4.1818 -4.6749,4.1818 -3.5225,0 -3.1715,-4.3391 1.5003,-18.5455 3.3657,-10.2347 7.968,-22.0996 12.6948,-32.7272 0.8895,-2 2.7496,-6.413 4.1335,-9.8065 1.384,-3.3936 2.7903,-6.5027 3.1252,-6.9091 0.335,-0.4065 1.3192,-2.8662 2.1872,-5.4662 0.868,-2.6 5.7545,-12.7455 10.8588,-22.5455 5.1044,-9.8 10.9426,-21.5818 12.9737,-26.1818 3.434,-7.7771 16.5457,-35.5849 24.9822,-52.983 6.6487,-13.7113 23.9212,-53.8583 23.9212,-55.6009 0,-3.1546 -4.362,-24.0918 -5.939,-28.507 -1.9705,-5.5166 -2.9797,-6.5943 -16.2389,-17.341 -22.9225,-18.5788 -37.6097,-32.1183 -76.2547,-70.2954 -20.4808,-20.2328 -37.2046,-38.1388 -50.1807,-53.7279 -3.5373,-4.24964 -9.0751,-10.62556 -12.3061,-14.16871 -3.231,-3.54315 -8.5186,-9.44306 -11.7503,-13.11093 -3.2316,-3.66786 -11.4394,-12.33517 -18.2394,-19.26071 -13.3181,-13.56401 -14.5203,-15.52076 -9.8181,-15.98072 1.4,-0.13694 4.2564,0.13036 6.3475,0.59401 2.0912,0.46365 8.6366,0.95063 14.5455,1.08218 5.9088,0.13154 19.2524,1.23639 29.6524,2.45521 10.4,1.21882 25.2185,2.90315 32.93,3.74294 14.9485,1.62792 50.2004,7.27216 68.0926,10.90239 15.7356,3.19268 28.209,2.91606 32.0701,-0.71122 4.5274,-4.25333 7.6047,-15.54546 7.6299,-27.99834 0.017,-8.36536 0.5728,-19.2689 2.1874,-42.90909 2.8798,-42.16358 3.9285,-116.56697 1.8553,-131.63636 -1.455,-10.57653 -1.4556,-15.9144 0,-17.12082 0.9564,-0.79368 1.6446,-0.44112 4.5455,2.32853 1.8802,1.79512 4.3517,3.84157 5.4922,4.54769 3.2329,2.0015 34.3996,32.94869 46.2063,45.88097 5.843,6.4 14.8389,16.21818 19.9908,21.81818 5.1519,5.6 27.5713,28.45312 49.8209,50.78472 41.3903,41.54274 44.2875,44.12437 49.5187,44.12437 1.5819,0 4.1032,-1.40209 8.9332,-4.96782 3.7011,-2.7323 11.6384,-8.23415 17.6384,-12.22634 13.6924,-9.11044 32.1615,-21.61145 40.7804,-27.60261 l 6.5986,-4.58683 -4.0565,-4.26294 c -2.2311,-2.34462 -6.3305,-7.61399 -9.1099,-11.70973 -2.7794,-4.09573 -6.5779,-9.33863 -8.4412,-11.65088 -8.6102,-10.6852 -27.3422,-36.61204 -31.8356,-44.06349 -5.3255,-8.83143 -5.689,-14.04667 -1.5505,-22.24504 3.9456,-7.81617 24.6236,-27.59352 39.6147,-37.88918 6.5528,-4.50042 20.769,-11.87213 32.7272,-16.97053 10.9495,-4.6683 25.6085,-8.37006 33.1456,-8.37006 7.3424,0 10.1886,1.15597 12.7202,5.16624 1.0748,1.70259 4.9793,6.90338 8.6767,11.55732 9.414,11.84935 20.3342,26.64433 26.306,35.64007 15.3201,23.0777 19.3762,29.09091 19.6226,29.09091 0.1498,0 4.2778,-2.41263 9.1734,-5.36139 20.2101,-12.17324 62.9703,-31.83352 82.35554,-37.86541 4.8,-1.49355 13.23535,-4.15287 18.74524,-5.90959 12.59607,-4.01602 37.62312,-10.13124 68.4221,-16.71854 7.77222,-1.66233 27.10851,-3.8171 42.2872,-4.71233 19.55079,-1.15309 25.62429,0.10438 27.98059,5.79319 0.9764,2.35715 2.737,4.51713 10.6226,13.03249 13.6218,14.70965 30.8687,37.40979 40.6931,53.55976 7.5911,12.47855 37.8517,76.10209 36.6135,76.98055 -0.1504,0.10667 -6.8189,1.94696 -14.8189,4.08954 -28.4345,7.61541 -37.8414,10.1952 -39.6363,10.87003 -1,0.37596 -4.7636,1.72672 -8.3636,3.00169 -10.0722,3.56713 -30.419,11.15104 -38.9092,14.50269 -4.2,1.65804 -10.62746,4.11136 -14.28324,5.45183 -12.59535,4.61834 -40.64116,16.51333 -47.53491,20.16083 -3.8,2.0106 -13.45454,7.08916 -21.45454,11.2857 -14.60597,7.6618 -22.87099,12.788 -36.36364,22.5537 -4,2.89512 -8.41818,6.07369 -9.81818,7.06348 -5.58116,3.94586 -12.25702,8.96321 -16.86749,12.67711 -5.24022,4.22114 -6.36873,6.74773 -5.31156,11.8925 0.9797,4.76784 20.48603,42.88749 26.3381,51.47039 6.48,9.5038 9.35658,11.8758 17.62757,14.5353 7.98341,2.567 10.3312,1.9034 30.33927,-8.5755 9.13076,-4.782 29.69229,-15.3998 45.69229,-23.5951 16,-8.19532 37.10913,-19.24808 46.90913,-24.56174 23.5069,-12.74569 65.9884,-33.98399 83.2727,-41.63152 22.00672,-9.737 25.05182,-10.9985 25.49032,-10.55998 0.2275,0.22746 1.014,5.43976 1.7478,11.58285 0.7338,6.14311 1.6864,14.11474 2.1167,17.71474 0.4304,3.6 1.2802,9.26856 1.8884,12.5968 1.4914,8.1609 2.8336,38.21255 1.8571,41.58025 -0.4052,1.3973 -0.7406,4.1791 -0.7453,6.1818 -0.018,7.478 -8.2537,17.1097 -23.031,26.9345 -3.52822,2.3458 -10.22492,7.0644 -14.88172,10.4858 -20.7757,15.2646 -47.4105,30.9277 -85.3514,50.1923 -6.8,3.4528 -14.49091,7.605 -17.09091,9.2271 -11.36139,7.0884 -20.28749,12.686 -24,15.0505 -6.61106,4.2105 -18.60968,14.716 -23.89135,20.9183 -5.1688,6.0697 -11.35367,15.6948 -12.10553,18.8388 -0.36894,1.5427 2.12277,5.2497 16.14393,24.0179 9.11913,12.2066 22.7728,30.8583 30.34153,41.4485 15.69483,21.9602 31.88523,43.8428 48.41513,65.4365 6.2769,8.2 16.4238,21.9455 22.5486,30.5455 6.1247,8.6 15.3995,21.3636 20.6106,28.3636 15.2372,20.468 51.50582,68.7273 58.48312,77.8182 3.5306,4.6 10.3035,13.7636 15.0507,20.3636 4.7474,6.6 11.5792,15.7366 15.1821,20.3035 7.6125,9.6496 9.5677,12.9133 10.6581,17.7908 1.1163,4.9933 -0.4382,10.1163 -4.1326,13.6193 -5.37,5.0918 -21.9475,16.8025 -37.7715,26.6827 -11.9584,7.4665 -43.53862,22.1526 -57.35102,26.6704 -2.8,0.9158 -6.3076,2.1959 -7.7948,2.8447 -3.5702,1.5574 -8.9634,1.4706 -12.5688,-0.2022 z"
       id="path348" />
  </g>
</svg>
