<?xml version="1.0" encoding="UTF-8" standalone="no"?>
<!-- Created with Inkscape (http://www.inkscape.org/) -->

<svg
   width="9.6672964mm"
   height="5.5169702mm"
   viewBox="0 0 9.6672965 5.5169702"
   version="1.1"
   id="svg16406"
   xmlns="http://www.w3.org/2000/svg"
   xmlns:svg="http://www.w3.org/2000/svg">
  <defs
     id="defs16403" />
  <g
     id="layer1"
     transform="rotate(-90,-18.541858,125.12449)"
     style="fill:#000000">
    <path
       fill-rule="nonzero"
       fill="#8b3f2c"
       fill-opacity="1"
       d="m 103.66827,150.46277 c 0,0.36656 -0.22049,0.57327 -0.41204,0.75654 -0.15158,0.14608 -0.28525,0.27423 -0.28525,0.45751 0,0.11851 0.073,0.16399 0.15158,0.16399 0.0648,0 0.13367,-0.0358 0.15986,-0.0909 0.01,-0.0138 0.0276,-0.0331 0.0469,-0.0331 0.0124,0 0.0262,0.0152 0.0262,0.0469 0,0.15985 -0.0951,0.29766 -0.31143,0.29766 0.0469,0.0634 0.0882,0.12264 0.0882,0.15158 0,0.0179 -0.0152,0.0262 -0.0372,0.0262 -0.15158,0 -0.27422,-0.14607 -0.30179,-0.26458 -0.0234,0.0909 -0.0785,0.14607 -0.11024,0.14607 -0.0179,0 -0.0276,-0.0138 -0.0276,-0.0372 0,-0.35692 0.1006,-0.57602 0.47129,-0.91089 0.0152,-0.0138 0.0413,-0.0496 -0.0179,-0.008 -0.36105,0.22876 -0.45751,0.3707 -0.55397,0.6215 -0.0414,0.11575 -0.1323,0.0689 -0.15572,0.11989 0,0.0455 0.0827,0.10473 0.0827,0.19154 0,0.17915 -0.21084,0.14746 -0.22462,0.1888 -0.0179,0.11437 0.1695,0.1502 0.1695,0.29627 0,0.19293 -0.21084,0.21636 -0.21084,0.29353 0,0.0785 0.0923,0.27423 0.31557,0.27423 0.0882,0 0.13367,-0.0496 0.17088,-0.0496 0.022,0 0.0496,0.0179 0.0496,0.0593 0,0.0882 -0.0827,0.17364 -0.22463,0.17364 -0.20532,0 -0.3886,-0.23289 -0.3886,-0.44787 0,-0.0317 0,-0.0455 -0.01,-0.0455 -0.01,0 -0.0179,0.0221 -0.0276,0.0496 -0.0413,0.15158 0,0.3762 -0.11851,0.3762 -0.0551,0 -0.0965,-0.0317 -0.0965,-0.091 0,-0.0427 0.0868,-0.18466 0.12815,-0.29903 0.004,-0.0179 0.01,-0.0317 0.01,-0.0413 0,-0.0124 -0.006,-0.0179 -0.01,-0.0179 -0.01,0 -0.0179,0.01 -0.0317,0.0234 -0.0455,0.0675 -0.14745,0.15021 -0.27974,0.15021 -0.12816,0 -0.22876,-0.1006 -0.22876,-0.18742 0,-0.0413 0.0234,-0.0634 0.0689,-0.0634 0.091,0 0.0634,0.14194 0.20119,0.14194 0.1006,0 0.17363,-0.073 0.17363,-0.12402 0,-0.051 -0.0909,-0.0785 -0.0909,-0.22462 0,-0.20533 0.30179,-0.15159 0.33349,-0.26596 0,-0.0593 -0.0951,-0.11852 -0.0951,-0.21498 0,-0.0221 0.004,-0.0455 0.0179,-0.073 0.0551,-0.1006 0.18328,-0.0455 0.20532,-0.11852 0.0193,-0.0648 -0.0262,-0.1061 0,-0.16536 0.12403,-0.28801 0.49059,-0.52641 0.7786,-0.61874 0.0413,-0.0124 0.0592,-0.0221 0.0592,-0.0317 0,-0.004 -0.004,-0.004 -0.0179,-0.004 -0.0138,0 -0.0317,0.004 -0.0593,0.01 -0.0923,0.0234 -0.17914,0.0262 -0.25218,0.0262 -0.073,0 -0.14194,-0.003 -0.19155,-0.003 -0.1378,0 -0.10611,0.28663 -0.35277,0.28663 -0.13781,0 -0.22876,-0.0496 -0.29766,-0.16812 -0.01,-0.0193 -0.0138,-0.0372 -0.0138,-0.0455 0,-0.0138 0.01,-0.0234 0.022,-0.0234 0.01,0 0.0289,0.004 0.051,0.0138 0.0234,0.01 0.0413,0.0138 0.0592,0.0138 0.0455,0 0.0827,-0.0331 0.11438,-0.0965 0.0138,-0.0276 0.0234,-0.0785 0.1695,-0.12815 -0.2012,-0.1006 -0.12816,-0.339 -0.22876,-0.339 -0.0634,0 -0.0868,0.0317 -0.0965,0.0648 -0.004,0.0179 -0.0179,0.0262 -0.0276,0.0262 -0.0179,0 -0.0358,-0.0221 -0.0358,-0.0537 0,-0.0138 0,-0.0289 0.008,-0.0469 0.0689,-0.15985 0.16537,-0.20119 0.28525,-0.20119 0.15021,0 0.25081,0.13229 0.2825,0.27561 0.0689,-0.20671 0.18328,-0.2384 0.2384,-0.2384 0.0551,0 0.0179,0.0675 0.0593,0.0675 0.16536,0 0.24391,0.0413 0.28387,0.14745 0.006,0.0193 0.01,0.0276 0.01,0.0413 0,0.0179 -0.01,0.0276 -0.0276,0.0276 -0.008,0 -0.0276,-0.01 -0.0455,-0.0234 -0.0234,-0.0179 -0.0551,-0.0358 -0.0868,-0.0358 -0.0331,0 -0.0593,0.0179 -0.0785,0.0827 -0.0276,0.0951 -0.12265,0.0496 -0.19568,0.13642 0.12264,0.0689 0.24115,0.0965 0.3514,0.0965 0.28387,0 0.49885,-0.20119 0.49885,-0.48093 0,-0.14194 -0.0537,-0.21498 -0.0951,-0.21498 -0.0827,0 -0.0744,0.073 -0.19293,0.073 -0.0772,0 -0.12815,-0.0689 -0.12815,-0.1378 0,-0.0772 0.0551,-0.15572 0.17914,-0.15572 0.19568,0 0.35278,0.2067 0.35278,0.42581"
       id="path16365"
       style="display:inline;fill:#000000;fill-opacity:1;stroke-width:0.352778" />
    <g
       fill="#8b3f2c"
       fill-opacity="1"
       id="g16375"
       transform="matrix(0.35277777,0,0,0.35277777,93.84975,133.35305)"
       style="display:inline;fill:#000000;fill-opacity:1">
      <g
         id="g16369"
         transform="translate(29.183201,46.698002)"
         style="fill:#000000;fill-opacity:1">
        <path
           d="m 1.25,4.53125 c 0.00781,0.00781 0.00781,0.019531 0,0.03125 -0.011719,0.00781 -0.03125,0.015625 -0.0625,0.015625 -0.03125,0.00781 -0.0625,0.00781 -0.09375,0 C 1.070312,4.566406 1.050781,4.554688 1.03125,4.546875 0.914062,4.421875 0.796875,4.265625 0.671875,4.078125 0.546875,3.898438 0.425781,3.71875 0.3125,3.53125 0.28125,3.476562 0.238281,3.398438 0.1875,3.296875 0.144531,3.203125 0.0976562,3.097656 0.046875,2.984375 0.00390625,2.867188 -0.03125,2.75 -0.0625,2.625 -0.09375,2.5 -0.109375,2.382812 -0.109375,2.28125 c 0,-0.21875 0.0429688,-0.429688 0.125,-0.625 0.0820312,-0.1875 0.195313,-0.355469 0.34375,-0.5 C 0.515625,1.007812 0.691406,0.894531 0.890625,0.8125 1.097656,0.738281 1.320312,0.703125 1.5625,0.703125 c 0.257812,0 0.503906,0.03125 0.734375,0.09375 0.226563,0.070313 0.429687,0.15625 0.609375,0.25 0.175781,0.09375 0.328125,0.179687 0.453125,0.265625 0.125,0.082031 0.21875,0.140625 0.28125,0.171875 0.00781,-0.117187 0.015625,-0.21875 0.015625,-0.3125 0,-0.09375 0,-0.183594 0,-0.265625 0,-0.1875 0,-0.351562 0,-0.484375 0,-0.136719 -0.015625,-0.25 -0.046875,-0.34375 C 3.597656,0.0234375 3.570312,-0.0195312 3.53125,-0.0625 3.5,-0.101562 3.472656,-0.140625 3.453125,-0.171875 3.472656,-0.179688 3.492188,-0.195312 3.515625,-0.21875 3.535156,-0.238281 3.554688,-0.25 3.578125,-0.25 c 0.00781,0 0.019531,0 0.03125,0 0,0 0.03125,0.042969 0.09375,0.125 0.0625,0.0742188 0.132813,0.1640625 0.21875,0.28125 0.09375,0.125 0.191406,0.253906 0.296875,0.390625 0.101562,0.144531 0.203125,0.28125 0.296875,0.40625 0.09375,0.132813 0.171875,0.25 0.234375,0.34375 0.0625,0.09375 0.097656,0.15625 0.109375,0.1875 0.00781,0.03125 0,0.0625 -0.03125,0.09375 C 4.804688,1.617188 4.789062,1.632812 4.78125,1.625 4.769531,1.601562 4.75,1.570312 4.71875,1.53125 4.6875,1.5 4.660156,1.492188 4.640625,1.515625 4.578125,1.578125 4.523438,1.6875 4.484375,1.84375 4.441406,2.007812 4.40625,2.191406 4.375,2.390625 4.351562,2.597656 4.332031,2.8125 4.3125,3.03125 4.300781,3.25 4.296875,3.445312 4.296875,3.625 c 0,0.257812 0.00391,0.46875 0.015625,0.625 0.019531,0.15625 0.039062,0.285156 0.0625,0.390625 0.03125,0.09375 0.050781,0.15625 0.0625,0.1875 0,0 -0.011719,0.00781 -0.03125,0.03125 C 4.382812,4.878906 4.363281,4.890625 4.34375,4.890625 4.332031,4.890625 4.300781,4.84375 4.25,4.75 4.207031,4.664062 4.15625,4.578125 4.09375,4.484375 4.070312,4.429688 4.035156,4.367188 3.984375,4.296875 3.929688,4.222656 3.882812,4.140625 3.84375,4.046875 3.800781,3.960938 3.757812,3.867188 3.71875,3.765625 3.6875,3.671875 3.664062,3.582031 3.65625,3.5 3.644531,3.40625 3.632812,3.296875 3.625,3.171875 c 0,-0.117187 -0.00781,-0.242187 -0.015625,-0.375 0,-0.136719 0,-0.273437 0,-0.40625 0,-0.136719 0,-0.261719 0,-0.375 C 3.578125,2.003906 3.523438,1.976562 3.453125,1.9375 3.378906,1.894531 3.289062,1.851562 3.1875,1.8125 3.082031,1.78125 2.957031,1.75 2.8125,1.71875 2.675781,1.695312 2.523438,1.6875 2.359375,1.6875 2.117188,1.6875 1.894531,1.722656 1.6875,1.796875 1.476562,1.867188 1.296875,1.972656 1.140625,2.109375 0.992188,2.242188 0.878906,2.40625 0.796875,2.59375 c -0.085937,0.1875 -0.125,0.390625 -0.125,0.609375 0,0.125 0.015625,0.242187 0.046875,0.359375 C 0.75,3.675781 0.785156,3.785156 0.828125,3.890625 0.878906,4.003906 0.929688,4.101562 0.984375,4.1875 1.046875,4.28125 1.101562,4.359375 1.15625,4.421875 Z m 0,0"
           id="path16367"
           style="fill:#000000;fill-opacity:1" />
      </g>
      <g
         id="g16373"
         transform="translate(29.183201,50.936352)"
         style="fill:#000000;fill-opacity:1">
        <path
           d="M 3.515625,1.703125 C 3.617188,1.816406 3.726562,1.945312 3.84375,2.09375 3.96875,2.25 4.078125,2.410156 4.171875,2.578125 c 0.101563,0.164063 0.1875,0.335937 0.25,0.515625 0.0625,0.1875 0.09375,0.375 0.09375,0.5625 C 4.515625,3.863281 4.476562,4.0625 4.40625,4.25 4.34375,4.445312 4.242188,4.613281 4.109375,4.75 3.972656,4.894531 3.8125,5.007812 3.625,5.09375 3.445312,5.1875 3.242188,5.234375 3.015625,5.234375 c -0.460937,0 -0.886719,-0.085937 -1.28125,-0.25 C 1.347656,4.828125 1.007812,4.640625 0.71875,4.421875 0.425781,4.210938 0.1875,4.003906 0,3.796875 -0.195312,3.585938 -0.328125,3.429688 -0.390625,3.328125 -0.410156,3.296875 -0.40625,3.265625 -0.375,3.234375 c 0.03125,-0.03125 0.070312,-0.03125 0.109375,0 C -0.234375,3.285156 -0.144531,3.359375 0,3.453125 0.132812,3.554688 0.3125,3.65625 0.53125,3.75 0.75,3.851562 0.992188,3.941406 1.265625,4.015625 c 0.28125,0.082031 0.582031,0.125 0.90625,0.125 0.257813,0 0.488281,-0.03125 0.6875,-0.09375 C 3.066406,3.984375 3.238281,3.894531 3.375,3.78125 3.519531,3.675781 3.628906,3.550781 3.703125,3.40625 3.773438,3.269531 3.8125,3.125 3.8125,2.96875 3.8125,2.851562 3.796875,2.734375 3.765625,2.609375 3.734375,2.492188 3.6875,2.382812 3.625,2.28125 3.550781,2.175781 3.46875,2.070312 3.375,1.96875 3.28125,1.863281 3.179688,1.789062 3.078125,1.75 3.054688,1.726562 3.035156,1.710938 3.015625,1.703125 2.992188,1.703125 2.960938,1.695312 2.921875,1.6875 2.878906,1.675781 2.828125,1.664062 2.765625,1.65625 2.710938,1.644531 2.632812,1.640625 2.53125,1.640625 2.351562,1.617188 2.179688,1.601562 2.015625,1.59375 1.847656,1.582031 1.648438,1.578125 1.421875,1.578125 1.128906,1.578125 0.898438,1.59375 0.734375,1.625 0.578125,1.664062 0.488281,1.773438 0.46875,1.953125 c 0,0.019531 0,0.039063 0,0.0625 0.007812,0.019531 0.015625,0.046875 0.015625,0.078125 0.007813,0.019531 0.019531,0.050781 0.03125,0.09375 0,0.019531 -0.011719,0.03125 -0.03125,0.03125 C 0.460938,2.226562 0.445312,2.234375 0.4375,2.234375 0.414062,2.234375 0.382812,2.203125 0.34375,2.140625 0.3125,2.078125 0.273438,1.992188 0.234375,1.890625 0.203125,1.785156 0.164062,1.671875 0.125,1.546875 0.0820312,1.421875 0.046875,1.304688 0.015625,1.203125 -0.015625,1.085938 -0.0390625,0.988281 -0.0625,0.90625 -0.09375,0.820312 -0.109375,0.765625 -0.109375,0.734375 c 0,-0.179687 0.0703125,-0.265625 0.203125,-0.265625 0.03125,0 0.085938,0.015625 0.171875,0.046875 0.082031,0.03125 0.210937,0.054687 0.390625,0.078125 0.25,0.019531 0.523438,0.039062 0.828125,0.0625 0.3125,0.03125 0.617187,0.050781 0.921875,0.0625 0.3125,0.007812 0.613281,0.019531 0.90625,0.03125 0.289062,0.007812 0.554688,0.015625 0.796875,0.015625 0.4375,0 0.800781,-0.011719 1.09375,-0.03125 C 5.503906,0.722656 5.722656,0.710938 5.859375,0.703125 6.015625,0.679688 6.113281,0.660156 6.15625,0.640625 6.207031,0.628906 6.253906,0.613281 6.296875,0.59375 c 0.0625,-0.03125 0.101563,-0.074219 0.125,-0.125 0.019531,-0.042969 0.03125,-0.085938 0.03125,-0.125 0.00781,-0.042969 0.00781,-0.078125 0,-0.109375 0,-0.023437 0.00391,-0.03125 0.015625,-0.03125 0.09375,0 0.164062,0.023437 0.21875,0.078125 0.050781,0.0625 0.078125,0.132812 0.078125,0.21875 0,0.175781 0,0.359375 0,0.546875 0.00781,0.1875 0.019531,0.359375 0.03125,0.515625 C 6.804685,1.695312 6.820312,1.816406 6.84375,1.921875 6.875,2.035156 6.894531,2.113281 6.90625,2.15625 6.91406,2.195312 6.91016,2.21875 6.890625,2.21875 6.867188,2.226562 6.832031,2.234375 6.78125,2.234375 6.738281,2.234375 6.707031,2.21875 6.6875,2.1875 6.675781,2.15625 6.660156,2.117188 6.640625,2.078125 6.628906,2.046875 6.617188,2.015625 6.609375,1.984375 c 0,-0.03125 -0.011719,-0.054687 -0.03125,-0.0625 C 6.535156,1.890625 6.421875,1.863281 6.234375,1.84375 6.046875,1.820312 5.8125,1.800781 5.53125,1.78125 5.25,1.757812 4.929688,1.738281 4.578125,1.71875 4.234375,1.707031 3.878906,1.695312 3.515625,1.6875 Z m 0,0"
           id="path16371"
           style="fill:#000000;fill-opacity:1" />
      </g>
    </g>
    <g
       aria-label="10"
       transform="rotate(90)"
       id="text16383"
       style="font-size:7.05556px;display:inline;stroke:#000000;stroke-width:0.254;stroke-linejoin:round;stroke-opacity:0;fill:#000000">
      <path
         d="m 144.30135,-101.51722 q 0.0353,-0.11289 0.0635,-0.40922 0.0282,-0.30339 0.0494,-0.71967 0.0282,-0.41628 0.0423,-0.91017 0.0141,-0.49389 0.0141,-0.99483 0,-0.28928 -0.0141,-0.50095 -0.0141,-0.21872 -0.0565,-0.3175 -0.0847,0.0353 -0.24694,0.10584 -0.15523,0.0635 -0.26811,0.11994 -0.0282,0 -0.0635,-0.0423 -0.0282,-0.0494 -0.0282,-0.0988 0,-0.0212 0.007,-0.0423 0.13405,-0.0423 0.35278,-0.11289 0.21872,-0.0706 0.45155,-0.14817 0.23284,-0.0776 0.4445,-0.16228 0.21873,-0.0847 0.34573,-0.16933 0,0.0141 0.007,0.0212 0.0141,0 0.0141,0.0282 -0.0353,0.0564 -0.0705,0.23989 -0.0353,0.18344 -0.0635,0.43744 -0.0212,0.254 -0.0423,0.55739 -0.0141,0.30339 -0.0282,0.60678 -0.007,0.29633 -0.0141,0.56444 -0.007,0.26811 -0.007,0.45861 0,0.21873 0,0.42334 0.007,0.20461 0.0141,0.381 0.0141,0.17639 0.0353,0.32455 0.0212,0.14112 0.0564,0.23284 0.0141,0.0494 0.0705,0.0917 0.0565,0.0353 0.127,0.0706 0.0776,0.0282 0.16228,0.0494 0.0847,0.0141 0.14817,0.0141 0.0282,0 0.0423,0.0282 0.0141,0.0212 0.0141,0.0353 0,0.0635 -0.0494,0.0635 -0.15522,0.007 -0.33161,0.007 -0.17639,0 -0.33866,-0.007 -0.16228,0 -0.30339,-0.007 -0.14112,0 -0.23284,0 -0.19755,0 -0.40216,0.007 -0.19756,0.0141 -0.28223,0.0282 -0.0635,0 -0.0635,-0.0564 0,-0.0423 0.0212,-0.0564 0.0212,-0.0141 0.0564,-0.0212 0.11289,-0.0141 0.23284,-0.0423 0.127,-0.0353 0.13405,-0.0776 z"
         id="path2341"
         style="fill:#000000" />
      <path
         d="m 146.29101,-102.378 q -0.0635,-0.18345 -0.0847,-0.41628 -0.0141,-0.23989 -0.0141,-0.48683 0.007,-0.23989 0.0423,-0.47272 0.0353,-0.23989 0.0917,-0.45862 0.0564,-0.21872 0.13405,-0.40216 0.0847,-0.18345 0.18345,-0.31045 0.16227,-0.21166 0.38805,-0.38805 0.22578,-0.17639 0.47272,-0.30339 0.254,-0.127 0.50095,-0.19756 0.254,-0.0705 0.45861,-0.0705 0.39511,0 0.67733,0.16933 0.28928,0.16933 0.47978,0.45861 0.1905,0.28222 0.28222,0.65617 0.0917,0.37394 0.0917,0.79022 -0.007,0.20461 -0.0353,0.42333 -0.0212,0.21873 -0.0917,0.40217 -0.127,0.35278 -0.36689,0.67733 -0.23989,0.32456 -0.52917,0.57151 -0.28928,0.24694 -0.59972,0.39511 -0.31045,0.14816 -0.58561,0.14816 -0.24695,0 -0.48684,-0.0847 -0.23283,-0.0847 -0.43039,-0.23989 -0.19755,-0.15522 -0.34572,-0.37395 -0.14817,-0.21872 -0.23283,-0.48683 z m 0.68439,-1.29117 q 0,0.4445 0.0847,0.8255 0.0917,0.37395 0.24695,0.64911 0.16228,0.27517 0.38805,0.43039 0.22578,0.15523 0.50095,0.15523 0.26811,0 0.4445,-0.16934 0.18344,-0.16933 0.29633,-0.43039 0.11995,-0.26811 0.16934,-0.59266 0.0564,-0.32456 0.0635,-0.62795 0,-0.58561 -0.11289,-0.99483 -0.10584,-0.40923 -0.27517,-0.66323 -0.16933,-0.254 -0.37394,-0.36688 -0.19756,-0.11995 -0.381,-0.11995 -0.254,0 -0.4445,0.16228 -0.1905,0.16228 -0.32456,0.43039 -0.13406,0.26105 -0.20461,0.59266 -0.0706,0.33162 -0.0776,0.67028 z"
         id="path2343"
         style="fill:#000000" />
    </g>
  </g>
</svg>
