<?xml version="1.0" encoding="UTF-8" standalone="no"?>
<!-- Created with Inkscape (http://www.inkscape.org/) -->

<svg
   width="5.5359902mm"
   height="4.4427953mm"
   viewBox="0 0 5.5359903 4.4427952"
   version="1.1"
   id="svg5637"
   xmlns="http://www.w3.org/2000/svg"
   xmlns:svg="http://www.w3.org/2000/svg">
  <defs
     id="defs5634" />
  <g
     id="layer1"
     transform="rotate(-90,-118.9481,-131.78389)">
    <path
       fill-rule="nonzero"
       fill="#8b3f2c"
       fill-opacity="1"
       d="m -252.95738,-10.17026 c 0,0.3665584 -0.22049,0.573264 -0.41203,0.755165 -0.15021,0.1474502 -0.28388,0.2756077 -0.28388,0.458887 0,0.1185111 0.073,0.1639863 0.15158,0.1639863 0.0634,0 0.1323,-0.035829 0.15986,-0.09095 0.01,-0.01378 0.0275,-0.033073 0.0455,-0.033073 0.0138,0 0.0275,0.015159 0.0275,0.046853 0,0.1598525 -0.0965,0.2976563 -0.31144,0.2976563 0.0455,0.06339 0.0868,0.1226456 0.0868,0.1515844 0,0.017914 -0.0138,0.026183 -0.0358,0.026183 -0.15158,0 -0.27561,-0.1460722 -0.30317,-0.2659616 -0.022,0.092329 -0.0772,0.1474502 -0.10886,0.1474502 -0.0179,0 -0.0276,-0.01378 -0.0276,-0.037207 0,-0.3569119 0.1006,-0.5760197 0.47129,-0.9108831 0.0138,-0.01378 0.0413,-0.049609 -0.0179,-0.00964 -0.36243,0.2301324 -0.45751,0.3720704 -0.55398,0.6228732 -0.0413,0.1143773 -0.13366,0.068902 -0.15571,0.1198894 0,0.045475 0.0813,0.1047309 0.0813,0.1915474 0,0.1791448 -0.20946,0.1474498 -0.22324,0.1887912 -0.0193,0.1129989 0.16812,0.150206 0.16812,0.2962783 0,0.1929253 -0.20946,0.2163519 -0.20946,0.293522 0,0.078548 0.0909,0.2742297 0.31557,0.2742297 0.0868,0 0.13367,-0.049609 0.1695,-0.049609 0.0234,0 0.051,0.017914 0.051,0.059255 0,0.086817 -0.0827,0.173633 -0.22462,0.173633 -0.20671,0 -0.38861,-0.2328884 -0.38861,-0.4478624 0,-0.033073 0,-0.046853 -0.01,-0.046853 -0.01,0 -0.0193,0.023428 -0.0275,0.050988 -0.0413,0.151584 0,0.3748263 -0.1199,0.3748263 -0.0537,0 -0.0951,-0.031693 -0.0951,-0.090951 0,-0.041341 0.0868,-0.183279 0.12816,-0.2976562 0.004,-0.017914 0.008,-0.031694 0.008,-0.041341 0,-0.01378 -0.004,-0.017914 -0.008,-0.017914 -0.01,0 -0.0193,0.00827 -0.0331,0.022049 -0.0455,0.068902 -0.14607,0.1515844 -0.27836,0.1515844 -0.12816,0 -0.22876,-0.1005967 -0.22876,-0.1874132 0,-0.041341 0.0221,-0.064768 0.0675,-0.064768 0.0923,0 0.0648,0.141938 0.20257,0.141938 0.1006,0 0.17364,-0.073036 0.17364,-0.1226453 0,-0.050988 -0.091,-0.078548 -0.091,-0.2246203 0,-0.2067059 0.30179,-0.1515844 0.33349,-0.2659616 0,-0.059255 -0.0965,-0.1185112 -0.0965,-0.2149736 0,-0.022049 0.004,-0.045476 0.0179,-0.073036 0.0565,-0.1005967 0.18466,-0.045475 0.2067,-0.1185111 0.0179,-0.064768 -0.0276,-0.1061089 0,-0.1653646 0.12403,-0.2880103 0.48921,-0.5264108 0.7786,-0.6187394 0.0413,-0.01378 0.0592,-0.022049 0.0592,-0.031694 0,-0.00413 -0.004,-0.00413 -0.0179,-0.00413 -0.0138,0 -0.0331,0.00413 -0.0593,0.00827 -0.0923,0.023428 -0.17914,0.027559 -0.25218,0.027559 -0.073,0 -0.14194,-0.00413 -0.19292,-0.00413 -0.13781,0 -0.10474,0.2880099 -0.35278,0.2880099 -0.13643,0 -0.22876,-0.049609 -0.29766,-0.1681205 -0.008,-0.019293 -0.0138,-0.037207 -0.0138,-0.046853 0,-0.01378 0.01,-0.022049 0.0234,-0.022049 0.01,0 0.0276,0.00413 0.051,0.012404 0.0221,0.00965 0.0413,0.01378 0.0593,0.01378 0.0455,0 0.0827,-0.031693 0.11438,-0.095085 0.0138,-0.027559 0.0234,-0.078548 0.16949,-0.1281574 -0.20119,-0.1005967 -0.12815,-0.3389967 -0.22875,-0.3389967 -0.0648,0 -0.0868,0.03169 -0.0965,0.063389 -0.005,0.019293 -0.0179,0.027563 -0.0275,0.027563 -0.0179,0 -0.0358,-0.022049 -0.0358,-0.055122 0,-0.0124 0,-0.02756 0.008,-0.04547 0.0689,-0.159852 0.16537,-0.201193 0.28388,-0.201193 0.15158,0 0.25218,0.132292 0.28387,0.2742288 0.0689,-0.2053268 0.18328,-0.2370218 0.2384,-0.2370218 0.0551,0 0.0179,0.06752 0.0593,0.06752 0.16399,0 0.24253,0.04134 0.28388,0.147451 0.004,0.017914 0.01,0.027562 0.01,0.041341 0,0.017914 -0.01,0.027563 -0.0275,0.027563 -0.01,0 -0.0276,-0.00964 -0.0455,-0.023428 -0.0234,-0.017914 -0.0565,-0.037207 -0.0868,-0.037207 -0.0331,0 -0.0606,0.019293 -0.0785,0.082682 -0.0276,0.096462 -0.12402,0.050987 -0.19705,0.1378038 0.12402,0.068902 0.24253,0.096462 0.35277,0.096462 0.28388,0 0.49885,-0.2025713 0.49885,-0.4809348 0,-0.141938 -0.0551,-0.214974 -0.0965,-0.214974 -0.0827,0 -0.073,0.07304 -0.19292,0.07304 -0.0772,0 -0.12679,-0.0689 -0.12679,-0.137804 0,-0.07717 0.0551,-0.155718 0.17777,-0.155718 0.19706,0 0.35278,0.206706 0.35278,0.425813"
       id="path3430"
       style="fill:#000000;fill-opacity:1;stroke-width:0.352778" />
    <g
       fill="#8b3f2c"
       fill-opacity="1"
       id="g3434"
       transform="matrix(0.35277777,0,0,0.35277777,-336.5037,-27.220726)"
       style="fill:#000000;fill-opacity:1">
      <g
         id="use3432"
         transform="translate(230.6324,39.651199)"
         style="fill:#000000;fill-opacity:1">
        <path
           d="m 0.59375,2.5 c 0.195312,0.050781 0.566406,0.101562 1.109375,0.15625 0.539063,0.0625 1.1875,0.113281 1.9375,0.15625 0.75,0.039062 1.566406,0.070312 2.453125,0.09375 0.894531,0.03125 1.796875,0.046875 2.703125,0.046875 0.519531,0 0.972656,-0.015625 1.359375,-0.046875 C 10.539062,2.882812 10.828125,2.835938 11.015625,2.765625 10.941406,2.609375 10.84375,2.382812 10.71875,2.09375 10.601562,1.8125 10.492188,1.570312 10.390625,1.375 c 0,-0.054688 0.03906,-0.109375 0.125,-0.171875 C 10.597656,1.148438 10.6875,1.125 10.78125,1.125 c 0.03906,0 0.07813,0.00391 0.109375,0.015625 0.08203,0.238281 0.179687,0.554687 0.296875,0.953125 0.125,0.394531 0.257812,0.800781 0.40625,1.21875 0.144531,0.425781 0.289062,0.832031 0.4375,1.21875 0.15625,0.382812 0.3125,0.691406 0.46875,0.921875 -0.03125,0 -0.05469,0.00781 -0.0625,0.03125 0,0.019531 -0.02734,0.03125 -0.07813,0.03125 -0.105469,-0.0625 -0.324219,-0.125 -0.65625,-0.1875 C 11.378906,5.265625 10.988281,5.207031 10.53125,5.15625 10.070312,5.113281 9.566406,5.078125 9.015625,5.046875 8.472656,5.015625 7.929688,4.988281 7.390625,4.96875 6.847656,4.945312 6.332031,4.929688 5.84375,4.921875 5.363281,4.910156 4.953125,4.90625 4.609375,4.90625 c -0.386719,0 -0.765625,0 -1.140625,0 C 3.101562,4.914062 2.757812,4.929688 2.4375,4.953125 2.125,4.972656 1.835938,5 1.578125,5.03125 1.316406,5.070312 1.101562,5.125 0.9375,5.1875 0.84375,5.21875 0.757812,5.28125 0.6875,5.375 0.625,5.476562 0.5625,5.597656 0.5,5.734375 0.445312,5.867188 0.40625,6.007812 0.375,6.15625 0.34375,6.3125 0.328125,6.445312 0.328125,6.5625 0.328125,6.613281 0.300781,6.648438 0.25,6.671875 0.207031,6.703125 0.175781,6.71875 0.15625,6.71875 0.0390625,6.71875 -0.015625,6.671875 -0.015625,6.578125 -0.0234375,6.285156 -0.03125,5.984375 -0.03125,5.671875 -0.03125,5.359375 -0.0234375,5.050781 -0.015625,4.75 -0.015625,4.457031 -0.0078125,4.1875 0,3.9375 0,3.6875 0,3.476562 0,3.3125 0,2.957031 -0.0078125,2.597656 -0.03125,2.234375 -0.0507812,1.878906 -0.0703125,1.625 -0.09375,1.46875 c 0,-0.117188 0.0546875,-0.171875 0.15625,-0.171875 0.070312,0 0.117188,0.015625 0.140625,0.046875 0.03125,0.039062 0.050781,0.09375 0.0625,0.15625 0.03125,0.207031 0.070313,0.421875 0.125,0.640625 C 0.453125,2.367188 0.519531,2.488281 0.59375,2.5 Z m 0,0"
           id="path5685"
           style="fill:#000000;fill-opacity:1" />
      </g>
    </g>
    <g
       fill="#8b3f2c"
       fill-opacity="1"
       id="g3440"
       transform="matrix(0.35277777,0,0,0.35277777,-336.5037,-27.220726)"
       style="fill:#000000;fill-opacity:1">
      <g
         id="use3436"
         transform="translate(238.1774,46.804501)"
         style="fill:#000000;fill-opacity:1">
        <path
           d="M 0.21875,0.3125 C 0.195312,0.269531 0.148438,0.226562 0.078125,0.1875 c -0.07421875,-0.042969 -0.125,-0.074219 -0.15625,-0.09375 -0.0078125,0 -0.0195312,-0.015625 -0.03125,-0.046875 C -0.117188,0.0234375 -0.125,0.00390625 -0.125,-0.015625 c 0,-0.0507812 0.0273438,-0.078125 0.078125,-0.078125 0.0234375,0 0.0664062,0.0273438 0.140625,0.078125 0.0625,0.03125 0.15625,0.0820312 0.28125,0.15625 0.132812,0.082031 0.269531,0.164063 0.40625,0.25 0.132812,0.082031 0.253906,0.15625 0.359375,0.21875 0.113281,0.070313 0.191406,0.125 0.234375,0.15625 C 1.40625,0.796875 1.410156,0.832031 1.390625,0.875 1.367188,0.914062 1.34375,0.925781 1.3125,0.90625 1.300781,0.894531 1.285156,0.882812 1.265625,0.875 c -0.023437,0 -0.054687,0 -0.09375,0 C 1.117188,0.875 1.050781,0.921875 0.96875,1.015625 0.882812,1.109375 0.804688,1.226562 0.734375,1.375 0.660156,1.519531 0.59375,1.675781 0.53125,1.84375 0.476562,2.019531 0.453125,2.191406 0.453125,2.359375 c 0,0.207031 0.054687,0.367187 0.171875,0.484375 0.113281,0.113281 0.265625,0.171875 0.453125,0.171875 0.21875,0 0.375,-0.070313 0.46875,-0.203125 C 1.648438,2.6875 1.726562,2.523438 1.78125,2.328125 1.84375,2.128906 1.890625,1.914062 1.921875,1.6875 1.953125,1.457031 2,1.242188 2.0625,1.046875 c 0.070312,-0.199219 0.171875,-0.367187 0.296875,-0.5 0.125,-0.125 0.304687,-0.1875 0.546875,-0.1875 0.1875,0 0.375,0.0625 0.5625,0.1875 0.195312,0.125 0.367188,0.289063 0.515625,0.5 0.15625,0.21875 0.28125,0.46875 0.375,0.75 C 4.453125,2.078125 4.5,2.367188 4.5,2.671875 4.5,2.753906 4.488281,2.851562 4.46875,2.96875 4.457031,3.09375 4.4375,3.210938 4.40625,3.328125 4.382812,3.453125 4.359375,3.5625 4.328125,3.65625 4.304688,3.757812 4.285156,3.835938 4.265625,3.890625 4.265625,3.898438 4.238281,3.894531 4.1875,3.875 4.132812,3.851562 4.050781,3.804688 3.9375,3.734375 3.832031,3.660156 3.722656,3.582031 3.609375,3.5 3.503906,3.414062 3.410156,3.332031 3.328125,3.25 c -0.085937,-0.074219 -0.125,-0.125 -0.125,-0.15625 0,0 0,-0.015625 0,-0.046875 0,-0.03125 0.00391,-0.054687 0.015625,-0.0625 0.03125,0 0.066406,0 0.109375,0 0.21875,0 0.382813,-0.09375 0.5,-0.28125 0.125,-0.1875 0.1875,-0.464844 0.1875,-0.828125 0,-0.179688 -0.054687,-0.324219 -0.15625,-0.4375 -0.105469,-0.105469 -0.230469,-0.15625 -0.375,-0.15625 -0.230469,0 -0.402344,0.066406 -0.515625,0.203125 -0.117188,0.132813 -0.203125,0.300781 -0.265625,0.5 C 2.648438,2.179688 2.609375,2.394531 2.578125,2.625 2.546875,2.851562 2.5,3.066406 2.4375,3.265625 2.375,3.460938 2.273438,3.625 2.140625,3.75 2.015625,3.882812 1.828125,3.953125 1.578125,3.953125 1.460938,3.953125 1.347656,3.925781 1.234375,3.875 1.128906,3.832031 1.03125,3.769531 0.9375,3.6875 0.84375,3.613281 0.753906,3.523438 0.671875,3.421875 0.585938,3.328125 0.515625,3.234375 0.453125,3.140625 0.398438,3.046875 0.34375,2.941406 0.28125,2.828125 0.21875,2.722656 0.15625,2.601562 0.09375,2.46875 0.0390625,2.332031 0,2.191406 -0.03125,2.046875 -0.0625,1.910156 -0.078125,1.773438 -0.078125,1.640625 c 0,-0.0625 0.015625,-0.167969 0.046875,-0.3125 C -0.0078125,1.179688 0.015625,1.035156 0.046875,0.890625 0.0859375,0.742188 0.125,0.613281 0.15625,0.5 0.1875,0.382812 0.207031,0.320312 0.21875,0.3125 Z m 0,0"
           id="path5681"
           style="fill:#000000;fill-opacity:1" />
      </g>
      <g
         id="use3438"
         transform="translate(238.1774,51.015743)"
         style="fill:#000000;fill-opacity:1">
        <path
           d="m 1.25,4.53125 c 0.00781,0.00781 0.00781,0.019531 0,0.03125 -0.011719,0.00781 -0.03125,0.015625 -0.0625,0.015625 -0.03125,0.00781 -0.0625,0.00781 -0.09375,0 C 1.070312,4.566406 1.050781,4.554688 1.03125,4.546875 0.914062,4.421875 0.796875,4.265625 0.671875,4.078125 0.546875,3.898438 0.425781,3.71875 0.3125,3.53125 0.28125,3.476562 0.238281,3.398438 0.1875,3.296875 0.144531,3.203125 0.0976562,3.097656 0.046875,2.984375 0.00390625,2.867188 -0.03125,2.75 -0.0625,2.625 -0.09375,2.5 -0.109375,2.382812 -0.109375,2.28125 c 0,-0.21875 0.0429688,-0.429688 0.125,-0.625 0.0820312,-0.1875 0.195313,-0.355469 0.34375,-0.5 C 0.515625,1.007812 0.691406,0.894531 0.890625,0.8125 1.097656,0.738281 1.320312,0.703125 1.5625,0.703125 c 0.257812,0 0.503906,0.03125 0.734375,0.09375 0.226563,0.070313 0.429687,0.15625 0.609375,0.25 0.175781,0.09375 0.328125,0.179687 0.453125,0.265625 0.125,0.082031 0.21875,0.140625 0.28125,0.171875 0.00781,-0.117187 0.015625,-0.21875 0.015625,-0.3125 0,-0.09375 0,-0.183594 0,-0.265625 0,-0.1875 0,-0.351562 0,-0.484375 0,-0.136719 -0.015625,-0.25 -0.046875,-0.34375 C 3.597656,0.0234375 3.570312,-0.0195312 3.53125,-0.0625 3.5,-0.101562 3.472656,-0.140625 3.453125,-0.171875 3.472656,-0.179688 3.492188,-0.195312 3.515625,-0.21875 3.535156,-0.238281 3.554688,-0.25 3.578125,-0.25 c 0.00781,0 0.019531,0 0.03125,0 0,0 0.03125,0.042969 0.09375,0.125 0.0625,0.0742188 0.132813,0.1640625 0.21875,0.28125 0.09375,0.125 0.191406,0.253906 0.296875,0.390625 0.101562,0.144531 0.203125,0.28125 0.296875,0.40625 0.09375,0.132813 0.171875,0.25 0.234375,0.34375 0.0625,0.09375 0.097656,0.15625 0.109375,0.1875 0.00781,0.03125 0,0.0625 -0.03125,0.09375 C 4.804688,1.617188 4.789062,1.632812 4.78125,1.625 4.769531,1.601562 4.75,1.570312 4.71875,1.53125 4.6875,1.5 4.660156,1.492188 4.640625,1.515625 4.578125,1.578125 4.523438,1.6875 4.484375,1.84375 4.441406,2.007812 4.40625,2.191406 4.375,2.390625 4.351562,2.597656 4.332031,2.8125 4.3125,3.03125 4.300781,3.25 4.296875,3.445312 4.296875,3.625 c 0,0.257812 0.00391,0.46875 0.015625,0.625 0.019531,0.15625 0.039062,0.285156 0.0625,0.390625 0.03125,0.09375 0.050781,0.15625 0.0625,0.1875 0,0 -0.011719,0.00781 -0.03125,0.03125 C 4.382812,4.878906 4.363281,4.890625 4.34375,4.890625 4.332031,4.890625 4.300781,4.84375 4.25,4.75 4.207031,4.664062 4.15625,4.578125 4.09375,4.484375 4.070312,4.429688 4.035156,4.367188 3.984375,4.296875 3.929688,4.222656 3.882812,4.140625 3.84375,4.046875 3.800781,3.960938 3.757812,3.867188 3.71875,3.765625 3.6875,3.671875 3.664062,3.582031 3.65625,3.5 3.644531,3.40625 3.632812,3.296875 3.625,3.171875 c 0,-0.117187 -0.00781,-0.242187 -0.015625,-0.375 0,-0.136719 0,-0.273437 0,-0.40625 0,-0.136719 0,-0.261719 0,-0.375 C 3.578125,2.003906 3.523438,1.976562 3.453125,1.9375 3.378906,1.894531 3.289062,1.851562 3.1875,1.8125 3.082031,1.78125 2.957031,1.75 2.8125,1.71875 2.675781,1.695312 2.523438,1.6875 2.359375,1.6875 2.117188,1.6875 1.894531,1.722656 1.6875,1.796875 1.476562,1.867188 1.296875,1.972656 1.140625,2.109375 0.992188,2.242188 0.878906,2.40625 0.796875,2.59375 c -0.085937,0.1875 -0.125,0.390625 -0.125,0.609375 0,0.125 0.015625,0.242187 0.046875,0.359375 C 0.75,3.675781 0.785156,3.785156 0.828125,3.890625 0.878906,4.003906 0.929688,4.101562 0.984375,4.1875 1.046875,4.28125 1.101562,4.359375 1.15625,4.421875 Z m 0,0"
           id="path5677"
           style="fill:#000000;fill-opacity:1" />
      </g>
    </g>
  </g>
</svg>
