<?xml version="1.0" encoding="UTF-8" standalone="no"?>
<!-- Created with Inkscape (http://www.inkscape.org/) -->

<svg
   width="9.8594742mm"
   height="13.144533mm"
   viewBox="0 0 9.8594741 13.144533"
   version="1.1"
   id="svg1416"
   xmlns="http://www.w3.org/2000/svg"
   xmlns:svg="http://www.w3.org/2000/svg">
  <defs
     id="defs1413">
    <clipPath
       clipPathUnits="userSpaceOnUse"
       id="clipPath1093">
      <path
         d="M 0,0 H 793.701 V 612.284 H 0 Z"
         id="path1091" />
    </clipPath>
  </defs>
  <g
     id="layer1"
     transform="translate(27.874811,-125.98866)"
     style="stroke:#000000;stroke-opacity:0">
    <g
       id="g1087"
       transform="matrix(0.35277777,0,0,-0.35277777,-43.977362,313.89635)"
       style="fill:#000000;fill-opacity:1;stroke:#000000;stroke-opacity:0">
      <g
         id="g1089"
         clip-path="url(#clipPath1093)"
         style="fill:#000000;fill-opacity:1;stroke:#000000;stroke-opacity:0">
        <g
           id="g1095"
           transform="translate(59.3331,507.8143)"
           style="fill:#000000;fill-opacity:1;stroke:#000000;stroke-opacity:0">
          <path
             d="M 0,0 C 0.014,0.005 0.027,0.01 0.043,0.01 0.109,0.014 0.166,-0.032 0.23,-0.05 0.393,-0.091 0.535,0.056 0.65,0.177 0.91,0.447 2.098,1.324 2.32,0.642 2.436,0.284 1.877,-0.384 1.621,-0.582 1.318,-0.812 0.951,-0.997 0.574,-0.958 0.197,-0.919 -0.166,-0.588 -0.127,-0.21 -0.119,-0.125 -0.076,-0.029 0,0 m -9.264,11.293 c -0.082,-0.248 -0.205,-0.485 -0.266,-0.588 -0.359,-0.58 -1.115,-0.941 -1.741,-0.53 -0.114,0.074 -0.221,0.183 -0.228,0.319 -0.005,0.073 0.022,0.146 0.051,0.212 0.327,0.767 1.121,1.357 1.969,1.338 0.368,-0.007 0.334,-0.389 0.215,-0.751 m 11.366,3.201 c 0.142,-0.006 0.283,-0.025 0.402,-0.058 0.762,-0.215 0.055,-1.113 -0.414,-1.243 -0.424,-0.117 -0.94,0.148 -1.022,0.58 -0.019,0.107 -0.015,0.218 0.026,0.319 0.074,0.179 0.252,0.298 0.439,0.348 0.164,0.045 0.369,0.063 0.569,0.054 M 13.664,6.892 c -0.082,1.122 -0.217,2.24 -0.402,3.348 -0.11,0.665 -0.237,1.327 -0.375,1.987 -0.432,2.051 -0.985,4.075 -1.584,6.083 -0.569,1.904 -1.133,3.742 -2.065,5.502 -0.052,0.1 -0.103,0.201 -0.172,0.331 C 8.686,23.921 8.334,23.72 8.037,23.548 8.246,22.871 8.43,22.243 8.633,21.62 9.43,19.179 10.098,16.695 10.68,14.193 11.496,10.688 12.311,7.287 12.135,3.656 11.807,3.954 11.33,4.264 11.096,4.644 10.762,5.187 10,5.6 9.48,5.949 9.111,6.198 8.691,6.366 8.266,6.505 6.775,6.991 5.219,7.071 3.67,6.856 2.697,6.721 1.623,6.856 0.809,7.441 0.396,7.737 0.078,8.137 -0.121,8.602 c -0.119,0.283 -0.57,1.412 -0.291,1.637 0.033,0.026 0.144,-0.015 0.199,-0.056 0.764,-0.566 1.846,-1.106 2.826,-0.977 0.893,0.116 1.735,0.758 2.362,1.369 0.445,0.436 0.812,0.971 0.953,1.577 0.373,1.605 -0.668,3.167 -2.059,3.891 -0.92,0.478 -2.004,0.513 -2.98,0.191 -0.633,-0.208 -2.471,-1.065 -2.155,-1.972 0.033,-0.091 0.063,-0.199 0.039,-0.283 C -1.262,13.852 -1.328,13.658 -1.416,13.636 -1.67,13.57 -2.116,13.635 -2.329,13.462 -2.6,13.245 -2.516,12.678 -2.514,12.376 -2.496,9.892 -1.02,7.285 1.291,6.248 1.07,6.122 0.922,6.011 0.758,5.95 -0.582,5.466 -2.041,5.146 -3.484,5.03 -4.494,4.949 -5.528,4.964 -6.538,5.029 c -0.236,0.015 -0.483,0.038 -0.685,0.164 -0.41,0.258 -0.881,0.373 -1.275,0.643 -0.059,0.04 -0.079,0.178 -0.066,0.261 0.005,0.037 0.138,0.073 0.216,0.073 2.17,0.023 3.937,1.458 3.967,3.678 0.01,0.725 -0.073,1.47 -0.398,2.122 -0.423,0.843 -1.233,1.46 -2.13,1.754 -2.122,0.694 -4.644,-0.188 -5.847,-2.083 -0.649,-1.024 -0.527,-2.15 0.02,-3.186 0.273,-0.52 0.626,-1.073 1.028,-1.507 0.147,-0.159 0.714,-0.424 0.763,-0.6 0.082,-0.297 0.14,-0.554 0.222,-0.799 0.227,-0.665 2.187,-0.718 2.729,-0.797 2.378,-0.344 4.795,-0.494 7.156,0.047 0.387,0.089 0.752,0.274 1.131,0.402 0.205,0.068 0.42,0.106 0.674,0.167 C 0.557,4.921 0.191,4.521 -0.176,4.122 -0.244,4.007 -0.324,3.89 -0.41,3.777 -2.071,1.599 -3.016,-2.678 -0.873,-4.853 0.156,-5.898 1.52,-5.812 2.85,-5.458 c 1.449,0.388 3.488,1.278 3.972,2.849 0.162,0.525 0.127,1.094 0.01,1.633 C 6.488,0.628 5.27,2.437 3.549,2.727 2.021,2.984 0.953,2.021 -0.094,1.072 -0.225,0.954 -0.387,0.873 -0.537,0.775 c -0.01,0.301 0.045,0.548 0.08,0.797 0.256,1.805 1.609,3.301 3.176,4.17 2.47,1.372 6.217,0.417 7.89,-1.84 0.459,-0.618 0.704,-1.37 0.864,-2.124 0.373,-1.757 -0.078,-3.54 -0.494,-5.246 C 10.627,-4.91 10.162,-6.39 9.66,-7.812 9.525,-8.194 8.09,-11.461 8.514,-11.649 c 0.218,-0.098 0.441,-0.191 0.668,-0.259 0.066,-0.021 0.207,0.026 0.232,0.079 0.207,0.439 0.539,0.803 0.715,1.265 0.264,0.696 0.584,1.372 0.9,2.046 2.258,4.806 3.022,10.148 2.635,15.41"
             style="fill:#000000;fill-opacity:1;fill-rule:nonzero;stroke:#000000;stroke-opacity:0"
             id="path1097" />
        </g>
      </g>
    </g>
  </g>
</svg>
