<?xml version="1.0" encoding="UTF-8" standalone="no"?>
<!-- Created with Inkscape (http://www.inkscape.org/) -->

<svg
   width="17.724915mm"
   height="14.635256mm"
   viewBox="0 0 17.724915 14.635256"
   version="1.1"
   id="svg7503"
   xmlns="http://www.w3.org/2000/svg"
   xmlns:svg="http://www.w3.org/2000/svg">
  <defs
     id="defs7500" />
  <g
     id="layer1"
     transform="rotate(-90,70.707398,100.61625)"
     style="fill:#000000;fill-opacity:1">
    <path
       fill-rule="nonzero"
       fill="#913e27"
       fill-opacity="1"
       d="m 171.05041,37.823013 -0.47818,-4.167186 c -1.00183,0.854384 -2.32337,1.564073 -3.04959,1.920986 1.47863,0.40101 2.87045,1.60817 3.52777,2.2462"
       id="path4910"
       style="fill:#000000;fill-opacity:1;stroke-width:0.352778" />
    <path
       fill-rule="nonzero"
       fill="#913e27"
       fill-opacity="1"
       d="m 171.28192,44.262587 c 0.0276,-0.483691 0.12678,-3.017905 -0.13229,-5.55763 -4.73218,3.593924 -12.88879,3.613217 -14.41152,3.581524 l 1.28709,5.306825 c 1.09554,0.07166 8.57691,0.41203 13.25672,-3.330719"
       id="path4912"
       style="fill:#000000;fill-opacity:1;stroke-width:0.352778" />
    <path
       fill-rule="nonzero"
       fill="#913e27"
       fill-opacity="1"
       d="m 164.86853,34.340712 c 0.0786,-0.07855 0.1447,-0.173633 0.19155,-0.276986 0.0427,-0.103353 0.0703,-0.219108 0.0689,-0.338997 0,-0.121268 -0.0248,-0.237023 -0.0703,-0.347266 -0.0482,-0.104731 -0.11024,-0.199815 -0.19292,-0.28112 -0.0799,-0.07993 -0.17639,-0.14745 -0.28388,-0.195681 -0.10749,-0.04685 -0.226,-0.07441 -0.34726,-0.07579 -0.12265,-0.0041 -0.23978,0.02067 -0.34727,0.06201 -0.10611,0.04134 -0.20395,0.10611 -0.2825,0.180524 -0.0827,0.07855 -0.14883,0.173632 -0.19292,0.276985 -0.0455,0.101975 -0.0689,0.219108 -0.0675,0.341754 -0.003,0.119889 0.0262,0.237022 0.0717,0.343131 0.0427,0.104731 0.11162,0.201194 0.19017,0.282498 0.0772,0.0813 0.17639,0.148828 0.28388,0.197059 0.1061,0.04548 0.22462,0.07442 0.34864,0.07579 0.1254,0.0028 0.23978,-0.01929 0.34589,-0.06201 0.10749,-0.04272 0.20257,-0.101975 0.28387,-0.181901"
       id="path4914"
       style="fill:#000000;fill-opacity:1;stroke-width:0.352778" />
    <path
       fill-rule="nonzero"
       fill="#913e27"
       fill-opacity="1"
       d="m 165.06697,37.850575 c -0.0413,-0.103353 -0.10886,-0.203951 -0.18879,-0.285252 -0.0813,-0.08268 -0.18052,-0.150209 -0.28663,-0.195682 -0.10611,-0.0441 -0.22324,-0.07304 -0.34865,-0.07579 -0.12264,-0.0041 -0.23978,0.02067 -0.34726,0.06201 -0.10611,0.04272 -0.20395,0.104729 -0.2825,0.181899 -0.0813,0.07993 -0.14607,0.173634 -0.19154,0.276987 -0.0427,0.106109 -0.0662,0.217728 -0.0689,0.341754 -0.003,0.119888 0.0262,0.2384 0.0717,0.343129 0.0455,0.106109 0.11162,0.203951 0.19155,0.283877 0.0813,0.08268 0.17639,0.152961 0.28387,0.197058 0.10749,0.04548 0.22462,0.07442 0.35002,0.07579 0.12127,0.0028 0.23978,-0.02067 0.34589,-0.05926 0.10611,-0.0441 0.20395,-0.106108 0.28526,-0.183278 0.0785,-0.07855 0.14331,-0.173634 0.18741,-0.276987 0.0468,-0.107488 0.0703,-0.223242 0.0703,-0.345888 0,-0.117133 -0.0248,-0.232887 -0.0717,-0.340375"
       id="path4916"
       style="fill:#000000;fill-opacity:1;stroke-width:0.352778" />
    <path
       fill-rule="nonzero"
       fill="#913e27"
       fill-opacity="1"
       d="m 166.2576,33.748155 v 0.0041 c 0.001,0.214974 -0.0427,0.425813 -0.10887,0.622873 -0.0207,0.04823 -0.0262,0.09646 -0.0455,0.146072 -0.0152,0.02756 -0.0358,0.05374 -0.0482,0.08544 -0.0524,0.09784 -0.1061,0.194304 -0.17363,0.285254 -0.0648,0.08957 -0.13229,0.176389 -0.21222,0.250804 -0.18603,0.176389 -0.39963,0.321081 -0.64354,0.414789 -0.23978,0.09508 -0.50849,0.146071 -0.7841,0.140561 -0.0152,0 -0.0303,-0.0055 -0.0455,-0.0083 -0.11989,-0.0028 -0.2384,-0.01655 -0.3514,-0.03996 -0.0786,-0.01792 -0.15572,-0.04823 -0.23151,-0.07442 -0.0537,-0.0193 -0.10886,-0.0303 -0.15985,-0.05374 -0.24254,-0.104733 -0.46027,-0.254938 -0.64492,-0.439595 -0.1819,-0.184657 -0.33073,-0.402387 -0.43133,-0.642166 -0.10473,-0.239779 -0.16261,-0.501606 -0.16261,-0.775836 v -0.0069 c -10e-4,-0.27423 0.0538,-0.533301 0.15572,-0.768946 0.10198,-0.235644 0.25218,-0.447862 0.43408,-0.622873 0.18053,-0.175011 0.39963,-0.316949 0.64079,-0.413411 0.24253,-0.09646 0.50712,-0.144694 0.78686,-0.14056 0.27836,0.0069 0.54295,0.0689 0.78548,0.173632 0.24254,0.107488 0.46165,0.259072 0.64217,0.443729 0.18603,0.181901 0.33486,0.398253 0.43821,0.642166 0.10336,0.2384 0.15986,0.502984 0.15986,0.777213 m 0.0124,4.467601 0.001,0.0041 c 10e-4,0.275608 -0.0579,0.53606 -0.15848,0.770326 -0.10335,0.2384 -0.2508,0.449241 -0.43408,0.627006 -0.17915,0.176389 -0.39963,0.314195 -0.64079,0.413413 -0.24253,0.09508 -0.50712,0.146071 -0.78548,0.137802 -0.2825,-0.0055 -0.54846,-0.06752 -0.78824,-0.172254 -0.24391,-0.107488 -0.46164,-0.256314 -0.64354,-0.442352 -0.18466,-0.184654 -0.33349,-0.402385 -0.43684,-0.640785 -0.10335,-0.242535 -0.15985,-0.502984 -0.16261,-0.778591 v -0.0069 c 0,-0.274232 0.0565,-0.533302 0.15848,-0.768947 0.10197,-0.235645 0.25218,-0.446486 0.4327,-0.622875 0.18328,-0.175009 0.40239,-0.318325 0.64217,-0.412033 0.24529,-0.09646 0.50987,-0.146072 0.78823,-0.139182 0.27975,0.0083 0.54433,0.07028 0.78686,0.172254 0.24254,0.106112 0.46027,0.256318 0.64493,0.439597 0.18328,0.184658 0.32797,0.405144 0.43546,0.643544 0.10059,0.239776 0.15847,0.502984 0.15985,0.775836 m -8.6941,-8.297191 c -0.15847,-0.0014 -0.31557,-0.0069 -0.4768,-0.0096 l -0.39412,11.583789 -0.0152,0.332105 -0.001,0.08268 c 0.0496,0.0014 0.10887,0 0.17364,0.0055 1.7694,0.02205 9.65315,-0.0689 14.16072,-3.58014 -0.51539,-0.525032 -2.36058,-2.299946 -4.12723,-2.492873 -0.0882,-0.0083 -0.15158,-0.07579 -0.16674,-0.158475 -0.0152,-0.07441 0.0331,-0.16674 0.11162,-0.201192 0.022,-0.0083 1.86587,-0.826822 3.23564,-1.901692 0.10197,-0.08682 0.2067,-0.166742 0.30592,-0.254937 0.01,-0.01102 0.0234,-0.01929 0.0358,-0.02894 -0.0565,-0.03858 -0.12265,-0.0813 -0.19844,-0.130914 -0.99908,-0.629763 -3.93568,-2.237934 -8.86354,-2.935221 z m 0,0"
       id="path4918"
       style="fill:#000000;fill-opacity:1;stroke-width:0.352778" />
  </g>
</svg>
