<?xml version="1.0" encoding="UTF-8" standalone="no"?>
<!-- Created with Inkscape (http://www.inkscape.org/) -->

<svg
   width="22.220827mm"
   height="8.893589mm"
   viewBox="0 0 22.220827 8.893589"
   version="1.1"
   id="svg25876"
   sodipodi:docname="spend_bird.svg"
   inkscape:version="1.2.2 (b0a84865, 2022-12-01)"
   xmlns:inkscape="http://www.inkscape.org/namespaces/inkscape"
   xmlns:sodipodi="http://sodipodi.sourceforge.net/DTD/sodipodi-0.dtd"
   xmlns="http://www.w3.org/2000/svg"
   xmlns:svg="http://www.w3.org/2000/svg">
  <sodipodi:namedview
     id="namedview30118"
     pagecolor="#ffffff"
     bordercolor="#000000"
     borderopacity="0.25"
     inkscape:showpageshadow="2"
     inkscape:pageopacity="0.0"
     inkscape:pagecheckerboard="0"
     inkscape:deskcolor="#d1d1d1"
     inkscape:document-units="mm"
     showgrid="false"
     inkscape:zoom="2.8100514"
     inkscape:cx="40.034855"
     inkscape:cy="16.725673"
     inkscape:window-width="1309"
     inkscape:window-height="456"
     inkscape:window-x="0"
     inkscape:window-y="25"
     inkscape:window-maximized="0"
     inkscape:current-layer="svg25876" />
  <defs
     id="defs25873" />
  <g
     id="layer1"
     transform="rotate(-90,-122.33153,-141.81823)">
    <path
       fill-rule="nonzero"
       fill="#6ac0bb"
       fill-opacity="1"
       d="m -272.94816,-13.563934 -0.007,-5.412934 c 0,-0.227376 0.18328,-0.412033 0.41065,-0.412033 l 7.8879,-0.0096 c 0.22599,-0.0014 0.41065,0.183279 0.41065,0.410655 l 0.008,5.412934 c 0,0.227376 -0.18465,0.410655 -0.41065,0.412034 l -7.88789,0.0096 c -0.22738,0 -0.41204,-0.183279 -0.41204,-0.410656"
       id="path4852"
       style="stroke-width:0.352778" />
    <path
       fill="none"
       stroke-width="0.176389"
       stroke-linecap="butt"
       stroke-linejoin="miter"
       stroke="#231f20"
       stroke-opacity="1"
       stroke-miterlimit="10"
       d="m -272.94816,-13.563934 -0.007,-5.412934 c 0,-0.227376 0.18328,-0.412033 0.41065,-0.412033 l 7.8879,-0.0096 c 0.22599,-0.0014 0.41065,0.183279 0.41065,0.410655 l 0.008,5.412934 c 0,0.227376 -0.18466,0.410655 -0.41066,0.412034 l -7.88789,0.0096 c -0.22737,0 -0.41203,-0.183279 -0.41203,-0.410655 z m 0,0"
       id="path4854" />
    <path
       fill-rule="nonzero"
       fill="#ffffff"
       fill-opacity="1"
       d="m -269.36664,-14.332879 c 0.0469,-0.12678 0.14194,-0.396875 0.23427,-0.713824 l 0.53743,0.232888 c -0.1378,0.261828 -0.39688,0.423058 -0.7717,0.480936 m -1.1672,-2.623785 c 0.008,-0.197059 0.0786,-0.642166 0.51676,-0.802018 l 0.0179,0.541569 c -0.15296,0.05099 -0.32383,0.133669 -0.53468,0.260449 m 3.66145,1.770779 c -0.0303,-0.168121 -0.10748,-0.460265 -0.27974,-0.724848 l 0.37207,-0.228754 c 0.16123,0.239778 0.13229,0.552593 -0.0923,0.953602 m -0.82544,0.953603 c -0.004,-0.143316 -0.0207,-0.442351 -0.0978,-0.764812 l 0.43959,-0.141938 c 0.0744,0.369315 -0.0372,0.673861 -0.34175,0.90675 m -0.20395,-0.78686 c 0.0978,0.387228 0.10611,0.745518 0.10611,0.846115 l -0.003,0.128158 0.0786,-0.05099 c 0.41203,-0.272851 0.565,-0.65319 0.45062,-1.118967 -0.12403,-0.489203 -0.50988,-0.9412 -0.69453,-1.135503 0.28801,0.04685 0.52365,0.199816 0.7028,0.453375 0.26734,0.37896 0.31144,0.855761 0.31144,0.861273 l 0.0124,0.146072 0.0786,-0.125401 c 0.32246,-0.512631 0.36518,-0.923286 0.13229,-1.22232 -0.23702,-0.303168 -0.71382,-0.431326 -1.06246,-0.525033 -0.16123,-0.04272 -0.40377,-0.107487 -0.40377,-0.155718 0,-0.0028 0,-0.0096 0.01,-0.02205 0.26459,-0.358289 1.57234,-0.785481 1.58613,-0.790993 l 0.0345,-0.01103 -10e-4,-0.584288 -0.52641,-0.184657 -1.51171,0.835091 c -0.57326,-0.228754 -1.03766,-0.2949 -1.38079,-0.198437 -0.60496,0.170876 -0.65181,0.782725 -0.65044,0.966004 0,0.02756 0,0.04272 0,0.04272 l 0.007,0.0813 0.0689,-0.04272 c 0.25494,-0.158475 0.452,-0.256316 0.62288,-0.308681 0.36105,-0.111621 0.60909,-0.01516 0.85163,0.333485 0.15985,0.230133 0.11575,0.819933 -0.12816,1.674317 -0.13229,0.460264 -0.27561,0.832335 -0.27699,0.836469 l -0.0289,0.07441 0.0813,-0.0083 c 0.4768,-0.05099 0.79926,-0.250803 0.95498,-0.592557 0.0703,-0.152962 0.10611,-0.334863 0.10611,-0.540191 0,-0.261827 -0.0593,-0.504362 -0.10198,-0.647678 0.26734,0.195682 0.46027,0.526411 0.57465,0.986676"
       id="path4856"
       style="stroke-width:0.352778" />
    <path
       fill="none"
       stroke-width="0.705556"
       stroke-linecap="butt"
       stroke-linejoin="miter"
       stroke="#231f20"
       stroke-opacity="1"
       stroke-miterlimit="10"
       d="M -268.85401,-11.735278 V 1.2155249"
       id="path4858" />
    <path
       fill-rule="nonzero"
       fill="#231f20"
       fill-opacity="1"
       d="m -269.90959,0.90684477 1.05558,1.82727953 1.05558,-1.82727953 z m 0,0"
       id="path4860"
       style="stroke-width:0.352778" />
  </g>
</svg>
