<?xml version="1.0" encoding="UTF-8" standalone="no"?>
<!-- Created with Inkscape (http://www.inkscape.org/) -->

<svg
   width="64.930397mm"
   height="19.461311mm"
   viewBox="0 0 64.930396 19.461311"
   version="1.1"
   id="svg15397"
   sodipodi:docname="Crafted_Items_Box.svg"
   inkscape:version="1.2.2 (b0a84865, 2022-12-01)"
   xmlns:inkscape="http://www.inkscape.org/namespaces/inkscape"
   xmlns:sodipodi="http://sodipodi.sourceforge.net/DTD/sodipodi-0.dtd"
   xmlns="http://www.w3.org/2000/svg"
   xmlns:svg="http://www.w3.org/2000/svg">
  <sodipodi:namedview
     id="namedview19182"
     pagecolor="#ffffff"
     bordercolor="#000000"
     borderopacity="0.25"
     inkscape:showpageshadow="2"
     inkscape:pageopacity="0.0"
     inkscape:pagecheckerboard="0"
     inkscape:deskcolor="#d1d1d1"
     inkscape:document-units="mm"
     showgrid="false"
     inkscape:zoom="0.9616708"
     inkscape:cx="115.94404"
     inkscape:cy="36.394991"
     inkscape:window-width="1309"
     inkscape:window-height="456"
     inkscape:window-x="0"
     inkscape:window-y="25"
     inkscape:window-maximized="0"
     inkscape:current-layer="svg15397" />
  <defs
     id="defs15394" />
  <g
     id="layer1"
     transform="rotate(-90,-0.92537754,115.10942)">
    <g
       fill="#231f20"
       fill-opacity="1"
       id="g5657"
       transform="matrix(0.35277777,0,0,0.35277777,-75.565576,-84.630985)">
      <g
         id="use5653"
         transform="translate(525.07977,609.53302)">
        <path
           d="m -0.078125,8.375 c 0,-0.117188 -0.0039062,-0.265625 -0.015625,-0.453125 C -0.101562,7.742188 -0.109375,7.550781 -0.109375,7.34375 -0.117188,7.144531 -0.128906,6.9375 -0.140625,6.71875 -0.148438,6.5 -0.15625,6.296875 -0.15625,6.109375 c 0,-0.710937 0.109375,-1.40625 0.328125,-2.09375 C 0.390625,3.328125 0.726562,2.71875 1.1875,2.1875 1.65625,1.664062 2.253906,1.242188 2.984375,0.921875 3.710938,0.597656 4.585938,0.4375 5.609375,0.4375 c 0.945313,0 1.78125,0.175781 2.5,0.53125 C 8.835938,1.320312 9.445312,1.789062 9.9375,2.375 10.425781,2.96875 10.796875,3.628906 11.046875,4.359375 11.304688,5.097656 11.4375,5.851562 11.4375,6.625 c 0,0.164062 -0.01172,0.394531 -0.03125,0.6875 -0.02344,0.300781 -0.04687,0.597656 -0.07813,0.890625 -0.03125,0.289063 -0.07031,0.550781 -0.109375,0.78125 -0.03125,0.226563 -0.0625,0.375 -0.09375,0.4375 0.375,0.132813 0.703125,0.285156 0.984375,0.453125 0.289063,0.175781 0.507813,0.414062 0.65625,0.71875 0.03125,0.08203 0.03516,0.175781 0.01563,0.28125 -0.02344,0.113281 -0.07422,0.171875 -0.15625,0.171875 -0.09375,-0.0625 -0.152344,-0.109375 -0.171875,-0.140625 -0.02344,-0.02344 -0.03125,-0.05469 -0.03125,-0.09375 0,-0.125 -0.0625,-0.25 -0.1875,-0.375 C 12.117188,10.3125 11.96875,10.195312 11.78125,10.09375 11.59375,9.988281 11.378906,9.894531 11.140625,9.8125 10.898438,9.738281 10.660156,9.675781 10.421875,9.625 10.296875,9.601562 10.15625,9.578125 10,9.546875 9.851562,9.523438 9.703125,9.503906 9.546875,9.484375 9.398438,9.460938 9.253906,9.445312 9.109375,9.4375 8.972656,9.425781 8.859375,9.421875 8.765625,9.421875 8.710938,9.421875 8.664062,9.398438 8.625,9.359375 8.59375,9.316406 8.578125,9.273438 8.578125,9.234375 c 0,-0.0625 0.03125,-0.136719 0.09375,-0.21875 C 8.941406,8.960938 9.207031,8.867188 9.46875,8.734375 9.738281,8.609375 9.976562,8.425781 10.1875,8.1875 c 0.21875,-0.242188 0.390625,-0.542969 0.515625,-0.90625 0.125,-0.355469 0.1875,-0.777344 0.1875,-1.265625 0,-0.523437 -0.125,-0.992187 -0.375,-1.40625 -0.242187,-0.40625 -0.574219,-0.75 -1,-1.03125 C 9.085938,3.296875 8.582031,3.078125 8,2.921875 7.414062,2.773438 6.785156,2.703125 6.109375,2.703125 c -0.929687,0 -1.75,0.09375 -2.46875,0.28125 C 2.921875,3.171875 2.3125,3.425781 1.8125,3.75 1.3125,4.082031 0.925781,4.476562 0.65625,4.9375 0.394531,5.394531 0.265625,5.898438 0.265625,6.453125 0.265625,6.804688 0.320312,7.15625 0.4375,7.5 0.5625,7.851562 0.722656,8.175781 0.921875,8.46875 1.128906,8.757812 1.363281,9.019531 1.625,9.25 c 0.269531,0.226562 0.554688,0.410156 0.859375,0.546875 0.039063,0.019531 0.070313,0.070313 0.09375,0.15625 0.019531,0.09375 0.00781,0.140625 -0.03125,0.140625 -0.136719,0 -0.328125,-0.04687 -0.578125,-0.140625 C 1.726562,9.867188 1.488281,9.765625 1.25,9.640625 1.007812,9.523438 0.789062,9.410156 0.59375,9.296875 0.394531,9.179688 0.265625,9.101562 0.203125,9.0625 0.128906,9.03125 0.0351562,8.988281 -0.078125,8.9375 -0.203125,8.882812 -0.34375,8.835938 -0.5,8.796875 -0.65625,8.765625 -0.816406,8.734375 -0.984375,8.703125 -1.148438,8.671875 -1.3125,8.65625 -1.46875,8.65625 c -0.175781,0 -0.285156,-0.023438 -0.328125,-0.0625 -0.039063,-0.042969 -0.0625,-0.136719 -0.0625,-0.28125 0,-0.117188 0.085937,-0.167969 0.25,-0.15625 0.167969,0.00781 0.359375,0.035156 0.578125,0.078125 0.210938,0.039063 0.40625,0.082031 0.59375,0.125 0.1875,0.050781 0.308594,0.054687 0.359375,0.015625 z m 0,0"
           id="path16565" />
      </g>
      <g
         id="use5655"
         transform="translate(525.07977,619.86902)">
        <path
           d="M 6.796875,7.90625 C 6.703125,7.789062 6.582031,7.648438 6.4375,7.484375 6.289062,7.328125 6.148438,7.160156 6.015625,6.984375 5.890625,6.804688 5.773438,6.625 5.671875,6.4375 5.578125,6.257812 5.53125,6.085938 5.53125,5.921875 c 0,-0.148437 0.035156,-0.28125 0.109375,-0.40625 C 5.710938,5.398438 5.785156,5.289062 5.859375,5.1875 5.941406,5.09375 6.015625,4.992188 6.078125,4.890625 6.148438,4.796875 6.1875,4.695312 6.1875,4.59375 6.1875,4.300781 6.066406,4.054688 5.828125,3.859375 5.597656,3.660156 5.300781,3.5 4.9375,3.375 4.582031,3.257812 4.191406,3.171875 3.765625,3.109375 3.335938,3.054688 2.925781,3.03125 2.53125,3.03125 c -0.335938,0 -0.605469,0.00781 -0.8125,0.03125 -0.210938,0.03125 -0.375,0.070312 -0.5,0.125 -0.117188,0.050781 -0.199219,0.117188 -0.25,0.203125 -0.042969,0.09375 -0.0625,0.207031 -0.0625,0.34375 0,0.132813 0.019531,0.28125 0.0625,0.4375 0.007812,0.03125 -0.011719,0.050781 -0.0625,0.0625 C 0.851562,4.253906 0.8125,4.265625 0.78125,4.265625 0.757812,4.265625 0.734375,4.25 0.703125,4.21875 0.679688,4.1875 0.671875,4.164062 0.671875,4.15625 0.578125,3.925781 0.472656,3.6875 0.359375,3.4375 0.242188,3.195312 0.148438,2.992188 0.078125,2.828125 0.015625,2.679688 -0.0507812,2.503906 -0.125,2.296875 -0.195312,2.085938 -0.234375,1.910156 -0.234375,1.765625 c 0,-0.179687 0.027344,-0.324219 0.078125,-0.4375 C -0.101562,1.222656 -0.0507812,1.171875 0,1.171875 c 0.0507812,0 0.0976562,0.00781 0.140625,0.03125 0.039063,0.03125 0.125,0.054687 0.25,0.078125 0.15625,0.019531 0.34375,0.039062 0.5625,0.0625 0.21875,0.03125 0.453125,0.054688 0.703125,0.078125 0.257812,0.03125 0.523438,0.050781 0.796875,0.0625 0.269531,0.019531 0.539063,0.03125 0.8125,0.03125 0.59375,0 1.097656,-0.023437 1.515625,-0.0625 0.414062,-0.03125 0.75,-0.09375 1,-0.1875 C 6.039062,1.171875 6.226562,1.039062 6.34375,0.875 6.457031,0.707031 6.515625,0.492188 6.515625,0.234375 c 0,-0.054687 0,-0.101563 0,-0.140625 0,-0.0429688 -0.00781,-0.0859375 -0.015625,-0.125 0,-0.0625 0.03125,-0.09375 0.09375,-0.09375 0.0625,0 0.109375,0.03125 0.140625,0.09375 C 6.804688,0.0820312 6.914062,0.257812 7.0625,0.5 7.207031,0.75 7.347656,1.003906 7.484375,1.265625 7.617188,1.523438 7.738281,1.78125 7.84375,2.03125 7.945312,2.28125 8,2.460938 8,2.578125 8,2.710938 7.953125,2.828125 7.859375,2.921875 7.773438,3.023438 7.660156,3.097656 7.515625,3.140625 7.378906,3.191406 7.222656,3.226562 7.046875,3.25 6.867188,3.269531 6.695312,3.28125 6.53125,3.28125 c -0.125,0 -0.261719,-0.00781 -0.40625,-0.015625 -0.136719,0 -0.28125,0 -0.4375,0 0.695312,0.476563 1.238281,0.910156 1.625,1.296875 0.394531,0.382812 0.59375,0.742188 0.59375,1.078125 0,0.132813 -0.058594,0.257813 -0.171875,0.375 C 7.628906,6.140625 7.507812,6.269531 7.375,6.40625 7.25,6.550781 7.128906,6.695312 7.015625,6.84375 6.910156,7 6.859375,7.15625 6.859375,7.3125 c 0,0.132812 0.015625,0.234375 0.046875,0.296875 0.03125,0.070313 0.054688,0.128906 0.078125,0.171875 0,0.082031 -0.058594,0.125 -0.171875,0.125 z m 0,0"
           id="path16561" />
      </g>
    </g>
    <g
       fill="#231f20"
       fill-opacity="1"
       id="g5681"
       transform="matrix(0.35277777,0,0,0.35277777,-75.565576,-84.630985)">
      <g
         id="use5659"
         transform="translate(525.07977,626.49298)">
        <path
           d="M 2.5,5.75 C 2.675781,5.71875 2.867188,5.679688 3.078125,5.640625 3.296875,5.609375 3.5,5.578125 3.6875,5.546875 3.882812,5.515625 4.050781,5.484375 4.1875,5.453125 4.332031,5.429688 4.425781,5.414062 4.46875,5.40625 4.40625,5.238281 4.328125,5.046875 4.234375,4.828125 4.148438,4.617188 4.054688,4.40625 3.953125,4.1875 3.859375,3.976562 3.757812,3.773438 3.65625,3.578125 3.550781,3.390625 3.457031,3.234375 3.375,3.109375 3.21875,2.859375 3.054688,2.671875 2.890625,2.546875 2.734375,2.421875 2.539062,2.359375 2.3125,2.359375 2.007812,2.359375 1.738281,2.445312 1.5,2.625 1.269531,2.800781 1.15625,3.082031 1.15625,3.46875 c 0,0.207031 0.035156,0.421875 0.109375,0.640625 0.070313,0.21875 0.15625,0.414063 0.25,0.59375 0.09375,0.1875 0.1875,0.347656 0.28125,0.484375 C 1.898438,5.332031 1.976562,5.429688 2.03125,5.484375 2.113281,5.566406 2.1875,5.632812 2.25,5.6875 2.3125,5.738281 2.394531,5.757812 2.5,5.75 Z M 4.96875,5.28125 c 0.332031,-0.0625 0.628906,-0.140625 0.890625,-0.234375 0.257813,-0.085937 0.476563,-0.1875 0.65625,-0.3125 0.175781,-0.125 0.3125,-0.28125 0.40625,-0.46875 C 7.015625,4.085938 7.0625,3.863281 7.0625,3.59375 7.0625,3.363281 7.015625,3.148438 6.921875,2.953125 6.835938,2.753906 6.738281,2.582031 6.625,2.4375 6.507812,2.289062 6.390625,2.175781 6.265625,2.09375 6.148438,2.019531 6.0625,1.976562 6,1.96875 5.914062,1.957031 5.875,1.910156 5.875,1.828125 c 0,-0.15625 0.050781,-0.296875 0.15625,-0.421875 0.101562,-0.125 0.234375,-0.1875 0.390625,-0.1875 0.082031,0 0.144531,0.00781 0.1875,0.03125 0.132813,0.238281 0.28125,0.535156 0.4375,0.890625 0.164063,0.351563 0.316406,0.71875 0.453125,1.09375 0.144531,0.382813 0.257812,0.757813 0.34375,1.125 0.09375,0.375 0.140625,0.710937 0.140625,1.015625 0,0.445312 -0.070313,0.789062 -0.203125,1.03125 -0.125,0.238281 -0.308594,0.414062 -0.546875,0.53125 -0.230469,0.125 -0.5,0.195312 -0.8125,0.21875 C 6.109375,7.1875 5.769531,7.210938 5.40625,7.234375 4.863281,7.265625 4.335938,7.304688 3.828125,7.359375 3.328125,7.410156 2.878906,7.488281 2.484375,7.59375 2.097656,7.707031 1.785156,7.84375 1.546875,8 1.304688,8.164062 1.1875,8.375 1.1875,8.625 1.1875,8.738281 1.207031,8.863281 1.25,9 1.289062,9.144531 1.335938,9.28125 1.390625,9.40625 1.453125,9.53125 1.507812,9.644531 1.5625,9.75 1.625,9.851562 1.671875,9.921875 1.703125,9.953125 c 0,0.09375 -0.054687,0.148437 -0.15625,0.171875 -0.054687,0 -0.101563,-0.01172 -0.140625,-0.03125 C 1.382812,10.070312 1.332031,9.988281 1.25,9.84375 1.164062,9.707031 1.0625,9.539062 0.9375,9.34375 0.820312,9.144531 0.695312,8.921875 0.5625,8.671875 0.4375,8.421875 0.3125,8.175781 0.1875,7.9375 0.0703125,7.695312 -0.0195312,7.472656 -0.09375,7.265625 -0.164062,7.066406 -0.203125,6.910156 -0.203125,6.796875 c 0,-0.136719 0.058594,-0.257813 0.171875,-0.359375 0.1015625,-0.105469 0.25,-0.195312 0.4375,-0.265625 0.1875,-0.074219 0.398438,-0.136719 0.640625,-0.1875 0.25,-0.054687 0.507813,-0.101563 0.78125,-0.140625 C 1.660156,5.644531 1.46875,5.394531 1.25,5.09375 1.03125,4.800781 0.828125,4.476562 0.640625,4.125 0.453125,3.769531 0.289062,3.410156 0.15625,3.046875 0.0195312,2.679688 -0.046875,2.328125 -0.046875,1.984375 c 0,-0.292969 0.04296875,-0.546875 0.125,-0.765625 C 0.171875,1.007812 0.289062,0.832031 0.4375,0.6875 0.59375,0.550781 0.769531,0.445312 0.96875,0.375 1.164062,0.300781 1.367188,0.265625 1.578125,0.265625 c 0.34375,0 0.625,0.101563 0.84375,0.3125 0.21875,0.207031 0.445313,0.53125 0.6875,0.96875 C 3.210938,1.753906 3.351562,2.035156 3.53125,2.390625 3.707031,2.753906 3.882812,3.125 4.0625,3.5 4.25,3.882812 4.421875,4.238281 4.578125,4.5625 4.742188,4.894531 4.875,5.132812 4.96875,5.28125 Z m 0,0"
           id="path16557" />
      </g>
      <g
         id="use5661"
         transform="translate(525.07977,635.29303)">
        <path
           d="M 0.078125,3.140625 C 0.078125,3.160156 0.0820312,3.195312 0.09375,3.25 0.113281,3.3125 0.125,3.351562 0.125,3.375 0.125,3.4375 0.0820312,3.472656 0,3.484375 -0.0820312,3.503906 -0.140625,3.492188 -0.171875,3.453125 -0.234375,3.367188 -0.304688,3.257812 -0.390625,3.125 -0.484375,3 -0.570312,2.859375 -0.65625,2.703125 -0.75,2.554688 -0.835938,2.40625 -0.921875,2.25 -1.015625,2.101562 -1.09375,1.976562 -1.15625,1.875 -1.1875,1.8125 -1.234375,1.71875 -1.296875,1.59375 -1.367188,1.46875 -1.4375,1.34375 -1.5,1.21875 -1.570312,1.101562 -1.632812,0.988281 -1.6875,0.875 -1.738281,0.769531 -1.765625,0.703125 -1.765625,0.671875 c 0,-0.054687 0.03125,-0.105469 0.09375,-0.15625 0.054687,-0.042969 0.101563,-0.0625 0.140625,-0.0625 0.054688,0 0.085938,0.003906 0.09375,0.015625 0,0.007812 0.011719,0.03125 0.03125,0.0625 0.042969,0.0625 0.09375,0.144531 0.15625,0.25 0.0625,0.113281 0.203125,0.203125 0.421875,0.265625 C -0.648438,1.085938 -0.375,1.128906 0,1.171875 0.375,1.210938 0.804688,1.25 1.296875,1.28125 c 0.5,0.03125 1.046875,0.054688 1.640625,0.078125 0.59375,0.019531 1.203125,0.03125 1.828125,0.03125 0.238281,0 0.46875,0 0.6875,0 0.21875,0 0.410156,-0.00781 0.578125,-0.015625 0,-0.023438 0.00391,-0.105469 0.015625,-0.25 0.019531,-0.148438 0.039063,-0.296875 0.0625,-0.453125 0.019531,-0.15625 0.039063,-0.304687 0.0625,-0.4375 C 6.203125,0.0976562 6.238281,0.03125 6.28125,0.03125 c 0.019531,0 0.050781,-0.0078125 0.09375,-0.015625 0.050781,0 0.117188,0.0390625 0.203125,0.125 0.082031,0.082031 0.175781,0.1875 0.28125,0.3125 C 6.972656,0.578125 7.082031,0.695312 7.1875,0.8125 7.289062,0.925781 7.382812,1.035156 7.46875,1.140625 7.550781,1.242188 7.625,1.320312 7.6875,1.375 8,1.382812 8.285156,1.390625 8.546875,1.390625 c 0.257813,0.00781 0.5,0.023437 0.71875,0.046875 0.257813,0.019531 0.46875,0.0625 0.625,0.125 0.15625,0.0625 0.304687,0.15625 0.453125,0.28125 0.144531,0.125 0.332031,0.375 0.5625,0.75 0.226562,0.375 0.460938,0.816406 0.703125,1.328125 0.09375,0.175781 0.171875,0.332031 0.234375,0.46875 0.0625,0.132813 0.109375,0.265625 0.140625,0.390625 0.03906,0.125 0.07031,0.253906 0.09375,0.390625 0.01953,0.144531 0.03125,0.304687 0.03125,0.484375 0,0.476562 -0.05469,0.882812 -0.15625,1.21875 -0.09375,0.332031 -0.226563,0.585938 -0.390625,0.765625 -0.04297,0 -0.132812,-0.070313 -0.265625,-0.203125 C 11.160156,7.300781 11.003906,7.140625 10.828125,6.953125 10.648438,6.773438 10.46875,6.59375 10.28125,6.40625 10.101562,6.226562 9.953125,6.097656 9.828125,6.015625 9.773438,5.984375 9.757812,5.9375 9.78125,5.875 9.800781,5.8125 9.832031,5.789062 9.875,5.8125 9.914062,5.832031 9.957031,5.847656 10,5.859375 c 0.03906,0.019531 0.09375,0.03125 0.15625,0.03125 0.289062,0 0.539062,-0.148437 0.75,-0.4375 C 11.125,5.171875 11.234375,4.804688 11.234375,4.359375 11.234375,4.097656 11.15625,3.878906 11,3.703125 10.84375,3.535156 10.582031,3.40625 10.21875,3.3125 9.882812,3.226562 9.488281,3.164062 9.03125,3.125 8.582031,3.09375 8.003906,3.066406 7.296875,3.046875 7.265625,3.191406 7.238281,3.382812 7.21875,3.625 7.207031,3.863281 7.203125,4.125 7.203125,4.40625 c 0,0.175781 0,0.375 0,0.59375 0,0.21875 0.00391,0.429688 0.015625,0.640625 C 7.226562,5.847656 7.238281,6.046875 7.25,6.234375 7.269531,6.421875 7.296875,6.570312 7.328125,6.6875 7.285156,6.726562 7.238281,6.75 7.1875,6.75 6.957031,6.601562 6.769531,6.367188 6.625,6.046875 6.488281,5.722656 6.375,5.378906 6.28125,5.015625 6.1875,4.648438 6.125,4.28125 6.09375,3.90625 6.0625,3.539062 6.046875,3.242188 6.046875,3.015625 5.867188,3.015625 5.613281,3.003906 5.28125,2.984375 4.957031,2.972656 4.609375,2.960938 4.234375,2.953125 3.867188,2.941406 3.492188,2.929688 3.109375,2.921875 c -0.375,0 -0.714844,0 -1.015625,0 -0.242188,0 -0.480469,0 -0.71875,0 -0.230469,0.00781 -0.4375,0.019531 -0.625,0.03125 -0.179688,0.00781 -0.328125,0.03125 -0.453125,0.0625 -0.125,0.03125 -0.1992188,0.070313 -0.21875,0.125 z m 0,0"
           id="path16553" />
      </g>
      <g
         id="use5663"
         transform="translate(525.07977,640.62097)">
        <path
           d="M 2.21875,8.03125 C 2.238281,8.050781 2.234375,8.066406 2.203125,8.078125 2.179688,8.097656 2.144531,8.109375 2.09375,8.109375 c -0.042969,0.00781 -0.089844,0.00781 -0.140625,0 -0.054687,-0.011719 -0.09375,-0.03125 -0.125,-0.0625 C 1.617188,7.835938 1.398438,7.570312 1.171875,7.25 0.953125,6.925781 0.75,6.59375 0.5625,6.25 0.507812,6.15625 0.4375,6.019531 0.34375,5.84375 0.257812,5.675781 0.175781,5.488281 0.09375,5.28125 0.0195312,5.070312 -0.0390625,4.859375 -0.09375,4.640625 -0.15625,4.421875 -0.1875,4.21875 -0.1875,4.03125 c 0,-0.386719 0.074219,-0.75 0.21875,-1.09375 C 0.175781,2.601562 0.378906,2.304688 0.640625,2.046875 0.910156,1.785156 1.222656,1.582031 1.578125,1.4375 1.941406,1.300781 2.335938,1.234375 2.765625,1.234375 c 0.457031,0 0.890625,0.0625 1.296875,0.1875 0.40625,0.125 0.765625,0.269531 1.078125,0.4375 0.320313,0.164063 0.59375,0.320313 0.8125,0.46875 0.21875,0.15625 0.382813,0.257813 0.5,0.3125 C 6.460938,2.441406 6.46875,2.257812 6.46875,2.09375 6.476562,1.925781 6.484375,1.765625 6.484375,1.609375 6.484375,1.273438 6.476562,0.988281 6.46875,0.75 6.46875,0.519531 6.445312,0.3125 6.40625,0.125 6.382812,0.0390625 6.335938,-0.0351562 6.265625,-0.109375 6.203125,-0.179688 6.15625,-0.242188 6.125,-0.296875 c 0.019531,-0.03125 0.046875,-0.0625 0.078125,-0.09375 0.039063,-0.039063 0.085937,-0.0625 0.140625,-0.0625 0.019531,0 0.035156,0.007813 0.046875,0.015625 0.00781,0 0.066406,0.074219 0.171875,0.21875 0.113281,0.1367188 0.25,0.3046875 0.40625,0.515625 0.15625,0.207031 0.328125,0.4375 0.515625,0.6875 C 7.671875,1.234375 7.84375,1.472656 8,1.703125 8.15625,1.929688 8.289062,2.128906 8.40625,2.296875 8.519531,2.460938 8.585938,2.570312 8.609375,2.625 8.628906,2.6875 8.617188,2.75 8.578125,2.8125 8.535156,2.875 8.503906,2.894531 8.484375,2.875 8.460938,2.84375 8.421875,2.796875 8.359375,2.734375 8.296875,2.671875 8.242188,2.648438 8.203125,2.671875 8.109375,2.785156 8.023438,2.988281 7.953125,3.28125 7.878906,3.570312 7.816406,3.894531 7.765625,4.25 7.722656,4.613281 7.6875,4.988281 7.65625,5.375 7.625,5.757812 7.609375,6.109375 7.609375,6.421875 c 0,0.457031 0.015625,0.820313 0.046875,1.09375 0.03125,0.28125 0.066406,0.507813 0.109375,0.6875 0.039063,0.175781 0.070313,0.289063 0.09375,0.34375 0,0.00781 -0.015625,0.03125 -0.046875,0.0625 C 7.78125,8.640625 7.742188,8.65625 7.703125,8.65625 7.671875,8.65625 7.613281,8.578125 7.53125,8.421875 7.445312,8.265625 7.359375,8.109375 7.265625,7.953125 7.210938,7.859375 7.140625,7.742188 7.046875,7.609375 6.960938,7.472656 6.878906,7.328125 6.796875,7.171875 6.722656,7.015625 6.65625,6.851562 6.59375,6.6875 6.53125,6.519531 6.492188,6.351562 6.484375,6.1875 6.460938,6.03125 6.445312,5.84375 6.4375,5.625 6.425781,5.414062 6.414062,5.191406 6.40625,4.953125 6.40625,4.722656 6.398438,4.488281 6.390625,4.25 c 0,-0.242188 0,-0.464844 0,-0.671875 -0.0625,-0.03125 -0.15625,-0.085937 -0.28125,-0.15625 -0.117187,-0.0625 -0.273437,-0.125 -0.46875,-0.1875 -0.1875,-0.0625 -0.40625,-0.125 -0.65625,-0.1875 C 4.742188,2.992188 4.476562,2.96875 4.1875,2.96875 3.75,2.96875 3.347656,3.035156 2.984375,3.171875 2.617188,3.304688 2.300781,3.492188 2.03125,3.734375 1.757812,3.972656 1.550781,4.257812 1.40625,4.59375 1.257812,4.925781 1.1875,5.28125 1.1875,5.65625 1.1875,5.882812 1.210938,6.101562 1.265625,6.3125 1.316406,6.519531 1.382812,6.71875 1.46875,6.90625 1.550781,7.09375 1.644531,7.265625 1.75,7.421875 1.851562,7.578125 1.953125,7.71875 2.046875,7.84375 Z m 0,0"
           id="path16545" />
      </g>
      <g
         id="use5665"
         transform="translate(525.07977,648.125)">
        <path
           d="M 1.875,7.90625 C 1.75,7.789062 1.570312,7.609375 1.34375,7.359375 1.125,7.109375 0.898438,6.8125 0.671875,6.46875 0.453125,6.125 0.257812,5.738281 0.09375,5.3125 -0.0625,4.882812 -0.140625,4.429688 -0.140625,3.953125 c 0,-0.4375 0.0625,-0.867187 0.1875,-1.28125 C 0.179688,2.253906 0.382812,1.878906 0.65625,1.546875 0.9375,1.222656 1.285156,0.960938 1.703125,0.765625 2.128906,0.566406 2.632812,0.46875 3.21875,0.46875 c 0.476562,0 0.890625,0.03125 1.234375,0.09375 0.34375,0.0625 0.644531,0.144531 0.90625,0.25 0.269531,0.101562 0.492187,0.222656 0.671875,0.359375 0.1875,0.132813 0.359375,0.269531 0.515625,0.40625 0.1875,0.175781 0.363281,0.382813 0.53125,0.625 C 7.253906,2.453125 7.410156,2.71875 7.546875,3 7.691406,3.28125 7.800781,3.578125 7.875,3.890625 7.957031,4.210938 8,4.53125 8,4.84375 8,5.425781 7.898438,5.878906 7.703125,6.203125 7.515625,6.523438 7.25,6.6875 6.90625,6.6875 6.695312,6.6875 6.5,6.625 6.3125,6.5 c 0.039062,0.101562 0.097656,0.238281 0.171875,0.40625 0.070313,0.164062 0.144531,0.332031 0.21875,0.5 0.082031,0.164062 0.15625,0.316406 0.21875,0.453125 0.070313,0.132813 0.125,0.222656 0.15625,0.265625 0.019531,0.019531 0.023437,0.039062 0.015625,0.0625 0,0.03125 -0.015625,0.046875 -0.046875,0.046875 C 6.898438,8.234375 6.78125,8.207031 6.6875,8.15625 6.601562,8.101562 6.535156,8.039062 6.484375,7.96875 6.367188,7.800781 6.234375,7.554688 6.078125,7.234375 5.921875,6.910156 5.753906,6.550781 5.578125,6.15625 5.398438,5.769531 5.222656,5.367188 5.046875,4.953125 4.867188,4.546875 4.695312,4.15625 4.53125,3.78125 4.375,3.414062 4.234375,3.097656 4.109375,2.828125 3.992188,2.554688 3.910156,2.367188 3.859375,2.265625 3.492188,2.265625 3.15625,2.335938 2.84375,2.484375 2.53125,2.628906 2.253906,2.828125 2.015625,3.078125 1.773438,3.335938 1.585938,3.644531 1.453125,4 c -0.125,0.363281 -0.1875,0.757812 -0.1875,1.1875 0,0.382812 0.035156,0.726562 0.109375,1.03125 C 1.457031,6.53125 1.550781,6.789062 1.65625,7 c 0.101562,0.21875 0.191406,0.390625 0.265625,0.515625 0.082031,0.125 0.125,0.191406 0.125,0.203125 0,0.039062 -0.023437,0.082031 -0.0625,0.125 C 1.953125,7.882812 1.914062,7.90625 1.875,7.90625 Z M 4.3125,2.265625 c 0.070312,0.1875 0.148438,0.394531 0.234375,0.625 0.09375,0.226563 0.191406,0.453125 0.296875,0.671875 0.113281,0.21875 0.21875,0.414062 0.3125,0.59375 0.09375,0.1875 0.175781,0.328125 0.25,0.421875 0.132812,0.1875 0.367188,0.28125 0.703125,0.28125 0.125,0 0.253906,-0.027344 0.390625,-0.078125 C 6.644531,4.738281 6.773438,4.671875 6.890625,4.578125 7.003906,4.484375 7.09375,4.363281 7.15625,4.21875 7.226562,4.082031 7.265625,3.929688 7.265625,3.765625 7.265625,3.609375 7.210938,3.445312 7.109375,3.28125 7.003906,3.113281 6.835938,2.953125 6.609375,2.796875 6.378906,2.648438 6.078125,2.523438 5.703125,2.421875 5.328125,2.316406 4.863281,2.265625 4.3125,2.265625 Z m 0,0"
           id="path16537" />
      </g>
      <g
         id="use5667"
         transform="translate(525.07977,655.54901)">
        <path
           d="M 1.28125,6.578125 C 1.1875,6.484375 1.054688,6.328125 0.890625,6.109375 0.734375,5.898438 0.578125,5.648438 0.421875,5.359375 0.265625,5.066406 0.128906,4.753906 0.015625,4.421875 -0.0859375,4.085938 -0.140625,3.75 -0.140625,3.40625 -0.140625,3.050781 -0.0625,2.695312 0.09375,2.34375 0.257812,2 0.492188,1.679688 0.796875,1.390625 1.097656,1.109375 1.460938,0.882812 1.890625,0.71875 c 0.425781,-0.167969 0.90625,-0.25 1.4375,-0.25 0.695313,0 1.328125,0.117188 1.890625,0.359375 C 5.78125,1.066406 6.257812,1.414062 6.65625,1.875 7.050781,2.34375 7.351562,2.910156 7.5625,3.578125 7.78125,4.242188 7.890625,5.007812 7.890625,5.875 c 0,0.144531 0,0.285156 0,0.421875 0,0.144531 -0.00781,0.273437 -0.015625,0.390625 0.09375,0 0.265625,0 0.515625,0 0.25,0 0.503906,-0.00781 0.765625,-0.015625 0.269531,0 0.515625,-0.00781 0.734375,-0.015625 0.226563,0 0.367187,0 0.421875,0 0.425781,-0.042969 0.722656,-0.117188 0.890625,-0.21875 0.175781,-0.105469 0.265625,-0.308594 0.265625,-0.609375 0,-0.042969 0.04687,-0.070313 0.140625,-0.078125 0.101563,0 0.179687,0.035156 0.234375,0.109375 0.05078,0.082031 0.08594,0.175781 0.109375,0.28125 C 11.984375,6.242188 12,6.40625 12,6.625 c 0,0.40625 0,0.742188 0,1.015625 0.0078,0.269531 0.01953,0.492187 0.03125,0.671875 0.01953,0.175781 0.03906,0.316406 0.0625,0.421875 0.03125,0.101563 0.0625,0.195313 0.09375,0.28125 0.0078,0.050781 -0.0078,0.09375 -0.04687,0.125 C 12.109375,9.179688 12.0625,9.207031 12,9.21875 11.945312,9.238281 11.894531,9.242188 11.84375,9.234375 11.789062,9.222656 11.757812,9.191406 11.75,9.140625 11.72656,9.015625 11.70313,8.921875 11.67187,8.859375 11.64062,8.804688 11.58593,8.753906 11.51562,8.703125 11.441406,8.648438 11.242188,8.601562 10.921875,8.5625 10.609375,8.519531 10.21875,8.476562 9.75,8.4375 9.28125,8.394531 8.757812,8.351562 8.1875,8.3125 7.613281,8.28125 7.035156,8.253906 6.453125,8.234375 5.878906,8.210938 5.320312,8.191406 4.78125,8.171875 4.238281,8.160156 3.765625,8.15625 3.359375,8.15625 c -0.78125,0 -1.355469,0.082031 -1.71875,0.25 C 1.273438,8.582031 1.09375,8.847656 1.09375,9.203125 c 0,0.125 0.019531,0.265625 0.0625,0.421875 0.039062,0.15625 0.085938,0.296875 0.140625,0.421875 0.0625,0.132813 0.117187,0.257813 0.171875,0.375 0.0625,0.113281 0.113281,0.195313 0.15625,0.25 0.050781,0.05078 0.023438,0.09766 -0.078125,0.140625 -0.09375,0.03906 -0.15625,0.03516 -0.1875,-0.01563 C 1.285156,10.671875 1.175781,10.472656 1.03125,10.203125 0.882812,9.929688 0.734375,9.628906 0.578125,9.296875 0.367188,8.890625 0.1875,8.476562 0.03125,8.0625 c -0.15625,-0.417969 -0.234375,-0.75 -0.234375,-1 0,-0.199219 0.03125,-0.335938 0.09375,-0.40625 0.0625,-0.0625 0.1601562,-0.09375 0.296875,-0.09375 0.039062,0 0.113281,0 0.21875,0 0.101562,0 0.207031,0 0.3125,0 0.113281,0.00781 0.222656,0.015625 0.328125,0.015625 0.101563,0 0.179687,0 0.234375,0 z M 1.828125,6.375 c 0.113281,0.082031 0.25,0.144531 0.40625,0.1875 0.15625,0.039062 0.363281,0.070312 0.625,0.09375 0.226563,0.019531 0.503906,0.03125 0.828125,0.03125 0.320312,0 0.609375,0 0.859375,0 0.238281,0 0.5,-0.00781 0.78125,-0.015625 0.28125,0 0.472656,-0.00781 0.578125,-0.015625 0.175781,-0.023438 0.34375,-0.101562 0.5,-0.234375 0.164062,-0.125 0.304688,-0.292969 0.421875,-0.5 0.125,-0.199219 0.21875,-0.433594 0.28125,-0.703125 C 7.179688,4.945312 7.21875,4.664062 7.21875,4.375 7.21875,4.082031 7.164062,3.804688 7.0625,3.546875 6.96875,3.296875 6.8125,3.078125 6.59375,2.890625 6.382812,2.703125 6.113281,2.550781 5.78125,2.4375 5.445312,2.332031 5.035156,2.28125 4.546875,2.28125 c -0.5,0 -0.960937,0.066406 -1.375,0.203125 C 2.765625,2.628906 2.410156,2.820312 2.109375,3.0625 1.804688,3.3125 1.570312,3.609375 1.40625,3.953125 1.25,4.296875 1.171875,4.671875 1.171875,5.078125 c 0,0.15625 0.019531,0.300781 0.0625,0.4375 0.050781,0.144531 0.109375,0.269531 0.171875,0.375 C 1.476562,6.003906 1.550781,6.101562 1.625,6.1875 1.707031,6.269531 1.773438,6.332031 1.828125,6.375 Z m 0,0"
           id="path16533" />
      </g>
      <g
         id="use5669"
         transform="translate(525.07977,665.021)" />
      <g
         id="use5671"
         transform="translate(525.07977,668.65302)">
        <path
           d="M 0,2.78125 C 0,2.59375 0,2.378906 0,2.140625 -0.0078125,1.910156 -0.015625,1.679688 -0.015625,1.453125 -0.0234375,1.234375 -0.0351562,1.023438 -0.046875,0.828125 -0.0664062,0.628906 -0.0820312,0.476562 -0.09375,0.375 L -0.125,0.109375 c 0,-0.0546875 0.03125,-0.09375 0.09375,-0.125 0.0507812,-0.0390625 0.1015625,-0.0625 0.15625,-0.0625 0.039062,0 0.085938,0.0234375 0.140625,0.0625 0.050781,0.0390625 0.078125,0.0976562 0.078125,0.171875 0,0.445312 0.023438,0.800781 0.078125,1.0625 0.050781,0.269531 0.117187,0.4375 0.203125,0.5 0.125,0.0625 0.40625,0.125 0.84375,0.1875 0.445312,0.070312 0.96875,0.132812 1.5625,0.1875 0.59375,0.050781 1.210938,0.09375 1.859375,0.125 0.65625,0.03125 1.257813,0.046875 1.8125,0.046875 0.601563,0 1.109375,-0.00781 1.515625,-0.015625 0.414062,0 0.753906,-0.00781 1.015625,-0.015625 0.269531,0 0.476563,-0.00781 0.625,-0.015625 0.144531,0 0.25,0 0.3125,0 0.34375,-0.011719 0.570313,-0.058594 0.6875,-0.140625 0.113281,-0.085937 0.179687,-0.242187 0.203125,-0.46875 0.01953,-0.15625 0.02344,-0.34375 0.01563,-0.5625 -0.01172,-0.210937 -0.01172,-0.359375 0,-0.453125 0.0078,-0.074219 0.01953,-0.140625 0.03125,-0.203125 C 11.12891,0.335938 11.1875,0.3125 11.28125,0.3125 c 0.101562,0 0.171875,0.023438 0.203125,0.078125 0.03906,0.0625 0.0625,0.125 0.0625,0.1875 0,0.082031 -0.02344,0.351563 -0.0625,0.8125 -0.03125,0.46875 -0.04687,1.132813 -0.04687,2 0,0.5625 0.0078,1.039063 0.03125,1.4375 0.03125,0.40625 0.05469,0.679687 0.07813,0.828125 0,0.082031 -0.01172,0.15625 -0.03125,0.21875 -0.01172,0.070312 -0.05859,0.109375 -0.140625,0.109375 -0.179688,0 -0.277344,-0.125 -0.296875,-0.375 0,-0.085937 -0.0078,-0.179687 -0.01563,-0.28125 -0.01172,-0.105469 -0.02344,-0.210937 -0.03125,-0.3125 C 11.019531,4.910156 11,4.816406 10.96875,4.734375 10.945312,4.648438 10.929688,4.585938 10.921875,4.546875 10.898438,4.492188 10.707031,4.441406 10.34375,4.390625 9.976562,4.335938 9.519531,4.289062 8.96875,4.25 8.425781,4.21875 7.835938,4.1875 7.203125,4.15625 6.578125,4.125 6,4.101562 5.46875,4.09375 5.0625,4.082031 4.585938,4.070312 4.046875,4.0625 3.515625,4.0625 3,4.066406 2.5,4.078125 2.007812,4.097656 1.582031,4.125 1.21875,4.15625 0.851562,4.1875 0.644531,4.234375 0.59375,4.296875 0.5625,4.347656 0.53125,4.429688 0.5,4.546875 0.476562,4.660156 0.453125,4.796875 0.421875,4.953125 0.398438,5.117188 0.382812,5.285156 0.375,5.453125 0.363281,5.617188 0.359375,5.769531 0.359375,5.90625 0.359375,6.019531 0.34375,6.09375 0.3125,6.125 0.289062,6.15625 0.238281,6.171875 0.15625,6.171875 c -0.09375,0 -0.16015625,-0.042969 -0.203125,-0.125 -0.0390625,-0.074219 -0.0625,-0.152344 -0.0625,-0.234375 0,-0.0625 0.007813,-0.164062 0.015625,-0.296875 0.0117188,-0.125 0.0273438,-0.304687 0.046875,-0.53125 0.0117188,-0.21875 0.0234375,-0.5 0.03125,-0.84375 C -0.00390625,3.796875 0,3.375 0,2.875 Z m 0,0"
           id="path16527" />
      </g>
      <g
         id="use5673"
         transform="translate(525.07977,674.909)">
        <path
           d="M 2.21875,8.03125 C 2.238281,8.050781 2.234375,8.066406 2.203125,8.078125 2.179688,8.097656 2.144531,8.109375 2.09375,8.109375 c -0.042969,0.00781 -0.089844,0.00781 -0.140625,0 -0.054687,-0.011719 -0.09375,-0.03125 -0.125,-0.0625 C 1.617188,7.835938 1.398438,7.570312 1.171875,7.25 0.953125,6.925781 0.75,6.59375 0.5625,6.25 0.507812,6.15625 0.4375,6.019531 0.34375,5.84375 0.257812,5.675781 0.175781,5.488281 0.09375,5.28125 0.0195312,5.070312 -0.0390625,4.859375 -0.09375,4.640625 -0.15625,4.421875 -0.1875,4.21875 -0.1875,4.03125 c 0,-0.386719 0.074219,-0.75 0.21875,-1.09375 C 0.175781,2.601562 0.378906,2.304688 0.640625,2.046875 0.910156,1.785156 1.222656,1.582031 1.578125,1.4375 1.941406,1.300781 2.335938,1.234375 2.765625,1.234375 c 0.457031,0 0.890625,0.0625 1.296875,0.1875 0.40625,0.125 0.765625,0.269531 1.078125,0.4375 0.320313,0.164063 0.59375,0.320313 0.8125,0.46875 0.21875,0.15625 0.382813,0.257813 0.5,0.3125 C 6.460938,2.441406 6.46875,2.257812 6.46875,2.09375 6.476562,1.925781 6.484375,1.765625 6.484375,1.609375 6.484375,1.273438 6.476562,0.988281 6.46875,0.75 6.46875,0.519531 6.445312,0.3125 6.40625,0.125 6.382812,0.0390625 6.335938,-0.0351562 6.265625,-0.109375 6.203125,-0.179688 6.15625,-0.242188 6.125,-0.296875 c 0.019531,-0.03125 0.046875,-0.0625 0.078125,-0.09375 0.039063,-0.039063 0.085937,-0.0625 0.140625,-0.0625 0.019531,0 0.035156,0.007813 0.046875,0.015625 0.00781,0 0.066406,0.074219 0.171875,0.21875 0.113281,0.1367188 0.25,0.3046875 0.40625,0.515625 0.15625,0.207031 0.328125,0.4375 0.515625,0.6875 C 7.671875,1.234375 7.84375,1.472656 8,1.703125 8.15625,1.929688 8.289062,2.128906 8.40625,2.296875 8.519531,2.460938 8.585938,2.570312 8.609375,2.625 8.628906,2.6875 8.617188,2.75 8.578125,2.8125 8.535156,2.875 8.503906,2.894531 8.484375,2.875 8.460938,2.84375 8.421875,2.796875 8.359375,2.734375 8.296875,2.671875 8.242188,2.648438 8.203125,2.671875 8.109375,2.785156 8.023438,2.988281 7.953125,3.28125 7.878906,3.570312 7.816406,3.894531 7.765625,4.25 7.722656,4.613281 7.6875,4.988281 7.65625,5.375 7.625,5.757812 7.609375,6.109375 7.609375,6.421875 c 0,0.457031 0.015625,0.820313 0.046875,1.09375 0.03125,0.28125 0.066406,0.507813 0.109375,0.6875 0.039063,0.175781 0.070313,0.289063 0.09375,0.34375 0,0.00781 -0.015625,0.03125 -0.046875,0.0625 C 7.78125,8.640625 7.742188,8.65625 7.703125,8.65625 7.671875,8.65625 7.613281,8.578125 7.53125,8.421875 7.445312,8.265625 7.359375,8.109375 7.265625,7.953125 7.210938,7.859375 7.140625,7.742188 7.046875,7.609375 6.960938,7.472656 6.878906,7.328125 6.796875,7.171875 6.722656,7.015625 6.65625,6.851562 6.59375,6.6875 6.53125,6.519531 6.492188,6.351562 6.484375,6.1875 6.460938,6.03125 6.445312,5.84375 6.4375,5.625 6.425781,5.414062 6.414062,5.191406 6.40625,4.953125 6.40625,4.722656 6.398438,4.488281 6.390625,4.25 c 0,-0.242188 0,-0.464844 0,-0.671875 -0.0625,-0.03125 -0.15625,-0.085937 -0.28125,-0.15625 -0.117187,-0.0625 -0.273437,-0.125 -0.46875,-0.1875 -0.1875,-0.0625 -0.40625,-0.125 -0.65625,-0.1875 C 4.742188,2.992188 4.476562,2.96875 4.1875,2.96875 3.75,2.96875 3.347656,3.035156 2.984375,3.171875 2.617188,3.304688 2.300781,3.492188 2.03125,3.734375 1.757812,3.972656 1.550781,4.257812 1.40625,4.59375 1.257812,4.925781 1.1875,5.28125 1.1875,5.65625 1.1875,5.882812 1.210938,6.101562 1.265625,6.3125 1.316406,6.519531 1.382812,6.71875 1.46875,6.90625 1.550781,7.09375 1.644531,7.265625 1.75,7.421875 1.851562,7.578125 1.953125,7.71875 2.046875,7.84375 Z m 0,0"
           id="path16549" />
      </g>
      <g
         id="use5675"
         transform="translate(525.07977,682.41302)">
        <path
           d="M 1.875,7.90625 C 1.75,7.789062 1.570312,7.609375 1.34375,7.359375 1.125,7.109375 0.898438,6.8125 0.671875,6.46875 0.453125,6.125 0.257812,5.738281 0.09375,5.3125 -0.0625,4.882812 -0.140625,4.429688 -0.140625,3.953125 c 0,-0.4375 0.0625,-0.867187 0.1875,-1.28125 C 0.179688,2.253906 0.382812,1.878906 0.65625,1.546875 0.9375,1.222656 1.285156,0.960938 1.703125,0.765625 2.128906,0.566406 2.632812,0.46875 3.21875,0.46875 c 0.476562,0 0.890625,0.03125 1.234375,0.09375 0.34375,0.0625 0.644531,0.144531 0.90625,0.25 0.269531,0.101562 0.492187,0.222656 0.671875,0.359375 0.1875,0.132813 0.359375,0.269531 0.515625,0.40625 0.1875,0.175781 0.363281,0.382813 0.53125,0.625 C 7.253906,2.453125 7.410156,2.71875 7.546875,3 7.691406,3.28125 7.800781,3.578125 7.875,3.890625 7.957031,4.210938 8,4.53125 8,4.84375 8,5.425781 7.898438,5.878906 7.703125,6.203125 7.515625,6.523438 7.25,6.6875 6.90625,6.6875 6.695312,6.6875 6.5,6.625 6.3125,6.5 c 0.039062,0.101562 0.097656,0.238281 0.171875,0.40625 0.070313,0.164062 0.144531,0.332031 0.21875,0.5 0.082031,0.164062 0.15625,0.316406 0.21875,0.453125 0.070313,0.132813 0.125,0.222656 0.15625,0.265625 0.019531,0.019531 0.023437,0.039062 0.015625,0.0625 0,0.03125 -0.015625,0.046875 -0.046875,0.046875 C 6.898438,8.234375 6.78125,8.207031 6.6875,8.15625 6.601562,8.101562 6.535156,8.039062 6.484375,7.96875 6.367188,7.800781 6.234375,7.554688 6.078125,7.234375 5.921875,6.910156 5.753906,6.550781 5.578125,6.15625 5.398438,5.769531 5.222656,5.367188 5.046875,4.953125 4.867188,4.546875 4.695312,4.15625 4.53125,3.78125 4.375,3.414062 4.234375,3.097656 4.109375,2.828125 3.992188,2.554688 3.910156,2.367188 3.859375,2.265625 3.492188,2.265625 3.15625,2.335938 2.84375,2.484375 2.53125,2.628906 2.253906,2.828125 2.015625,3.078125 1.773438,3.335938 1.585938,3.644531 1.453125,4 c -0.125,0.363281 -0.1875,0.757812 -0.1875,1.1875 0,0.382812 0.035156,0.726562 0.109375,1.03125 C 1.457031,6.53125 1.550781,6.789062 1.65625,7 c 0.101562,0.21875 0.191406,0.390625 0.265625,0.515625 0.082031,0.125 0.125,0.191406 0.125,0.203125 0,0.039062 -0.023437,0.082031 -0.0625,0.125 C 1.953125,7.882812 1.914062,7.90625 1.875,7.90625 Z M 4.3125,2.265625 c 0.070312,0.1875 0.148438,0.394531 0.234375,0.625 0.09375,0.226563 0.191406,0.453125 0.296875,0.671875 0.113281,0.21875 0.21875,0.414062 0.3125,0.59375 0.09375,0.1875 0.175781,0.328125 0.25,0.421875 0.132812,0.1875 0.367188,0.28125 0.703125,0.28125 0.125,0 0.253906,-0.027344 0.390625,-0.078125 C 6.644531,4.738281 6.773438,4.671875 6.890625,4.578125 7.003906,4.484375 7.09375,4.363281 7.15625,4.21875 7.226562,4.082031 7.265625,3.929688 7.265625,3.765625 7.265625,3.609375 7.210938,3.445312 7.109375,3.28125 7.003906,3.113281 6.835938,2.953125 6.609375,2.796875 6.378906,2.648438 6.078125,2.523438 5.703125,2.421875 5.328125,2.316406 4.863281,2.265625 4.3125,2.265625 Z m 0,0"
           id="path16541" />
      </g>
      <g
         id="use5677"
         transform="translate(525.07977,689.83698)">
        <path
           d="m 1.390625,15.453125 c 0,0.03125 -0.023437,0.05078 -0.0625,0.0625 -0.03125,0.0078 -0.074219,0.01563 -0.125,0.01563 C 1.148438,15.53125 1.113281,15.519531 1.09375,15.5 1.082031,15.476562 1.066406,15.457031 1.046875,15.4375 0.992188,15.363281 0.898438,15.1875 0.765625,14.90625 0.628906,14.625 0.488281,14.304688 0.34375,13.953125 0.195312,13.609375 0.0703125,13.269531 -0.03125,12.9375 c -0.113281,-0.335938 -0.171875,-0.589844 -0.171875,-0.765625 0,-0.148437 0.03125,-0.289063 0.09375,-0.421875 0.0625,-0.136719 0.1601562,-0.195312 0.296875,-0.171875 0.082031,0.01953 0.207031,0.04687 0.375,0.07813 0.175781,0.03125 0.390625,0.05469 0.640625,0.07813 0.300781,0.01953 0.65625,0.03906 1.0625,0.0625 0.40625,0.03125 0.851563,0.04687 1.34375,0.04687 0.582031,0 1.0625,-0.04297 1.4375,-0.125 0.375,-0.07422 0.671875,-0.179688 0.890625,-0.3125 0.226562,-0.136724 0.390625,-0.308599 0.484375,-0.51563 C 6.515625,10.691406 6.5625,10.457031 6.5625,10.1875 6.5625,9.945312 6.519531,9.738281 6.4375,9.5625 6.351562,9.394531 6.265625,9.25 6.171875,9.125 5.992188,8.882812 5.765625,8.695312 5.484375,8.5625 5.203125,8.4375 4.832031,8.351562 4.375,8.3125 4.25,8.300781 4.128906,8.289062 4.015625,8.28125 3.898438,8.28125 3.769531,8.273438 3.625,8.265625 3.488281,8.265625 3.332031,8.257812 3.15625,8.25 c -0.167969,0 -0.367188,0 -0.59375,0 C 1.925781,8.25 1.484375,8.300781 1.234375,8.40625 0.992188,8.507812 0.875,8.679688 0.875,8.921875 c 0,0.09375 0,0.148437 0,0.171875 0.007812,0.019531 0.019531,0.0625 0.03125,0.125 C 0.882812,9.238281 0.859375,9.257812 0.828125,9.28125 0.773438,9.3125 0.71875,9.304688 0.65625,9.265625 0.59375,9.210938 0.507812,9.082031 0.40625,8.875 0.300781,8.675781 0.207031,8.453125 0.125,8.203125 0.0390625,7.960938 -0.03125,7.722656 -0.09375,7.484375 -0.15625,7.253906 -0.1875,7.078125 -0.1875,6.953125 c 0,-0.148437 0.023438,-0.28125 0.0625,-0.40625 C -0.09375,6.429688 -0.0507812,6.375 0,6.375 0.0625,6.375 0.132812,6.394531 0.21875,6.4375 0.269531,6.46875 0.394531,6.5 0.59375,6.53125 0.800781,6.5625 1.066406,6.585938 1.390625,6.609375 1.710938,6.640625 2.082031,6.664062 2.5,6.6875 c 0.425781,0.019531 0.882812,0.03125 1.375,0.03125 0.25,0 0.53125,-0.015625 0.84375,-0.046875 C 5.03125,6.648438 5.320312,6.582031 5.59375,6.46875 5.863281,6.363281 6.09375,6.207031 6.28125,6 6.46875,5.800781 6.5625,5.519531 6.5625,5.15625 6.5625,4.9375 6.53125,4.738281 6.46875,4.5625 6.414062,4.394531 6.34375,4.253906 6.25,4.140625 6.070312,3.910156 5.847656,3.710938 5.578125,3.546875 5.316406,3.378906 4.941406,3.269531 4.453125,3.21875 4.222656,3.195312 3.988281,3.175781 3.75,3.15625 3.507812,3.132812 3.234375,3.125 2.921875,3.125 2.515625,3.125 2.175781,3.132812 1.90625,3.15625 1.644531,3.175781 1.4375,3.210938 1.28125,3.265625 1.132812,3.316406 1.03125,3.378906 0.96875,3.453125 0.90625,3.523438 0.875,3.625 0.875,3.75 0.875,3.863281 0.882812,3.941406 0.90625,3.984375 0.925781,4.035156 0.894531,4.070312 0.8125,4.09375 0.726562,4.113281 0.675781,4.109375 0.65625,4.078125 0.613281,4.035156 0.546875,3.921875 0.453125,3.734375 0.359375,3.554688 0.265625,3.347656 0.171875,3.109375 0.078125,2.878906 -0.00390625,2.640625 -0.078125,2.390625 -0.148438,2.148438 -0.1875,1.945312 -0.1875,1.78125 c 0,-0.1875 0.023438,-0.335938 0.0625,-0.4375 0.0429688,-0.09375 0.0898438,-0.140625 0.140625,-0.140625 0.0078125,0 0.0390625,0.00781 0.09375,0.03125 0.0625,0.019531 0.113281,0.035156 0.15625,0.046875 C 0.597656,1.320312 0.90625,1.359375 1.1875,1.390625 1.46875,1.429688 1.773438,1.457031 2.109375,1.46875 2.441406,1.488281 2.820312,1.503906 3.25,1.515625 3.675781,1.523438 4.191406,1.53125 4.796875,1.53125 5.390625,1.53125 5.820312,1.4375 6.09375,1.25 6.375,1.0625 6.515625,0.867188 6.515625,0.671875 c 0,-0.085937 -0.011719,-0.15625 -0.03125,-0.21875 C 6.472656,0.398438 6.460938,0.34375 6.453125,0.28125 6.441406,0.21875 6.472656,0.1875 6.546875,0.1875 H 6.65625 C 6.664062,0.195312 6.738281,0.300781 6.875,0.5 7.019531,0.707031 7.171875,0.945312 7.328125,1.21875 7.484375,1.5 7.628906,1.789062 7.765625,2.09375 7.898438,2.394531 7.96875,2.640625 7.96875,2.828125 7.96875,2.960938 7.929688,3.070312 7.859375,3.15625 7.785156,3.25 7.644531,3.296875 7.4375,3.296875 7.34375,3.296875 7.234375,3.289062 7.109375,3.28125 6.992188,3.28125 6.875,3.273438 6.75,3.265625 6.625,3.265625 6.5,3.257812 6.375,3.25 6.25,3.238281 6.144531,3.234375 6.0625,3.234375 c 0.132812,0.144531 0.3125,0.332031 0.53125,0.5625 0.226562,0.226563 0.441406,0.488281 0.640625,0.78125 0.207031,0.289063 0.382813,0.601563 0.53125,0.9375 C 7.921875,5.847656 8,6.203125 8,6.578125 c 0,0.488281 -0.148438,0.882813 -0.4375,1.1875 -0.28125,0.3125 -0.78125,0.476563 -1.5,0.5 0.15625,0.175781 0.34375,0.382813 0.5625,0.625 0.226562,0.25 0.441406,0.523437 0.640625,0.828125 0.207031,0.300781 0.378906,0.625 0.515625,0.96875 C 7.925781,11.03125 8,11.378906 8,11.734375 c 0,1.226563 -0.65625,1.84375 -1.96875,1.84375 -0.210938,0 -0.453125,-0.01172 -0.734375,-0.03125 -0.28125,-0.02344 -0.574219,-0.04687 -0.875,-0.07813 -0.304687,-0.03125 -0.605469,-0.05859 -0.90625,-0.07813 -0.292969,-0.02344 -0.5625,-0.03125 -0.8125,-0.03125 -1.105469,0 -1.65625,0.289063 -1.65625,0.875 0,0.101563 0.00781,0.210937 0.03125,0.328125 0.03125,0.113281 0.0625,0.226562 0.09375,0.34375 0.039063,0.125 0.078125,0.234375 0.109375,0.328125 0.039062,0.09375 0.078125,0.160156 0.109375,0.203125 z m 0,0"
           id="path16523" />
      </g>
      <g
         id="use5679"
         transform="translate(525.07977,704.70099)">
        <path
           d="M 0.40625,0.5625 C 0.34375,0.476562 0.25,0.394531 0.125,0.3125 0.0078125,0.238281 -0.078125,0.191406 -0.140625,0.171875 -0.160156,0.160156 -0.175781,0.128906 -0.1875,0.078125 -0.207031,0.0351562 -0.21875,0.00390625 -0.21875,-0.015625 c 0,-0.09375 0.046875,-0.140625 0.140625,-0.140625 0.03125,0 0.1132812,0.042969 0.25,0.125 C 0.285156,0.03125 0.457031,0.128906 0.6875,0.265625 0.914062,0.410156 1.148438,0.550781 1.390625,0.6875 1.628906,0.832031 1.847656,0.96875 2.046875,1.09375 2.242188,1.21875 2.375,1.304688 2.4375,1.359375 2.488281,1.410156 2.492188,1.472656 2.453125,1.546875 2.421875,1.617188 2.375,1.640625 2.3125,1.609375 2.289062,1.585938 2.265625,1.570312 2.234375,1.5625 2.203125,1.550781 2.148438,1.546875 2.078125,1.546875 c -0.09375,0 -0.214844,0.082031 -0.359375,0.25 -0.148438,0.164063 -0.289062,0.375 -0.421875,0.625 C 1.171875,2.679688 1.054688,2.96875 0.953125,3.28125 0.859375,3.59375 0.8125,3.894531 0.8125,4.1875 c 0,0.351562 0.097656,0.632812 0.296875,0.84375 0.207031,0.207031 0.476563,0.3125 0.8125,0.3125 0.375,0 0.648437,-0.121094 0.828125,-0.359375 0.1875,-0.230469 0.328125,-0.523437 0.421875,-0.875 0.09375,-0.34375 0.164063,-0.71875 0.21875,-1.125 C 3.453125,2.578125 3.539062,2.195312 3.65625,1.84375 3.78125,1.5 3.953125,1.207031 4.171875,0.96875 4.398438,0.738281 4.726562,0.625 5.15625,0.625 c 0.320312,0 0.65625,0.113281 1,0.34375 C 6.5,1.195312 6.800781,1.5 7.0625,1.875 c 0.269531,0.382812 0.488281,0.820312 0.65625,1.3125 0.175781,0.488281 0.265625,1 0.265625,1.53125 C 7.984375,4.875 7.96875,5.054688 7.9375,5.265625 7.90625,5.484375 7.863281,5.695312 7.8125,5.90625 7.769531,6.113281 7.722656,6.304688 7.671875,6.484375 7.617188,6.660156 7.578125,6.789062 7.546875,6.875 c 0,0.019531 -0.042969,0.015625 -0.125,-0.015625 C 7.328125,6.828125 7.179688,6.75 6.984375,6.625 6.785156,6.5 6.585938,6.359375 6.390625,6.203125 6.203125,6.046875 6.03125,5.898438 5.875,5.765625 5.726562,5.628906 5.65625,5.535156 5.65625,5.484375 c 0,-0.011719 0,-0.042969 0,-0.09375 0,-0.054687 0.015625,-0.089844 0.046875,-0.109375 0.050781,0.00781 0.117187,0.015625 0.203125,0.015625 0.375,0 0.664062,-0.171875 0.875,-0.515625 C 7,4.445312 7.109375,3.960938 7.109375,3.328125 7.109375,3.015625 7.015625,2.757812 6.828125,2.5625 6.648438,2.363281 6.429688,2.265625 6.171875,2.265625 c -0.417969,0 -0.730469,0.113281 -0.9375,0.34375 C 5.035156,2.847656 4.882812,3.144531 4.78125,3.5 4.6875,3.851562 4.613281,4.234375 4.5625,4.640625 c -0.054688,0.40625 -0.136719,0.78125 -0.25,1.125 -0.117188,0.351563 -0.289062,0.648437 -0.515625,0.890625 -0.21875,0.238281 -0.554687,0.359375 -1,0.359375 C 2.597656,7.015625 2.398438,6.96875 2.203125,6.875 2.015625,6.789062 1.832031,6.679688 1.65625,6.546875 1.488281,6.410156 1.332031,6.253906 1.1875,6.078125 1.039062,5.910156 0.914062,5.738281 0.8125,5.5625 0.707031,5.40625 0.597656,5.222656 0.484375,5.015625 0.367188,4.816406 0.265625,4.597656 0.171875,4.359375 0.078125,4.128906 0.00390625,3.890625 -0.046875,3.640625 -0.109375,3.398438 -0.140625,3.15625 -0.140625,2.90625 c 0,-0.117188 0.027344,-0.304688 0.078125,-0.5625 0.0429688,-0.25 0.09375,-0.507812 0.15625,-0.765625 0.0625,-0.261719 0.125,-0.496094 0.1875,-0.703125 0.0625,-0.199219 0.101562,-0.304688 0.125,-0.3125 z m 0,0"
           id="path16519" />
      </g>
    </g>
    <path
       fill="none"
       stroke-width="0.352778"
       stroke-linecap="butt"
       stroke-linejoin="miter"
       stroke="#231f20"
       stroke-opacity="1"
       stroke-miterlimit="10"
       d="m 111.57063,169.97948 v 10.80933 H 94.899124 v -64.57762 h 16.671506 v 11.34814"
       id="path5683" />
    <g
       fill="#231f20"
       fill-opacity="1"
       id="g5687"
       transform="matrix(0.35277777,0,0,0.35277777,-75.565576,-84.630985)">
      <g
         id="use5685"
         transform="translate(503.60431,571.23712)">
        <path
           d="M 3.59375,3.859375 C 2.9375,3.4375 1.640625,2.59375 1.03125,2.28125 c 0.703125,0.0625 2.375,0.078125 3.203125,0.078125 h 1.375 c 0.34375,0 0.453125,0.234375 0.453125,0.75 0,0.0625 0.109375,0.078125 0.171875,0.078125 0.09375,0 0.15625,-0.015625 0.15625,-0.078125 0,-0.3125 -0.015625,-0.65625 -0.015625,-1.125 0,-0.453125 0.03125,-0.75 0.03125,-1.109375 0,-0.046875 -0.09375,-0.078125 -0.1875,-0.078125 -0.0625,0 -0.15625,0.015625 -0.15625,0.0625 C 6.0625,1.421875 5.9375,1.5 5.578125,1.5 h -5.5625 c -0.125,0 -0.15625,0.125 -0.15625,0.21875 0,0.09375 0.03125,0.25 0.125,0.3125 0.234375,0.125 5.15625,3.296875 5.4375,3.484375 0.5,0.328125 0.640625,0.515625 0.640625,0.859375 0,0.046875 0.09375,0.0625 0.1875,0.0625 0.125,0 0.15625,-0.03125 0.15625,-0.078125 C 6.40625,6.25 6.375,5.875 6.375,5.453125 c 0,-0.375 0.03125,-0.9375 0.03125,-1.0625 0,-0.046875 -0.0625,-0.078125 -0.171875,-0.078125 -0.078125,0 -0.171875,0 -0.171875,0.078125 0,0.375 -0.0625,0.546875 -0.328125,0.546875 -0.34375,0 -1.5,-0.671875 -2.140625,-1.078125 z m 0,0"
           id="path16641" />
      </g>
    </g>
    <g
       fill="#231f20"
       fill-opacity="1"
       id="g5737"
       transform="matrix(0.35277777,0,0,0.35277777,-75.565576,-84.630985)">
      <g
         id="use5689"
         transform="translate(503.60431,575.9801)">
        <path
           d="M 4.015625,4.40625 C 4.1875,4.40625 4.28125,4.171875 4.28125,3.984375 4.28125,3.859375 4.25,3.75 4.171875,3.71875 L 3.890625,3.625 C 4.125,3.515625 4.28125,3.328125 4.28125,2.953125 4.28125,1.671875 2.515625,0.25 0.96875,0.25 c -0.6875,0 -1.125,0.390625 -1.125,1.09375 0,0.5 0.4375,1.125 1,1.390625 -0.109375,-0.03125 -0.265625,-0.03125 -0.359375,-0.03125 -0.390625,0 -0.625,0.09375 -0.625,0.40625 0,0.703125 0.71875,1.21875 1.34375,1.421875 0.09375,0 0.140625,-0.109375 0.140625,-0.171875 0,-0.015625 -0.015625,-0.0625 -0.046875,-0.0625 -0.578125,-0.21875 -0.96875,-0.578125 -0.96875,-0.84375 0,-0.09375 0.046875,-0.15625 0.15625,-0.15625 0.09375,0 0.125,0 0.15625,0.015625 0.703125,0.203125 2.15625,0.640625 3.375,1.09375 z m -0.5625,-1.015625 c -0.53125,0 -1.421875,-0.359375 -1.71875,-0.5 C 0.84375,2.515625 0.21875,2.046875 0.21875,1.46875 c 0,-0.328125 0.25,-0.4375 0.5625,-0.4375 1.296875,0 3.140625,1.109375 3.140625,1.90625 0,0.375 -0.1875,0.453125 -0.46875,0.453125 z m 0,0"
           id="path16677" />
      </g>
      <g
         id="use5691"
         transform="translate(503.60431,580.7771)">
        <path
           d="M 1.25,1.234375 C 1.15625,0.625 0.734375,0.25 0.359375,0.25 c -0.53125,0 -0.703125,0.328125 -1,1.53125 -0.21875,0.875 -0.390625,1.015625 -0.734375,1.015625 -0.46875,0 -0.8125,-0.359375 -0.8125,-1.125 C -2.1875,0.75 -1.75,0.25 -1.296875,0.25 c 0.171875,0 0.34375,0.046875 0.515625,0.234375 0.09375,-0.0625 0.171875,-0.1875 0.171875,-0.328125 0,-0.28125 -0.203125,-0.5625 -0.671875,-0.5625 -0.703125,0 -1.265625,0.75 -1.265625,2.09375 0,0.96875 0.484375,1.78125 1.375,1.78125 0.734375,0 1.015625,-0.5 1.21875,-1.46875 C 0.203125,1.234375 0.25,0.890625 0.578125,0.890625 c 0.296875,0 0.5,0.234375 0.5,0.71875 0,1.125 1.015625,1.84375 2.09375,1.84375 0.234375,0 0.34375,-0.03125 0.4375,-0.0625 C 3.75,3.484375 3.8125,3.640625 3.8125,3.75 c 0,0.3125 -0.375,0.203125 -0.375,0.53125 0,0.21875 0.15625,0.328125 0.375,0.328125 0.296875,0 0.46875,-0.21875 0.46875,-0.5 0,-0.34375 -0.171875,-0.609375 -0.421875,-0.8125 0.25,-0.15625 0.421875,-0.421875 0.421875,-0.8125 0,-1.078125 -1.09375,-1.8125 -2.0625,-1.8125 -0.515625,0 -0.8125,0.1875 -0.96875,0.5625 z M 3.53125,2.8125 c -0.953125,0 -2.140625,-0.546875 -2.140625,-1.140625 0,-0.203125 0.09375,-0.34375 0.5,-0.34375 0.984375,0 2.09375,0.59375 2.09375,1.140625 0,0.265625 -0.15625,0.34375 -0.453125,0.34375 z m 0,0"
           id="path16633" />
      </g>
      <g
         id="use5693"
         transform="translate(503.60431,584.8631)">
        <path
           d="M 4.015625,4.40625 C 4.1875,4.40625 4.28125,4.171875 4.28125,3.984375 4.28125,3.859375 4.25,3.75 4.171875,3.71875 L 3.890625,3.625 C 4.125,3.515625 4.28125,3.328125 4.28125,2.953125 4.28125,1.671875 2.515625,0.25 0.96875,0.25 c -0.6875,0 -1.125,0.390625 -1.125,1.09375 0,0.5 0.4375,1.125 1,1.390625 -0.109375,-0.03125 -0.265625,-0.03125 -0.359375,-0.03125 -0.390625,0 -0.625,0.09375 -0.625,0.40625 0,0.703125 0.71875,1.21875 1.34375,1.421875 0.09375,0 0.140625,-0.109375 0.140625,-0.171875 0,-0.015625 -0.015625,-0.0625 -0.046875,-0.0625 -0.578125,-0.21875 -0.96875,-0.578125 -0.96875,-0.84375 0,-0.09375 0.046875,-0.15625 0.15625,-0.15625 0.09375,0 0.125,0 0.15625,0.015625 0.703125,0.203125 2.15625,0.640625 3.375,1.09375 z m -0.5625,-1.015625 c -0.53125,0 -1.421875,-0.359375 -1.71875,-0.5 C 0.84375,2.515625 0.21875,2.046875 0.21875,1.46875 c 0,-0.328125 0.25,-0.4375 0.5625,-0.4375 1.296875,0 3.140625,1.109375 3.140625,1.90625 0,0.375 -0.1875,0.453125 -0.46875,0.453125 z m 0,0"
           id="path16681" />
      </g>
      <g
         id="use5695"
         transform="translate(503.60431,589.6601)">
        <path
           d="M 1.46875,0.4375 C 1.15625,0.328125 0.90625,0.28125 0.703125,0.28125 c -0.609375,0 -0.859375,0.40625 -0.859375,1.125 0,1.296875 1.734375,2.6875 3.3125,2.6875 0.6875,0 1.125,-0.375 1.125,-0.96875 C 4.28125,2.5625 3.875,2 3.375,1.703125 4.515625,2.09375 5.71875,2.53125 6.421875,2.796875 6.484375,2.8125 6.53125,2.8125 6.5625,2.8125 6.671875,2.8125 6.703125,2.75 6.703125,2.625 6.625,2.28125 6.546875,1.84375 6.546875,1.359375 c 0,-0.0625 -0.0625,-0.078125 -0.15625,-0.078125 -0.125,0 -0.171875,0.03125 -0.171875,0.0625 0,0.171875 -0.015625,0.40625 -0.0625,0.546875 z M 0.640625,0.984375 c 0.40625,0 1.453125,0.359375 1.75,0.484375 0.890625,0.375 1.5,0.84375 1.5,1.484375 0,0.28125 -0.21875,0.40625 -0.53125,0.40625 -1.46875,0 -3.15625,-1.125 -3.15625,-1.921875 0,-0.359375 0.171875,-0.453125 0.4375,-0.453125 z m 0,0"
           id="path16629" />
      </g>
      <g
         id="use5697"
         transform="translate(503.60431,594.02509)">
        <path
           d="m 2.84375,4 c 1.09375,0 1.4375,-0.640625 1.4375,-1.25 0,-1.390625 -1.796875,-2.484375 -3.0625,-2.484375 -1.203125,0 -1.375,0.78125 -1.375,1.265625 0,1.5 1.859375,2.46875 3,2.46875 z M 3.1875,3.28125 C 1.984375,3.28125 0.15625,2.390625 0.15625,1.5 c 0,-0.375 0.171875,-0.53125 0.65625,-0.53125 1.234375,0 3.140625,0.875 3.140625,1.78125 0,0.375 -0.1875,0.53125 -0.765625,0.53125 z m 0,0"
           id="path16705" />
      </g>
      <g
         id="use5699"
         transform="translate(503.60431,598.29108)">
        <path
           d="M 3.03125,2 C 3.171875,2.046875 3.46875,2.125 3.703125,2.125 4.03125,2.125 4.28125,2 4.28125,1.6875 4.28125,0.984375 3.625,0.453125 2.984375,0.265625 2.890625,0.25 2.84375,0.375 2.84375,0.4375 2.84375,0.453125 2.859375,0.5 2.890625,0.5 3.46875,0.71875 3.859375,1.078125 3.859375,1.34375 3.859375,1.4375 3.8125,1.5 3.625,1.5 3.375,1.5 2.578125,1.234375 1.96875,1.046875 L 0.484375,0.609375 C 0.296875,0.546875 0.1875,0.515625 0.09375,0.515625 c -0.09375,0 -0.15625,0.28125 -0.15625,0.4375 0,0.140625 0.046875,0.25 0.109375,0.25 0.296875,0.0625 1.828125,0.546875 2.28125,0.71875 0.796875,0.3125 1.5625,1.09375 1.5625,1.5625 C 3.890625,3.71875 3.78125,3.8125 3.5625,3.8125 3.234375,3.8125 2.875,3.71875 2.09375,3.421875 1.3125,3.109375 0.78125,2.953125 0.40625,2.953125 c -0.390625,0 -0.546875,0.171875 -0.546875,0.53125 0,0.640625 0.703125,1.21875 1.34375,1.40625 C 1.28125,4.90625 1.34375,4.78125 1.34375,4.71875 1.34375,4.703125 1.328125,4.65625 1.296875,4.65625 0.71875,4.4375 0.328125,4.078125 0.328125,3.8125 c 0,-0.09375 0.046875,-0.15625 0.15625,-0.15625 0.28125,0 0.671875,0.140625 1.4375,0.453125 0.84375,0.34375 1.203125,0.40625 1.609375,0.40625 0.46875,0 0.75,-0.296875 0.75,-0.796875 C 4.28125,3.078125 3.75,2.390625 3.03125,2 Z m 0,0"
           id="path16645" />
      </g>
      <g
         id="use5701"
         transform="translate(503.60431,603.44812)">
        <path
           d="M 1.203125,4.53125 C 1.28125,4.546875 1.34375,4.421875 1.34375,4.359375 c 0,-0.015625 -0.015625,-0.0625 -0.046875,-0.0625 -0.578125,-0.21875 -0.96875,-0.578125 -0.96875,-0.84375 0,-0.09375 0.046875,-0.15625 0.15625,-0.15625 0.09375,0 0.125,0 0.15625,0.015625 1.234375,0.359375 4.4375,1.40625 5.78125,1.90625 0.0625,0.015625 0.109375,0.015625 0.140625,0.015625 0.109375,0 0.140625,-0.0625 0.140625,-0.1875 C 6.625,4.703125 6.546875,4.25 6.546875,3.78125 c 0,-0.0625 -0.0625,-0.078125 -0.15625,-0.078125 -0.125,0 -0.171875,0.015625 -0.171875,0.0625 0,0.171875 -0.015625,0.40625 -0.0625,0.546875 L 3.890625,3.59375 C 4.125,3.484375 4.28125,3.28125 4.28125,2.875 c 0,-1.234375 -1.796875,-2.625 -3.3125,-2.625 -0.6875,0 -1.125,0.390625 -1.125,1.09375 0,0.5 0.4375,1.125 1,1.390625 C 0.734375,2.71875 0.578125,2.703125 0.484375,2.703125 c -0.390625,0 -0.625,0.109375 -0.625,0.421875 0,0.703125 0.71875,1.203125 1.34375,1.40625 z m 2.25,-1.171875 c -0.53125,0 -1.390625,-0.3125 -1.6875,-0.4375 C 0.859375,2.53125 0.21875,2.046875 0.21875,1.46875 c 0,-0.328125 0.25,-0.4375 0.5625,-0.4375 1.296875,0 3.140625,1.0625 3.140625,1.859375 0,0.375 -0.1875,0.46875 -0.46875,0.46875 z m 0,0"
           id="path16621" />
      </g>
      <g
         id="use5703"
         transform="translate(503.60431,608.24512)" />
      <g
         id="use5705"
         transform="translate(503.60431,610.51312)">
        <path
           d="m 3.609375,3.78125 c 0.375,0 0.671875,-0.21875 0.671875,-0.953125 0,-1.09375 -1.515625,-2.5625 -3.296875,-2.5625 -0.859375,0 -1.140625,0.609375 -1.140625,1.140625 0,0.703125 0.4375,1.34375 1.390625,1.703125 C 1.328125,3.140625 1.40625,3.015625 1.40625,2.9375 1.40625,2.890625 1.375,2.859375 1.328125,2.828125 0.609375,2.453125 0.25,2.046875 0.25,1.5625 c 0,-0.265625 0.125,-0.53125 0.640625,-0.53125 1.4375,0 3,1.125 3,1.671875 0,0.1875 -0.09375,0.265625 -0.34375,0.296875 -0.25,0.046875 -0.375,0.1875 -0.375,0.40625 0,0.234375 0.1875,0.375 0.4375,0.375 z m 0,0"
           id="path16613" />
      </g>
      <g
         id="use5707"
         transform="translate(503.60431,614.29309)">
        <path
           d="M 4.015625,4.40625 C 4.1875,4.40625 4.28125,4.171875 4.28125,3.984375 4.28125,3.859375 4.25,3.75 4.171875,3.71875 L 3.890625,3.625 C 4.125,3.515625 4.28125,3.328125 4.28125,2.953125 4.28125,1.671875 2.515625,0.25 0.96875,0.25 c -0.6875,0 -1.125,0.390625 -1.125,1.09375 0,0.5 0.4375,1.125 1,1.390625 -0.109375,-0.03125 -0.265625,-0.03125 -0.359375,-0.03125 -0.390625,0 -0.625,0.09375 -0.625,0.40625 0,0.703125 0.71875,1.21875 1.34375,1.421875 0.09375,0 0.140625,-0.109375 0.140625,-0.171875 0,-0.015625 -0.015625,-0.0625 -0.046875,-0.0625 -0.578125,-0.21875 -0.96875,-0.578125 -0.96875,-0.84375 0,-0.09375 0.046875,-0.15625 0.15625,-0.15625 0.09375,0 0.125,0 0.15625,0.015625 0.703125,0.203125 2.15625,0.640625 3.375,1.09375 z m -0.5625,-1.015625 c -0.53125,0 -1.421875,-0.359375 -1.71875,-0.5 C 0.84375,2.515625 0.21875,2.046875 0.21875,1.46875 c 0,-0.328125 0.25,-0.4375 0.5625,-0.4375 1.296875,0 3.140625,1.109375 3.140625,1.90625 0,0.375 -0.1875,0.453125 -0.46875,0.453125 z m 0,0"
           id="path16685" />
      </g>
      <g
         id="use5709"
         transform="translate(503.60431,619.09009)">
        <path
           d="M 3.03125,2 C 3.171875,2.046875 3.46875,2.125 3.703125,2.125 4.03125,2.125 4.28125,2 4.28125,1.6875 4.28125,0.984375 3.625,0.453125 2.984375,0.265625 2.890625,0.25 2.84375,0.375 2.84375,0.4375 2.84375,0.453125 2.859375,0.5 2.890625,0.5 3.46875,0.71875 3.859375,1.078125 3.859375,1.34375 3.859375,1.4375 3.8125,1.5 3.625,1.5 3.375,1.5 2.578125,1.234375 1.96875,1.046875 L 0.484375,0.609375 C 0.296875,0.546875 0.1875,0.515625 0.09375,0.515625 c -0.09375,0 -0.15625,0.28125 -0.15625,0.4375 0,0.140625 0.046875,0.25 0.109375,0.25 0.296875,0.0625 1.828125,0.546875 2.28125,0.71875 0.796875,0.3125 1.5625,1.09375 1.5625,1.5625 C 3.890625,3.71875 3.78125,3.8125 3.5625,3.8125 3.234375,3.8125 2.875,3.71875 2.09375,3.421875 1.3125,3.109375 0.78125,2.953125 0.40625,2.953125 c -0.390625,0 -0.546875,0.171875 -0.546875,0.53125 0,0.640625 0.703125,1.21875 1.34375,1.40625 C 1.28125,4.90625 1.34375,4.78125 1.34375,4.71875 1.34375,4.703125 1.328125,4.65625 1.296875,4.65625 0.71875,4.4375 0.328125,4.078125 0.328125,3.8125 c 0,-0.09375 0.046875,-0.15625 0.15625,-0.15625 0.28125,0 0.671875,0.140625 1.4375,0.453125 0.84375,0.34375 1.203125,0.40625 1.609375,0.40625 0.46875,0 0.75,-0.296875 0.75,-0.796875 C 4.28125,3.078125 3.75,2.390625 3.03125,2 Z m 0,0"
           id="path16649" />
      </g>
      <g
         id="use5711"
         transform="translate(503.60431,624.24707)" />
      <g
         id="use5713"
         transform="translate(503.60431,626.51508)">
        <path
           d="M 1.25,1.234375 C 1.15625,0.625 0.734375,0.25 0.359375,0.25 c -0.53125,0 -0.703125,0.328125 -1,1.53125 -0.21875,0.875 -0.390625,1.015625 -0.734375,1.015625 -0.46875,0 -0.8125,-0.359375 -0.8125,-1.125 C -2.1875,0.75 -1.75,0.25 -1.296875,0.25 c 0.171875,0 0.34375,0.046875 0.515625,0.234375 0.09375,-0.0625 0.171875,-0.1875 0.171875,-0.328125 0,-0.28125 -0.203125,-0.5625 -0.671875,-0.5625 -0.703125,0 -1.265625,0.75 -1.265625,2.09375 0,0.96875 0.484375,1.78125 1.375,1.78125 0.734375,0 1.015625,-0.5 1.21875,-1.46875 C 0.203125,1.234375 0.25,0.890625 0.578125,0.890625 c 0.296875,0 0.5,0.234375 0.5,0.71875 0,1.125 1.015625,1.84375 2.09375,1.84375 0.234375,0 0.34375,-0.03125 0.4375,-0.0625 C 3.75,3.484375 3.8125,3.640625 3.8125,3.75 c 0,0.3125 -0.375,0.203125 -0.375,0.53125 0,0.21875 0.15625,0.328125 0.375,0.328125 0.296875,0 0.46875,-0.21875 0.46875,-0.5 0,-0.34375 -0.171875,-0.609375 -0.421875,-0.8125 0.25,-0.15625 0.421875,-0.421875 0.421875,-0.8125 0,-1.078125 -1.09375,-1.8125 -2.0625,-1.8125 -0.515625,0 -0.8125,0.1875 -0.96875,0.5625 z M 3.53125,2.8125 c -0.953125,0 -2.140625,-0.546875 -2.140625,-1.140625 0,-0.203125 0.09375,-0.34375 0.5,-0.34375 0.984375,0 2.09375,0.59375 2.09375,1.140625 0,0.265625 -0.15625,0.34375 -0.453125,0.34375 z m 0,0"
           id="path16637" />
      </g>
      <g
         id="use5715"
         transform="translate(503.60431,630.60107)">
        <path
           d="M 3.703125,2.203125 C 4.0625,2.203125 4.28125,2.0625 4.28125,1.6875 4.28125,0.984375 3.625,0.453125 2.984375,0.265625 2.890625,0.25 2.84375,0.375 2.84375,0.4375 2.84375,0.453125 2.859375,0.5 2.890625,0.5 3.46875,0.71875 3.859375,1.078125 3.859375,1.34375 3.859375,1.4375 3.8125,1.5 3.625,1.5 3.296875,1.5 2.875,1.3125 2.09375,1.015625 1.3125,0.703125 0.78125,0.5 0.40625,0.5 c -0.390625,0 -0.546875,0.171875 -0.546875,0.53125 0,0.640625 0.703125,1.234375 1.34375,1.40625 C 1.28125,2.46875 1.34375,2.34375 1.34375,2.28125 1.34375,2.25 1.328125,2.21875 1.296875,2.203125 0.71875,1.984375 0.328125,1.625 0.328125,1.359375 c 0,-0.09375 0.046875,-0.15625 0.15625,-0.15625 0.28125,0 0.671875,0.1875 1.4375,0.484375 0.96875,0.390625 1.359375,0.515625 1.78125,0.515625 z M 5.53125,2.09375 c 0,0.25 0.21875,0.484375 0.5,0.484375 0.28125,0 0.5,-0.234375 0.5,-0.484375 0,-0.28125 -0.21875,-0.515625 -0.5,-0.515625 -0.28125,0 -0.5,0.234375 -0.5,0.515625 z m 0,0"
           id="path16737" />
      </g>
      <g
         id="use5717"
         transform="translate(503.60431,633.30109)">
        <path
           d="m 3.6875,4.28125 c 0.421875,0 0.59375,-0.171875 0.59375,-0.453125 0,-0.25 -0.15625,-0.375 -0.359375,-0.375 -0.28125,0 -0.296875,0.140625 -1.03125,0.140625 C 1.8125,3.59375 0.3125,2.9375 0.3125,1.984375 0.3125,1.5625 0.546875,1.34375 1.046875,1.34375 c 0.796875,0 1.953125,0.640625 2.8125,1.390625 0.09375,0.078125 0.15625,0.09375 0.234375,0.09375 0.09375,0 0.1875,-0.0625 0.1875,-0.203125 0,-0.171875 -0.078125,-0.1875 -0.203125,-0.21875 C 3.90625,2.390625 3.78125,2.28125 3.78125,2.03125 c 0,-0.421875 0.40625,-0.5625 0.40625,-1.046875 0,-0.359375 -0.25,-0.5625 -0.59375,-0.5625 -0.109375,0 -0.25,0.015625 -0.328125,0.03125 -0.0625,0.03125 -0.0625,0.109375 -0.0625,0.15625 0,0.046875 0.03125,0.078125 0.0625,0.078125 0.21875,0 0.28125,0.09375 0.28125,0.25 0,0.234375 -0.15625,0.5625 -0.15625,0.875 0,0.109375 0,0.1875 0.03125,0.28125 C 2.59375,1.0625 1.625,0.5625 0.9375,0.5625 c -0.625,0 -1.0625,0.296875 -1.0625,1.125 0,2.078125 3.109375,2.59375 3.8125,2.59375 z m 0,0"
           id="path16673" />
      </g>
      <g
         id="use5719"
         transform="translate(503.60431,637.76508)">
        <path
           d="m 3.578125,3.8125 c 0.40625,0 0.703125,-0.21875 0.703125,-0.765625 0,-1.359375 -1.640625,-2.78125 -3.296875,-2.78125 -0.734375,0 -1.140625,0.546875 -1.140625,1.078125 0,1.015625 0.71875,1.59375 1.359375,1.8125 C 1.296875,3.171875 1.34375,3.046875 1.34375,2.984375 1.34375,2.921875 1.328125,2.90625 1.265625,2.875 0.71875,2.65625 0.25,2.09375 0.25,1.609375 0.25,1.21875 0.453125,1.03125 0.921875,1.03125 1.140625,1.03125 1.5,1.078125 1.84375,1.171875 2.265625,2.921875 2.921875,3.8125 3.578125,3.8125 Z M 3.625,3.203125 c -0.578125,0 -1.125,-0.734375 -1.46875,-1.921875 1.125,0.40625 1.75,1.140625 1.75,1.640625 0,0.234375 -0.15625,0.28125 -0.28125,0.28125 z m 0,0"
           id="path16653" />
      </g>
      <g
         id="use5721"
         transform="translate(503.60431,641.44611)" />
      <g
         id="use5723"
         transform="translate(503.60431,643.71411)">
        <path
           d="m 3.78125,0.90625 c 0,0.125 -0.09375,0.203125 -0.25,0.25 -0.671875,0.203125 -1.75,0.3125 -2.640625,0.3125 -0.578125,0 -0.96875,-0.03125 -1.296875,-0.0625 C -0.984375,1 -1.375,0.515625 -1.578125,0.171875 c -0.15625,-0.21875 -0.21875,-0.546875 -0.21875,-0.875 0,-0.28125 -0.109375,-0.5 -0.390625,-0.5 -0.21875,0 -0.390625,0.171875 -0.390625,0.390625 0,0.765625 1.3125,2.140625 2.78125,3.125 1.125,0.75 2.359375,1.546875 3.359375,1.546875 0.484375,0 0.71875,-0.171875 0.71875,-0.5 0,-0.140625 -0.09375,-0.3125 -0.328125,-0.3125 -0.359375,0 -0.375,0.28125 -0.765625,0.28125 -0.84375,0 -1.734375,-0.59375 -2.734375,-1.234375 0.375,0.046875 0.828125,0.0625 1.15625,0.0625 1.359375,0 2.671875,-0.234375 2.671875,-0.890625 C 4.28125,0.578125 3.625,0.25 2.984375,0.15625 2.890625,0.140625 2.84375,0.25 2.84375,0.3125 c 0,0.03125 0.015625,0.0625 0.046875,0.078125 C 3.46875,0.515625 3.78125,0.6875 3.78125,0.90625 Z m 0,0"
           id="path16717" />
      </g>
      <g
         id="use5725"
         transform="translate(503.60431,647.72809)">
        <path
           d="m 2.84375,4 c 1.09375,0 1.4375,-0.640625 1.4375,-1.25 0,-1.390625 -1.796875,-2.484375 -3.0625,-2.484375 -1.203125,0 -1.375,0.78125 -1.375,1.265625 0,1.5 1.859375,2.46875 3,2.46875 z M 3.1875,3.28125 C 1.984375,3.28125 0.15625,2.390625 0.15625,1.5 c 0,-0.375 0.171875,-0.53125 0.65625,-0.53125 1.234375,0 3.140625,0.875 3.140625,1.78125 0,0.375 -0.1875,0.53125 -0.765625,0.53125 z m 0,0"
           id="path16709" />
      </g>
      <g
         id="use5727"
         transform="translate(503.60431,651.99408)">
        <path
           d="M 1.109375,3.15625 C 0.984375,3.109375 0.6875,3.03125 0.4375,3.03125 c -0.328125,0 -0.578125,0.125 -0.578125,0.4375 0,0.703125 0.671875,1.234375 1.296875,1.421875 C 1.25,4.90625 1.3125,4.78125 1.3125,4.71875 1.3125,4.703125 1.28125,4.65625 1.265625,4.65625 0.671875,4.4375 0.28125,4.078125 0.28125,3.8125 c 0,-0.09375 0.0625,-0.15625 0.25,-0.15625 0.25,0 1.046875,0.265625 1.65625,0.453125 l 1.546875,0.46875 c 0.1875,0.0625 0.296875,0.078125 0.390625,0.078125 0.09375,0 0.15625,-0.265625 0.15625,-0.421875 0,-0.140625 -0.046875,-0.25 -0.109375,-0.25 -0.296875,-0.0625 -1.90625,-0.578125 -2.34375,-0.75 -0.8125,-0.3125 -1.5625,-1.09375 -1.5625,-1.5625 0,-0.234375 0.09375,-0.328125 0.328125,-0.328125 0.328125,0 0.671875,0.09375 1.46875,0.390625 0.78125,0.3125 1.3125,0.46875 1.6875,0.46875 0.390625,0 0.53125,-0.171875 0.53125,-0.53125 0,-0.640625 -0.703125,-1.21875 -1.328125,-1.40625 C 2.859375,0.25 2.8125,0.375 2.8125,0.4375 2.8125,0.453125 2.828125,0.5 2.859375,0.5 3.4375,0.71875 3.828125,1.078125 3.828125,1.34375 3.828125,1.4375 3.765625,1.5 3.65625,1.5 3.390625,1.5 3,1.359375 2.234375,1.046875 1.375,0.71875 1.015625,0.640625 0.625,0.640625 c -0.484375,0 -0.765625,0.296875 -0.765625,0.796875 0,0.640625 0.546875,1.328125 1.25,1.71875 z m 0,0"
           id="path16701" />
      </g>
      <g
         id="use5729"
         transform="translate(503.60431,657.15112)" />
      <g
         id="use5731"
         transform="translate(503.60431,659.41913)">
        <path
           d="m 3.609375,3.78125 c 0.375,0 0.671875,-0.21875 0.671875,-0.953125 0,-1.09375 -1.515625,-2.5625 -3.296875,-2.5625 -0.859375,0 -1.140625,0.609375 -1.140625,1.140625 0,0.703125 0.4375,1.34375 1.390625,1.703125 C 1.328125,3.140625 1.40625,3.015625 1.40625,2.9375 1.40625,2.890625 1.375,2.859375 1.328125,2.828125 0.609375,2.453125 0.25,2.046875 0.25,1.5625 c 0,-0.265625 0.125,-0.53125 0.640625,-0.53125 1.4375,0 3,1.125 3,1.671875 0,0.1875 -0.09375,0.265625 -0.34375,0.296875 -0.25,0.046875 -0.375,0.1875 -0.375,0.40625 0,0.234375 0.1875,0.375 0.4375,0.375 z m 0,0"
           id="path16617" />
      </g>
      <g
         id="use5733"
         transform="translate(503.60431,663.1991)">
        <path
           d="M 4.015625,4.40625 C 4.1875,4.40625 4.28125,4.171875 4.28125,3.984375 4.28125,3.859375 4.25,3.75 4.171875,3.71875 L 3.890625,3.625 C 4.125,3.515625 4.28125,3.328125 4.28125,2.953125 4.28125,1.671875 2.515625,0.25 0.96875,0.25 c -0.6875,0 -1.125,0.390625 -1.125,1.09375 0,0.5 0.4375,1.125 1,1.390625 -0.109375,-0.03125 -0.265625,-0.03125 -0.359375,-0.03125 -0.390625,0 -0.625,0.09375 -0.625,0.40625 0,0.703125 0.71875,1.21875 1.34375,1.421875 0.09375,0 0.140625,-0.109375 0.140625,-0.171875 0,-0.015625 -0.015625,-0.0625 -0.046875,-0.0625 -0.578125,-0.21875 -0.96875,-0.578125 -0.96875,-0.84375 0,-0.09375 0.046875,-0.15625 0.15625,-0.15625 0.09375,0 0.125,0 0.15625,0.015625 0.703125,0.203125 2.15625,0.640625 3.375,1.09375 z m -0.5625,-1.015625 c -0.53125,0 -1.421875,-0.359375 -1.71875,-0.5 C 0.84375,2.515625 0.21875,2.046875 0.21875,1.46875 c 0,-0.328125 0.25,-0.4375 0.5625,-0.4375 1.296875,0 3.140625,1.109375 3.140625,1.90625 0,0.375 -0.1875,0.453125 -0.46875,0.453125 z m 0,0"
           id="path16689" />
      </g>
      <g
         id="use5735"
         transform="translate(503.60431,667.99609)">
        <path
           d="M 2.984375,2 C 3.15625,2.046875 3.46875,2.125 3.6875,2.125 4.015625,2.125 4.28125,2 4.28125,1.6875 4.28125,0.984375 3.625,0.453125 2.984375,0.265625 2.890625,0.25 2.84375,0.375 2.84375,0.4375 2.84375,0.453125 2.859375,0.5 2.890625,0.5 3.46875,0.71875 3.859375,1.078125 3.859375,1.34375 3.859375,1.4375 3.8125,1.5 3.625,1.5 3.375,1.5 2.578125,1.234375 1.96875,1.046875 L 0.484375,0.609375 C 0.296875,0.546875 0.1875,0.515625 0.09375,0.515625 c -0.09375,0 -0.15625,0.28125 -0.15625,0.4375 0,0.140625 0.046875,0.25 0.109375,0.25 0.25,0.046875 1.328125,0.359375 1.9375,0.59375 1.359375,0.546875 1.671875,1.03125 1.671875,1.25 0,0.109375 -0.09375,0.1875 -0.25,0.1875 -0.1875,0 -0.25,0.125 -0.25,0.25 0,0.21875 0.203125,0.40625 0.53125,0.40625 C 4.046875,3.890625 4.28125,3.75 4.28125,3.4375 4.28125,2.875 3.75,2.4375 2.984375,2 Z m 0,0"
           id="path16609" />
      </g>
    </g>
    <g
       fill="#231f20"
       fill-opacity="1"
       id="g5785"
       transform="matrix(0.35277777,0,0,0.35277777,-75.565576,-84.630985)">
      <g
         id="use5739"
         transform="translate(503.60431,671.35217)">
        <path
           d="M 1.203125,4.53125 C 1.28125,4.546875 1.34375,4.421875 1.34375,4.359375 c 0,-0.015625 -0.015625,-0.0625 -0.046875,-0.0625 -0.578125,-0.21875 -0.96875,-0.578125 -0.96875,-0.84375 0,-0.09375 0.046875,-0.15625 0.15625,-0.15625 0.09375,0 0.125,0 0.15625,0.015625 1.234375,0.359375 4.4375,1.40625 5.78125,1.90625 0.0625,0.015625 0.109375,0.015625 0.140625,0.015625 0.109375,0 0.140625,-0.0625 0.140625,-0.1875 C 6.625,4.703125 6.546875,4.25 6.546875,3.78125 c 0,-0.0625 -0.0625,-0.078125 -0.15625,-0.078125 -0.125,0 -0.171875,0.015625 -0.171875,0.0625 0,0.171875 -0.015625,0.40625 -0.0625,0.546875 L 3.890625,3.59375 C 4.125,3.484375 4.28125,3.28125 4.28125,2.875 c 0,-1.234375 -1.796875,-2.625 -3.3125,-2.625 -0.6875,0 -1.125,0.390625 -1.125,1.09375 0,0.5 0.4375,1.125 1,1.390625 C 0.734375,2.71875 0.578125,2.703125 0.484375,2.703125 c -0.390625,0 -0.625,0.109375 -0.625,0.421875 0,0.703125 0.71875,1.203125 1.34375,1.40625 z m 2.25,-1.171875 c -0.53125,0 -1.390625,-0.3125 -1.6875,-0.4375 C 0.859375,2.53125 0.21875,2.046875 0.21875,1.46875 c 0,-0.328125 0.25,-0.4375 0.5625,-0.4375 1.296875,0 3.140625,1.0625 3.140625,1.859375 0,0.375 -0.1875,0.46875 -0.46875,0.46875 z m 0,0"
           id="path16625" />
      </g>
      <g
         id="use5741"
         transform="translate(503.60431,676.14917)">
        <path
           d="m 3.703125,3.0625 c 0.359375,0 0.578125,-0.328125 0.578125,-0.875 0,-0.765625 -0.5625,-1.25 -1.234375,-1.25 -0.390625,0 -0.71875,0.140625 -1.1875,0.375 -0.375,0.1875 -0.71875,0.359375 -1.0625,0.359375 -0.421875,0 -0.59375,-0.265625 -0.59375,-0.59375 0,-0.265625 0.109375,-0.515625 0.46875,-0.515625 0.15625,0 0.296875,-0.046875 0.296875,-0.28125 0,-0.234375 -0.15625,-0.359375 -0.390625,-0.359375 -0.46875,0 -0.734375,0.53125 -0.734375,1.109375 0,0.84375 0.5625,1.328125 1.203125,1.328125 0.46875,0 0.765625,-0.15625 1.25,-0.390625 0.3125,-0.15625 0.75,-0.390625 1.09375,-0.390625 0.3125,0 0.53125,0.171875 0.53125,0.484375 0,0.46875 -0.578125,0.21875 -0.578125,0.65625 0,0.203125 0.125,0.34375 0.359375,0.34375 z m 0,0"
           id="path16597" />
      </g>
      <g
         id="use5743"
         transform="translate(503.60431,679.11023)" />
      <g
         id="use5745"
         transform="translate(503.60431,681.37817)">
        <path
           d="M 3.734375,1.96875 C 3.71875,2.25 3.71875,2.625 3.71875,2.84375 c 0,0.046875 0.046875,0.09375 0.203125,0.09375 0.09375,0 0.125,0 0.125,-0.09375 0,-0.15625 -0.015625,-0.515625 -0.03125,-0.78125 0.421875,0.140625 0.828125,0.28125 1.203125,0.40625 0.078125,0 0.125,-0.140625 0.125,-0.296875 0,-0.203125 -0.0625,-0.4375 -0.15625,-0.46875 l -1.171875,-0.375 C 4.03125,1.171875 4.046875,0.875 4.046875,0.78125 4.046875,0.71875 4,0.6875 3.8125,0.6875 3.75,0.6875 3.71875,0.703125 3.71875,0.75 c 0,0.078125 0,0.328125 0.015625,0.484375 L 1.09375,0.421875 C 0.890625,0.359375 0.671875,0.3125 0.453125,0.3125 c -0.375,0 -0.59375,0.1875 -0.59375,0.515625 0,0.6875 0.796875,1.234375 1.421875,1.40625 0.109375,0 0.15625,-0.09375 0.15625,-0.15625 C 1.4375,2.046875 1.40625,2.015625 1.390625,2 0.796875,1.796875 0.40625,1.4375 0.40625,1.15625 c 0,-0.078125 0.0625,-0.140625 0.171875,-0.140625 0.09375,0 0.109375,0 0.15625,0.015625 0.65625,0.1875 1.828125,0.546875 3,0.9375 z m 0,0"
           id="path16581" />
      </g>
      <g
         id="use5747"
         transform="translate(503.60431,684.09619)">
        <path
           d="m 2.84375,4 c 1.09375,0 1.4375,-0.640625 1.4375,-1.25 0,-1.390625 -1.796875,-2.484375 -3.0625,-2.484375 -1.203125,0 -1.375,0.78125 -1.375,1.265625 0,1.5 1.859375,2.46875 3,2.46875 z M 3.1875,3.28125 C 1.984375,3.28125 0.15625,2.390625 0.15625,1.5 c 0,-0.375 0.171875,-0.53125 0.65625,-0.53125 1.234375,0 3.140625,0.875 3.140625,1.78125 0,0.375 -0.1875,0.53125 -0.765625,0.53125 z m 0,0"
           id="path16713" />
      </g>
      <g
         id="use5749"
         transform="translate(503.60431,688.36218)" />
      <g
         id="use5751"
         transform="translate(503.60431,690.63019)">
        <path
           d="M 3.734375,1.96875 C 3.71875,2.25 3.71875,2.625 3.71875,2.84375 c 0,0.046875 0.046875,0.09375 0.203125,0.09375 0.09375,0 0.125,0 0.125,-0.09375 0,-0.15625 -0.015625,-0.515625 -0.03125,-0.78125 0.421875,0.140625 0.828125,0.28125 1.203125,0.40625 0.078125,0 0.125,-0.140625 0.125,-0.296875 0,-0.203125 -0.0625,-0.4375 -0.15625,-0.46875 l -1.171875,-0.375 C 4.03125,1.171875 4.046875,0.875 4.046875,0.78125 4.046875,0.71875 4,0.6875 3.8125,0.6875 3.75,0.6875 3.71875,0.703125 3.71875,0.75 c 0,0.078125 0,0.328125 0.015625,0.484375 L 1.09375,0.421875 C 0.890625,0.359375 0.671875,0.3125 0.453125,0.3125 c -0.375,0 -0.59375,0.1875 -0.59375,0.515625 0,0.6875 0.796875,1.234375 1.421875,1.40625 0.109375,0 0.15625,-0.09375 0.15625,-0.15625 C 1.4375,2.046875 1.40625,2.015625 1.390625,2 0.796875,1.796875 0.40625,1.4375 0.40625,1.15625 c 0,-0.078125 0.0625,-0.140625 0.171875,-0.140625 0.09375,0 0.109375,0 0.15625,0.015625 0.65625,0.1875 1.828125,0.546875 3,0.9375 z m 0,0"
           id="path16585" />
      </g>
      <g
         id="use5753"
         transform="translate(503.60431,693.34821)">
        <path
           d="M 4.015625,4.40625 C 4.1875,4.40625 4.28125,4.171875 4.28125,3.984375 4.28125,3.859375 4.25,3.75 4.171875,3.71875 L 3.890625,3.625 C 4.125,3.515625 4.28125,3.328125 4.28125,2.953125 4.28125,1.671875 2.515625,0.25 0.96875,0.25 c -0.6875,0 -1.125,0.390625 -1.125,1.09375 0,0.5 0.4375,1.125 1,1.390625 -0.109375,-0.03125 -0.265625,-0.03125 -0.359375,-0.03125 -0.390625,0 -0.625,0.09375 -0.625,0.40625 0,0.703125 0.71875,1.21875 1.34375,1.421875 0.09375,0 0.140625,-0.109375 0.140625,-0.171875 0,-0.015625 -0.015625,-0.0625 -0.046875,-0.0625 -0.578125,-0.21875 -0.96875,-0.578125 -0.96875,-0.84375 0,-0.09375 0.046875,-0.15625 0.15625,-0.15625 0.09375,0 0.125,0 0.15625,0.015625 0.703125,0.203125 2.15625,0.640625 3.375,1.09375 z m -0.5625,-1.015625 c -0.53125,0 -1.421875,-0.359375 -1.71875,-0.5 C 0.84375,2.515625 0.21875,2.046875 0.21875,1.46875 c 0,-0.328125 0.25,-0.4375 0.5625,-0.4375 1.296875,0 3.140625,1.109375 3.140625,1.90625 0,0.375 -0.1875,0.453125 -0.46875,0.453125 z m 0,0"
           id="path16693" />
      </g>
      <g
         id="use5755"
         transform="translate(503.60431,698.1452)">
        <path
           d="m 2.546875,1.5 c 1.34375,0.4375 3.03125,1.0625 3.875,1.375 0.0625,0.015625 0.109375,0.03125 0.140625,0.03125 0.109375,0 0.140625,-0.078125 0.140625,-0.1875 C 6.625,2.375 6.546875,1.921875 6.546875,1.453125 c 0,-0.0625 -0.0625,-0.078125 -0.15625,-0.078125 -0.125,0 -0.171875,0.015625 -0.171875,0.0625 0,0.171875 -0.015625,0.40625 -0.0625,0.546875 L 0.484375,0.21875 C 0.296875,0.15625 0.1875,0.140625 0.09375,0.140625 0,0.140625 -0.0625,0.40625 -0.0625,0.5625 c 0,0.15625 0.046875,0.25 0.109375,0.25 0.234375,0.046875 1.40625,0.390625 1.828125,0.53125 0.234375,0.09375 0.28125,0.203125 0.28125,0.328125 0,0.25 -0.296875,0.359375 -1.3125,0.359375 -0.734375,0 -1,0.15625 -1,0.578125 0,0.421875 0.375,1.015625 1.328125,1.265625 C 1.28125,3.90625 1.34375,3.78125 1.34375,3.71875 1.34375,3.671875 1.328125,3.65625 1.296875,3.65625 0.625,3.453125 0.3125,3.125 0.3125,2.9375 0.3125,2.8125 0.40625,2.78125 0.6875,2.75 1.765625,2.65625 2.359375,2.4375 2.40625,1.703125 3.125,2.28125 3.703125,2.984375 3.703125,3.1875 c 0,0.125 -0.046875,0.171875 -0.171875,0.171875 -0.171875,0 -0.296875,0.125 -0.296875,0.296875 0,0.265625 0.203125,0.453125 0.515625,0.453125 0.328125,0 0.53125,-0.15625 0.53125,-0.53125 0,-0.5 -0.796875,-1.390625 -1.734375,-2.078125 z m 0,0"
           id="path16577" />
      </g>
      <g
         id="use5757"
         transform="translate(503.60431,702.29419)">
        <path
           d="m 3.578125,3.8125 c 0.40625,0 0.703125,-0.21875 0.703125,-0.765625 0,-1.359375 -1.640625,-2.78125 -3.296875,-2.78125 -0.734375,0 -1.140625,0.546875 -1.140625,1.078125 0,1.015625 0.71875,1.59375 1.359375,1.8125 C 1.296875,3.171875 1.34375,3.046875 1.34375,2.984375 1.34375,2.921875 1.328125,2.90625 1.265625,2.875 0.71875,2.65625 0.25,2.09375 0.25,1.609375 0.25,1.21875 0.453125,1.03125 0.921875,1.03125 1.140625,1.03125 1.5,1.078125 1.84375,1.171875 2.265625,2.921875 2.921875,3.8125 3.578125,3.8125 Z M 3.625,3.203125 c -0.578125,0 -1.125,-0.734375 -1.46875,-1.921875 1.125,0.40625 1.75,1.140625 1.75,1.640625 0,0.234375 -0.15625,0.28125 -0.28125,0.28125 z m 0,0"
           id="path16657" />
      </g>
      <g
         id="use5759"
         transform="translate(503.60431,705.97522)" />
      <g
         id="use5761"
         transform="translate(503.60431,708.24323)">
        <path
           d="M 3.734375,1.96875 C 3.71875,2.25 3.71875,2.625 3.71875,2.84375 c 0,0.046875 0.046875,0.09375 0.203125,0.09375 0.09375,0 0.125,0 0.125,-0.09375 0,-0.15625 -0.015625,-0.515625 -0.03125,-0.78125 0.421875,0.140625 0.828125,0.28125 1.203125,0.40625 0.078125,0 0.125,-0.140625 0.125,-0.296875 0,-0.203125 -0.0625,-0.4375 -0.15625,-0.46875 l -1.171875,-0.375 C 4.03125,1.171875 4.046875,0.875 4.046875,0.78125 4.046875,0.71875 4,0.6875 3.8125,0.6875 3.75,0.6875 3.71875,0.703125 3.71875,0.75 c 0,0.078125 0,0.328125 0.015625,0.484375 L 1.09375,0.421875 C 0.890625,0.359375 0.671875,0.3125 0.453125,0.3125 c -0.375,0 -0.59375,0.1875 -0.59375,0.515625 0,0.6875 0.796875,1.234375 1.421875,1.40625 0.109375,0 0.15625,-0.09375 0.15625,-0.15625 C 1.4375,2.046875 1.40625,2.015625 1.390625,2 0.796875,1.796875 0.40625,1.4375 0.40625,1.15625 c 0,-0.078125 0.0625,-0.140625 0.171875,-0.140625 0.09375,0 0.109375,0 0.15625,0.015625 0.65625,0.1875 1.828125,0.546875 3,0.9375 z m 0,0"
           id="path16589" />
      </g>
      <g
         id="use5763"
         transform="translate(503.60431,710.96118)">
        <path
           d="m 3.25,1.75 c 1.15625,0.40625 2.46875,0.875 3.171875,1.140625 0.0625,0.015625 0.109375,0.03125 0.140625,0.03125 0.109375,0 0.140625,-0.078125 0.140625,-0.1875 C 6.625,2.390625 6.546875,1.9375 6.546875,1.453125 c 0,-0.0625 -0.0625,-0.0625 -0.15625,-0.0625 -0.125,0 -0.171875,0.015625 -0.171875,0.0625 0,0.171875 -0.015625,0.390625 -0.0625,0.53125 L 0.484375,0.21875 C 0.296875,0.15625 0.1875,0.140625 0.09375,0.140625 0,0.140625 -0.0625,0.40625 -0.0625,0.5625 c 0,0.15625 0.046875,0.25 0.109375,0.25 C 0.34375,0.875 1.875,1.375 2.328125,1.53125 3.125,1.859375 3.890625,2.640625 3.890625,3.109375 3.890625,3.34375 3.78125,3.4375 3.5625,3.4375 3.234375,3.4375 2.875,3.34375 2.09375,3.046875 1.3125,2.734375 0.78125,2.578125 0.40625,2.578125 c -0.390625,0 -0.546875,0.171875 -0.546875,0.53125 0,0.640625 0.703125,1.21875 1.34375,1.40625 C 1.28125,4.53125 1.34375,4.40625 1.34375,4.34375 1.34375,4.3125 1.328125,4.28125 1.296875,4.28125 0.71875,4.0625 0.328125,3.703125 0.328125,3.421875 0.328125,3.34375 0.375,3.28125 0.484375,3.28125 c 0.28125,0 0.671875,0.140625 1.4375,0.4375 C 2.765625,4.0625 3.125,4.140625 3.53125,4.140625 4,4.140625 4.28125,3.84375 4.28125,3.34375 4.28125,2.765625 3.859375,2.15625 3.25,1.75 Z m 0,0"
           id="path16697" />
      </g>
      <g
         id="use5765"
         transform="translate(503.60431,715.74017)">
        <path
           d="m 3.578125,3.8125 c 0.40625,0 0.703125,-0.21875 0.703125,-0.765625 0,-1.359375 -1.640625,-2.78125 -3.296875,-2.78125 -0.734375,0 -1.140625,0.546875 -1.140625,1.078125 0,1.015625 0.71875,1.59375 1.359375,1.8125 C 1.296875,3.171875 1.34375,3.046875 1.34375,2.984375 1.34375,2.921875 1.328125,2.90625 1.265625,2.875 0.71875,2.65625 0.25,2.09375 0.25,1.609375 0.25,1.21875 0.453125,1.03125 0.921875,1.03125 1.140625,1.03125 1.5,1.078125 1.84375,1.171875 2.265625,2.921875 2.921875,3.8125 3.578125,3.8125 Z M 3.625,3.203125 c -0.578125,0 -1.125,-0.734375 -1.46875,-1.921875 1.125,0.40625 1.75,1.140625 1.75,1.640625 0,0.234375 -0.15625,0.28125 -0.28125,0.28125 z m 0,0"
           id="path16661" />
      </g>
      <g
         id="use5767"
         transform="translate(503.60431,719.4212)">
        <path
           d="m 3.703125,3.0625 c 0.359375,0 0.578125,-0.328125 0.578125,-0.875 0,-0.765625 -0.5625,-1.25 -1.234375,-1.25 -0.390625,0 -0.71875,0.140625 -1.1875,0.375 -0.375,0.1875 -0.71875,0.359375 -1.0625,0.359375 -0.421875,0 -0.59375,-0.265625 -0.59375,-0.59375 0,-0.265625 0.109375,-0.515625 0.46875,-0.515625 0.15625,0 0.296875,-0.046875 0.296875,-0.28125 0,-0.234375 -0.15625,-0.359375 -0.390625,-0.359375 -0.46875,0 -0.734375,0.53125 -0.734375,1.109375 0,0.84375 0.5625,1.328125 1.203125,1.328125 0.46875,0 0.765625,-0.15625 1.25,-0.390625 0.3125,-0.15625 0.75,-0.390625 1.09375,-0.390625 0.3125,0 0.53125,0.171875 0.53125,0.484375 0,0.46875 -0.578125,0.21875 -0.578125,0.65625 0,0.203125 0.125,0.34375 0.359375,0.34375 z m 0,0"
           id="path16601" />
      </g>
      <g
         id="use5769"
         transform="translate(503.60431,722.3822)">
        <path
           d="m 3.578125,3.8125 c 0.40625,0 0.703125,-0.21875 0.703125,-0.765625 0,-1.359375 -1.640625,-2.78125 -3.296875,-2.78125 -0.734375,0 -1.140625,0.546875 -1.140625,1.078125 0,1.015625 0.71875,1.59375 1.359375,1.8125 C 1.296875,3.171875 1.34375,3.046875 1.34375,2.984375 1.34375,2.921875 1.328125,2.90625 1.265625,2.875 0.71875,2.65625 0.25,2.09375 0.25,1.609375 0.25,1.21875 0.453125,1.03125 0.921875,1.03125 1.140625,1.03125 1.5,1.078125 1.84375,1.171875 2.265625,2.921875 2.921875,3.8125 3.578125,3.8125 Z M 3.625,3.203125 c -0.578125,0 -1.125,-0.734375 -1.46875,-1.921875 1.125,0.40625 1.75,1.140625 1.75,1.640625 0,0.234375 -0.15625,0.28125 -0.28125,0.28125 z m 0,0"
           id="path16665" />
      </g>
      <g
         id="use5771"
         transform="translate(503.60431,726.06317)" />
      <g
         id="use5773"
         transform="translate(503.60431,728.33118)">
        <path
           d="M 3.703125,2.203125 C 4.0625,2.203125 4.28125,2.0625 4.28125,1.6875 4.28125,0.984375 3.625,0.453125 2.984375,0.265625 2.890625,0.25 2.84375,0.375 2.84375,0.4375 2.84375,0.453125 2.859375,0.5 2.890625,0.5 3.46875,0.71875 3.859375,1.078125 3.859375,1.34375 3.859375,1.4375 3.8125,1.5 3.625,1.5 3.296875,1.5 2.875,1.3125 2.09375,1.015625 1.3125,0.703125 0.78125,0.5 0.40625,0.5 c -0.390625,0 -0.546875,0.171875 -0.546875,0.53125 0,0.640625 0.703125,1.234375 1.34375,1.40625 C 1.28125,2.46875 1.34375,2.34375 1.34375,2.28125 1.34375,2.25 1.328125,2.21875 1.296875,2.203125 0.71875,1.984375 0.328125,1.625 0.328125,1.359375 c 0,-0.09375 0.046875,-0.15625 0.15625,-0.15625 0.28125,0 0.671875,0.1875 1.4375,0.484375 0.96875,0.390625 1.359375,0.515625 1.78125,0.515625 z M 5.53125,2.09375 c 0,0.25 0.21875,0.484375 0.5,0.484375 0.28125,0 0.5,-0.234375 0.5,-0.484375 0,-0.28125 -0.21875,-0.515625 -0.5,-0.515625 -0.28125,0 -0.5,0.234375 -0.5,0.515625 z m 0,0"
           id="path16741" />
      </g>
      <g
         id="use5775"
         transform="translate(503.60431,731.03119)">
        <path
           d="M 3.734375,1.96875 C 3.71875,2.25 3.71875,2.625 3.71875,2.84375 c 0,0.046875 0.046875,0.09375 0.203125,0.09375 0.09375,0 0.125,0 0.125,-0.09375 0,-0.15625 -0.015625,-0.515625 -0.03125,-0.78125 0.421875,0.140625 0.828125,0.28125 1.203125,0.40625 0.078125,0 0.125,-0.140625 0.125,-0.296875 0,-0.203125 -0.0625,-0.4375 -0.15625,-0.46875 l -1.171875,-0.375 C 4.03125,1.171875 4.046875,0.875 4.046875,0.78125 4.046875,0.71875 4,0.6875 3.8125,0.6875 3.75,0.6875 3.71875,0.703125 3.71875,0.75 c 0,0.078125 0,0.328125 0.015625,0.484375 L 1.09375,0.421875 C 0.890625,0.359375 0.671875,0.3125 0.453125,0.3125 c -0.375,0 -0.59375,0.1875 -0.59375,0.515625 0,0.6875 0.796875,1.234375 1.421875,1.40625 0.109375,0 0.15625,-0.09375 0.15625,-0.15625 C 1.4375,2.046875 1.40625,2.015625 1.390625,2 0.796875,1.796875 0.40625,1.4375 0.40625,1.15625 c 0,-0.078125 0.0625,-0.140625 0.171875,-0.140625 0.09375,0 0.109375,0 0.15625,0.015625 0.65625,0.1875 1.828125,0.546875 3,0.9375 z m 0,0"
           id="path16593" />
      </g>
      <g
         id="use5777"
         transform="translate(503.60431,733.74921)">
        <path
           d="m 3.578125,3.8125 c 0.40625,0 0.703125,-0.21875 0.703125,-0.765625 0,-1.359375 -1.640625,-2.78125 -3.296875,-2.78125 -0.734375,0 -1.140625,0.546875 -1.140625,1.078125 0,1.015625 0.71875,1.59375 1.359375,1.8125 C 1.296875,3.171875 1.34375,3.046875 1.34375,2.984375 1.34375,2.921875 1.328125,2.90625 1.265625,2.875 0.71875,2.65625 0.25,2.09375 0.25,1.609375 0.25,1.21875 0.453125,1.03125 0.921875,1.03125 1.140625,1.03125 1.5,1.078125 1.84375,1.171875 2.265625,2.921875 2.921875,3.8125 3.578125,3.8125 Z M 3.625,3.203125 c -0.578125,0 -1.125,-0.734375 -1.46875,-1.921875 1.125,0.40625 1.75,1.140625 1.75,1.640625 0,0.234375 -0.15625,0.28125 -0.28125,0.28125 z m 0,0"
           id="path16669" />
      </g>
      <g
         id="use5779"
         transform="translate(503.60431,737.43018)">
        <path
           d="m 3.65625,4.34375 c 0.390625,0 0.625,-0.21875 0.625,-0.6875 C 4.28125,2.96875 3.75,2.390625 3.03125,2 3.171875,2.046875 3.46875,2.125 3.703125,2.125 4.03125,2.125 4.28125,2 4.28125,1.6875 4.28125,0.984375 3.625,0.453125 2.984375,0.265625 2.890625,0.25 2.84375,0.375 2.84375,0.4375 2.84375,0.453125 2.859375,0.5 2.890625,0.5 3.46875,0.71875 3.859375,1.078125 3.859375,1.34375 3.859375,1.4375 3.8125,1.5 3.625,1.5 3.375,1.5 2.578125,1.234375 1.96875,1.046875 L 0.484375,0.609375 C 0.296875,0.546875 0.1875,0.515625 0.09375,0.515625 c -0.09375,0 -0.15625,0.28125 -0.15625,0.4375 0,0.140625 0.046875,0.25 0.109375,0.25 C 0.34375,1.265625 1.875,1.75 2.328125,1.921875 3.125,2.234375 3.890625,2.90625 3.890625,3.390625 3.890625,3.609375 3.78125,3.6875 3.5625,3.6875 3.296875,3.6875 2.578125,3.46875 1.96875,3.28125 L 0.484375,2.828125 C 0.296875,2.78125 0.1875,2.75 0.09375,2.75 0,2.75 -0.0625,3.03125 -0.0625,3.1875 c 0,0.140625 0.046875,0.234375 0.109375,0.25 0.296875,0.046875 1.828125,0.546875 2.28125,0.71875 0.796875,0.3125 1.5625,0.984375 1.5625,1.453125 0,0.234375 -0.109375,0.3125 -0.328125,0.3125 -0.328125,0 -0.6875,-0.09375 -1.46875,-0.390625 -0.78125,-0.3125 -1.3125,-0.453125 -1.6875,-0.453125 -0.390625,0 -0.546875,0.15625 -0.546875,0.515625 C -0.140625,6.234375 0.5625,6.8125 1.203125,7 1.28125,7.015625 1.34375,6.890625 1.34375,6.828125 c 0,-0.03125 -0.015625,-0.0625 -0.046875,-0.0625 C 0.71875,6.546875 0.328125,6.1875 0.328125,5.90625 c 0,-0.078125 0.046875,-0.140625 0.15625,-0.140625 0.28125,0 0.671875,0.140625 1.4375,0.4375 C 2.765625,6.546875 3.125,6.625 3.53125,6.625 c 0.46875,0 0.75,-0.28125 0.75,-0.78125 0,-0.640625 -0.53125,-1.21875 -1.25,-1.609375 0.140625,0.046875 0.375,0.109375 0.625,0.109375 z m 0,0"
           id="path16573" />
      </g>
      <g
         id="use5781"
         transform="translate(503.60431,744.69318)">
        <path
           d="m 3.703125,3.0625 c 0.359375,0 0.578125,-0.328125 0.578125,-0.875 0,-0.765625 -0.5625,-1.25 -1.234375,-1.25 -0.390625,0 -0.71875,0.140625 -1.1875,0.375 -0.375,0.1875 -0.71875,0.359375 -1.0625,0.359375 -0.421875,0 -0.59375,-0.265625 -0.59375,-0.59375 0,-0.265625 0.109375,-0.515625 0.46875,-0.515625 0.15625,0 0.296875,-0.046875 0.296875,-0.28125 0,-0.234375 -0.15625,-0.359375 -0.390625,-0.359375 -0.46875,0 -0.734375,0.53125 -0.734375,1.109375 0,0.84375 0.5625,1.328125 1.203125,1.328125 0.46875,0 0.765625,-0.15625 1.25,-0.390625 0.3125,-0.15625 0.75,-0.390625 1.09375,-0.390625 0.3125,0 0.53125,0.171875 0.53125,0.484375 0,0.46875 -0.578125,0.21875 -0.578125,0.65625 0,0.203125 0.125,0.34375 0.359375,0.34375 z m 0,0"
           id="path16605" />
      </g>
      <g
         id="use5783"
         transform="translate(503.60431,747.65417)">
        <path
           d="m 0.515625,1.65625 c 0.296875,0 0.578125,-0.265625 0.578125,-0.5625 0,-0.3125 -0.28125,-0.578125 -0.578125,-0.578125 -0.3125,0 -0.5625,0.265625 -0.5625,0.578125 0,0.296875 0.25,0.5625 0.5625,0.5625 z m 0,0"
           id="path16569" />
      </g>
    </g>
  </g>
</svg>
