<?xml version="1.0" encoding="UTF-8" standalone="no"?>
<!-- Created with Inkscape (http://www.inkscape.org/) -->

<svg
   width="263.34732mm"
   height="42.987427mm"
   viewBox="0 0 263.34732 42.987427"
   version="1.1"
   id="svg23672"
   sodipodi:docname="Faction_Top_Bar.svg"
   inkscape:version="1.2.2 (b0a84865, 2022-12-01)"
   xmlns:inkscape="http://www.inkscape.org/namespaces/inkscape"
   xmlns:sodipodi="http://sodipodi.sourceforge.net/DTD/sodipodi-0.dtd"
   xmlns="http://www.w3.org/2000/svg"
   xmlns:svg="http://www.w3.org/2000/svg">
  <sodipodi:namedview
     id="namedview23870"
     pagecolor="#ffffff"
     bordercolor="#000000"
     borderopacity="0.25"
     inkscape:showpageshadow="2"
     inkscape:pageopacity="0.0"
     inkscape:pagecheckerboard="0"
     inkscape:deskcolor="#d1d1d1"
     inkscape:document-units="mm"
     showgrid="false"
     inkscape:zoom="1.9749725"
     inkscape:cx="902.03786"
     inkscape:cy="143.29313"
     inkscape:window-width="1309"
     inkscape:window-height="456"
     inkscape:window-x="0"
     inkscape:window-y="25"
     inkscape:window-maximized="0"
     inkscape:current-layer="svg23672" />
  <defs
     id="defs23669" />
  <g
     id="layer1"
     transform="rotate(-90,54.245798,71.072152)">
    <path
       fill-rule="evenodd"
       fill="#f9e3b3"
       fill-opacity="1"
       d="m 83.079541,262.21783 v -0.38034 c 0.525032,-0.0661 0.862651,0.69039 1.397332,0.88883 v 0.12678 c -0.54846,0.0372 -0.86541,-0.51539 -1.397332,-0.63527 m 2.582443,-195.5009 c 0.0055,-0.121267 -0.02342,-0.276987 0.04134,-0.338998 0.446483,0.446482 1.158931,0.841981 1.313272,1.440049 -0.502987,-0.31695 -0.880569,-0.756542 -1.354614,-1.101051 m -0.381716,0.592554 c -0.409279,-0.305922 -1.242991,-0.636651 -1.015616,-1.142394 0.299036,0.198438 0.489204,0.49196 0.762057,0.719339 0.272852,0.227376 0.558105,0.425813 0.804774,0.677993 v 0.126781 c -0.203948,0.0069 -0.323839,-0.21222 -0.551215,-0.381719 M 85.15349,64.389422 c -0.202572,-0.237021 -0.571888,-0.486449 -0.465779,-0.890213 0.242534,0.111622 0.395499,0.453375 0.592557,0.720714 0.201193,0.268718 0.435462,0.54157 0.593933,0.803398 0.01101,0.0689 -0.03996,0.07304 -0.04272,0.128158 -0.294901,-0.158475 -0.450617,-0.497474 -0.677993,-0.762057 m -0.676617,-2.541101 c 0.326595,0.224618 0.432703,0.668349 0.676617,0.97427 0.367933,0.436842 0.786857,0.821313 1.058333,1.354614 -0.214975,-0.08131 -0.310059,-0.282497 -0.508497,-0.38034 -0.327974,-0.677993 -1.3491,-1.099672 -1.226453,-1.948544 m 3.428559,4.954045 c -0.241159,0.184658 -0.679372,-0.197059 -0.719339,-0.592554 0.389986,0.04685 0.511253,0.362423 0.719339,0.592554 M 86.381319,24.338121 c 0.06891,-0.08682 0.06201,-0.249425 0.212221,-0.254937 0.143316,0.05788 0.221861,0.248047 0.168119,0.381717 -0.07303,0.0248 -0.248048,-0.05099 -0.253559,0.04272 -0.08682,-0.0124 -0.08406,-0.112999 -0.126781,-0.169499 m -1.101051,-0.212217 c 0.0028,-0.245291 0.0248,-0.307303 0.04272,-0.465778 0.254938,-0.02894 0.304549,0.147451 0.38034,0.296279 0.0096,0.206706 -0.223241,0.170876 -0.423058,0.169499 m 1.777668,-1.227833 c 0.0097,0.04823 0.04272,0.02343 0.04272,0 0.23151,0.118512 0.08682,0.582911 -0.168124,0.593935 -0.150205,-0.132292 -0.118508,-0.598069 0.125402,-0.593935 m -1.142393,0.297657 c -0.181899,-0.188791 -0.150206,-0.582911 0.169499,-0.593935 0.130912,0.12678 0.152961,0.381717 0.08544,0.593935 z m 0.169499,-0.847494 c 0.0083,-0.600825 -0.549836,-0.635275 -0.423058,-1.354611 0.544326,-0.125402 0.39963,0.967382 0.719335,1.185113 v 0.126779 c -0.05512,0.05926 -0.183279,0.04272 -0.296277,0.04272 m 1.82039,1.947168 c -0.03172,-0.157096 -0.14883,-0.314193 0,-0.423057 0.394116,-0.05512 0.2384,0.417545 0,0.423057 m 22.296658,-6.942556 c -1.33394,0.03859 -2.65273,0.07717 -3.853,0.253559 -0.38447,0.0565 -0.78135,0.166742 -1.09967,0.169499 -0.50161,0.0055 1.79558,-0.108865 1.28571,-0.12678 -0.90262,-0.03032 -5.00917,0.137804 -5.92832,0.08406 -1.441428,-0.0813 -3.985287,-0.03307 -5.462544,-0.08406 -1.311892,-0.0441 -2.636188,-0.110243 -3.894335,-0.08406 -0.596692,0.01102 -1.132748,-0.169499 -1.777672,-0.08544 -0.571884,0.07579 -1.106565,0.166743 -1.652266,0.253559 -1.219564,0.195682 -2.535591,0.09371 -3.851617,0.128158 -0.03447,0.49196 0.117132,1.160308 0.08544,1.73495 -0.01101,0.191547 -0.115757,0.327973 -0.08544,0.508496 0.05512,0.330729 0.458886,0.472667 0.635275,0.803396 0.162609,0.307303 0.216351,0.701422 0.38034,1.058334 0.169499,0.369314 0.380337,0.763433 0.296277,1.18649 -0.147451,0.151585 -0.283877,0.170877 -0.549836,0.12678 0.282497,0.334863 0.581529,1.309136 0,1.354612 -0.385851,0.02894 -0.325219,-0.380339 -0.592557,-0.551216 -0.297657,1.386306 -0.03859,3.048221 -0.169499,4.827268 -0.117133,1.588878 -0.183279,3.081293 -0.296277,4.82589 -0.07993,1.223697 -0.409279,2.909038 0.08544,3.894336 -0.07579,1.38355 -0.106108,2.7671 -0.128157,4.106553 -0.0069,0.451997 0.107488,0.887457 0.128157,1.354612 0.01101,0.297656 -0.08544,0.620117 -0.08544,0.930177 0,0.325215 0.08819,0.636651 0.08544,0.931552 -0.0041,0.354157 0.04961,0.512632 0.08406,0.763432 0.137802,1.010105 -0.02893,4.59576 -0.04272,5.560385 -0.0055,0.423058 0.126782,0.821312 0.126782,1.227832 0.0014,1.96784 -0.242535,3.682118 -0.08406,5.78776 0.759297,0.595313 1.536509,1.397332 1.904446,2.243448 -0.326595,-0.322463 -0.620116,-0.677996 -0.972894,-0.972897 -0.07166,-0.188789 -0.299036,-0.334864 -0.465776,-0.508494 -0.146071,-0.150206 -0.297656,-0.461645 -0.424438,-0.381716 0.327974,0.690396 1.02664,1.007342 1.270554,1.779044 -0.496094,-0.33624 -0.756546,-0.909504 -1.270554,-1.227829 0.0565,3.296267 0,6.414766 0,9.821276 0,1.056954 0.0041,2.175923 -0.08406,3.217718 -0.06063,0.724849 -0.07717,1.495171 -0.169499,2.200727 -0.263204,2.018827 -0.263204,129.135961 -0.253559,131.164431 0.0041,0.74552 0.169499,1.50344 0.169499,2.24345 0,0.42994 -0.0937,0.86954 -0.08544,1.31326 0.0097,0.45476 0.07717,0.90951 0.04272,1.35324 -0.03447,0.46026 -0.170879,3.39962 -0.1695,3.86953 0.01517,3.1309 -0.04134,6.23149 0,9.39822 0.16261,0.10335 0.358289,0.10197 0.549836,0.25356 0.177769,0.6587 0.595313,1.51722 -0.04134,1.98989 0.396875,0.19154 0.970139,0.68212 0.549836,1.18511 -0.498849,-0.0441 -0.530546,-0.13505 -1.015616,-0.1695 -0.24391,0.6587 0.0028,1.36288 -0.04272,2.03261 -0.05374,0.8158 -0.163985,1.57234 -0.126781,2.41294 0.01517,0.32935 -0.02755,0.66284 -0.04272,1.01562 -0.03721,0.84887 0.192927,1.72392 0.128157,2.497 -0.06752,0.78962 -0.337619,1.51171 -0.381716,2.32888 -0.101974,1.85622 -0.181899,6.13641 -0.04272,7.97471 0.05099,0.6587 -0.106108,1.31878 -0.168123,1.98989 -0.05512,0.59255 0.03447,1.18373 0.04134,1.77767 0.01101,0.98667 0.106109,1.95268 0.169499,2.96278 0.110243,1.75976 -0.165364,3.56912 0.126781,5.29167 -0.281121,0.63527 0.100595,1.48001 0.04272,1.98988 -0.0193,0.16261 -0.141936,0.30317 -0.169499,0.46578 -0.08682,0.51401 0.16123,1.09003 0.08544,1.69361 -0.02618,0.20533 -0.14745,0.39274 -0.170878,0.59255 -0.04685,0.42169 0.05375,0.87781 -0.04134,1.3119 0.278363,0.48507 0.934308,0.81442 1.099672,1.27055 -0.362422,-0.0179 -0.463021,-0.29766 -0.760677,-0.38034 -0.0813,0.2384 0.223245,0.30868 0.08406,0.4644 -0.126778,0.0179 -0.310056,-0.27699 -0.338995,-0.0841 0.02067,0.63803 -0.146074,1.62057 0.04272,2.32888 0.09371,0.35003 0.442352,0.73725 0.676617,1.09968 0.502984,0.77446 0.966005,1.38493 1.482768,2.07532 0.208086,0.27837 0.733118,0.6904 0.338998,1.09968 -0.697286,-0.33349 -1.295354,-0.76481 -1.989885,-1.09968 0.136426,0.47956 1.03077,0.74966 0.635275,1.35324 -0.366557,0.0785 -0.636655,-0.29077 -1.016992,-0.33762 -0.169499,1.19751 0.231511,2.20073 0.296277,3.3445 0.02343,0.40514 -0.119888,0.81442 -0.126781,1.22645 -0.0193,1.24437 -0.285252,2.50389 -0.126778,3.514 0.467156,0.0565 0.806154,-0.11851 1.185111,-0.0841 0.31695,0.0289 0.600827,0.28112 0.974274,0.21221 1.09003,0.77584 2.463934,-0.0965 3.894338,-0.21221 1.617814,-0.13092 3.176376,0.18328 4.572328,0.12678 -0.501604,-0.9977 -1.333941,-1.80523 -2.032606,-2.66651 -0.158472,-0.19568 -0.73587,-0.78134 -0.423055,-1.01561 0.05374,-0.0413 0.724845,0.27285 0.762053,0.29628 0.163989,0.10197 0.323839,0.27836 0.508497,0.42305 0.526412,0.41341 1.154797,0.85715 1.649511,1.22784 0.825444,0.62149 1.237478,1.28984 2.116667,1.69223 0.650434,0.29903 2.410188,0.0799 3.176379,0.25493 0.121268,0.0276 0.209462,0.11438 0.338995,0.12678 0.501603,0.0469 0.982543,-0.10197 1.481383,0 0.42444,0.0868 4.00596,0.11714 4.57509,0.12678 0.29904,0.006 0.60358,0.091 0.88884,0.0854 0.32108,-0.008 0.64078,-0.1502 0.97289,-0.1695 0.31006,-0.0193 -2.19659,0.0538 -1.87826,0.0414 0.30592,-0.011 0.62562,-0.10612 0.93155,-0.12679 0.31281,-0.0207 0.62563,0.0482 0.93017,0.0427 0.34727,-0.005 0.68076,-0.11024 1.017,-0.12678 0.86816,-0.0441 1.71565,0.0896 2.58244,0.1695 0.88195,0.0813 3.96462,-0.003 4.86861,0 0.44924,0.001 0.90261,0.10749 1.35461,0.0841 0.23703,-0.0124 0.44786,-0.12264 0.678,-0.12678 0.18879,-0.004 0.39549,0.0868 0.59255,0.0841 0.94534,-0.0138 4.13412,-0.15572 5.20899,-0.0841 0.10473,-1.3615 0.27423,-2.73954 0.29627,-4.10655 0.008,-0.5209 -0.1502,-1.0418 -0.12815,-1.56683 0.0124,-0.24391 0.11437,-0.50023 0.12815,-0.76205 0.0854,-1.66605 0.27286,-3.16398 -0.0427,-4.61368 -0.48094,-0.48369 -1.52549,-0.61322 -1.52411,-1.43867 0.29489,-0.14331 0.96324,-0.0537 1.35599,-0.0854 -0.29215,-0.66834 -0.97841,-0.9412 -1.1865,-1.6936 0.2012,-0.24943 0.75379,0.001 1.017,-0.0841 -0.0923,-1.93891 -0.12678,-3.96462 -0.17088,-5.96967 -0.0179,-0.83371 0.13091,-1.6812 0.17088,-2.497 0.0482,-1.04731 0.0344,-2.11805 0.0841,-3.21772 0.0703,-1.60817 0.0441,-3.39824 0,-4.86861 -0.0262,-0.86541 0.10611,-1.75975 0.12677,-2.62516 0.0124,-0.49609 -0.12677,-1.00046 -0.12677,-1.52273 0.001,-1.12448 0.0965,-4.77766 0.12677,-5.94348 0.022,-0.82269 -0.15296,-1.64814 -0.0841,-2.45429 0.14607,-1.73219 0.52503,-3.51813 0.38034,-5.12355 -0.16399,-1.81211 -0.69729,-3.31693 -0.50712,-5.12216 -0.32936,-0.29215 -1.23197,-0.011 -1.18649,-0.67662 0.47817,-0.17226 0.77859,-0.51952 1.18649,-0.76205 -0.41342,-0.54708 -0.98255,-0.93845 -1.017,-1.86311 0.26459,-0.28939 0.97566,-0.17501 1.26918,-0.21084 -0.0469,-2.77261 -0.30179,-5.70232 -0.0827,-8.55211 0.0303,-0.40514 0.14331,-3.30591 0.16812,-3.74137 0.11299,-2.01332 -0.0923,-129.284785 -0.0427,-131.12171 0.0303,-1.043174 0.14883,-2.104263 0.21223,-3.09094 0.0468,-0.71658 0.0978,-1.646756 -0.1695,-2.286166 -0.22876,-0.54708 -0.90538,-1.041795 -1.26918,-1.608169 -0.15158,-0.234265 -0.30179,-0.558105 -0.50849,-0.931552 -0.13505,-0.245293 -0.54295,-0.751032 -0.25356,-0.931555 0.34175,-0.213597 1.59301,0.880565 1.73495,0.804774 0.0207,-0.712445 0.226,-1.42627 0.25355,-2.159385 0.0193,-0.504362 -0.14331,-1.007346 -0.16811,-1.524112 -0.0827,-1.657777 0.20808,-3.093696 0.25355,-4.52961 0.0413,-1.310513 -0.15709,-2.634809 -0.1695,-3.937057 -0.004,-0.370692 0.0799,-0.741384 0.0841,-1.099672 0.0248,-1.661915 -0.10059,-3.049598 0,-4.602649 0.0482,-0.733114 0.22187,-1.406976 0.21223,-2.073945 -0.008,-0.531926 -0.21085,-3.566365 -0.33762,-4.080372 -0.16675,-0.661459 -0.33487,-1.861729 0.21083,-2.202106 0.32522,-0.828199 0.1447,-2.016069 0.12679,-3.13228 -0.0234,-1.478635 0.26182,-2.977941 0.0413,-4.106554 -0.0317,-0.166743 -0.14744,-0.305924 -0.16812,-0.465777 -0.0799,-0.606337 0.0951,-1.332563 0.16812,-1.988509 0.073,-0.643544 0.051,-1.305002 0.0854,-1.863107 0.0166,-0.261828 0.12678,-0.49885 0.0854,-0.762056 -0.04,-0.250803 -0.21635,-0.46302 -0.25356,-0.719336 -0.18328,-1.196137 0.27148,-2.430859 0.0414,-3.683496 0.37758,-0.766189 0.35139,-1.934765 0.46577,-2.962781 -0.69866,-0.764812 -0.11024,-2.181435 -0.12678,-3.09094 -0.022,-1.280198 -0.17501,-2.640321 -0.0427,-3.851617 -0.71244,-0.242535 -1.24574,-0.173633 -1.98988,-0.169499 -0.82821,0.0041 -3.85024,-0.206705 -4.70049,-0.126779"
       id="path18632"
       style="stroke-width:0.352778" />
    <path
       fill-rule="evenodd"
       fill="#231f20"
       fill-opacity="1"
       d="m 87.905432,24.295402 c 0.239776,-0.0055 0.394116,-0.478179 0,-0.423057 -0.14883,0.108864 -0.03172,0.265961 0,0.423057"
       id="path18634"
       style="stroke-width:0.352778" />
    <path
       fill-rule="evenodd"
       fill="#231f20"
       fill-opacity="1"
       d="m 87.905432,66.802366 c -0.208086,-0.230131 -0.329353,-0.545702 -0.719339,-0.593934 0.03997,0.396875 0.47818,0.778592 0.719339,0.593934"
       id="path18636"
       style="stroke-width:0.352778" />
    <path
       fill-rule="evenodd"
       fill="#231f20"
       fill-opacity="1"
       d="m 87.100658,22.898071 c 0.0014,0.02343 -0.03447,0.04823 -0.04134,0 -0.24667,-0.0041 -0.275608,0.461643 -0.128158,0.593935 0.256315,-0.01102 0.399631,-0.475423 0.1695,-0.593935"
       id="path18638"
       style="stroke-width:0.352778" />
    <path
       fill-rule="evenodd"
       fill="#231f20"
       fill-opacity="1"
       d="m 85.704705,66.377932 c -0.06615,0.06201 -0.03721,0.216351 -0.04272,0.338998 0.474045,0.344509 0.853006,0.784101 1.354614,1.101051 -0.154341,-0.598068 -0.866789,-0.993567 -1.311893,-1.440049"
       id="path18640"
       style="stroke-width:0.352778" />
    <path
       fill-rule="evenodd"
       fill="#231f20"
       fill-opacity="1"
       d="m 86.763039,24.464901 c 0.05236,-0.13367 -0.0248,-0.323839 -0.169499,-0.381717 -0.150206,0.0055 -0.143316,0.168121 -0.212221,0.254937 0.04272,0.0565 0.03997,0.157097 0.126781,0.169499 0.0055,-0.09371 0.179144,-0.01791 0.254939,-0.04272"
       id="path18642"
       style="stroke-width:0.352778" />
    <path
       fill-rule="evenodd"
       fill="#231f20"
       fill-opacity="1"
       d="m 86.381319,22.178736 c -0.319705,-0.217731 -0.17363,-1.310515 -0.719335,-1.185113 -0.126778,0.719336 0.431327,0.753786 0.423058,1.354611 0.112998,0 0.242535,0.01653 0.296277,-0.04272 z m 0,0"
       id="path18644"
       style="stroke-width:0.352778" />
    <path
       fill-rule="evenodd"
       fill="#231f20"
       fill-opacity="1"
       d="m 86.085042,22.601793 c -0.319705,0.01102 -0.350022,0.405144 -0.169499,0.593935 h 0.253559 c 0.0689,-0.212218 0.04548,-0.467155 -0.08406,-0.593935"
       id="path18646"
       style="stroke-width:0.352778" />
    <path
       fill-rule="evenodd"
       fill="#231f20"
       fill-opacity="1"
       d="m 86.211823,64.177205 c -0.271476,-0.533301 -0.691776,-0.917772 -1.058333,-1.354614 -0.243914,-0.305921 -0.350022,-0.749652 -0.676617,-0.97427 -0.122647,0.848872 0.898479,1.270551 1.227832,1.948544 0.197059,0.09784 0.292143,0.299035 0.507118,0.38034"
       id="path18648"
       style="stroke-width:0.352778" />
    <path
       fill-rule="evenodd"
       fill="#231f20"
       fill-opacity="1"
       d="m 85.280268,64.219923 c -0.197058,-0.267339 -0.348643,-0.609092 -0.592557,-0.720714 -0.106109,0.403764 0.263207,0.653192 0.465779,0.890213 0.227376,0.264583 0.383092,0.603582 0.677993,0.762057 0.0014,-0.05512 0.05374,-0.05926 0.04272,-0.128158 -0.158471,-0.261828 -0.394116,-0.53468 -0.593933,-0.803398"
       id="path18650"
       style="stroke-width:0.352778" />
    <path
       fill-rule="evenodd"
       fill="#231f20"
       fill-opacity="1"
       d="m 85.026709,66.886429 c -0.271473,-0.227379 -0.463021,-0.520901 -0.762057,-0.719339 -0.227375,0.505743 0.606337,0.836472 1.015616,1.142394 0.227376,0.169499 0.345888,0.388609 0.551215,0.381719 v -0.126781 c -0.248045,-0.25218 -0.531922,-0.450617 -0.804774,-0.677993"
       id="path18652"
       style="stroke-width:0.352778" />
    <path
       fill-rule="evenodd"
       fill="#231f20"
       fill-opacity="1"
       d="m 85.704705,23.956405 c -0.07717,-0.148828 -0.126781,-0.325217 -0.381719,-0.296279 -0.01792,0.158475 -0.03858,0.220487 -0.04272,0.465778 0.198437,0.0014 0.432703,0.03721 0.424437,-0.169499"
       id="path18654"
       style="stroke-width:0.352778" />
    <path
       fill-rule="evenodd"
       fill="#231f20"
       fill-opacity="1"
       d="m 118.03486,17.861342 c 0.85025,-0.07993 3.87228,0.130914 4.70049,0.126779 0.74414,-0.0041 1.27744,-0.07304 1.98988,0.169499 -0.13229,1.211296 0.0193,2.571419 0.0427,3.851617 0.0165,0.909505 -0.57188,2.327506 0.12678,3.09094 -0.11438,1.028016 -0.0896,2.196592 -0.46577,2.962781 0.23013,1.252637 -0.22463,2.487359 -0.0414,3.683496 0.0386,0.256316 0.2136,0.468533 0.25356,0.719336 0.0413,0.263206 -0.0689,0.500228 -0.0854,0.762056 -0.0344,0.558105 -0.011,1.219563 -0.0841,1.863107 -0.0744,0.655946 -0.24942,1.382172 -0.1695,1.989887 0.0207,0.158475 0.13643,0.297656 0.1695,0.464399 0.22049,1.128613 -0.0661,2.626541 -0.0427,4.106554 0.0179,1.117589 0.19843,2.304081 -0.12679,3.13228 -0.5457,0.340377 -0.37758,1.540647 -0.21083,2.202106 0.12677,0.514007 0.32935,3.548446 0.33762,4.080372 0.01,0.666969 -0.16399,1.340831 -0.21223,2.073945 -0.10059,1.553051 0.0248,2.940734 0,4.60127 -0.004,0.359667 -0.0882,0.730359 -0.0841,1.101051 0.0124,1.302248 0.21085,2.626544 0.1695,3.937057 -0.0455,1.435914 -0.33624,2.871833 -0.25355,4.52961 0.0248,0.516766 0.18741,1.01975 0.16811,1.524112 -0.0276,0.733115 -0.23288,1.44694 -0.25355,2.159385 -0.14194,0.07579 -1.3932,-1.018371 -1.73495,-0.804774 -0.29077,0.180523 0.11851,0.686262 0.25356,0.931555 0.20533,0.373447 0.35829,0.697287 0.50849,0.931552 0.3638,0.566374 1.04042,1.061089 1.26918,1.608169 0.26733,0.63941 0.21635,1.569586 0.1695,2.286166 -0.0634,0.988053 -0.18328,2.047766 -0.21223,3.09094 -0.0496,1.836925 0.15572,129.109771 0.0427,131.121711 -0.0234,0.43546 -0.13781,3.33623 -0.16812,3.74137 -0.21911,2.84979 0.0344,5.7795 0.0827,8.55211 -0.29352,0.0358 -1.00459,-0.0786 -1.26918,0.21084 0.0345,0.92466 0.60358,1.31603 1.017,1.86311 -0.4079,0.24253 -0.70832,0.58979 -1.18649,0.76205 -0.0455,0.66559 0.85713,0.38447 1.18649,0.67662 -0.19017,1.80523 0.34313,3.31005 0.50712,5.12216 0.14607,1.60542 -0.23427,3.39136 -0.38034,5.12355 -0.0689,0.80615 0.1061,1.6316 0.0841,2.45429 -0.0303,1.16582 -0.1254,4.819 -0.12677,5.94348 0,0.52227 0.1378,1.02664 0.12677,1.5241 -0.0207,0.86404 -0.15296,1.75838 -0.12677,2.62379 0.0441,1.46899 0.0703,3.26044 0,4.86861 -0.0482,1.09967 -0.0345,2.17041 -0.0841,3.21772 -0.04,0.81717 -0.1888,1.66329 -0.1695,2.497 0.0427,2.00505 0.0772,4.03076 0.1695,5.96967 -0.26321,0.0841 -0.8158,-0.16675 -1.017,0.0841 0.20809,0.75102 0.89435,1.02526 1.1865,1.6936 -0.39275,0.0317 -1.05972,-0.0593 -1.35599,0.0841 -10e-4,0.82683 1.04455,0.95498 1.52411,1.44005 0.31557,1.4497 0.12815,2.94763 0.0427,4.61505 -0.0138,0.26045 -0.11575,0.51539 -0.12815,0.76068 -0.022,0.52366 0.13642,1.04731 0.12815,1.56683 -0.0207,1.36701 -0.19154,2.74505 -0.29627,4.10655 -1.07487,-0.0716 -4.26365,0.0703 -5.20899,0.0841 -0.19706,0.003 -0.40376,-0.0882 -0.59255,-0.0841 -0.23014,0.004 -0.44097,0.11438 -0.678,0.12678 -0.452,0.0234 -0.90537,-0.0827 -1.35461,-0.0841 -0.90399,-0.003 -3.98666,0.0813 -4.86861,0 -0.86679,-0.0813 -1.71428,-0.21497 -2.58244,-0.1695 -0.33624,0.0165 -0.67111,0.11989 -1.017,0.12678 -0.30454,0.004 -0.61736,-0.0634 -0.93017,-0.0427 -0.30593,0.0193 -0.62563,0.11576 -0.93155,0.12679 -0.31695,0.0124 2.18832,-0.0606 1.87826,-0.0414 -0.33211,0.0193 -0.65181,0.16123 -0.97289,0.16812 -0.28526,0.007 -0.5898,-0.0786 -0.88884,-0.0841 -0.56913,-0.01 -4.15065,-0.04 -4.57509,-0.12678 -0.49884,-0.10197 -0.97978,0.0469 -1.481387,0 -0.129533,-0.0124 -0.217727,-0.0992 -0.338995,-0.12678 -0.766191,-0.175 -2.525945,0.0441 -3.176379,-0.25493 -0.879189,-0.40377 -1.291223,-1.07074 -2.116667,-1.69223 -0.494714,-0.37069 -1.123099,-0.8158 -1.649511,-1.22784 -0.184658,-0.14469 -0.344508,-0.32108 -0.508497,-0.42443 -0.03721,-0.0221 -0.708311,-0.33624 -0.762053,-0.29628 -0.312815,0.23427 0.264583,0.82131 0.423055,1.01699 0.698665,0.86128 1.531002,1.66881 2.032606,2.66651 -1.395952,0.0565 -2.953134,-0.2577 -4.572328,-0.12678 -1.430404,0.11575 -2.804308,0.98805 -3.894338,0.21084 -0.373447,0.0689 -0.657324,-0.18191 -0.974274,-0.21084 -0.378957,-0.0344 -0.716579,0.14056 -1.185111,0.0841 -0.158474,-1.01011 0.107488,-2.27101 0.126778,-3.51262 0.0069,-0.41341 0.150209,-0.82131 0.126781,-1.22783 -0.06477,-1.14377 -0.465776,-2.14837 -0.296277,-3.3445 0.380337,0.0469 0.650435,0.41616 1.016992,0.33899 0.395495,-0.60495 -0.498849,-0.87505 -0.635275,-1.35461 0.694531,0.33349 1.292599,0.76757 1.989885,1.09968 0.39412,-0.40928 -0.130912,-0.82131 -0.338998,-1.09968 -0.516763,-0.69039 -0.979784,-1.30086 -1.482768,-2.07532 -0.234265,-0.36243 -0.582908,-0.74965 -0.676617,-1.09968 -0.188792,-0.70831 -0.02205,-1.69085 -0.04272,-2.32888 0.02893,-0.19293 0.212217,0.10197 0.338995,0.0854 0.139185,-0.1571 -0.165364,-0.22738 -0.08406,-0.46716 0.297656,0.0841 0.398255,0.3638 0.760677,0.38172 -0.165364,-0.45613 -0.819933,-0.78548 -1.099672,-1.27055 0.09508,-0.43546 -0.0069,-0.89021 0.04134,-1.3119 0.02342,-0.19843 0.144695,-0.38722 0.170878,-0.59255 0.07579,-0.60358 -0.172254,-1.1796 -0.08544,-1.69361 0.02755,-0.16261 0.150206,-0.30317 0.169499,-0.46578 0.05788,-0.50987 -0.323839,-1.35599 -0.04272,-1.98851 -0.292145,-1.72392 -0.01654,-3.53328 -0.126781,-5.29166 -0.06339,-1.01148 -0.158475,-1.97749 -0.169499,-2.96416 -0.0069,-0.59394 -0.09646,-1.18512 -0.04134,-1.77767 0.06202,-0.67111 0.21911,-1.32981 0.168123,-1.98989 -0.139181,-1.83692 -0.05926,-6.11849 0.04272,-7.97471 0.0441,-0.81717 0.314195,-1.53926 0.381716,-2.32888 0.06477,-0.77308 -0.165364,-1.64813 -0.128157,-2.497 0.01517,-0.35278 0.05788,-0.68627 0.04272,-1.01562 -0.0372,-0.83923 0.07304,-1.59714 0.126781,-2.41294 0.04548,-0.66973 -0.201192,-1.37391 0.04272,-2.03261 0.48507,0.0344 0.516767,0.1254 1.015616,0.1695 0.420303,-0.50299 -0.152961,-0.99357 -0.549836,-1.18511 0.636651,-0.47267 0.219107,-1.33119 0.04134,-1.98989 -0.191547,-0.15159 -0.387226,-0.15021 -0.549836,-0.25356 -0.04134,-3.16673 0.01517,-6.26732 0,-9.39822 -0.0014,-0.46991 0.135047,-3.40927 0.1695,-3.86953 0.03443,-0.44373 -0.03306,-0.89848 -0.04134,-1.35461 -0.0096,-0.44235 0.08406,-0.88333 0.08406,-1.31189 0,-0.74001 -0.165364,-1.49793 -0.169499,-2.24345 -0.0096,-2.02847 -0.0096,-129.145605 0.253559,-131.164432 0.09233,-0.705556 0.108867,-1.475878 0.169499,-2.202103 0.08819,-1.040419 0.08406,-2.159388 0.08406,-3.216342 0,-3.40651 0.0565,-6.525009 0,-9.821276 0.514008,0.318325 0.77446,0.891589 1.270554,1.227829 -0.243914,-0.773077 -0.94258,-1.088648 -1.270554,-1.779044 0.126782,-0.08131 0.278367,0.230131 0.424438,0.381716 0.16812,0.17363 0.39412,0.319705 0.465776,0.507118 0.352778,0.296277 0.646299,0.65181 0.972894,0.974273 -0.367937,-0.84474 -1.145149,-1.648135 -1.904446,-2.243448 -0.158475,-2.105642 0.08543,-3.81992 0.08406,-5.78776 0,-0.40652 -0.132292,-0.804774 -0.126782,-1.227832 0.01379,-0.964625 0.180524,-4.55028 0.04272,-5.561761 -0.03447,-0.249424 -0.08819,-0.407899 -0.08406,-0.762056 0.0028,-0.296277 -0.08544,-0.606337 -0.08544,-0.931552 0,-0.31006 0.09646,-0.632521 0.08544,-0.930177 -0.02067,-0.467155 -0.135046,-0.903993 -0.128157,-1.354612 0.02342,-1.339453 0.05237,-2.723003 0.128157,-4.106553 -0.494714,-0.986676 -0.163985,-2.670639 -0.08544,-3.894336 0.112998,-1.744597 0.179144,-3.237012 0.296277,-4.82589 0.130912,-1.779047 -0.128158,-3.440962 0.169499,-4.82589 0.267338,0.169499 0.206706,0.578776 0.592557,0.549838 0.582909,-0.04548 0.282497,-1.019749 0,-1.354612 0.265959,0.0441 0.402385,0.0248 0.549836,-0.12678 0.08406,-0.423057 -0.126778,-0.817176 -0.296277,-1.185112 -0.163989,-0.359668 -0.217731,-0.752409 -0.38034,-1.058334 -0.176389,-0.332107 -0.580154,-0.474045 -0.635275,-0.804774 -0.0303,-0.180523 0.07441,-0.316949 0.08544,-0.508496 0.03168,-0.574642 -0.119892,-1.241612 -0.08544,-1.73495 1.316026,-0.03445 2.632053,0.06752 3.851617,-0.12678 0.545701,-0.08819 1.080382,-0.179144 1.652266,-0.254937 0.644924,-0.08406 1.18098,0.09646 1.777672,0.08544 1.258147,-0.02618 2.582443,0.03996 3.894335,0.08406 1.477257,0.05099 4.019737,0.0028 5.461168,0.08544 0.92053,0.05099 5.02708,-0.115755 5.9297,-0.08544 0.50987,0.01791 -1.78732,0.132292 -1.28571,0.12678 0.31832,-0.0028 0.71658,-0.113 1.09967,-0.169499 1.1989,-0.176389 2.51906,-0.214974 3.853,-0.253559 z m -8.04499,-1.016992 c -0.66973,0.07166 -1.32843,-0.06477 -1.94717,0 -0.19706,0.02205 -0.36518,0.14745 -0.54984,0.169498 -0.47817,0.05926 -0.94257,0.0069 -1.39732,0.08544 -0.43271,0.07304 1.97059,0.09371 1.58336,0.169499 -1.74597,-0.283876 -6.81991,0 -8.765701,0 -0.624251,0 -2.312349,-0.121268 -2.964159,-0.128158 -0.982542,-0.0083 -2.011937,0.05237 -2.962783,0 -0.312815,-0.01654 -0.591178,-0.150206 -0.890213,-0.168121 -0.293522,-0.01929 -0.598068,0.08682 -0.888834,0.08406 -0.519519,-0.0055 -1.036285,-0.124024 -1.565452,-0.08406 -0.999077,0.07304 -1.976106,0.43546 -2.921441,0.423058 -1.204404,-0.01654 -2.321994,-0.06477 -3.344499,-0.04272 -0.06752,0.115755 -0.111619,0.256315 -0.126778,0.423058 0.551216,0.646299 0.210838,1.845193 0.296277,2.921441 0.243914,0.09508 0.3955,0.281119 0.592558,0.423057 -0.03996,0.253559 0.254938,0.442351 0.381716,0.719336 0.129536,0.286632 0.201192,0.635276 0.253559,0.888835 -0.293522,-0.05099 -0.327974,-0.166743 -0.635275,-0.08406 -0.110243,0.263206 -0.03721,0.41479 0.04272,0.635276 -0.133668,-0.162608 -0.26596,-0.326595 -0.551216,-0.338997 -0.305922,0.361046 0,0.635275 0.04272,0.974272 0.06201,0.479558 -0.121268,0.97703 -0.126782,1.481392 -0.0014,0.14745 0.07304,0.30868 0.08406,0.465777 0.143316,1.941655 -0.205327,4.27743 -0.296277,6.30728 -0.02618,0.593935 0.0069,1.186491 -0.04134,1.736328 -0.04134,0.445107 -0.168119,0.881945 -0.169499,1.311893 -0.0041,0.771701 0.09233,1.497927 0.126781,2.200726 0.02067,0.417546 -0.188792,0.804775 0.126778,1.101053 -0.194303,0.731738 -0.01238,1.281575 0,1.904449 0.03172,1.550293 -0.08682,3.261816 0,4.827267 0.06891,1.236102 0.350023,4.91133 0,5.942101 0.177768,0.45751 0.09371,0.956359 0.08544,1.311892 -0.0041,0.144695 0.114378,0.272852 0.125402,0.423058 0.05788,0.78686 -0.08957,1.303623 -0.125402,1.850704 -0.0193,0.281122 0.03859,0.525032 0.04134,0.804774 0.0028,0.205328 -0.124023,0.421683 -0.126782,0.635275 -0.0069,0.63941 0.188793,1.281579 0.126782,2.073949 -0.04548,0.03168 -0.172255,-0.07441 -0.296281,0.04272 0.03997,0.290767 0.235645,0.391365 0.296281,0.633899 0.216351,0.870921 -0.0083,1.97473 -0.04134,2.921441 -0.01792,0.48369 0.110244,0.964625 0.125402,1.44005 0.0303,0.87781 0.08406,2.13458 0,3.175 -0.05788,0.735873 -0.195682,1.769402 -0.168119,2.666502 0.0193,0.628386 -0.05512,1.291223 -0.04272,1.90445 0.0069,0.341753 0.110243,0.661458 0.08544,0.974273 -0.01517,0.172255 -0.106108,0.341754 -0.128157,0.507118 -0.118512,0.909507 -0.06064,1.871377 -0.169499,2.837381 -0.01654,0.146071 -0.111622,0.279743 -0.126778,0.423058 -0.07028,0.719336 0.02755,1.532379 0,2.328884 -0.03997,1.201649 -0.06201,127.806152 0,128.919602 0.03858,0.68764 0.01792,1.3615 0.04272,1.98989 0.07855,2.04225 -0.16123,6.38169 -0.08406,8.4832 0.02618,0.71382 -0.186037,1.40835 -0.170878,1.98989 0.01379,0.51125 0.188793,0.98254 0.170878,1.48139 -0.03859,1.01699 -0.06064,1.97197 -0.128157,3.0055 0.296277,0.226 0.424434,0.62011 0.847493,0.71933 0.01101,0.21498 0.07166,0.38034 0.126781,0.55122 -0.129537,0.27423 -0.514012,0.4396 -0.762057,0.4644 0.09646,0.0455 0.01655,0.26734 0.04272,0.38172 0.221866,0.19981 0.629765,0.26596 0.719339,0.50849 -0.286632,0.0469 -0.617361,-0.26183 -0.888838,-0.0854 0.05512,2.14836 -0.299032,5.17454 -0.04272,7.32428 0.09371,0.78272 -0.137802,1.47863 -0.253559,2.24344 -0.279742,1.85208 -0.214972,5.91868 -0.253559,7.72115 -0.01101,0.48093 0.125402,0.98668 0.125402,1.48139 0,1.77354 -0.289387,3.57601 -0.16812,5.33439 0.04961,0.71244 0.206703,1.37528 0.210838,2.07394 0.0055,0.76206 0.04823,1.52825 0.04272,2.28617 -0.0055,0.93431 -0.241159,1.91547 -0.126781,2.79328 0.01517,0.11438 0.104733,0.23013 0.126781,0.339 0.07717,0.37345 -0.02893,0.75241 0.08544,1.10105 -0.385851,0.64493 0.03859,1.41663 -0.08544,2.15801 -0.05237,0.31557 -0.195682,0.54708 -0.210841,0.84749 -0.02893,0.51677 0.07993,1.00873 0.125402,1.60818 0.04823,0.60909 -0.173634,1.2168 -0.16812,1.82038 0.0055,0.82958 0.08957,1.48139 0.380337,1.98989 0.389985,0.28663 0.658703,0.69591 0.846116,1.18511 0.560861,0.4272 1.032151,1.17133 1.313272,1.73633 -0.785484,-0.27423 -1.423515,-0.91777 -2.116667,-1.14377 -0.29628,0.7028 0.58153,0.8599 0.719336,1.48139 -0.446487,-0.0482 -0.603582,-0.56637 -0.974274,-0.33762 0.150206,1.1672 0.0096,2.72852 0.381716,3.81028 -0.101974,0.40376 -0.133671,0.84611 -0.126778,1.26917 0.0248,1.45383 -0.478179,2.93246 -0.04272,4.19061 0.216352,0.11852 0.403765,0.0138 0.551215,0.21222 -0.0083,-0.25493 0.199817,-0.32521 0.337619,-0.38034 0.829582,-0.33761 1.795586,0.36105 2.541104,0.4644 0.289388,-0.0303 0.72347,-0.0841 1.142394,-0.16812 0.559484,-0.11438 1.091406,-0.42443 1.440049,-0.1695 0.16123,-0.39825 1.04593,-0.26045 1.395952,-0.12678 0.373451,-0.18052 0.887459,-0.11437 1.44005,-0.0854 0.365181,0.0193 0.77446,-0.0372 1.058333,0 0.220486,0.0289 0.423058,0.20396 0.635275,0.21222 0.372071,0.0138 0.746898,-0.12953 1.099675,0.0413 0.276987,-0.42443 -0.293521,-0.7028 -0.507118,-0.93017 -0.254934,-0.2701 -0.551215,-0.59118 -0.763432,-0.89022 -0.461641,-0.65181 -1.098296,-1.16168 -1.311892,-1.86172 0.525032,0.18603 0.808909,0.66559 1.27055,0.97289 0.144695,0.0978 0.350023,0.1006 0.508498,0.21222 0.844737,0.59807 1.540647,1.50895 2.327504,2.11667 0.169499,0.12953 0.372071,0.32108 0.508497,0.38033 0.307301,0.13505 0.472666,0.003 0.762057,0 0.496093,-0.003 1.978861,0.0772 2.328883,0.1695 1.558566,0.0551 3.693146,0.21222 5.658226,0.0854 0.63665,-0.0413 1.27744,-0.0854 1.94717,-0.0854 0.64354,10e-4 1.2926,-0.17088 1.90583,-0.1695 0.19843,0.001 0.38309,0.12265 0.59255,0.12816 0.20533,0.004 0.43408,-0.0868 0.63528,-0.0854 0.33624,0.003 0.66146,0.0937 1.01561,0.12678 0.45889,0.0427 0.94534,-0.0234 1.39733,0 1.12586,0.062 4.3546,0.12265 5.37711,-0.0413 0.46026,0.13367 1.00045,0.11438 1.35461,0.0841 0.35553,-0.0303 2.71198,0.003 3.00825,0 0.36519,-0.003 0.69316,-0.0744 1.05834,-0.0427 0.339,0.0303 0.70418,0.15434 1.01561,-0.0413 -0.15296,-1.45383 0.23978,-2.92971 0.21222,-4.52961 -0.01,-0.4768 -0.15985,-0.92604 -0.12816,-1.39733 0.11852,-1.80523 0.47267,-4.04317 0,-6.011 -0.45199,-0.1888 -0.87505,-0.18604 -1.09967,-0.55122 0.29628,-0.0469 1.40422,0.27974 1.43867,-0.21084 0.0152,-0.22186 -0.32384,-0.31832 -0.46577,-0.46577 -0.28664,-0.29904 -0.62563,-0.78549 -0.76206,-1.01562 0.39549,0.011 0.5774,0.29215 0.84749,0 -0.46853,-1.56821 -0.27009,-3.49195 -0.34037,-5.46254 -0.0537,-1.59302 0.0427,-3.19016 0.0427,-4.69774 0,-2.38538 0.31282,-4.96644 0.21223,-7.45105 -0.0414,-1.05695 0.0303,-2.07395 -0.0414,-3.09094 -0.11024,-1.51722 0.12954,-5.03259 0.0841,-6.40787 -0.0303,-0.90538 -0.12402,-1.83004 -0.0841,-2.58245 0.0317,-0.62425 0.16399,-1.2609 0.21084,-1.90582 0.0496,-0.66008 0.16674,-1.31603 0.1695,-1.94579 0.005,-1.53101 -0.24253,-2.98208 -0.46578,-4.44556 -0.12677,-0.8282 0.22738,-1.91271 -0.12815,-2.37022 -0.13918,-0.1006 -0.50023,0.0207 -0.59118,-0.12816 0.25769,-0.33348 0.7965,-0.38723 0.93155,-0.84612 -0.40652,-0.51124 -1.03628,-0.79788 -1.22783,-1.5241 0.38585,-0.1819 0.79099,0.0289 1.1424,0.12678 0.29627,-0.33073 0.11161,-0.76068 0.0854,-1.1424 -0.17776,-2.42397 -0.27423,-4.68395 -0.16949,-7.06934 0.0262,-0.60495 0.12539,-3.64766 0.16949,-4.24986 0.2136,-2.98483 -0.11851,-131.005955 0.0841,-133.534655 0.0455,-0.573264 0.19706,-1.118965 0.21222,-1.652267 0.008,-0.345888 -0.073,-0.960494 -0.0854,-1.438673 -0.007,-0.272853 0.0772,-0.502984 -0.0413,-0.635275 -0.62839,-0.691776 -1.64813,-1.482768 -1.77905,-2.412944 0.46165,0.165365 0.91502,0.544326 1.10106,0.847492 0.59944,-0.103353 0.37207,-0.389985 0.339,-0.847492 -0.0234,-0.30317 -0.0372,-1.066602 0.0841,-1.397331 0.0689,-0.188793 0.23013,-0.228756 0.25493,-0.380341 0.0785,-0.504359 -0.26872,-1.35461 -0.33899,-2.116666 -0.0675,-0.719335 0.0634,-1.412487 0.0841,-2.032604 0.0138,-0.427192 -0.0662,-0.883323 0,-1.311892 0.0482,-0.30868 0.2067,-0.585667 0.21221,-0.931555 0.011,-0.79513 -0.22186,-2.042252 0,-2.455665 -0.14469,-0.49747 -0.24805,-1.623328 -0.0427,-2.243445 -0.113,-2.039496 -0.12126,-3.985288 0.0427,-5.829102 0.0634,-0.713825 0.2136,-1.28433 0.0841,-1.90445 -0.14331,-0.694531 -0.58567,-3.943942 -0.38033,-4.885143 0.31832,-0.16123 0.35828,-0.599447 0.59117,-0.846116 -0.34451,-2.536968 -0.0455,-5.269618 -0.25218,-7.704612 0.21911,-0.602202 -0.0124,-1.194758 0.0413,-1.905826 0.0758,-1.007346 0.35416,-2.135959 0.25494,-3.089562 -0.0427,-0.396875 -0.2701,-0.762055 -0.29628,-1.143772 -0.0317,-0.46302 0.14883,-1.059711 0.16812,-1.565451 0.01,-0.264583 -0.0813,-0.49885 -0.0413,-0.720714 0.0303,-0.170876 0.16674,-0.336241 0.21084,-0.507118 0.20395,-0.790994 0.0978,-1.660536 0.29628,-2.412945 -0.0165,-0.398253 -0.22324,-0.815798 -0.29628,-1.270551 -0.14056,-0.8847 0.1006,-1.554427 0.1695,-2.327506 0.0813,-0.903993 -0.1695,-1.845194 -0.12678,-2.541103 0.0207,-0.337619 0.16123,-0.665592 0.21084,-0.972895 -0.15572,-0.336241 -0.19706,-0.60358 -0.339,-0.888834 -1.80661,-0.221864 -5.74366,-0.275608 -7.70599,-0.169499 z m 0,0"
       id="path18658"
       style="stroke-width:0.352778" />
    <path
       fill-rule="evenodd"
       fill="#231f20"
       fill-opacity="1"
       d="m 83.080397,261.83818 v 0.38034 c 0.531922,0.11988 0.848872,0.67248 1.397332,0.63527 v -0.12678 c -0.534681,-0.19844 -0.8723,-0.95498 -1.397332,-0.88883"
       id="path18656"
       style="stroke-width:0.352778" />
  </g>
</svg>
