<?xml version="1.0" encoding="UTF-8" standalone="no"?>
<!-- Created with Inkscape (http://www.inkscape.org/) -->

<svg
   width="88.946045mm"
   height="93.435379mm"
   viewBox="0 0 88.946045 93.435379"
   version="1.1"
   id="svg24386"
   sodipodi:docname="Medium_Box.svg"
   inkscape:version="1.2.2 (b0a84865, 2022-12-01)"
   xmlns:inkscape="http://www.inkscape.org/namespaces/inkscape"
   xmlns:sodipodi="http://sodipodi.sourceforge.net/DTD/sodipodi-0.dtd"
   xmlns="http://www.w3.org/2000/svg"
   xmlns:svg="http://www.w3.org/2000/svg">
  <sodipodi:namedview
     id="namedview24458"
     pagecolor="#ffffff"
     bordercolor="#000000"
     borderopacity="0.25"
     inkscape:showpageshadow="2"
     inkscape:pageopacity="0.0"
     inkscape:pagecheckerboard="0"
     inkscape:deskcolor="#d1d1d1"
     inkscape:document-units="mm"
     showgrid="false"
     inkscape:zoom="0.70201735"
     inkscape:cx="-0.71223311"
     inkscape:cy="176.63381"
     inkscape:window-width="1309"
     inkscape:window-height="456"
     inkscape:window-x="0"
     inkscape:window-y="25"
     inkscape:window-maximized="0"
     inkscape:current-layer="svg24386" />
  <defs
     id="defs24383" />
  <g
     id="layer1"
     transform="rotate(-90,-50.992562,53.034407)">
    <path
       fill-rule="evenodd"
       fill="#231f20"
       fill-opacity="1"
       d="m -85.170312,108.17958 c 0.126781,-0.0951 0.214976,-0.32384 0.126781,-0.50849 -0.119891,-0.051 -0.292146,-0.0469 -0.465779,-0.0427 0.08406,0.21223 0.09371,0.49886 0.338998,0.55122"
       id="path18702"
       style="stroke-width:0.352778" />
    <path
       fill-rule="evenodd"
       fill="#231f20"
       fill-opacity="1"
       d="m -86.779861,107.58703 c -0.0937,-0.1323 -0.141936,-0.31006 -0.423058,-0.25494 -0.205327,0.15985 -0.07717,0.34589 0.04272,0.5085 0.235641,0.0234 0.383091,-0.04 0.380336,-0.25356"
       id="path18704"
       style="stroke-width:0.352778" />
    <path
       fill-rule="evenodd"
       fill="#231f20"
       fill-opacity="1"
       d="m -83.349922,105.42764 c -0.05926,-0.0689 -0.119892,-0.13367 -0.1695,-0.21222 -0.214975,-0.0303 -0.305925,0.062 -0.381716,0.1695 0.02755,0.39136 0.49196,0.41066 0.551216,0.0427"
       id="path18706"
       style="stroke-width:0.352778" />
    <path
       fill-rule="evenodd"
       fill="#231f20"
       fill-opacity="1"
       d="m -85.170312,105.63848 c 0.359667,0.0675 0.620116,-0.13367 0.423058,-0.38034 -0.172254,0.0758 -0.249424,0.0827 -0.465776,0.0427 -0.0096,0.13643 0.07441,0.17914 0.04272,0.33762"
       id="path18708"
       style="stroke-width:0.352778" />
    <path
       fill-rule="evenodd"
       fill="#231f20"
       fill-opacity="1"
       d="m -88.134471,104.83508 c 0.403765,0.26596 0.300412,1.59715 0.974274,1.18512 -0.190172,-0.48645 -0.47956,-0.68489 -0.46578,-1.14378 0.790995,-0.0331 0.569129,1.39182 1.270554,1.60955 0.23151,-0.56224 -0.46578,-1.0914 -0.551215,-1.65089 1.974726,-0.3321 59.070983,0.2012 60.949249,-0.12678 0.981163,0.23013 1.405597,-0.52089 2.217261,0.0841 0.276987,0.20671 0.181903,0.63528 0.551216,0.71934 0.213596,0.0496 0.61185,-0.20119 0.762056,-0.29628 0.418924,0.32109 0.935687,-0.0482 1.43867,-0.12678 0.02067,0.30455 -0.03306,0.48783 0.08544,0.80477 1.066603,-0.0648 1.679829,-1.19751 2.750566,-1.35461 0.231511,-0.0345 0.469911,0.0179 0.677993,0 0.862651,-0.0772 13.0651814,-0.40101 13.8423932,0.12679 1.6219522,0.19016 3.53604678,-0.38861 5.1235467,0.0841 -0.1598506,0.98942 0.2728525,1.58336 -0.085439,2.3716 0.011007,0.0524 0.08406,0.0427 0.085439,0 -0.08406,1.86586 0.1419366,3.16397 0.1267813,4.99539 -0.3844748,0.27974 -0.94671441,0.38033 -1.22783243,0.76205 0.0330553,0.27699 0.5388116,0.30592 0.54983591,0.4644 -0.76756682,0.41892 -1.91822913,0.45338 -2.49700338,1.05833 0.3458845,0.68351 1.87826292,0.18191 2.41294349,0.678 0.20119271,-0.0262 0.30041141,-0.0413 0.46577601,0.0427 0.208086,1.37666 0.056501,3.13917 0.1267813,4.82589 0.039963,0.96876 -0.2053273,1.88102 -0.2549384,2.836 -0.059256,1.16444 0.067525,53.88267 0.042718,55.03195 -0.013794,0.61323 -0.1253984,1.28434 -0.1267778,1.82039 -0.00141,0.59118 -0.14882987,1.22094 -0.12678126,1.77767 0.009666,0.25218 0.11989156,0.47956 0.12678126,0.72071 0.026176,0.89986 -0.097839,2.89113 -0.12678126,3.76756 -0.0372039,1.11346 -0.0647665,2.2779 -0.16949561,3.42994 -0.0909532,1.00183 0.002822,1.98851 -0.0840634,2.92006 -0.0826805,-0.0179 -0.15296091,0.0289 -0.0854357,0.0427 -0.32108421,0.12403 -0.60220223,-0.0344 -0.93155556,-0.0841 -1.50068137,-0.22876 -14.77394537,-0.0386 -16.51027537,0.12678 -0.09784,-0.0138 -0.175009,-0.051 -0.253559,-0.0854 -1.81212,0.20395 -3.701411,0.16399 -5.545225,0 -0.248045,-0.28801 -0.427193,-0.64492 -0.762057,-0.84611 -0.326594,0.0965 -0.389981,0.45613 -0.551215,0.71933 -0.278363,-0.50298 -1.708767,-2.10151 -1.734947,-0.38034 -0.276987,-0.0331 0.599444,-0.25769 0.363802,-0.25493 -0.338998,0.005 -0.509877,0.42719 -0.676617,0.67799 -0.533301,-0.15434 -1.984375,0.062 -2.565908,0.12678 -0.666972,0.0744 -55.962129,-0.0496 -56.562955,0.0427 -0.388606,0.0593 -0.8847,-0.01 -1.35461,0 -0.775836,0.0138 -1.5875,0.0744 -2.328884,0 -0.62701,-0.0634 -1.158931,-0.42857 -1.90445,-0.25494 -0.01517,-0.60909 -0.0096,-1.32842 0.126778,-1.98851 0.638034,-0.31557 1.508954,-0.53054 2.243448,-0.89021 0.423058,-0.20533 1.054199,-0.3955 0.974273,-0.97289 -0.730362,0.0289 -1.431783,0.18741 -2.159388,0.33899 0.07855,-0.19016 0.113002,-0.42305 0.254939,-0.55121 -0.07855,-0.16123 -0.129537,-0.3514 -0.296277,-0.42306 -0.424438,0.0469 -0.837847,0.37758 -1.101055,0 0.202572,-1.08589 0.09508,-3.22737 0.08406,-4.31877 -0.01655,-1.60542 0.07166,-3.24115 0.04272,-4.82589 -0.01792,-0.99219 -0.03996,-2.03261 -0.04272,-3.04822 -0.0014,-0.67524 0.209462,-52.85741 0.169499,-53.50784 -0.02893,-0.49334 -0.151585,-0.91227 -0.126778,-1.39734 0.07993,-1.58887 0.299033,-3.20256 0.338995,-4.61367 0.01379,-0.50849 -0.03858,-1.03215 -0.126778,-1.48277 -0.06615,-0.3321 0.0248,-0.73174 0.04134,-1.18511 0.01379,-0.3638 -0.07304,-0.73449 -0.08406,-1.09967 -0.01379,-0.42306 0.06752,-0.8351 0.08406,-1.22784 0.0248,-0.55672 -0.0689,-1.0914 -0.04134,-1.56683 0.02205,-0.41203 0.100599,-0.78961 0.04134,-1.18511 -0.0303,-0.20395 -0.104732,-0.36104 -0.126781,-0.54983 -0.04961,-0.42306 -0.01242,-0.85577 -0.169499,-1.27056 0.275608,-0.57326 -0.09646,-0.76205 -0.126778,-1.31189 0.777212,-0.21497 1.67845,-0.226 2.539725,-0.1695 m -2.582446,3.21634 c 0.128161,0.54157 0.05788,0.77722 0.04272,1.44005 -0.0096,0.38448 0.114378,0.79789 0.08544,1.10106 -0.07993,0.81993 -0.06615,1.71152 -0.04272,2.62378 0.0193,0.8034 0.04823,1.6316 0.04272,2.41295 -0.0014,0.1819 0.06477,0.36931 0.04134,0.55121 -0.01655,0.12678 -0.115753,0.2508 -0.126778,0.38034 -0.0303,0.34726 0.137802,0.72347 0.126778,1.05833 -0.01792,0.54846 -0.170875,1.11208 -0.210838,1.65089 -0.04685,0.61599 -0.14056,1.24851 -0.08544,1.86311 0.08682,0.96738 0.03721,53.41965 0.04272,54.4394 0.0028,0.73863 -0.0303,1.4993 -0.126778,2.15938 0.16123,1.67156 0.106109,3.401 0.126778,4.90995 0.0069,0.54019 -0.08957,2.14837 -0.08544,2.71061 0.0014,0.14744 0.08406,0.31832 0.08544,0.46577 0.0014,0.74828 -0.467155,1.52136 -0.126778,2.32751 0.32246,0.21497 0.821309,0.14331 1.058334,0.0427 -0.202572,0.29076 -0.985298,0.56361 -0.888835,0.88883 0.09922,0.34038 0.720715,0.23289 1.142394,0.0854 0.389985,-0.1378 0.766187,-0.42444 1.143772,-0.38171 -0.766191,0.5016 -1.959571,0.74689 -2.710603,1.01699 0.305925,0.79375 0.224621,2.02158 -0.210838,2.62378 0.122643,0.10335 0.235642,0.21635 0.338995,0.339 0.270097,-0.011 0.54157,-0.23978 0.846116,-0.25356 0.32384,-0.0165 0.779971,0.2067 1.185115,0.25356 1.34772,0.15572 3.175,-0.0482 4.615049,-0.0427 0.668348,0.003 56.952937,-0.10473 57.307095,0.12678 0.467155,-0.23703 1.546157,0.13643 1.693608,-0.42306 -0.0441,-0.0496 -0.122647,-0.42857 0.126781,-0.50712 0.396875,0.0827 -0.578778,0.62425 -0.152964,0.67662 0.395499,-0.26458 0.01379,-0.81993 0.338998,-1.14239 0.686262,0.24529 0.6463,1.2168 1.27055,1.52411 0.321085,-0.15986 0.259073,-0.70142 0.54984,-0.89022 0.25769,0.72623 0.730359,0.69867 1.609548,0.76206 1.063844,0.0786 2.348177,0.0331 3.175,-0.0413 1.328427,-0.11989 14.1124871,-0.0648 15.4092205,-0.12816 1.1355035,-0.0537 2.0009132,-0.19293 3.00550087,0 0.45475524,0.0882 0.85438542,0.29903 1.31189233,0.1695 0.2700972,-0.27147 0,-0.54295 -0.042718,-0.8034 -0.042718,-0.27009 0.097839,-0.4892 0.085439,-0.76205 -0.0055,-0.10887 -0.1129982,-0.22738 -0.1267812,-0.339 -0.067522,-0.5526 -0.01517,-1.1796 0.041342,-1.77767 0.057877,-0.60634 0.1088637,-1.09416 0.1281571,-1.69361 0.012418,-0.4079 0.1226467,-0.81718 0.1267813,-1.18511 0.0055,-0.57051 -0.1116224,-2.17592 -0.085439,-2.7106 0.039963,-0.77722 0.028928,-1.51033 0,-2.28617 -0.034466,-0.93844 0.1515851,-1.91409 0.212217,-2.87872 0.082684,-1.31189 -0.066146,-54.22304 -0.042718,-55.54045 0.016545,-0.85438 0.2742282,-1.67983 0.2549348,-2.497 -0.00413,-0.14745 -0.048228,-0.2825 -0.042718,-0.42306 0.060635,-1.70463 0.079925,-3.26871 0,-4.95267 -0.1626094,-0.10887 -0.049608,-0.23151 -0.1694992,-0.38172 -0.62700597,-0.091 -1.52410926,-0.051 -2.2434443,-0.25356 0.21497219,-0.0951 0.4492378,-0.17225 0.71933504,-0.21222 0.31419094,-0.47404 1.84243826,-0.22462 1.90444956,-0.67661 0.075791,-0.54708 -0.6242508,-0.42995 -0.97289752,-0.63528 C 1.274021,112.68852 1.643337,112.621 1.99887,112.53969 c 0.00825,-2.2462 -0.281118,-3.65317 -0.08406,-5.71472 0,-0.113 0.133671,-0.0923 0.1267777,-0.21222 -0.1818992,-0.43821 -0.2618246,-1.52824 -0.1694956,-2.32888 -0.4712899,-0.0207 -0.90812755,-0.0882 -1.22783241,-0.12678 -1.31189233,-0.15848 -2.83187059,0.40928 -4.19061539,0.12678 -0.3059253,-0.0634 -9.7413513,-0.23151 -10.0762153,-0.25356 -0.321084,-0.0207 -2.969672,0.0606 -3.344499,0.0841 -0.733114,0.0469 -1.401462,-0.0138 -1.988509,0.25494 -0.48369,0.39136 -0.930176,0.81855 -1.609549,1.01561 0.02618,-0.30317 0.224621,-0.59669 0.08544,-0.93155 -0.09646,0.0124 -0.15985,-0.01 -0.169499,-0.0841 -0.443727,0.1061 -0.63114,0.46991 -1.143772,0.50711 -0.09646,-0.0427 0.0014,-0.28249 -0.16812,-0.25356 -0.464397,0.0579 -0.620116,0.42444 -1.101051,0.46578 -0.195682,-0.51125 -0.514008,-0.78548 -1.101055,-0.84611 -1.134124,-0.11714 -1.885156,0.25907 -3.107475,0.0841 -0.935686,0.14607 -57.245083,-0.0744 -58.15459,-0.0841 -0.979783,-0.011 -2.073945,0.35691 -2.750562,0.0413 -0.0565,0.0427 -0.08406,0.11437 -0.170878,0.12816 -0.625627,-0.20533 -1.579231,0.051 -2.327505,-0.0427 -0.179144,0.17776 -0.507118,0.21497 -0.549839,0.54983 -0.03306,0.24805 0.259073,0.54846 0.337622,0.8475 0.114374,0.42581 -0.0014,1.56131 0.169496,2.28478"
       id="path18710"
       style="stroke-width:0.352778" />
    <path
       fill-rule="evenodd"
       fill="#f9e3b3"
       fill-opacity="1"
       d="m -87.202919,107.33209 c 0.281122,-0.0551 0.329353,0.12264 0.423058,0.25494 0.0028,0.21359 -0.144695,0.27698 -0.380336,0.25356 -0.119892,-0.16261 -0.248049,-0.34865 -0.04272,-0.5085 m 2.159388,0.339 c 0.08819,0.18465 0,0.41341 -0.126781,0.50849 -0.24529,-0.0524 -0.254939,-0.33899 -0.338998,-0.55122 0.173633,-0.004 0.347267,-0.008 0.465779,0.0427 m 0.296277,-2.41295 c 0.197058,0.24667 -0.06339,0.44786 -0.423058,0.38034 0.03168,-0.15848 -0.05237,-0.20119 -0.04272,-0.33762 0.216352,0.04 0.293522,0.0331 0.465776,-0.0427 m 1.227832,-0.0427 c 0.04961,0.0786 0.110244,0.14332 0.1695,0.21222 -0.05926,0.36794 -0.523657,0.34864 -0.551216,-0.0427 0.07579,-0.10749 0.166741,-0.19982 0.381716,-0.1695 m -7.027996,1.10105 c 0.157099,0.41479 0.119892,0.8475 0.169499,1.27056 0.02205,0.18879 0.09646,0.34588 0.126781,0.54983 0.05926,0.3955 -0.0193,0.77308 -0.04134,1.18511 -0.02755,0.47543 0.06615,1.01011 0.04134,1.56683 -0.01655,0.39274 -0.09784,0.80478 -0.08406,1.22784 0.01101,0.36518 0.09784,0.73587 0.08406,1.09967 -0.01655,0.45337 -0.107487,0.85301 -0.04134,1.18511 0.08819,0.45062 0.140561,0.97428 0.126778,1.48277 -0.03996,1.41111 -0.259069,3.0248 -0.338995,4.61367 -0.0248,0.48507 0.09784,0.904 0.126778,1.39734 0.03996,0.65043 -0.170875,52.8326 -0.169499,53.50784 0.0028,1.01561 0.0248,2.05603 0.04272,3.04822 0.02893,1.58474 -0.05926,3.22047 -0.04272,4.82589 0.01242,1.0914 0.118512,3.23288 -0.08406,4.31877 0.263208,0.37758 0.676617,0.0469 1.099676,0 0.168119,0.0717 0.219106,0.26183 0.297656,0.42306 -0.140561,0.12816 -0.176389,0.36105 -0.254939,0.55121 0.727605,-0.15158 1.429026,-0.31006 2.159388,-0.33899 0.07993,0.57739 -0.551215,0.76756 -0.974273,0.97289 -0.734494,0.35967 -1.605414,0.57464 -2.243448,0.89021 -0.136426,0.66009 -0.141937,1.37942 -0.126778,1.98851 0.744139,-0.17363 1.27744,0.19155 1.90445,0.25494 0.741384,0.0744 1.553048,0.0138 2.328884,0 0.46991,-0.01 0.966004,0.0593 1.35461,0 0.600826,-0.0923 55.895983,0.0317 56.562955,-0.0427 0.581533,-0.0648 2.032607,-0.28112 2.565908,-0.12678 0.16674,-0.2508 0.337619,-0.67248 0.676617,-0.67799 0.235642,-0.003 -0.640789,0.22186 -0.363802,0.25493 0.02618,-1.72117 1.456584,-0.12264 1.734947,0.38034 0.161234,-0.2632 0.224621,-0.62287 0.551215,-0.71933 0.334864,0.20119 0.514012,0.5581 0.762057,0.84611 1.843814,0.16399 3.733105,0.20395 5.545225,0 0.07855,0.0345 0.15572,0.0717 0.253559,0.0854 1.73633,-0.16536 15.0095939,-0.35554 16.51027523,-0.12678 0.32935333,0.0496 0.61047135,0.20809 0.93155556,0.0841 -0.0675252,-0.0138 0.002822,-0.0606 0.0854357,-0.0427 0.0868186,-0.93155 -0.006879,-1.91823 0.0840634,-2.92006 0.10472914,-1.15204 0.13229166,-2.31648 0.16949561,-3.42994 0.0289278,-0.87643 0.1529645,-2.8677 0.1267813,-3.76756 -0.00688,-0.24115 -0.11713283,-0.46853 -0.1267813,-0.72071 -0.0220486,-0.55673 0.125402,-1.18649 0.1267813,-1.77767 0.00141,-0.53605 0.1129983,-1.20716 0.1267778,-1.82039 0.0248,-1.14928 -0.101974,-53.86751 -0.042718,-55.03195 0.049611,-0.95498 0.294901,-1.86724 0.2549384,-2.836 -0.07028,-1.68672 0.081305,-3.44923 -0.1267813,-4.82589 -0.1653646,-0.0841 -0.2645833,-0.0689 -0.46577605,-0.0427 -0.53468057,-0.49609 -2.06705895,0.005 -2.41294345,-0.678 0.57877421,-0.60495 1.72943652,-0.63941 2.49700334,-1.05833 -0.0110067,-0.15848 -0.51676299,-0.18741 -0.54983591,-0.4644 0.28111802,-0.38172 0.84335767,-0.48231 1.22783247,-0.76205 0.01517,-1.83142 -0.2108411,-3.12953 -0.1267813,-4.99539 -0.00141,0.0427 -0.074415,0.0524 -0.085439,0 0.3582917,-0.78824 -0.074411,-1.38218 0.085439,-2.3716 -1.58749996,-0.47267 -3.5015945,0.1061 -5.1235467,-0.0841 -0.7772118,-0.5278 -12.9797421,-0.20396 -13.8423931,-0.12679 -0.208082,0.0179 -0.446482,-0.0345 -0.676617,0 -1.072113,0.1571 -1.685339,1.28985 -2.751942,1.35461 -0.118512,-0.31694 -0.06477,-0.50022 -0.08544,-0.80477 -0.502983,0.0786 -1.019746,0.44787 -1.43867,0.12678 -0.150206,0.0951 -0.54846,0.34589 -0.762056,0.29628 -0.369313,-0.0841 -0.274229,-0.51263 -0.551216,-0.71934 -0.811664,-0.60495 -1.236098,0.14607 -2.217261,-0.0841 -1.878266,0.32798 -58.974523,-0.20532 -60.949249,0.12678 0.08544,0.55949 0.782725,1.08865 0.549835,1.65089 -0.700045,-0.21773 -0.478179,-1.64262 -1.269174,-1.60955 -0.01379,0.45889 0.275608,0.65733 0.46578,1.14378 -0.673862,0.41203 -0.569133,-0.91916 -0.974274,-1.18512 -0.861275,-0.0565 -1.762513,-0.0455 -2.539725,0.1695 0.0303,0.54984 0.402386,0.73863 0.126778,1.31189"
       id="path18712"
       style="stroke-width:0.352778" />
  </g>
</svg>
