<?xml version="1.0" encoding="UTF-8" standalone="no"?>
<!-- Created with Inkscape (http://www.inkscape.org/) -->

<svg
   width="101.73504mm"
   height="162.40186mm"
   viewBox="0 0 101.73504 162.40186"
   version="1.1"
   id="svg23904"
   xmlns="http://www.w3.org/2000/svg"
   xmlns:svg="http://www.w3.org/2000/svg">
  <defs
     id="defs23901" />
  <g
     id="layer1"
     transform="rotate(-90,-66.734889,-86.140561)">
    <path
       fill-rule="evenodd"
       fill="#231f20"
       fill-opacity="1"
       d="m -158.16704,72.253173 c -0.15571,0.0441 -0.54157,0.198437 -0.29628,0.508494 0.67249,-0.438217 1.45246,-0.0055 2.15801,-0.169499 -0.41203,-0.180524 -1.32154,-0.487825 -1.86173,-0.338995"
       id="path18678"
       style="stroke-width:0.352778" />
    <path
       fill-rule="evenodd"
       fill="#231f20"
       fill-opacity="1"
       d="m -153.46793,-13.014318 c -0.01,0.278364 0.11025,0.508496 0,0.762055 -0.11851,0.271474 -0.48782,0.451997 -0.71933,0.677995 -0.24116,0.234266 -0.41066,0.483691 -0.63528,0.719336 0.27561,0.485069 0.96463,0.738628 1.18511,1.1437714 -0.12264,0.3307292 -0.40238,0.6876411 -0.42305,1.0583333 -0.0138,0.243913 0.15847,0.5567278 0.21084,0.8461156 0.12402,0.6697267 0.15158,1.5075739 0.21221,2.0753253 0.15848,1.475879 0.10749,3.2563043 0.1695,4.95266935 0.0496,1.33807514 -0.22048,67.58725905 -0.0427,68.92671405 -0.25631,0.913638 -0.04,1.763889 -0.25356,2.666502 0.0537,0.132292 0.15848,0.381716 0.0841,0.508498 -0.31143,0.319705 -0.81304,0.276983 -1.22783,0.423058 0.007,0.04961 -0.008,0.07579 -0.0413,0.08406 -0.0234,0.518142 0.64492,0.343129 0.88884,0.593933 -0.13505,0.617361 -1.04869,0.578778 -1.77905,0.591178 -0.50436,0.01101 -1.73633,-0.07028 -1.56545,0.467155 0.0786,0.246669 0.6835,0.129537 0.93155,0.16812 0.82269,0.133671 1.67845,0.520901 2.66651,0.254938 0.20119,0.810285 -0.12403,1.375283 0.12677,2.158009 -0.17087,1.73495 -0.17501,3.90398 0.0427,5.589323 -1.75561,0.212217 -3.91225,-0.249425 -5.67338,-0.297657 -0.60358,-0.213596 -0.48645,-1.372527 -1.18511,-1.354613 -0.41066,0.241159 -0.40239,1.572341 -0.93155,1.56683 -0.41342,-0.0041 -0.85301,0.01792 -1.26918,0 -0.46991,-0.02067 -0.93431,-0.21773 -1.39733,-0.253559 -1.4869,-0.117132 -3.02755,0.150206 -4.61367,0.253559 -0.28388,0.01792 -0.56637,-0.04961 -0.8475,-0.04272 -2.5094,0.06201 -11.28199,0.458886 -13.7349,0.253559 -1.51722,-0.125402 -3.03169,-0.559485 -4.61505,-0.464401 -0.26458,0.01655 -0.50298,0.100599 -0.76206,0.126778 -0.32521,0.03171 -0.63389,-0.04272 -0.97289,-0.04272 -0.93845,0.0014 -1.84519,0.318326 -2.75194,0.04272 0.19017,-0.279738 0.25769,-0.611847 0.21084,-0.931552 -0.30731,-0.139181 -0.55673,0.132292 -0.8034,0.210841 -0.61047,0.197058 -1.18374,0.33624 -1.73633,0.593933 -0.26871,0.124023 -0.54708,0.363803 -0.76205,0.423059 -0.43409,0.118512 -1.20992,0.04547 -1.77767,0 -0.93845,-0.07579 -2.06568,-0.114378 -2.79466,-0.296281 -0.35416,-0.08819 -0.60772,-0.299032 -0.9729,-0.296277 -0.23702,0.0014 -0.45751,0.119888 -0.67799,0.126782 0.14194,-0.254939 0.22875,-0.563619 0.33899,-0.847496 -0.23426,-0.516763 -0.89434,-0.04823 -1.18511,0.128157 0.0303,-0.224621 0.34865,-0.526408 0.46578,-0.804774 -0.32798,-0.327971 -0.54846,0.0303 -0.80478,0.169499 -0.23013,0.125402 -0.49058,0.165364 -0.71933,0.29628 -0.5774,0.327971 -1.22094,0.887455 -1.77767,1.269171 -1.9513,0.299036 -3.93981,0.118512 -5.84288,0 -1.69499,-0.104729 -3.4699,0.154341 -5.07945,0.169499 -1.2237,0.01242 -14.7767,-0.03996 -15.90118,-0.04134 -0.30179,-0.0014 -0.58291,0.08268 -0.84612,0.04134 -0.2825,-0.04272 -0.452,-0.107487 -0.84612,-0.08406 -1.12448,0.06477 9.49331,-0.0689 8.16075,-0.126781 -1.02251,-0.04547 -2.06982,-0.260449 -3.26044,-0.169495 -0.31144,0.02342 -0.65457,0.16674 -0.97289,0.169495 -0.18328,0.0014 -0.36657,-0.07304 -0.55122,-0.08544 -0.92053,-0.05788 -1.84657,0.136427 -2.75057,0.1695 -1.26641,0.04685 -8.37709,-0.01379 -9.63524,0.08544 -1.63573,0.128157 -3.34725,0.03996 -4.99538,-0.08544 -0.61875,-0.04686 -1.27056,-0.144696 -1.86174,-0.338999 -0.94533,0.16812 -2.07119,0.177765 -3.21771,0.08544 -0.22876,-0.638034 -0.0579,-2.035366 -0.76206,-1.989889 -0.39274,0.0248 -0.36242,0.569129 -0.59256,0.846116 -0.20946,-0.293522 -0.20257,-0.881944 -0.63527,-1.058333 -0.5085,0.278363 -0.22738,1.178221 -0.339,1.779047 -0.0303,0.170875 -0.17501,0.34313 -0.21084,0.465776 -0.31419,-0.0303 -0.28663,-0.4644 -0.339,-0.720714 -0.0579,-0.275608 -0.12264,-0.576019 -0.1695,-0.846116 -0.0992,-0.582909 -0.0744,-1.258147 -0.46577,-1.44005 -0.3514,0.308681 0.0441,0.78135 0.12678,1.143773 0.0799,0.348643 0.0758,0.660079 0.12678,0.931552 0.0717,0.235645 0.29765,0.857141 -0.0841,0.931555 -0.16812,-0.0055 -0.04,-0.210841 -0.0841,-0.338998 0.004,0.01517 -0.19017,-0.263204 -0.21222,-0.338998 -0.1006,-0.348643 0.0648,-0.935687 -0.339,-1.058333 -0.26045,0.454755 0.0937,1.355989 0.1695,1.777671 -1.99816,-0.106108 -4.03214,0.187414 -6.09644,0.126778 -0.58842,-0.01655 -1.17547,0.01792 -1.73495,0 -2.62516,-0.08406 -5.47081,0.267339 -8.38261,0.128157 -1.66742,-0.07993 -27.60899,-0.09922 -29.26815,-0.212217 -0.37483,-0.02618 -0.73174,-0.139181 -1.10105,-0.169499 -0.89711,-0.07166 -1.79972,-0.0014 -2.70923,0 -1.57234,0.0041 -3.14606,-0.152961 -4.69911,-0.04272 -1.2609,0.09095 -2.58106,0.527788 -3.59805,0.128157 -0.04,-0.08682 -0.0524,-0.202572 -0.1695,-0.212217 -0.0358,-1.070737 -0.33487,-2.174546 -0.1695,-3.174999 0.51401,-0.150206 1.51998,-0.0303 1.43867,-0.635276 -0.33762,-0.254938 -0.83785,-0.345888 -1.31189,-0.465779 -0.0965,-0.545702 -0.0593,-1.092782 -0.0841,-1.650887 -0.0441,-1.004591 -0.19293,-2.097377 -0.0854,-3.048222 0.0165,-0.140561 0.113,-0.285253 0.12816,-0.423059 0.0827,-0.757921 -0.0413,-1.602658 0.0413,-2.412943 0.0165,-0.159854 0.073,-0.308681 0.0854,-0.465776 0.0524,-0.680752 -0.113,-1.398711 -0.0854,-2.116667 0.0124,-0.30868 0.0951,-0.587047 0.12678,-0.888837 0.11438,-1.05144 -0.0331,-67.1201036 -0.12678,-68.0378768 -0.10749,-1.0679797 0.0978,-2.2103733 0.0854,-3.3017795 -0.0124,-1.0045901 -0.23289,-2.1897025 -0.29766,-3.4712782 1.20165,0.1488281 2.20624,-0.5691297 1.10105,-1.1010525 0.30593,-0.162608 0.67938,-0.3514 0.678,-0.676617 -0.004,-0.584288 -1.18098,-0.825445 -1.73633,-0.974273 -0.10335,-1.991265 0.0937,-3.766178 0.12816,-5.461165 0.008,-0.485069 -0.17777,-1.125857 0.25356,-1.438672 0.89986,0.07166 1.81901,-0.184657 2.75056,-0.212218 0.46302,-0.01378 0.88195,0.05374 1.31327,0 1.5186,-0.190169 3.21083,0.02894 4.40283,-0.08406 0.68075,-0.06477 1.62884,-0.129536 2.45429,-0.08544 1.3739,0.07304 26.89655,0.0813 28.42342,0.08544 0.30179,0.275608 0.40238,0.753787 0.67661,1.058333 0.58429,0.0096 0.32108,-0.602202 0.59256,-0.931554 0.50022,0.465777 1.40973,0.08682 2.0326,0.210841 0.20257,0.02067 0.12678,-0.238401 0.29628,-0.25356 0.35416,-0.03032 0.65733,-0.152962 1.01562,-0.169498 0.43959,-0.01929 0.83371,0.135047 1.22783,0.169498 0.32108,0.02756 0.65457,-0.112999 0.97427,-0.126779 0.75103,-0.03307 1.53376,0.172255 2.32751,0.169498 0.47955,-0.0028 0.96462,-0.08957 1.44005,-0.08544 0.25769,0.0028 0.49747,0.118511 0.76205,0.128158 1.50896,0.05236 3.03582,-0.06615 4.52961,0 1.41663,0.06201 2.67478,-0.01516 4.06384,0.04134 0.23151,0.146072 0.13918,0.383094 0.38034,0.423057 0.35553,0.06063 0.2756,-0.311436 0.42443,-0.464398 0.0166,0.690397 0.56913,0.979785 0.71934,0.253559 1.38906,-0.06477 2.71749,-0.09095 4.02111,-0.04272 0.19982,0.378961 0.49334,0.664215 0.76206,0.974273 0.40514,0.115756 0.7717,0.420302 1.22783,0.719336 0.42719,0.28112 0.96325,0.377583 1.31189,0.592557 0.22738,0.139182 0.32109,0.443728 0.63528,0.212218 -0.16123,-0.828201 -0.94671,-1.683963 -1.1424,-2.751943 1.61644,0.06201 3.39411,0.113 5.20623,0 0.80753,-0.05099 7.75698,0.111622 8.70369,0.08406 0.20257,-0.0055 0.42719,-0.114377 0.63528,-0.12678 0.27285,-0.01516 0.54019,0.07304 0.84611,0.08544 0.74552,0.02618 1.60404,-0.146073 2.62517,-0.08544 0.64216,0.03859 1.35736,0.249425 1.94717,0.25356 0.12126,0.0014 0.27422,-0.06201 0.38033,-0.04134 0.13643,0.02618 0.25081,0.176389 0.5085,0.296278 0.20533,0.09508 0.48369,0.100597 0.59256,0.169499 0.15985,0.100597 0.14469,0.322461 0.33899,0.33762 0.37345,0.02894 0.35002,-0.316949 0.339,-0.762055 0.23427,0.133669 0.23564,0.405143 0.4644,0.465776 0.40239,0.108865 0.58566,-0.271473 0.84749,-0.337619 0.24943,-0.06339 0.5898,0.0565 0.88884,0.04134 0.50849,-0.02618 1.01148,-0.108865 1.56545,-0.08406 1.41662,0.06477 3.3128,-0.09922 4.69222,0 0.71382,0.05099 1.37666,0.220486 1.98989,0.253559 0.3886,0.02205 0.78961,-0.09922 1.18511,-0.12678 0.54708,-0.03858 1.16306,-0.02205 1.73633,0 1.2926,0.04961 2.61413,0.08819 3.89433,0.08406 3.89847,-0.0096 7.79143,0.363803 11.09183,0.08544 -0.0799,0.602203 -0.69177,0.862652 -0.59393,1.397331 0.49885,0.155718 0.55397,-0.487826 0.84749,-0.677995 -0.0854,-0.264584 0.15158,-0.797884 0.63528,-0.762055 0.0675,0.394118 -0.4272,0.727604 -0.29766,1.185113 0.18466,0.02894 0.29214,0.133669 0.46716,0.169498 0.43132,-0.329351 0.63252,-0.890213 0.88883,-1.397331 2.10564,-0.403765 3.97977,-0.367936 6.13778,-0.253559 0.54984,0.02894 1.16444,0.128158 1.65089,0.253559 0.39412,0.103353 1.10519,0.163987 1.69361,0.254938 0.96876,0.148828 1.82452,0.16123 2.87872,0.169498 0.35829,0.0028 0.70005,0.08544 1.05833,0.04134 0.36381,-0.0441 0.73036,-0.239779 1.09968,-0.296279 0.66697,-0.09784 7.55992,0.0124 8.19106,-0.08406 0.23426,-0.03445 0.45062,-0.180523 0.67662,-0.21084 0.77445,-0.108865 1.63848,0.06339 2.45566,0.125401 1.53927,0.118512 3.21772,0.08819 4.74183,0.08544 0.67248,-0.0014 1.34634,0.191547 2.0326,0.08406 0.16261,-0.0248 0.3142,-0.163986 0.50712,-0.21084 0.75792,-0.181901 1.7446,-0.02343 2.49839,0.08406 0.0785,0.257693 -0.12127,0.578776 -0.12678,0.890212 0.73036,0.14745 0.81855,-0.890212 1.22645,-1.229209 0.33486,-0.0248 0.5774,0.0441 0.84749,0.08544 -0.14056,0.472667 -0.75103,0.533301 -0.71933,1.058333 0.62287,0.0565 0.78823,-0.628385 1.14239,-0.972895 0.93707,-0.191547 2.33853,0.141938 2.87872,-0.04272 0.14194,0.51952 -0.007,1.101052 0,1.692231 0.007,0.635275 0.16537,1.270551 0.1695,1.905827 0.004,0.640787 -0.14883,1.274685 -0.1695,1.861729 m 0.59256,-5.925564 c -0.16261,-0.06201 -0.13918,-0.242535 -0.25356,-0.254937 -0.22462,-0.05926 -0.37207,0.180523 -0.63528,0.254937 -0.59531,0.168121 -2.02158,0.190169 -2.32888,-0.128158 -0.26872,0.02894 -0.32522,0.175011 -0.54984,0.169499 -0.31006,-0.0055 -0.5457,-0.343131 -0.76205,-0.337619 -0.34176,0.0096 -0.38585,0.421679 -0.678,0.592556 -0.26734,-0.216352 -0.52227,-0.130914 -0.80339,-0.126779 -0.56086,0.0069 -1.01975,0.03032 -1.48277,0 -0.76757,-0.04961 -1.32568,0.192925 -2.03123,0.253559 -0.46026,0.03996 -0.90813,-0.07441 -1.39733,-0.08544 -0.81856,-0.01792 -1.69223,0.06339 -2.49701,0.04272 -1.05282,-0.02756 -2.12493,-0.279741 -3.175,-0.253559 -0.56224,0.01378 -1.22783,-0.155718 -1.82038,-0.04272 -0.21222,0.04134 -0.35554,0.206706 -0.55122,0.25356 -0.75516,0.183278 -7.85344,-0.03445 -8.65546,0.128157 -0.18603,0.03721 -0.35553,0.159852 -0.54983,0.21084 -0.33487,0.08957 -0.65595,-0.0055 -1.017,0 -0.48093,0.0096 -0.93982,0.129535 -1.35461,0.08544 -0.58567,-0.06201 -1.17133,-0.220486 -1.77767,-0.296278 -0.59807,-0.07441 -1.15341,-0.297656 -1.73495,-0.381717 -0.58566,-0.08268 -1.3174,-0.07993 -1.77904,-0.04272 -0.77033,0.06339 -1.54341,-0.190169 -2.32751,-0.169499 -1.20579,0.03445 -2.34818,0.446485 -3.55672,0.340376 0.11576,-0.129536 0.0565,-0.219108 -0.0427,-0.340376 -0.38171,-0.0565 -0.29765,0.350022 -0.54984,0.424436 -0.28387,-0.0689 -0.61736,-0.08819 -0.93155,-0.126779 -1.57785,0.401009 -3.22874,0.283875 -4.82589,0.253559 -0.47129,-0.0096 -0.94671,0.02205 -1.43867,0 -2.79742,-0.12678 -5.33576,-0.09233 -8.00089,-0.169499 -1.49379,-0.04272 -3.17224,0.184657 -4.65639,0 -0.89159,-0.110243 -1.70739,-0.242535 -2.49838,-0.169499 -0.76068,0.07028 -1.89205,-0.02067 -2.65962,-0.04272 -1.15204,-0.03307 -2.3592,0.104731 -3.30178,-0.08406 -0.21083,0.08544 -0.26872,0.323839 -0.50849,0.380339 -0.38448,-0.192926 -0.40101,-0.755166 -1.01562,-0.719337 -0.2191,0.163987 -0.0648,0.694532 -0.12678,0.804775 -0.40652,0.01791 -0.6146,-0.501606 -1.01699,-0.592557 -0.2508,-0.05788 -0.53606,0.03858 -0.80339,0.04134 -0.72623,0.0083 -1.47451,-0.180523 -2.11667,-0.253559 -0.26321,0.09784 -0.51263,0.135048 -0.76206,0.12678 -1.16857,-0.03721 -2.59484,0.02205 -3.81027,0 -0.63114,-0.01102 -7.20301,-0.108865 -7.81348,-0.04134 -0.17225,0.01791 -0.34175,0.117133 -0.50849,0.126779 -0.32936,0.01791 -0.67938,-0.07993 -1.01562,-0.04272 -0.20119,0.02205 -0.39963,0.11989 -0.59256,0.12678 -0.32797,0.01378 -0.64767,-0.08131 -0.97427,-0.08406 -0.96325,-0.01102 -2.03536,-0.01791 -2.79328,-0.296278 -0.26872,0.325217 0.0744,0.613227 0.21084,0.888835 0.28387,0.570507 0.55121,1.270551 0.84749,1.820388 -1.14239,-0.537435 -2.42672,-0.932932 -2.87872,-2.159386 -1.12448,-0.241156 -2.61552,0.130914 -4.02249,-0.08406 -0.18604,-0.03996 -0.14883,-0.30179 -0.33762,-0.338997 -1.87276,0.352777 -4.20715,0.144694 -6.26594,0.126779 -1.94166,-0.01653 -3.86678,0.03859 -5.75745,0.04272 -0.76205,0.0014 -1.50619,-0.192925 -2.24344,-0.212218 -1.02113,-0.02618 -2.0078,0.184657 -2.96278,-0.04272 -0.22049,0.14745 -0.68076,0.05374 -0.93156,0.169499 -0.18052,0.03169 -0.14469,0.279742 -0.38172,0.254937 -0.22599,-0.0441 -0.38722,-0.191547 -0.63527,-0.169499 -0.19981,0.01653 -0.28663,0.186035 -0.46578,0.169499 -0.40927,-0.03858 -0.35691,-0.424436 -0.71933,-0.338997 -0.14607,0.03445 -0.33211,0.602202 -0.46578,0.592556 -0.14607,-0.01102 -0.113,-0.391363 -0.12678,-0.508496 -0.339,-0.194303 -0.86403,-0.191547 -1.26917,-0.04134 -1.42489,-0.0565 -26.94478,-0.151584 -28.42342,-0.08544 -1.35323,0.06201 -2.78915,0.03307 -4.14789,0.08544 -1.29949,0.04961 -2.58658,0.04685 -3.76756,0.126779 -0.41892,0.02756 -0.82544,0.173633 -1.22783,0.169499 -0.61736,-0.0069 -1.20578,-0.227376 -1.77905,-0.08544 0.0234,0.107487 0.073,0.163986 -0.0841,0.169498 0.26321,2.29719 0.11576,5.259972 -0.0841,7.535113 0.6463,0.02894 1.47864,0.09095 1.77767,0.592556 -0.22875,0.522277 -1.30776,-0.0083 -1.31327,0.677995 0.23427,0.2880101 0.96325,0.082682 1.01699,0.5498375 -0.45888,0.093707 -0.82958,0.111621 -1.18511,-0.042719 -0.47405,0.5525932 -0.1006,1.373904 0,2.2021048 0.0565,0.4643992 0.14469,0.9591146 0.16812,1.4386722 0.0317,0.5966905 -0.13091,1.231966 -0.1254,1.8631076 0.003,0.5525932 -0.0427,0.9935655 -0.0427,1.4813908 0.001,1.402843 0.42719,67.8311721 0,69.2657111 0.23427,0.908124 0.0868,2.049142 0.0427,3.090937 -0.051,1.18098 -0.0579,2.309594 -0.0854,3.428559 -0.0331,1.368393 -0.011,2.663751 0.0427,3.979774 0.24391,0.14745 0.61185,-0.02893 0.8034,0.210841 -0.26459,0.09646 -0.66973,-0.15572 -0.88884,0.04272 -0.24529,0.963249 0.32935,2.856674 0,3.724839 0.26045,0.0303 0.0648,0.32384 0.21222,0.508494 0.073,-0.0028 0.10886,0.03306 0.12678,0.08406 0.45062,-0.0069 1.18236,0.09095 1.65089,-0.08406 0.82407,0.272853 1.59025,-0.110243 2.41294,-0.169495 0.61461,-0.0441 1.24162,-0.0248 1.82039,-0.04272 1.18374,-0.03443 2.28755,0.08406 3.47128,0.04272 1.05007,-0.03721 2.18281,0.165364 3.30178,0.212217 1.40146,0.05788 27.34166,0.125402 28.33798,0.169499 0.35691,0.01517 0.69866,0.07304 1.05833,0.08406 0.52641,0.01792 1.05144,-0.15572 1.56683,-0.126782 0.20119,0.01101 0.41341,0.119892 0.63527,0.126782 0.3831,0.01238 0.791,-0.106109 1.18512,-0.08406 0.86127,0.04685 1.75424,0.175009 2.497,-0.08544 2.59347,0.0441 5.158,-0.04823 7.83139,0 0.30593,-0.203952 0.63115,-0.05788 0.93156,-0.04272 0.92604,0.05099 2.37298,-0.198438 3.04822,-0.168124 -0.12954,-0.141936 0.0565,-0.307301 0.0854,-0.508494 0.0469,-0.338998 -0.15572,-0.753787 0.0413,-1.101054 0.10473,0.549839 0.20533,1.09003 0.46577,1.56683 0.60634,-0.312815 0.008,-1.510329 0.71934,-1.820389 0.25218,0.588422 0.1254,1.355989 0.25494,1.947167 1.18235,0.186038 2.46669,-0.194303 3.59806,-0.04272 1.7625,0.237025 3.55533,0.547081 5.50388,0.423059 0.16398,-0.0096 0.37758,0.0014 0.54983,0 0.47405,0 0.95085,-0.07166 1.43868,-0.08406 1.14653,-0.02755 8.19519,0.04272 9.3803,-0.04272 0.74277,-0.05236 1.48415,-0.148826 2.24483,-0.126777 0.26458,0.0083 0.53606,0.103353 0.8034,0.08544 0.52916,-0.03721 1.01837,-0.194303 1.5241,-0.212221 0.6339,-0.02205 1.28847,0.09922 1.94717,0.126782 1.55443,0.06614 -8.75467,0.122646 -7.14512,0.169499 0.70279,0.02067 13.79691,-0.03721 14.54657,-0.04272 1.53237,-0.01101 3.09783,0.06477 4.65639,-0.04134 1.72254,-0.118512 3.3569,-0.07028 5.0381,0.04134 1.60955,0.108867 3.05236,0.02618 4.40284,-0.169495 0.52641,-0.628386 1.11483,-1.197519 1.94716,-1.522734 -0.17087,0.505739 -0.50711,0.847492 -0.80477,1.226453 0.23564,0.511253 0.68902,0.04548 0.93155,-0.16812 0.31006,-0.274228 0.5526,-0.671103 0.88884,-0.635275 0.0289,0.487825 -0.5085,0.738629 -0.38034,1.058334 0.48782,0.445106 0.93569,-0.308681 1.43867,-0.254939 0.2508,0.02755 0.3266,0.183279 0.54984,0.338999 1.44694,-0.135047 2.69544,0.338998 3.93706,0.296276 0.4134,-0.01379 0.74827,-0.07717 1.01699,0.08544 0.82131,-0.447862 1.48414,-1.055578 2.62378,-1.186491 -0.0441,0.359668 -0.24529,0.610472 -0.0413,0.890214 0.75103,0.107484 1.63711,0.07304 2.41157,-0.04272 0.63527,-0.09508 1.35323,0.04548 1.98988,-0.04272 0.78411,-0.106109 1.78732,-0.16261 2.58245,-0.04272 0.79237,0.119888 1.644,0.323836 2.45566,0.381716 0.66973,0.04823 1.38493,0.157095 1.98989,0.128157 0.53468,-0.02755 1.21681,-0.237024 1.82038,-0.254939 0.91365,-0.02618 7.97471,-0.08268 9.03718,-0.126777 0.75103,-0.0303 1.49379,-0.01655 2.20073,-0.08544 0.87092,-0.08406 1.71152,-0.06615 2.45566,-0.126782 0.79927,-0.06339 2.0643,-0.07304 2.37023,0.212221 0.77997,0.132291 1.82176,0.0028 2.41294,0.126777 0.49609,-0.260448 0.4396,-0.811664 0.76206,-1.227832 0.2949,0.264583 0.66421,0.932931 1.05833,1.058333 0.1943,0.06201 0.47405,-0.05236 0.678,-0.04272 1.6564,0.07441 3.96461,0.325215 5.33438,0.508497 0.32109,-0.519522 -0.10197,-1.092786 -0.1695,-1.650891 -0.0496,-0.39963 -0.051,-0.932931 -0.0854,-1.397331 -0.0207,-0.286632 -0.0358,-0.607716 0,-0.846117 0.0896,-0.598067 0.0482,-1.043174 0.0854,-1.609548 0.0524,-0.799261 -0.0413,-1.630218 0,-2.370226 0.0193,-0.369312 0.19155,-0.723469 -0.0427,-1.015612 -0.53054,-0.06615 -1.32843,0.32935 -1.94716,0.04272 1.079,0.02755 1.86448,-0.439593 1.94716,-1.27055 0.006,-0.216352 -0.40376,-0.0193 -0.38171,-0.254939 0.81304,-0.158474 0.61047,-0.846116 0.59393,-1.481391 -0.0165,-0.585664 0.113,-1.19338 0.0841,-1.820386 -0.0717,-1.565452 0.0593,-68.29006025 0,-69.6887687 -0.0221,-0.5195207 0.0661,-1.0431748 0.0427,-1.5227325 -0.0275,-0.5388126 -0.13091,-1.0238821 -0.12678,-1.5254879 0.005,-0.9728952 0.0207,-1.9816191 0,-2.920063 -0.26872,-0.5415689 -0.2384,-1.0914062 -0.38172,-1.5654514 0.21774,-0.6022025 0.52779,-0.6697267 0.42306,-1.4400505 -0.18741,-0.267339 -0.7717,-0.457508 -0.97289,-0.847493 0.36793,-0.478179 0.93293,-0.760677 1.22645,-1.311892 0.0469,-1.941656 -0.17363,-4.772147 0.0854,-6.773058"
       id="path18698"
       style="stroke-width:0.352778" />
    <path
       fill-rule="evenodd"
       fill="#f9e3b3"
       fill-opacity="1"
       d="m -154.61032,70.306002 c -0.18741,0.494718 0.38861,0.788239 -0.0854,0.974273 -0.21635,0.03306 -0.0965,-0.270093 -0.29628,-0.253559 0.01,-0.132291 0.11851,-0.165364 0.1695,-0.254935 -0.16123,-0.14194 -0.2136,-0.166744 -0.21222,-0.423058 0.0841,-0.06753 0.30868,-0.136426 0.42444,-0.04272 m 0.67661,-0.125399 c 0.0854,0.304546 -0.32246,0.428569 -0.50849,0.210838 -0.0207,-0.261828 0.34864,-0.388606 0.50849,-0.210838 m -1.22782,-0.508497 c -0.24805,0.06339 -0.2453,-0.122647 -0.339,-0.212217 0.0923,-0.179148 0.42168,-0.14883 0.42443,0.08406 -0.04,0.03168 -0.0648,0.07855 -0.0854,0.128157 m -0.46578,1.185111 c -0.113,-0.09922 -0.19844,-0.225996 -0.25356,-0.381716 0.34451,-0.41341 0.72209,0.184658 0.25356,0.381716 m 0,1.269175 c -0.38034,-0.06477 -0.53331,-0.108864 -0.88884,-0.16812 -0.0303,-0.129537 0.0441,-0.15572 0.0427,-0.254939 0.11162,0 0.24116,-0.01654 0.29628,0.04272 0.001,-0.179148 -0.0827,-0.272853 0,-0.423058 0.15434,-0.01242 0.27561,0.0055 0.38034,0.04134 0.0455,0.228755 -0.14056,0.22738 -0.21084,0.338998 0.13918,0.128158 0.52365,0.144696 0.38034,0.423059 m -2.83601,0.635275 c -0.24529,-0.311436 0.14057,-0.464397 0.29628,-0.507118 0.54019,-0.148827 1.4497,0.158475 1.86173,0.337619 -0.70555,0.163988 -1.48552,-0.268718 -2.15801,0.169499 m 0.84612,-3.428559 c 0.0413,0.07166 -0.0634,0.281121 -0.0841,0.423058 -0.17915,0.05237 -0.21497,0.0028 -0.339,-0.08406 -0.0386,-0.293522 0.1378,-0.370692 0.42306,-0.338998 m -3.8089,10.456555 c 0.022,-0.217731 0.0579,-0.421682 0.38034,-0.338998 0.0593,0.08131 0.11162,0.169499 0.12678,0.296277 -0.15434,0.02893 -0.3073,0.05926 -0.50712,0.04272 m -0.0427,-1.438673 c -0.3197,-0.04134 -0.15158,-0.624251 0.1695,-0.381717 0.003,0.186034 0.008,0.374827 -0.1695,0.381717 m -0.0854,1.565451 c -0.0703,0.07028 -0.24804,0.03305 -0.38033,0.04134 -0.26183,-0.304546 0.21635,-0.451997 0.38033,-0.210841 z m -1.39733,-0.804774 c -0.44924,-0.308681 -0.007,-0.672483 0.29628,-0.253559 -0.0841,0.09784 -0.13918,0.226 -0.29628,0.253559 m -4.99538,-89.247263 c -0.0152,-0.175011 0.35002,-0.175011 0.33899,0 -0.19292,0.0069 -0.16536,0.03583 -0.33899,0 m -81.31666,89.713039 c -0.0124,-0.361044 0.54295,-0.292143 0.59394,-0.04272 -0.10336,0.22462 -0.42306,0.172254 -0.59394,0.04272 m -1.73495,-0.253559 c 0.004,-0.383092 0.5526,-0.450618 0.54984,0 -0.17225,0.03447 -0.42581,0.162609 -0.54984,0 M -251.29486,80.17 c 0.0124,-0.213596 0.1571,-0.294901 0.38034,-0.296277 -0.007,0.133668 0.113,0.141937 0.0854,0.296277 -0.0978,0.139181 -0.34589,0.07304 -0.46578,0 m -0.67799,-0.338998 c 0.0965,-0.300412 0.50849,-0.403765 0.50849,0.04272 -0.11024,0.148826 -0.43545,0.09095 -0.50849,-0.04272 m 0.38172,0.890213 c -0.3831,0.169499 -0.70694,0.170879 -1.10106,0.08406 -0.0413,-0.267338 0.14607,-0.304546 0.29628,-0.380337 0.1571,-0.04548 0.0827,0.141937 0.1695,0.16812 0.2384,-0.05788 0.30455,-0.288011 0.63528,-0.253559 0.0978,0.112998 0.0634,0.235645 0,0.381716 m 98.1232,-92.973478 c 0.11162,-0.253559 -0.01,-0.483691 0,-0.762055 0.0207,-0.587044 0.17363,-1.220942 0.1695,-1.861729 -0.004,-0.635276 -0.16261,-1.270552 -0.1695,-1.904449 -0.007,-0.592557 0.14194,-1.174089 0,-1.693609 -0.54019,0.184657 -1.94165,-0.150206 -2.87872,0.04134 -0.35416,0.345888 -0.51952,1.030772 -1.14239,0.974273 -0.0317,-0.525032 0.57877,-0.585666 0.71933,-1.058333 -0.27009,-0.04134 -0.51125,-0.110243 -0.84749,-0.08544 -0.4079,0.338997 -0.49747,1.375281 -1.22645,1.227831 0.005,-0.310058 0.20532,-0.631141 0.1254,-0.888834 -0.75241,-0.106109 -1.73909,-0.265962 -2.49701,-0.08406 -0.19292,0.04548 -0.34451,0.186036 -0.50712,0.21084 -0.68626,0.107487 -1.36012,-0.08544 -2.0326,-0.08406 -1.52411,0.0028 -3.20256,0.03307 -4.74183,-0.08544 -0.81856,-0.06201 -1.68121,-0.234266 -2.45429,-0.126779 -0.22737,0.03169 -0.44373,0.176389 -0.67799,0.212218 -0.63114,0.09508 -7.52409,-0.01378 -8.18968,0.08406 -0.3707,0.05512 -0.73725,0.252181 -1.10106,0.297656 -0.35828,0.0441 -0.70004,-0.03996 -1.05833,-0.04272 -1.0542,-0.0083 -1.90996,-0.02067 -2.87872,-0.169498 -0.58842,-0.09095 -1.29949,-0.151585 -1.69361,-0.254938 -0.48507,-0.125401 -1.09967,-0.223242 -1.65089,-0.25218 -2.15663,-0.115756 -4.03214,-0.152963 -6.13778,0.25218 -0.25631,0.507118 -0.45751,1.06798 -0.89021,1.397331 -0.17364,-0.03583 -0.28112,-0.14056 -0.4644,-0.169498 -0.13092,-0.458887 0.3638,-0.790995 0.29628,-1.185113 -0.4837,-0.03583 -0.71934,0.49885 -0.63528,0.763433 -0.29352,0.190169 -0.34864,0.832335 -0.84749,0.676617 -0.0978,-0.534679 0.514,-0.795128 0.59255,-1.397331 -3.29902,0.279742 -7.19198,-0.09509 -11.09045,-0.08544 -1.2802,0.0041 -2.60173,-0.03445 -3.89433,-0.08406 -0.57327,-0.02205 -1.18925,-0.03858 -1.73633,0 -0.3955,0.02756 -0.79651,0.148828 -1.18511,0.12678 -0.61323,-0.03307 -1.27607,-0.202572 -1.98989,-0.253559 -1.37942,-0.09922 -3.2756,0.06477 -4.69084,0 -0.55535,-0.0248 -1.05834,0.05926 -1.56683,0.08406 -0.29766,0.01516 -0.63941,-0.104731 -0.88884,-0.04134 -0.26045,0.06615 -0.4451,0.446484 -0.84749,0.337619 -0.23013,-0.06201 -0.23013,-0.332107 -0.46578,-0.465776 0.0124,0.445106 0.0372,0.792371 -0.33762,0.762055 -0.1943,-0.01378 -0.17914,-0.237023 -0.33899,-0.33762 -0.10749,-0.0689 -0.38723,-0.07441 -0.59256,-0.169499 -0.25769,-0.119889 -0.37069,-0.270095 -0.5085,-0.296278 -0.10611,-0.02067 -0.25769,0.04272 -0.38033,0.04134 -0.59118,-0.0041 -1.30501,-0.214975 -1.94717,-0.25356 -1.02251,-0.06063 -1.87965,0.111621 -2.62517,0.08544 -0.30592,-0.0124 -0.57464,-0.100597 -0.84611,-0.08544 -0.20809,0.01103 -0.43271,0.121268 -0.63528,0.12678 -0.94671,0.02756 -7.89616,-0.135048 -8.70369,-0.08406 -1.81212,0.113 -3.59116,0.06339 -5.20623,0 0.19569,1.06798 0.98117,1.923742 1.1424,2.751943 -0.31419,0.23151 -0.4079,-0.07166 -0.63528,-0.212218 -0.34864,-0.214974 -0.88332,-0.311437 -1.31189,-0.592557 -0.45613,-0.299034 -0.82131,-0.60358 -1.22783,-0.719336 -0.26872,-0.310058 -0.56224,-0.595312 -0.76206,-0.974273 -1.30362,-0.04823 -2.63205,-0.02205 -4.02111,0.04272 -0.15021,0.726226 -0.7028,0.43546 -0.71934,-0.253559 -0.14883,0.152962 -0.0689,0.525032 -0.42443,0.464398 -0.24116,-0.03996 -0.14883,-0.276985 -0.38034,-0.423057 -1.39044,-0.0565 -2.64721,0.02067 -4.06384,-0.04134 -1.49241,-0.06615 -3.02065,0.05236 -4.52961,0 -0.26458,-0.0096 -0.50436,-0.125402 -0.76205,-0.128158 -0.47543,-0.0041 -0.9605,0.08268 -1.44005,0.08544 -0.79375,0.0028 -1.57648,-0.202571 -2.32751,-0.169498 -0.3197,0.01378 -0.65319,0.15434 -0.97427,0.126779 -0.39412,-0.03445 -0.78824,-0.188791 -1.22783,-0.169498 -0.35829,0.01653 -0.66146,0.137804 -1.01562,0.169498 -0.16812,0.01516 -0.0937,0.27423 -0.29628,0.25356 -0.62287,-0.124024 -1.53238,0.254936 -2.03122,-0.210841 -0.27286,0.329352 -0.01,0.941201 -0.59394,0.931554 -0.27423,-0.304546 -0.37482,-0.782725 -0.67661,-1.058333 -1.52549,-0.0041 -27.04952,-0.0124 -28.42204,-0.08544 -0.82683,-0.0441 -1.77492,0.02067 -2.45567,0.08544 -1.192,0.112999 -2.88423,-0.106109 -4.40283,0.08406 -0.43132,0.05374 -0.85163,-0.0124 -1.31327,0 -0.93155,0.02756 -1.8507,0.283876 -2.75056,0.212218 -0.43271,0.312815 -0.24529,0.953603 -0.25356,1.438672 -0.0344,1.694987 -0.23151,3.4699 -0.12816,5.461165 0.55535,0.14745 1.73219,0.389985 1.73633,0.974273 10e-4,0.325217 -0.37207,0.514009 -0.678,0.676617 1.10519,0.5319228 0.1006,1.2498806 -1.10105,1.1010525 0.0648,1.2815757 0.28525,2.4666881 0.29766,3.4712782 0.0124,1.0914062 -0.19293,2.2337998 -0.0854,3.3017795 0.0937,0.9177732 0.24116,66.9864368 0.12678,68.0378768 -0.0317,0.30179 -0.11438,0.580157 -0.12678,0.888837 -0.0276,0.717956 0.1378,1.434536 0.0854,2.116667 -0.0124,0.157095 -0.0689,0.305922 -0.0854,0.465776 -0.0813,0.810285 0.0413,1.655022 -0.0413,2.412943 -0.0165,0.137806 -0.11162,0.282498 -0.12816,0.423059 -0.10749,0.950845 0.0413,2.042251 0.0854,3.048222 0.0234,0.558105 -0.0124,1.105185 0.0841,1.650887 0.47404,0.119891 0.97565,0.210841 1.31327,0.465779 0.0799,0.604958 -0.92466,0.48507 -1.44005,0.635276 -0.16537,1.000453 0.13505,2.104262 0.1695,3.174999 0.11713,0.0096 0.12953,0.125402 0.1695,0.212217 1.01699,0.399631 2.33715,-0.03721 3.59805,-0.128157 1.55305,-0.110243 3.12677,0.04685 4.69911,0.04272 0.90951,-0.0014 1.81212,-0.07304 2.70923,0 0.36931,0.0303 0.72622,0.143316 1.10105,0.169499 1.65916,0.114378 27.60073,0.132292 29.26953,0.212217 2.91042,0.139182 5.75607,-0.212217 8.38123,-0.126777 0.55948,0.01654 1.14653,-0.01792 1.73495,0 2.0643,0.05926 4.09966,-0.234266 6.09644,-0.128158 -0.0758,-0.421682 -0.42995,-1.322916 -0.1695,-1.777671 0.40377,0.122646 0.2384,0.70969 0.339,1.058333 0.022,0.07579 0.21635,0.354157 0.21222,0.338998 0.0441,0.128157 -0.0841,0.333485 0.0841,0.338998 0.38171,-0.07441 0.15572,-0.69591 0.0841,-0.931555 -0.051,-0.271473 -0.0469,-0.582909 -0.12678,-0.931552 -0.0827,-0.362423 -0.47818,-0.835092 -0.12678,-1.142393 0.38998,0.180523 0.36655,0.855761 0.46577,1.43867 0.0469,0.270097 0.11163,0.569129 0.1695,0.846116 0.0537,0.256314 0.0262,0.690397 0.339,0.720714 0.0358,-0.122646 0.17914,-0.294901 0.21084,-0.465776 0.11162,-0.600826 -0.1695,-1.500684 0.339,-1.779047 0.4327,0.176389 0.42581,0.764811 0.63527,1.058333 0.22876,-0.276987 0.19982,-0.821312 0.59256,-0.846116 0.70418,-0.04548 0.5333,1.351855 0.76206,1.989889 1.14652,0.09233 2.27238,0.08268 3.21771,-0.08544 0.59118,0.194303 1.24299,0.292143 1.86174,0.338999 1.64813,0.125398 3.35965,0.213592 4.99538,0.08544 1.25815,-0.09922 8.3702,-0.03858 9.63524,-0.08544 0.90262,-0.03306 1.83004,-0.22738 2.75057,-0.1695 0.18465,0.01238 0.36794,0.08682 0.55122,0.08544 0.31832,-0.0028 0.66145,-0.146071 0.97427,-0.169495 1.18924,-0.09095 2.23793,0.124022 3.25906,0.169495 1.33256,0.05788 -9.28523,0.191548 -8.16212,0.126781 0.39549,-0.02342 0.56499,0.04134 0.84749,0.08406 0.26321,0.04134 0.54433,-0.04272 0.84612,-0.04134 1.12448,0.0014 14.67748,0.05375 15.90118,0.04134 1.60955,-0.01517 3.38446,-0.274228 5.07945,-0.168119 1.90307,0.117132 3.89158,0.297656 5.84288,0 0.55673,-0.383096 1.20027,-0.94258 1.77767,-1.270551 0.23013,-0.130916 0.4892,-0.170878 0.71933,-0.29628 0.25632,-0.139182 0.4768,-0.498849 0.80478,-0.169499 -0.11713,0.278366 -0.43546,0.580153 -0.46578,0.804774 0.29077,-0.176389 0.95223,-0.64492 1.18511,-0.126778 -0.11162,0.282498 -0.19843,0.591178 -0.33899,0.846117 0.22048,-0.0069 0.44097,-0.125402 0.67799,-0.126782 0.36518,-0.0028 0.61874,0.208083 0.9729,0.296277 0.72898,0.180524 1.85621,0.221866 2.79466,0.296281 0.56913,0.04547 1.34358,0.118512 1.77767,0 0.21497,-0.05926 0.49471,-0.297657 0.76205,-0.423059 0.55259,-0.256314 1.12586,-0.398254 1.73633,-0.592557 0.24805,-0.07993 0.49609,-0.351398 0.8034,-0.212217 0.0469,0.319705 -0.0221,0.651814 -0.21084,0.931552 0.90675,0.276987 1.81349,-0.04134 2.75194,-0.04272 0.339,0 0.64768,0.07442 0.97289,0.04272 0.25908,-0.02618 0.49748,-0.111619 0.76206,-0.126778 1.58336,-0.09508 3.09645,0.338999 4.61505,0.465776 2.45291,0.203952 11.22412,-0.191547 13.7349,-0.253559 0.28113,-0.0083 0.56362,0.06064 0.8475,0.04134 1.58612,-0.104732 3.12677,-0.372071 4.61367,-0.253559 0.46302,0.03721 0.92742,0.23289 1.39733,0.253559 0.41617,0.01792 0.85576,-0.0041 1.27055,0 0.52779,0.0055 0.51952,-1.327051 0.93018,-1.56683 0.69866,-0.01792 0.58153,1.139638 1.18649,1.354613 1.75975,0.04685 3.91639,0.509874 5.672,0.296277 -0.21773,-1.683963 -0.21497,-3.852993 -0.0427,-5.587943 -0.2508,-0.78135 0.0744,-1.3491 -0.12677,-2.158009 -0.98806,0.264584 -1.84382,-0.121267 -2.66651,-0.254938 -0.24805,-0.03996 -0.853,0.07717 -0.93155,-0.169499 -0.17088,-0.536057 1.06109,-0.456128 1.56683,-0.464397 0.72898,-0.01379 1.644,0.0248 1.77767,-0.593937 -0.24392,-0.249424 -0.91227,-0.07579 -0.88884,-0.592553 0.0331,-0.0097 0.0482,-0.03447 0.0413,-0.08406 0.41479,-0.147451 0.9164,-0.104733 1.22783,-0.423058 0.0744,-0.126782 -0.0289,-0.376206 -0.0841,-0.508498 0.2136,-0.901238 -0.003,-1.752864 0.25356,-2.666502 -0.17914,-1.339455 0.0923,-67.58863891 0.0427,-68.92671405 -0.062,-1.69636505 -0.011,-3.47679035 -0.1695,-4.95404725 -0.0606,-0.5663735 -0.0882,-1.4042207 -0.21221,-2.0739474 -0.0524,-0.2907661 -0.22462,-0.6035809 -0.21084,-0.8461156 0.0207,-0.3720701 0.30041,-0.7276041 0.42305,-1.0583333 -0.22048,-0.4051434 -0.9095,-0.6587024 -1.18511,-1.1437714 0.22462,-0.235645 0.3955,-0.48507 0.6339,-0.719336 0.23289,-0.227376 0.6022,-0.4079 0.72071,-0.677995"
       id="path18700"
       style="stroke-width:0.352778" />
    <path
       fill-rule="evenodd"
       fill="#231f20"
       fill-opacity="1"
       d="m -157.70347,69.756593 c 0.0207,-0.141937 0.1254,-0.351398 0.0841,-0.423058 -0.28526,-0.03168 -0.46164,0.04685 -0.42306,0.338998 0.12403,0.08681 0.15985,0.136426 0.339,0.08406"
       id="path18666"
       style="stroke-width:0.352778" />
    <path
       fill-rule="evenodd"
       fill="#231f20"
       fill-opacity="1"
       d="m -155.50274,69.460316 c 0.0937,0.08957 0.0923,0.275608 0.339,0.212217 0.0207,-0.05099 0.0455,-0.09646 0.0854,-0.128157 -0.003,-0.234266 -0.3321,-0.263208 -0.42443,-0.08406"
       id="path18668"
       style="stroke-width:0.352778" />
    <path
       fill-rule="evenodd"
       fill="#231f20"
       fill-opacity="1"
       d="m -153.93592,70.179651 c -0.15985,-0.176389 -0.52916,-0.04961 -0.50849,0.212217 0.18603,0.21911 0.59393,0.09371 0.50849,-0.212217"
       id="path18670"
       style="stroke-width:0.352778" />
    <path
       fill-rule="evenodd"
       fill="#231f20"
       fill-opacity="1"
       d="m -154.82475,70.772208 c -0.0524,0.08957 -0.15985,0.124023 -0.1695,0.254935 0.19982,-0.01654 0.0799,0.285256 0.29628,0.253559 0.47405,-0.186034 -0.10197,-0.479555 0.0841,-0.972894 -0.11438,-0.09508 -0.339,-0.02755 -0.42306,0.04272 -10e-4,0.253559 0.051,0.281122 0.21222,0.421682"
       id="path18672"
       style="stroke-width:0.352778" />
    <path
       fill-rule="evenodd"
       fill="#231f20"
       fill-opacity="1"
       d="m -155.88308,70.475928 c 0.0551,0.15572 0.14056,0.283877 0.25356,0.381716 0.46853,-0.197058 0.091,-0.796505 -0.25356,-0.381716"
       id="path18674"
       style="stroke-width:0.352778" />
    <path
       fill-rule="evenodd"
       fill="#231f20"
       fill-opacity="1"
       d="m -156.00986,71.70376 c 0.0703,-0.111618 0.25631,-0.110243 0.21084,-0.338998 -0.10473,-0.03443 -0.226,-0.05512 -0.38034,-0.04134 -0.0827,0.150205 0,0.24391 0,0.423058 -0.0551,-0.05926 -0.18466,-0.04272 -0.29628,-0.04272 0.001,0.09922 -0.073,0.125402 -0.0427,0.254939 0.35553,0.05926 0.5085,0.103353 0.88884,0.16812 0.14331,-0.278363 -0.24116,-0.294901 -0.38034,-0.423059"
       id="path18676"
       style="stroke-width:0.352778" />
    <path
       fill-rule="evenodd"
       fill="#231f20"
       fill-opacity="1"
       d="m -161.30153,77.9697 c -0.32108,-0.242534 -0.4892,0.338999 -0.1695,0.380341 0.17639,-0.0055 0.17226,-0.194307 0.1695,-0.380341"
       id="path18680"
       style="stroke-width:0.352778" />
    <path
       fill-rule="evenodd"
       fill="#231f20"
       fill-opacity="1"
       d="m -162.95242,79.112094 c 0.15434,-0.02755 0.21084,-0.155717 0.29628,-0.253559 -0.30455,-0.418924 -0.7469,-0.05512 -0.29628,0.253559"
       id="path18682"
       style="stroke-width:0.352778" />
    <path
       fill-rule="evenodd"
       fill="#231f20"
       fill-opacity="1"
       d="m -161.42831,79.79009 c 0.19982,0.01655 0.35278,-0.01379 0.50712,-0.04272 -0.0152,-0.126778 -0.0675,-0.214972 -0.12678,-0.296277 -0.32246,-0.08131 -0.35829,0.121267 -0.38034,0.338998"
       id="path18688"
       style="stroke-width:0.352778" />
    <path
       fill-rule="evenodd"
       fill="#231f20"
       fill-opacity="1"
       d="m -161.9368,79.95821 c 0.13229,-0.0069 0.31005,0.02893 0.38033,-0.04134 v -0.169499 c -0.16536,-0.239776 -0.64216,-0.0937 -0.38033,0.210841"
       id="path18692"
       style="stroke-width:0.352778" />
    <path
       fill-rule="evenodd"
       fill="#231f20"
       fill-opacity="1"
       d="m -251.001,79.323357 c 0.12403,0.162609 0.37759,0.03447 0.54984,0 0.003,-0.450618 -0.5457,-0.383092 -0.54984,0"
       id="path18684"
       style="stroke-width:0.352778" />
    <path
       fill-rule="evenodd"
       fill="#231f20"
       fill-opacity="1"
       d="m -249.26605,79.576916 c 0.17088,0.129536 0.49058,0.181902 0.59394,-0.04272 -0.051,-0.249425 -0.60634,-0.318326 -0.59394,0.04272"
       id="path18686"
       style="stroke-width:0.352778" />
    <path
       fill-rule="evenodd"
       fill="#231f20"
       fill-opacity="1"
       d="m -251.97527,79.830475 c 0.073,0.133671 0.39963,0.191547 0.50849,0.04272 0,-0.446486 -0.4134,-0.343133 -0.50849,-0.04272"
       id="path18690"
       style="stroke-width:0.352778" />
    <path
       fill-rule="evenodd"
       fill="#231f20"
       fill-opacity="1"
       d="m -251.29728,80.169473 c 0.11989,0.07304 0.36794,0.139181 0.46578,0 0.0275,-0.15434 -0.0923,-0.162609 -0.0854,-0.296277 -0.22462,0.0014 -0.36793,0.08268 -0.38034,0.296277"
       id="path18694"
       style="stroke-width:0.352778" />
    <path
       fill-rule="evenodd"
       fill="#231f20"
       fill-opacity="1"
       d="m -252.22883,80.592531 c -0.0868,-0.02618 -0.0124,-0.213596 -0.1695,-0.169499 -0.15021,0.07717 -0.33762,0.114378 -0.29628,0.381716 0.39412,0.08682 0.71796,0.08544 1.10106,-0.08544 0.0634,-0.144695 0.0978,-0.267342 0,-0.38034 -0.33073,-0.03447 -0.39688,0.195682 -0.63528,0.253559"
       id="path18696"
       style="stroke-width:0.352778" />
  </g>
</svg>
