<?xml version="1.0" encoding="UTF-8" standalone="no"?>
<!-- Created with Inkscape (http://www.inkscape.org/) -->

<svg
   width="65.573738mm"
   height="66.260353mm"
   viewBox="0 0 65.573738 66.260353"
   version="1.1"
   id="svg24493"
   xmlns="http://www.w3.org/2000/svg"
   xmlns:svg="http://www.w3.org/2000/svg">
  <defs
     id="defs24490" />
  <g
     id="layer1"
     transform="rotate(-90,-116.79994,-159.65461)">
    <path
       fill-rule="evenodd"
       fill="#231f20"
       fill-opacity="1"
       d="m -341.80955,20.791317 c 0.18604,-0.281121 1.11346,-0.209461 0.82683,-0.677996 -0.339,0.132292 -0.47818,0.333484 -0.79789,0.323839 -0.022,-0.549836 0.97014,-0.395495 1.12173,-0.884699 -0.39274,-0.16123 -0.76068,0.323839 -1.15067,0.384471 -0.23013,-1.375283 0.14057,-4.959558 -0.0882,-6.267316 0.16123,-0.683507 -0.36242,-0.978408 0.0593,-1.544782 0.14331,-0.192923 0.44235,-0.125402 0.5016,-0.383095 0.0344,-0.148827 -0.14056,-0.42719 -0.2067,-0.530543 0.22324,-0.292146 -0.0345,-0.653193 -0.0882,-1.003212 0.21222,-0.01379 0.34038,0.02342 0.56086,-0.05926 -0.0455,-0.7427627 -0.83509,-1.1699554 -0.94533,-1.9154736 -0.022,-0.1612301 0.0138,-0.327974 0,-0.4726658 -0.0524,-0.6008264 -0.27836,-46.4646916 0.0882,-47.0062616 0.13367,-1.12999 -0.27009,-2.462555 0.0593,-3.569117 0.68902,0.111619 1.10381,-0.188792 1.65227,0.05925 0.0372,-0.0069 0.0303,-0.05788 0,-0.05925 1.29949,0.05925 2.20486,-0.09784 3.47954,-0.08819 0.19569,0.267338 0.26459,0.660079 0.53055,0.855761 0.1943,-0.02205 0.21359,-0.374826 0.32522,-0.383095 0.28938,0.534677 0.31419,1.336696 0.73587,1.740461 0.47542,-0.242535 0.12678,-1.309134 0.47267,-1.681205 -0.0179,-0.140561 -0.0289,-0.210841 0.0289,-0.325219 0.95912,-0.144692 3.95222,-0.03996 5.12768,-0.08819 0.67524,-0.02755 1.31052,0.143316 1.97473,0.177768 0.81167,0.04134 40.12434,-0.04823 40.9236,-0.0303 0.42719,0.0097 0.89573,0.08682 1.2678,0.08819 0.41203,0.0014 0.85025,0.104732 1.23885,0.08957 0.17639,-0.0083 0.33487,-0.08406 0.50161,-0.08957 0.62701,-0.01792 1.27606,0.0689 1.88791,0.08957 0.77446,0.0248 1.58612,0.0441 2.38814,0.117133 0.69729,0.06339 1.38493,-0.0028 2.03398,0.05926 -0.0124,0.0565 0.0207,0.106109 0.0303,0.05926 0.0868,0.223242 -0.0248,0.418924 -0.0593,0.647676 -0.15985,1.045933 -0.0262,2.330263 0.0882,3.538802 -0.01,0.0689 -0.0358,45.4477001 -0.0593,45.5028217 0.14194,1.2622812 0.11438,2.5796873 0,3.8626413 -0.20119,0.173634 -0.44924,0.297656 -0.5898,0.530543 0.0675,0.228755 0.31833,0.272852 0.50161,0.384474 -0.35002,0.194303 -1.46348,1.190625 -0.26459,1.208539 -0.0234,0.192924 -0.18052,-0.417544 -0.17776,-0.253559 0.003,0.237021 0.29765,0.355533 0.47128,0.47129 -0.1061,0.372068 0.0441,0.745519 0.0896,1.150663 0.051,0.464396 -0.0345,3.429934 0.0289,3.847482 0.0413,0.271473 -0.006,0.615982 0,0.943956 0.01,0.540191 0.0524,1.106565 0,1.621949 -0.0441,0.436837 -0.29904,0.808908 -0.17639,1.327051 -0.42582,0.01101 -0.92604,0.0055 -1.38631,-0.08819 -0.21911,-0.443727 -0.36931,-1.051443 -0.62012,-1.562696 -0.14193,-0.294897 -0.2756,-0.733114 -0.67799,-0.677993 0.0207,0.507118 0.13091,0.996322 0.23702,1.50344 -0.13229,-0.05512 -0.2949,-0.07992 -0.38447,-0.177768 -0.11162,0.05512 -0.24391,0.09095 -0.2949,0.206707 0.0331,0.296277 0.2632,0.584288 0,0.767566 -0.75654,-0.141936 -1.50895,-0.06752 -2.26963,-0.05926 -1.11897,0.01101 -2.25861,-0.04961 -3.36241,-0.02893 -0.6904,0.01242 -1.41525,0.02618 -2.12218,0.02893 -0.46991,0.0014 -39.40914,-0.146071 -39.86251,-0.118512 -0.34313,0.02067 -0.63528,0.104733 -0.9729,0.08957 -1.10794,-0.0565 -3.99631,-0.208082 -4.98023,-0.237021 -0.35415,-0.0097 -0.71933,0.02755 -1.03215,0.08819 -0.23151,0.04547 -0.50987,-0.01792 -0.82544,-0.02893 -0.25356,-0.0096 -0.51126,0.05099 -0.76619,0.05926 -0.2949,0.0097 -0.58153,-0.04685 -0.85576,-0.05926 -0.38723,-0.01655 -0.7593,0.04823 -1.09141,0.02893 -0.28663,-0.01517 -0.54984,-0.07028 -0.82407,-0.02893 -0.14331,0.02067 -0.25218,0.07304 -0.38309,0.08819 -0.2949,0.03447 -0.59669,0.0096 -0.88608,0.118513 -0.39963,-0.191548 -0.52917,0.06752 -0.91364,0.08819 -0.14883,-0.541567 -0.15709,-1.168576 -0.11851,-1.769399 m 2.24207,1.798337 c 0.3762,-0.08819 0.54019,-0.03996 1.00183,-0.02893 0.26734,0.0055 0.55673,-0.07855 0.76619,-0.05926 0.57189,0.05512 1.19201,0.04548 1.82866,0.0303 0.55948,-0.01379 1.13688,-0.03447 1.68121,-0.0303 0.12677,0.0014 0.25631,-0.04547 0.38309,-0.02893 0.0882,0.01101 0.17501,0.07992 0.26458,0.08819 0.24254,0.02067 0.50436,-0.09646 0.73725,-0.08819 0.3831,0.01242 0.77446,0.118512 1.15067,0.14745 0.42856,0.03168 2.6348,0.09646 3.06337,0.05926 0.67386,-0.06064 39.8005,-0.02755 40.51157,-0.0303 0.51401,-0.0014 1.04317,0.02067 1.50344,0.08819 1.16444,-0.111619 2.36885,-0.07442 3.42029,-0.08819 0.37483,-0.0041 0.75792,0.06201 1.14928,0.05926 0.10336,-0.0014 0.22325,-0.05788 0.32522,-0.05926 0.5209,-0.0014 1.05971,0.325218 1.62057,0.08819 0.15021,-0.224621 0.1006,-0.571884 0.0303,-0.737249 0.20257,0.140561 0.39274,0.686262 0.61873,0.620116 0.23703,-0.07028 0.16261,-0.502983 0.0593,-0.796505 -0.0951,-0.271473 -0.2949,-0.533301 -0.26458,-0.796505 0.34864,0.533298 0.51952,1.364255 0.70693,1.887911 0.55397,-0.213596 1.40973,-0.155719 1.82866,0.147451 0.0717,-0.08544 0.1502,-0.163989 0.23564,-0.235645 -0.008,-0.188793 -0.16674,-0.377582 -0.17639,-0.589802 -0.011,-0.225997 0.14332,-0.544326 0.17639,-0.825444 0.10887,-0.938445 -0.0331,-2.211751 -0.0289,-3.214962 10e-4,-0.465776 -0.0744,-3.483681 0.0882,-3.73035 -0.16537,-0.325219 0.0937,-1.077627 -0.2949,-1.179601 -0.0358,0.0303 -0.29904,0.08544 -0.35416,-0.08819 0.0579,-0.276987 0.43546,0.403765 0.47267,0.106108 -0.18466,-0.274228 -0.57189,-0.0096 -0.7965,-0.235645 0.17087,-0.478179 0.84749,-0.449241 1.06108,-0.884699 -0.11024,-0.223242 -0.48782,-0.180524 -0.61874,-0.383096 0.50437,-0.180523 0.48507,-0.508494 0.53055,-1.120344 0.0537,-0.7427634 0.0221,-1.6371079 -0.0303,-2.2117512 -0.0827,-0.9260416 -0.0441,-47.1950508 -0.0882,-48.0976648 -0.0372,-0.792374 -0.13505,-1.394576 0,-2.094618 0.0606,-0.315574 0.20808,-0.595312 0.11851,-0.913641 -0.19016,-0.188789 -0.37896,0 -0.56086,0.0303 -0.18741,0.0303 -0.34037,-0.0689 -0.53054,-0.06063 -0.0758,0.0041 -0.1571,0.07993 -0.23565,0.08957 -0.38447,0.04685 -0.82131,0.0096 -1.23885,-0.02893 -0.42168,-0.04134 -0.76206,-0.07579 -1.17961,-0.08957 -0.28387,-0.0083 -0.56912,-0.08544 -0.82544,-0.08819 -0.39687,-0.0041 -0.77859,0.07855 -1.14929,0.05926 -0.54156,-0.02755 -1.05281,-0.02067 -1.59301,0 -0.65456,0.02342 -1.33256,-0.10473 -2.00504,-0.147451 -0.91364,-0.05788 -40.36136,0.04686 -41.27913,0.02893 -0.59394,-0.01101 -1.16996,-0.191544 -1.73771,-0.176389 -0.10335,0.0028 -0.19706,0.03306 -0.2949,0.02893 -1.18787,-0.04134 -4.04316,-0.05512 -5.21588,0 -0.0758,0.112998 -0.16123,0.03583 -0.26458,0.118508 -0.0634,0.436838 -0.0372,1.061092 -0.17776,1.562697 -0.0661,-0.150206 -0.1199,-0.312816 -0.14745,-0.501605 -0.33073,-0.21911 -0.1571,-1.282954 -0.47129,-1.327051 -0.38034,-0.05099 -0.30042,0.435459 -0.44236,0.679373 -0.10197,-0.202572 -0.1502,-0.460266 -0.2067,-0.708311 -1.56407,-0.0055 -2.54524,0.195679 -3.97977,0.05925 -0.0799,0 -0.0661,-0.0937 -0.14883,-0.08957 -0.30455,0.126778 -1.06385,0.183279 -1.62196,0.118512 -0.0152,0.327971 -0.062,0.632517 -0.0882,0.855762 -0.11024,0.913638 0.28526,1.971971 0.0882,2.918682 -0.0441,0.213596 -0.16123,0.414792 -0.17638,0.649058 -0.0152,0.223241 0.0413,0.4768 0.0579,0.737249 0.0331,0.511253 -0.008,46.3034617 0.17776,46.711361 0.27285,0.3362396 0.57051,0.6476788 0.70694,1.1203446 -0.21085,-0.017921 -0.41479,-0.1557196 -0.64768,-0.057877 0.008,0.066146 -0.007,0.110243 -0.0593,0.1171328 0.073,0.3100566 0.32797,0.4395936 0.35278,0.7965056 -0.0303,0.06752 -0.19706,-0.0014 -0.17639,0.117133 0.04,0.323839 0.29628,0.432703 0.32522,0.767566 -0.35691,0.135051 -0.54846,0.356913 -0.5898,0.766191 -0.0813,0.789616 0.1819,1.313269 0.0579,2.164899 0.10197,0.65181 -0.051,3.686252 -0.0579,4.318769 -0.007,0.683507 0.24805,1.446943 0.0289,1.918229 0.0289,0.03859 0.0799,0.05788 0.0882,0.117136 -0.14194,0.436838 0.0372,1.101051 -0.0289,1.621949 0.12403,0.124023 0.15021,0.354157 0.3831,0.383095 0.17225,0.02205 0.38171,-0.180523 0.59117,-0.235644 0.29628,-0.07993 1.08728,0.0014 1.59164,-0.118513"
       id="path18734"
       style="stroke-width:0.352778" />
    <path
       fill-rule="evenodd"
       fill="#f9e3b3"
       fill-opacity="1"
       d="m -340.06908,20.142259 c -0.0386,-0.195678 0.0841,-0.228751 0.17776,-0.293521 0.14883,-0.0028 0.19293,0.100598 0.17639,0.264583 -0.113,0.08268 -0.24391,0.172254 -0.35415,0.02893 m 0.23564,-1.50344 c 0.12816,-0.06201 0.28801,0 0.35416,0.08819 -0.0358,0.170879 -0.23565,0.176389 -0.3831,0.235645 -0.004,-0.119888 -0.007,-0.241155 0.0289,-0.323839 m -1.71014,-3.493326 c 0.0551,-0.03583 0.10059,-0.07855 0.14745,-0.118512 0.25769,0.03996 0.24391,0.363802 -0.0303,0.383096 -0.0744,-0.05237 -0.1378,-0.115754 -0.11713,-0.264584 m 0.76619,7.327029 c 0.28939,-0.108864 0.59118,-0.08406 0.88608,-0.118512 0.13091,-0.01517 0.23978,-0.06752 0.38309,-0.08819 0.27423,-0.04134 0.53744,0.01379 0.82545,0.02893 0.32935,0.0193 0.70418,-0.04548 1.0914,-0.02893 0.27286,0.01242 0.55949,0.06891 0.85439,0.05926 0.25356,-0.0083 0.51263,-0.0689 0.76619,-0.05926 0.31557,0.01101 0.59393,0.07441 0.82544,0.02893 0.31419,-0.06064 0.67938,-0.09784 1.03353,-0.0882 0.98254,0.02893 3.87091,0.18052 4.97747,0.237021 0.339,0.01517 0.62977,-0.0689 0.97428,-0.08957 0.45199,-0.02755 39.3926,0.119892 39.86251,0.118513 0.70693,-0.0028 1.43178,-0.01655 2.12355,-0.02893 1.10381,-0.02067 2.24207,0.03996 3.36104,0.02893 0.7593,-0.0083 1.51309,-0.08268 2.27101,0.05926 0.26182,-0.183279 0.0317,-0.47129 0,-0.767567 0.0496,-0.115757 0.1819,-0.151585 0.29352,-0.206707 0.0896,0.09784 0.25218,0.122647 0.38447,0.177768 -0.10611,-0.507118 -0.21635,-0.996322 -0.23702,-1.50344 0.40238,-0.05512 0.53606,0.383096 0.67799,0.677993 0.25081,0.511253 0.40101,1.118969 0.62012,1.562697 0.46026,0.09508 0.96049,0.09922 1.38631,0.08819 -0.12265,-0.518142 0.13229,-0.888834 0.17638,-1.327051 0.0524,-0.515384 0.01,-1.081758 0,-1.621949 -0.007,-0.327974 0.0413,-0.672483 0,-0.943956 -0.0634,-0.417547 0.022,-3.383085 -0.0289,-3.847482 -0.0455,-0.405144 -0.19569,-0.778595 -0.0896,-1.150662 -0.17363,-0.115757 -0.46853,-0.23427 -0.47128,-0.47129 -0.003,-0.163986 0.15434,0.447862 0.17776,0.253559 -1.19889,-0.01792 -0.0854,-1.014236 0.26458,-1.208539 -0.18327,-0.111623 -0.43408,-0.15572 -0.5016,-0.384475 0.14056,-0.232886 0.38861,-0.356909 0.5898,-0.530543 0.11438,-1.284333 0.14194,-2.6003599 0,-3.8626411 0.0234,-0.055122 0.0496,-45.4339179 0.0593,-45.5028219 -0.11438,-1.208539 -0.24805,-2.492869 -0.0882,-3.538802 0.0345,-0.228752 0.14607,-0.424434 0.0593,-0.647675 -0.01,0.04685 -0.0427,-0.0028 -0.0303,-0.05926 -0.64905,-0.06064 -1.33669,0.0041 -2.03398,-0.05926 -0.80202,-0.07304 -1.61368,-0.09233 -2.38814,-0.117132 -0.61185,-0.02067 -1.2609,-0.107488 -1.88791,-0.08957 -0.16674,0.0055 -0.32522,0.08131 -0.50161,0.08957 -0.3886,0.01517 -0.82682,-0.0882 -1.23748,-0.08957 -0.37345,0 -0.84198,-0.07855 -1.26917,-0.08819 -0.80064,-0.01792 -40.11193,0.07166 -40.9236,0.0303 -0.66421,-0.03447 -1.30087,-0.205327 -1.97611,-0.177768 -1.17408,0.04823 -4.16718,-0.0565 -5.1263,0.08819 -0.0579,0.114378 -0.0482,0.184658 -0.0289,0.325219 -0.34588,0.372071 0.004,1.43867 -0.47266,1.681205 -0.42168,-0.403765 -0.44649,-1.205784 -0.73725,-1.740461 -0.11025,0.0083 -0.13092,0.361047 -0.32384,0.383095 -0.26596,-0.195682 -0.33624,-0.588422 -0.53055,-0.854385 -1.27606,-0.01101 -2.17867,0.146071 -3.47954,0.08819 0.0289,0 0.0372,0.05099 0,0.05788 -0.54846,-0.248045 -0.96188,0.05237 -1.65227,-0.05788 -0.32797,1.105186 0.0744,2.437751 -0.0593,3.567741 -0.36656,0.54157 -0.14194,46.4054354 -0.0882,47.0062618 0.0138,0.1446918 -0.0234,0.3114357 0,0.4726658 0.11024,0.7455182 0.89986,1.1727109 0.94396,1.9154734 -0.22049,0.08268 -0.34727,0.04547 -0.55949,0.05926 0.0551,0.351398 0.31144,0.711066 0.0882,1.003211 0.0661,0.103354 0.24115,0.381716 0.2067,0.530543 -0.0593,0.257693 -0.35691,0.190172 -0.5016,0.383095 -0.42168,0.564995 0.10197,0.861276 -0.0593,1.544782 0.22875,1.307758 -0.14194,4.892033 0.0882,6.267316 0.39137,-0.06063 0.7593,-0.545701 1.15067,-0.384471 -0.15159,0.489204 -1.14378,0.333484 -1.12173,0.8847 0.32109,0.0096 0.45751,-0.191548 0.79651,-0.32384 0.28801,0.468535 -0.63941,0.396875 -0.82545,0.677997 -0.0386,0.600823 -0.0303,1.227832 0.11852,1.769399 0.38309,-0.02067 0.514,-0.279742 0.91363,-0.08819"
       id="path18736"
       style="stroke-width:0.352778" />
  </g>
</svg>
